# Blender 4.5.1 LTS
# www.blender.org
mtllib Tworus.mtl
o TwistedTorus
v 1.130000 0.000000 0.000000
v 1.112583 0.065000 0.000000
v 1.065000 0.112583 0.000000
v 1.000000 0.130000 0.000000
v 0.935000 0.112583 0.000000
v 0.887417 0.065000 0.000000
v 0.870000 0.000000 0.000000
v 0.887417 -0.065000 0.000000
v 0.935000 -0.112583 0.000000
v 1.000000 -0.130000 0.000000
v 1.065000 -0.112583 0.000000
v 1.112583 -0.065000 0.000000
v 0.904157 0.093139 -0.096654
v 0.869932 0.035315 -0.092995
v 0.869042 -0.031972 -0.092900
v 0.901723 -0.090692 -0.096393
v 0.959220 -0.125111 -0.102540
v 1.026126 -0.126007 -0.109692
v 1.084513 -0.093139 -0.115933
v 1.118738 -0.035315 -0.119592
v 1.119628 0.031972 -0.119687
v 1.086947 0.090692 -0.116194
v 1.029450 0.125111 -0.110047
v 0.962544 0.126007 -0.102895
v 0.974021 -0.129954 -0.210651
v 1.037983 -0.114274 -0.224484
v 1.085712 -0.067974 -0.234807
v 1.104421 -0.003461 -0.238853
v 1.089095 0.061980 -0.235538
v 1.043841 0.110813 -0.225751
v 0.980786 0.129954 -0.212114
v 0.916824 0.114274 -0.198281
v 0.869094 0.067974 -0.187959
v 0.850386 0.003461 -0.183913
v 0.865712 -0.061980 -0.187227
v 0.910966 -0.110813 -0.197014
v 1.040085 0.088181 -0.344077
v 0.986076 0.124127 -0.326210
v 0.922239 0.126814 -0.305092
v 0.865679 0.095521 -0.286381
v 0.831552 0.038633 -0.275091
v 0.829001 -0.028606 -0.274247
v 0.858710 -0.088181 -0.284076
v 0.912719 -0.124127 -0.301943
v 0.976556 -0.126814 -0.323061
v 1.033116 -0.095521 -0.341772
v 1.067243 -0.038633 -0.353062
v 1.069794 0.028606 -0.353906
v 0.792420 0.006919 -0.359571
v 0.805108 -0.058916 -0.365328
v 0.846071 -0.108964 -0.383916
v 0.904334 -0.129816 -0.410353
v 0.964286 -0.115883 -0.437557
v 1.009861 -0.070900 -0.458238
v 1.028849 -0.006919 -0.466854
v 1.016162 0.058916 -0.461097
v 0.975199 0.108964 -0.442509
v 0.916935 0.129816 -0.416071
v 0.856984 0.115883 -0.388867
v 0.811408 0.070900 -0.368187
v 0.935309 -0.097834 -0.551125
v 0.967572 -0.041924 -0.570136
v 0.971428 0.025220 -0.572408
v 0.945844 0.085606 -0.557333
v 0.897674 0.123054 -0.528949
v 0.839826 0.127530 -0.494862
v 0.787800 0.097834 -0.464206
v 0.755536 0.041924 -0.445195
v 0.751680 -0.025220 -0.442923
v 0.777265 -0.085606 -0.457999
v 0.825435 -0.123054 -0.486383
v 0.883283 -0.127530 -0.520469
v 0.811038 0.129586 -0.602553
v 0.757912 0.117410 -0.563084
v 0.716791 0.073775 -0.532533
v 0.698692 0.010372 -0.519087
v 0.708465 -0.055810 -0.526348
v 0.743491 -0.107038 -0.552370
v 0.794386 -0.129586 -0.590182
v 0.847511 -0.117410 -0.629651
v 0.888633 -0.073775 -0.660202
v 0.906731 -0.010372 -0.673648
v 0.896958 0.055810 -0.666387
v 0.861932 0.107038 -0.640365
v 0.661239 -0.082972 -0.610427
v 0.701574 -0.121895 -0.647663
v 0.750804 -0.128156 -0.693110
v 0.795740 -0.100078 -0.734592
v 0.824339 -0.045185 -0.760995
v 0.828940 0.021816 -0.765242
v 0.808309 0.082972 -0.746196
v 0.767975 0.121895 -0.708961
v 0.718744 0.128156 -0.663513
v 0.673809 0.100078 -0.622031
v 0.645209 0.045185 -0.595629
v 0.640608 -0.021816 -0.591382
v 0.743633 -0.013818 -0.849851
v 0.736778 0.052665 -0.842017
v 0.708952 0.105036 -0.810217
v 0.667611 0.129264 -0.762970
v 0.623831 0.118855 -0.712937
v 0.589344 0.076599 -0.673523
v 0.573390 0.013818 -0.655291
v 0.580244 -0.052665 -0.663124
v 0.608070 -0.105036 -0.694925
v 0.649412 -0.129264 -0.742172
v 0.693192 -0.118855 -0.792205
v 0.727679 -0.076599 -0.831618
v 0.528644 0.102252 -0.752611
v 0.505440 0.048413 -0.719575
v 0.500817 -0.018397 -0.712994
v 0.516014 -0.080278 -0.734630
v 0.546960 -0.120649 -0.778686
v 0.585362 -0.128692 -0.833357
v 0.620930 -0.102252 -0.883995
v 0.644135 -0.048413 -0.917030
v 0.648758 0.018397 -0.923612
v 0.633560 0.080278 -0.901976
v 0.602615 0.120649 -0.857920
v 0.564213 0.128692 -0.803248
v 0.476191 -0.128850 -0.859670
v 0.508528 -0.120214 -0.918048
v 0.534441 -0.079368 -0.964829
v 0.546986 -0.017254 -0.987476
v 0.542801 0.049482 -0.979922
v 0.523009 0.102960 -0.944191
v 0.492912 0.128850 -0.889856
v 0.460574 0.120214 -0.831478
v 0.434662 0.079368 -0.784697
v 0.422117 0.017254 -0.762050
v 0.426301 -0.049482 -0.769604
v 0.446093 -0.102960 -0.805335
v 0.429399 0.077528 -1.017453
v 0.408891 0.119317 -0.968859
v 0.383006 0.129136 -0.907525
v 0.358680 0.104353 -0.849885
v 0.342431 0.051608 -0.811384
v 0.338613 -0.014965 -0.802338
v 0.348249 -0.077528 -0.825171
v 0.368758 -0.119317 -0.873765
v 0.394643 -0.129136 -0.935099
v 0.418969 -0.104353 -0.992739
v 0.435218 -0.051608 -1.031240
v 0.439035 0.014965 -1.040286
v 0.251640 0.020678 -0.834542
v 0.253619 -0.046265 -0.841106
v 0.264996 -0.100811 -0.878837
v 0.282722 -0.128345 -0.937624
v 0.302048 -0.121489 -1.001717
v 0.317795 -0.082080 -1.053941
v 0.325744 -0.020678 -1.080302
v 0.323765 0.046265 -1.073738
v 0.312388 0.100811 -1.036008
v 0.294661 0.128345 -0.977220
v 0.275335 0.121489 -0.913127
v 0.259588 0.082080 -0.860904
v 0.199134 -0.106379 -1.056113
v 0.207135 -0.054766 -1.098544
v 0.209282 0.011522 -1.109930
v 0.205000 0.074722 -1.087221
v 0.195436 0.117901 -1.036502
v 0.183154 0.129488 -0.971362
v 0.171444 0.106379 -0.909256
v 0.163443 0.054766 -0.866825
v 0.161296 -0.011522 -0.855438
v 0.165578 -0.074722 -0.878147
v 0.175141 -0.117901 -0.928866
v 0.187424 -0.129488 -0.994006
v 0.081708 0.127749 -1.020823
v 0.076354 0.122678 -0.953935
v 0.071920 0.084735 -0.898536
v 0.069594 0.024088 -0.869470
v 0.069998 -0.043014 -0.874526
v 0.073026 -0.098590 -0.912347
v 0.077864 -0.127749 -0.972801
v 0.083218 -0.122678 -1.039689
v 0.087652 -0.084735 -1.095088
v 0.089979 -0.024088 -1.124154
v 0.089574 0.043014 -1.119098
v 0.086547 0.098590 -1.081277
v -0.023737 -0.071864 -0.891353
v -0.025080 -0.116401 -0.941781
v -0.026835 -0.129749 -1.007713
v -0.028534 -0.108331 -1.071484
v -0.029719 -0.057885 -1.116006
v -0.030074 0.008071 -1.129349
v -0.029504 0.071864 -1.107938
v -0.028161 0.116401 -1.057510
v -0.026406 0.129749 -0.991578
v -0.024707 0.108331 -0.927807
v -0.023522 0.057885 -0.883285
v -0.023166 -0.008071 -0.869942
v -0.149590 -0.027480 -1.117091
v -0.149154 0.039733 -1.113837
v -0.144317 0.096299 -1.077710
v -0.136373 0.127062 -1.018389
v -0.127452 0.123779 -0.951771
v -0.119944 0.087329 -0.895705
v -0.115861 0.027480 -0.865215
v -0.116297 -0.039733 -0.868469
v -0.121135 -0.096299 -0.904596
v -0.129079 -0.127062 -0.963916
v -0.137999 -0.123779 -1.030534
v -0.145507 -0.087329 -1.086600
v -0.220962 0.110205 -0.904445
v -0.210077 0.060963 -0.859891
v -0.206494 -0.004614 -0.845224
v -0.211172 -0.068955 -0.864373
v -0.222858 -0.114819 -0.912208
v -0.238422 -0.129918 -0.975912
v -0.253691 -0.110205 -1.038414
v -0.264576 -0.060963 -1.082969
v -0.268160 0.004614 -1.097636
v -0.263481 0.068955 -1.078487
v -0.251795 0.114819 -1.030652
v -0.236232 0.129918 -0.966948
v -0.328772 -0.126286 -0.911677
v -0.351595 -0.124793 -0.974964
v -0.371107 -0.089862 -1.029070
v -0.382080 -0.030852 -1.059497
v -0.381573 0.036424 -1.058093
v -0.369723 0.093941 -1.025234
v -0.349705 0.126286 -0.969723
v -0.326882 0.124793 -0.906436
v -0.307370 0.089862 -0.852330
v -0.296398 0.030852 -0.821903
v -0.296904 -0.036424 -0.823308
v -0.308754 -0.093941 -0.856167
v -0.486287 0.065997 -1.000037
v -0.465294 0.113156 -0.956867
v -0.436803 0.129995 -0.898275
v -0.408447 0.112002 -0.839961
v -0.387824 0.063998 -0.797550
v -0.380460 -0.001154 -0.782406
v -0.388328 -0.065997 -0.798587
v -0.409320 -0.113156 -0.841758
v -0.437812 -0.129995 -0.900350
v -0.466168 -0.112002 -0.958664
v -0.486791 -0.063998 -1.001074
v -0.494155 0.001154 -1.016218
v -0.463896 0.034203 -0.741412
v -0.463737 -0.033089 -0.741158
v -0.481447 -0.091515 -0.769462
v -0.512279 -0.125420 -0.818739
v -0.547972 -0.125718 -0.875785
v -0.578963 -0.092331 -0.925315
v -0.596946 -0.034203 -0.954057
v -0.597105 0.033089 -0.954310
v -0.579395 0.091515 -0.926006
v -0.548563 0.125420 -0.876730
v -0.512870 0.125718 -0.819684
v -0.481880 0.092331 -0.770154
v -0.656424 -0.113719 -0.836098
v -0.686324 -0.066988 -0.874183
v -0.697790 -0.002307 -0.888787
v -0.687749 0.062992 -0.875998
v -0.658891 0.111412 -0.839241
v -0.618949 0.129980 -0.788366
v -0.578626 0.113719 -0.737005
v -0.548725 0.066988 -0.698920
v -0.537259 0.002307 -0.684316
v -0.547300 -0.062992 -0.697106
v -0.576158 -0.111412 -0.733862
v -0.616100 -0.129980 -0.784737
v -0.723813 0.124465 -0.743345
v -0.676890 0.126555 -0.695156
v -0.635525 0.094734 -0.652674
v -0.610801 0.037530 -0.627283
v -0.609343 -0.029731 -0.625786
v -0.631542 -0.089025 -0.648584
v -0.671449 -0.124465 -0.689568
v -0.718372 -0.126555 -0.737758
v -0.759738 -0.094734 -0.780239
v -0.784462 -0.037530 -0.805631
v -0.785920 0.029731 -0.807128
v -0.763721 0.089025 -0.784330
v -0.681029 -0.059942 -0.564619
v -0.715999 -0.109589 -0.593612
v -0.765395 -0.129872 -0.634564
v -0.815979 -0.115356 -0.676502
v -0.854199 -0.069930 -0.708189
v -0.869814 -0.005767 -0.721134
v -0.858639 0.059942 -0.711869
v -0.823668 0.109589 -0.682877
v -0.774273 0.129872 -0.641925
v -0.723689 0.115356 -0.599987
v -0.685468 0.069930 -0.568300
v -0.669854 0.005767 -0.555354
v -0.936163 -0.040830 -0.621027
v -0.939396 0.026351 -0.623172
v -0.914204 0.086471 -0.606461
v -0.867338 0.123422 -0.575371
v -0.811355 0.127301 -0.538233
v -0.761256 0.097071 -0.504999
v -0.730465 0.040830 -0.484572
v -0.727232 -0.026351 -0.482428
v -0.752424 -0.086471 -0.499139
v -0.799290 -0.123422 -0.530229
v -0.855273 -0.127301 -0.567367
v -0.905372 -0.097071 -0.600601
v -0.836906 0.116911 -0.434879
v -0.791794 0.072823 -0.411438
v -0.772287 0.009222 -0.401302
v -0.783611 -0.056850 -0.407186
v -0.822733 -0.107689 -0.427515
v -0.879169 -0.129672 -0.456840
v -0.937798 -0.116911 -0.487306
v -0.982910 -0.072823 -0.510747
v -1.002417 -0.009222 -0.520884
v -0.991093 0.056850 -0.514999
v -0.951971 0.107689 -0.494670
v -0.895535 0.129672 -0.465345
v -0.890263 -0.122291 -0.348101
v -0.952713 -0.127958 -0.372519
v -1.009435 -0.099338 -0.394698
v -1.045230 -0.044101 -0.408694
v -1.050508 0.022953 -0.410758
v -1.023853 0.083857 -0.400336
v -0.972409 0.122291 -0.380221
v -0.909959 0.127958 -0.355802
v -0.853237 0.099338 -0.333623
v -0.817442 0.044101 -0.319627
v -0.812164 -0.022953 -0.317564
v -0.838819 -0.083857 -0.327986
v -1.078980 0.053718 -0.294249
v -1.037766 0.105712 -0.283010
v -0.976992 0.129381 -0.266436
v -0.912943 0.118383 -0.248969
v -0.862780 0.075663 -0.235289
v -0.839945 0.012670 -0.229062
v -0.850556 -0.053718 -0.231956
v -0.891770 -0.105712 -0.243195
v -0.952544 -0.129381 -0.259769
v -1.016593 -0.118383 -0.277236
v -1.066755 -0.075663 -0.290916
v -1.089591 -0.012670 -0.297143
v -0.867736 0.047341 -0.139805
v -0.860381 -0.019538 -0.138620
v -0.887026 -0.081182 -0.142913
v -0.940530 -0.121074 -0.151533
v -1.006558 -0.128523 -0.162171
v -1.067417 -0.101535 -0.171976
v -1.106801 -0.047341 -0.178322
v -1.114155 0.019538 -0.179507
v -1.087511 0.081182 -0.175214
v -1.034006 0.121074 -0.166593
v -0.967979 0.128523 -0.155955
v -0.907119 0.101535 -0.146150
v -1.049058 -0.119771 -0.055912
v -1.102096 -0.078451 -0.058739
v -1.127398 -0.016110 -0.060088
v -1.118183 0.050547 -0.059597
v -1.076922 0.103660 -0.057398
v -1.014670 0.128998 -0.054080
v -0.948107 0.119771 -0.050532
v -0.895069 0.078451 -0.047705
v -0.869768 0.016110 -0.046357
v -0.878982 -0.050547 -0.046848
v -0.920243 -0.103660 -0.049047
v -0.982495 -0.128998 -0.052365
v -1.049058 0.119771 0.055912
v -0.982495 0.128998 0.052364
v -0.920243 0.103660 0.049046
v -0.878982 0.050547 0.046847
v -0.869768 -0.016110 0.046356
v -0.895069 -0.078451 0.047705
v -0.948107 -0.119771 0.050532
v -1.014670 -0.128998 0.054079
v -1.076922 -0.103660 0.057397
v -1.118183 -0.050547 0.059596
v -1.127398 0.016110 0.060087
v -1.102096 0.078451 0.058739
v -0.867736 -0.047341 0.139805
v -0.907119 -0.101535 0.146150
v -0.967979 -0.128523 0.155955
v -1.034006 -0.121074 0.166593
v -1.087511 -0.081182 0.175214
v -1.114155 -0.019538 0.179507
v -1.106801 0.047341 0.178322
v -1.067417 0.101535 0.171976
v -1.006558 0.128523 0.162171
v -0.940530 0.121074 0.151533
v -0.887026 0.081182 0.142913
v -0.860381 0.019538 0.138620
v -1.078980 -0.053718 0.294249
v -1.089591 0.012670 0.297143
v -1.066755 0.075663 0.290916
v -1.016593 0.118383 0.277236
v -0.952544 0.129381 0.259769
v -0.891770 0.105712 0.243195
v -0.850556 0.053718 0.231956
v -0.839945 -0.012670 0.229062
v -0.862780 -0.075663 0.235289
v -0.912943 -0.118383 0.248969
v -0.976992 -0.129381 0.266436
v -1.037766 -0.105712 0.283010
v -0.890263 0.122291 0.348101
v -0.838819 0.083857 0.327985
v -0.812165 0.022953 0.317563
v -0.817442 -0.044101 0.319627
v -0.853238 -0.099338 0.333623
v -0.909959 -0.127958 0.355802
v -0.972409 -0.122291 0.380220
v -1.023854 -0.083857 0.400335
v -1.050508 -0.022953 0.410757
v -1.045230 0.044101 0.408694
v -1.009435 0.099338 0.394698
v -0.952713 0.127958 0.372519
v -0.836906 -0.116911 0.434879
v -0.895535 -0.129672 0.465344
v -0.951972 -0.107689 0.494670
v -0.991093 -0.056850 0.514999
v -1.002417 0.009222 0.520883
v -0.982910 0.072823 0.510747
v -0.937798 0.116911 0.487305
v -0.879169 0.129672 0.456840
v -0.822733 0.107689 0.427514
v -0.783611 0.056850 0.407186
v -0.772287 -0.009222 0.401301
v -0.791794 -0.072823 0.411438
v -0.936163 0.040830 0.621027
v -0.905372 0.097071 0.600601
v -0.855273 0.127301 0.567367
v -0.799290 0.123422 0.530229
v -0.752424 0.086471 0.499139
v -0.727232 0.026351 0.482428
v -0.730465 -0.040830 0.484572
v -0.761256 -0.097071 0.504999
v -0.811355 -0.127301 0.538233
v -0.867338 -0.123422 0.575371
v -0.914204 -0.086471 0.606461
v -0.939396 -0.026351 0.623172
v -0.681029 0.059942 0.564619
v -0.669854 -0.005767 0.555354
v -0.685468 -0.069930 0.568300
v -0.723689 -0.115356 0.599987
v -0.774273 -0.129872 0.641925
v -0.823668 -0.109589 0.682877
v -0.858639 -0.059942 0.711869
v -0.869814 0.005767 0.721134
v -0.854199 0.069930 0.708189
v -0.815979 0.115356 0.676502
v -0.765395 0.129872 0.634564
v -0.715999 0.109589 0.593612
v -0.723814 -0.124465 0.743345
v -0.763721 -0.089025 0.784330
v -0.785920 -0.029731 0.807128
v -0.784462 0.037530 0.805630
v -0.759738 0.094734 0.780239
v -0.718373 0.126555 0.737757
v -0.671450 0.124465 0.689568
v -0.631542 0.089025 0.648584
v -0.609343 0.029731 0.625786
v -0.610801 -0.037530 0.627283
v -0.635525 -0.094734 0.652674
v -0.676891 -0.126555 0.695156
v -0.656424 0.113719 0.836097
v -0.616100 0.129980 0.784737
v -0.576158 0.111412 0.733862
v -0.547301 0.062992 0.697105
v -0.537259 -0.002307 0.684316
v -0.548725 -0.066988 0.698920
v -0.578626 -0.113719 0.737005
v -0.618950 -0.129980 0.788366
v -0.658892 -0.111412 0.839241
v -0.687749 -0.062992 0.875997
v -0.697791 0.002307 0.888787
v -0.686325 0.066988 0.874182
v -0.463896 -0.034203 0.741412
v -0.481880 -0.092331 0.770154
v -0.512870 -0.125718 0.819684
v -0.548563 -0.125420 0.876730
v -0.579395 -0.091515 0.926006
v -0.597105 -0.033089 0.954310
v -0.596946 0.034203 0.954057
v -0.578963 0.092331 0.925315
v -0.547972 0.125718 0.875785
v -0.512279 0.125420 0.818739
v -0.481447 0.091515 0.769462
v -0.463737 0.033089 0.741158
v -0.486287 -0.065997 1.000037
v -0.494155 -0.001154 1.016218
v -0.486791 0.063998 1.001074
v -0.466168 0.112002 0.958664
v -0.437812 0.129995 0.900350
v -0.409320 0.113156 0.841758
v -0.388328 0.065997 0.798587
v -0.380460 0.001154 0.782406
v -0.387824 -0.063998 0.797550
v -0.408447 -0.112002 0.839961
v -0.436803 -0.129995 0.898275
v -0.465294 -0.113156 0.956867
v -0.328772 0.126286 0.911677
v -0.308754 0.093941 0.856167
v -0.296904 0.036424 0.823308
v -0.296398 -0.030852 0.821903
v -0.307370 -0.089862 0.852330
v -0.326882 -0.124793 0.906436
v -0.349705 -0.126286 0.969723
v -0.369723 -0.093941 1.025234
v -0.381573 -0.036424 1.058093
v -0.382080 0.030852 1.059497
v -0.371107 0.089862 1.029070
v -0.351595 0.124793 0.974964
v -0.220962 -0.110205 0.904445
v -0.236232 -0.129918 0.966948
v -0.251795 -0.114819 1.030652
v -0.263482 -0.068955 1.078487
v -0.268160 -0.004614 1.097636
v -0.264577 0.060963 1.082969
v -0.253692 0.110205 1.038414
v -0.238422 0.129918 0.975912
v -0.222859 0.114819 0.912208
v -0.211172 0.068955 0.864373
v -0.206494 0.004614 0.845224
v -0.210077 -0.060963 0.859891
v -0.149590 0.027480 1.117091
v -0.145507 0.087329 1.086600
v -0.137999 0.123779 1.030534
v -0.129079 0.127062 0.963916
v -0.121135 0.096299 0.904596
v -0.116297 0.039733 0.868469
v -0.115861 -0.027480 0.865215
v -0.119944 -0.087329 0.895705
v -0.127452 -0.123779 0.951771
v -0.136373 -0.127062 1.018389
v -0.144317 -0.096299 1.077710
v -0.149154 -0.039733 1.113837
v -0.023737 0.071864 0.891353
v -0.023166 0.008071 0.869942
v -0.023522 -0.057885 0.883285
v -0.024707 -0.108331 0.927807
v -0.026406 -0.129749 0.991578
v -0.028161 -0.116401 1.057510
v -0.029504 -0.071864 1.107938
v -0.030074 -0.008071 1.129349
v -0.029719 0.057885 1.116006
v -0.028534 0.108331 1.071484
v -0.026835 0.129749 1.007713
v -0.025080 0.116401 0.941781
v 0.081708 -0.127749 1.020823
v 0.086547 -0.098590 1.081277
v 0.089574 -0.043014 1.119098
v 0.089979 0.024088 1.124154
v 0.087652 0.084735 1.095088
v 0.083218 0.122678 1.039689
v 0.077864 0.127749 0.972801
v 0.073026 0.098590 0.912347
v 0.069998 0.043014 0.874526
v 0.069594 -0.024088 0.869470
v 0.071920 -0.084735 0.898536
v 0.076354 -0.122678 0.953935
v 0.199133 0.106379 1.056113
v 0.187423 0.129488 0.994007
v 0.175141 0.117901 0.928867
v 0.165577 0.074722 0.878147
v 0.161296 0.011522 0.855438
v 0.163443 -0.054766 0.866825
v 0.171443 -0.106379 0.909256
v 0.183153 -0.129488 0.971362
v 0.195436 -0.117901 1.036502
v 0.204999 -0.074722 1.087222
v 0.209281 -0.011522 1.109931
v 0.207134 0.054766 1.098544
v 0.251640 -0.020678 0.834542
v 0.259588 -0.082080 0.860904
v 0.275335 -0.121489 0.913127
v 0.294661 -0.128345 0.977220
v 0.312388 -0.100811 1.036008
v 0.323765 -0.046265 1.073738
v 0.325744 0.020678 1.080302
v 0.317795 0.082080 1.053941
v 0.302048 0.121489 1.001717
v 0.282722 0.128345 0.937624
v 0.264996 0.100811 0.878837
v 0.253619 0.046265 0.841106
v 0.429399 -0.077528 1.017453
v 0.439035 -0.014965 1.040286
v 0.435218 0.051608 1.031240
v 0.418969 0.104353 0.992739
v 0.394643 0.129136 0.935099
v 0.368758 0.119317 0.873765
v 0.348249 0.077528 0.825171
v 0.338613 0.014965 0.802338
v 0.342431 -0.051608 0.811384
v 0.358680 -0.104353 0.849885
v 0.383006 -0.129136 0.907525
v 0.408891 -0.119317 0.968859
v 0.476191 0.128850 0.859670
v 0.446093 0.102960 0.805335
v 0.426301 0.049482 0.769604
v 0.422117 -0.017254 0.762050
v 0.434662 -0.079368 0.784697
v 0.460574 -0.120214 0.831478
v 0.492912 -0.128850 0.889856
v 0.523009 -0.102960 0.944191
v 0.542801 -0.049482 0.979922
v 0.546986 0.017254 0.987476
v 0.534441 0.079368 0.964829
v 0.508528 0.120214 0.918048
v 0.528644 -0.102252 0.752611
v 0.564213 -0.128692 0.803249
v 0.602615 -0.120649 0.857920
v 0.633560 -0.080278 0.901976
v 0.648757 -0.018397 0.923612
v 0.644134 0.048413 0.917030
v 0.620930 0.102252 0.883995
v 0.585361 0.128692 0.833357
v 0.546960 0.120649 0.778686
v 0.516014 0.080278 0.734630
v 0.500817 0.018397 0.712994
v 0.505440 -0.048413 0.719576
v 0.743633 0.013818 0.849851
v 0.727679 0.076599 0.831618
v 0.693192 0.118855 0.792205
v 0.649412 0.129264 0.742172
v 0.608070 0.105036 0.694925
v 0.580244 0.052665 0.663124
v 0.573390 -0.013818 0.655291
v 0.589343 -0.076599 0.673524
v 0.623831 -0.118855 0.712937
v 0.667611 -0.129264 0.762970
v 0.708952 -0.105036 0.810217
v 0.736778 -0.052665 0.842017
v 0.661239 0.082972 0.610427
v 0.640608 0.021816 0.591382
v 0.645209 -0.045185 0.595629
v 0.673809 -0.100078 0.622031
v 0.718744 -0.128156 0.663513
v 0.767975 -0.121895 0.708961
v 0.808309 -0.082972 0.746196
v 0.828940 -0.021816 0.765242
v 0.824339 0.045185 0.760995
v 0.795740 0.100078 0.734592
v 0.750804 0.128156 0.693110
v 0.701574 0.121895 0.647663
v 0.811038 -0.129586 0.602553
v 0.861932 -0.107038 0.640364
v 0.896959 -0.055810 0.666387
v 0.906732 0.010372 0.673648
v 0.888633 0.073775 0.660201
v 0.847511 0.117410 0.629651
v 0.794386 0.129586 0.590182
v 0.743491 0.107038 0.552370
v 0.708465 0.055810 0.526347
v 0.698692 -0.010372 0.519087
v 0.716791 -0.073775 0.532533
v 0.757912 -0.117410 0.563084
v 0.935308 0.097834 0.551126
v 0.883282 0.127530 0.520470
v 0.825434 0.123054 0.486383
v 0.777264 0.085606 0.457999
v 0.751680 0.025220 0.442923
v 0.755536 -0.041924 0.445196
v 0.787799 -0.097834 0.464207
v 0.839825 -0.127530 0.494863
v 0.897673 -0.123054 0.528949
v 0.945843 -0.085606 0.557333
v 0.971428 -0.025220 0.572409
v 0.967572 0.041924 0.570137
v 0.792420 -0.006919 0.359571
v 0.811408 -0.070900 0.368187
v 0.856984 -0.115883 0.388868
v 0.916935 -0.129816 0.416071
v 0.975198 -0.108964 0.442509
v 1.016162 -0.058916 0.461097
v 1.028849 0.006919 0.466854
v 1.009861 0.070900 0.458238
v 0.964286 0.115883 0.437557
v 0.904334 0.129816 0.410353
v 0.846071 0.108964 0.383916
v 0.805107 0.058916 0.365328
v 1.040085 -0.088181 0.344077
v 1.069794 -0.028606 0.353906
v 1.067243 0.038633 0.353062
v 1.033116 0.095521 0.341772
v 0.976556 0.126814 0.323061
v 0.912719 0.124127 0.301943
v 0.858710 0.088181 0.284076
v 0.829001 0.028606 0.274247
v 0.831552 -0.038633 0.275091
v 0.865679 -0.095521 0.286381
v 0.922239 -0.126814 0.305092
v 0.986076 -0.124127 0.326210
v 0.974021 0.129954 0.210651
v 0.910966 0.110813 0.197014
v 0.865712 0.061980 0.187227
v 0.850386 -0.003461 0.183912
v 0.869094 -0.067974 0.187958
v 0.916824 -0.114274 0.198281
v 0.980786 -0.129954 0.212114
v 1.043841 -0.110813 0.225751
v 1.089095 -0.061980 0.235538
v 1.104421 0.003461 0.238852
v 1.085713 0.067974 0.234806
v 1.037983 0.114274 0.224484
v 0.904156 -0.093139 0.096654
v 0.962544 -0.126007 0.102896
v 1.029450 -0.125111 0.110048
v 1.086946 -0.090692 0.116194
v 1.119628 -0.031972 0.119688
v 1.118737 0.035315 0.119593
v 1.084513 0.093139 0.115934
v 1.026126 0.126007 0.109692
v 0.959220 0.125111 0.102540
v 0.901723 0.090692 0.096394
v 0.869041 0.031972 0.092900
v 0.869932 -0.035315 0.092995
vn 0.6137 0.7889 -0.0327
vn 0.1371 0.9905 -0.0073
vn -0.3765 0.9262 0.0201
vn -0.7886 0.6135 0.0420
vn -0.9892 0.1369 0.0527
vn -0.9253 -0.3761 0.0493
vn -0.6137 -0.7889 0.0327
vn -0.1371 -0.9905 0.0073
vn 0.3765 -0.9262 -0.0201
vn 0.7886 -0.6135 -0.0420
vn 0.9892 -0.1369 -0.0527
vn 0.9253 0.3761 -0.0493
vn -0.9812 -0.1105 0.1581
vn -0.7955 -0.5923 0.1282
vn -0.3964 -0.9158 0.0639
vn 0.1094 -0.9938 -0.0176
vn 0.5858 -0.8049 -0.0944
vn 0.9046 -0.4006 -0.1458
vn 0.9812 0.1106 -0.1581
vn 0.7955 0.5923 -0.1282
vn 0.3964 0.9158 -0.0639
vn -0.1094 0.9938 0.0176
vn -0.5858 0.8049 0.0944
vn -0.9046 0.4006 0.1457
vn 0.7459 -0.6343 -0.2034
vn 0.9518 -0.1632 -0.2596
vn 0.9033 0.3513 -0.2463
vn 0.6130 0.7722 -0.1672
vn 0.1579 0.9865 -0.0431
vn -0.3398 0.9359 0.0927
vn -0.7459 0.6343 0.2034
vn -0.9518 0.1632 0.2596
vn -0.9033 -0.3513 0.2463
vn -0.6130 -0.7722 0.1672
vn -0.1579 -0.9865 0.0431
vn 0.3398 -0.9359 -0.0927
vn -0.0785 0.9964 0.0307
vn -0.5324 0.8205 0.2082
vn -0.8431 0.4248 0.3297
vn -0.9280 -0.0841 0.3629
vn -0.7648 -0.5706 0.2991
vn -0.3966 -0.9048 0.1551
vn 0.0785 -0.9964 -0.0307
vn 0.5324 -0.8205 -0.2082
vn 0.8431 -0.4248 -0.3297
vn 0.9280 0.0841 -0.3629
vn 0.7648 0.5706 -0.2991
vn 0.3966 0.9048 -0.1551
vn -0.5818 -0.7550 0.3023
vn -0.1685 -0.9818 0.0876
vn 0.2903 -0.9450 -0.1508
vn 0.6708 -0.6546 -0.3486
vn 0.8713 -0.1894 -0.4527
vn 0.8388 0.3263 -0.4359
vn 0.5818 0.7550 -0.3023
vn 0.1685 0.9818 -0.0876
vn -0.2903 0.9450 0.1508
vn -0.6708 0.6546 0.3486
vn -0.8713 0.1894 0.4527
vn -0.8388 -0.3263 0.4359
vn 0.8319 0.0576 -0.5519
vn 0.6967 0.5486 -0.4622
vn 0.3748 0.8932 -0.2486
vn -0.0481 0.9983 0.0319
vn -0.4580 0.8354 0.3038
vn -0.7447 0.4487 0.4940
vn -0.8319 -0.0576 0.5519
vn -0.6968 -0.5486 0.4622
vn -0.3748 -0.8932 0.2486
vn 0.0481 -0.9983 -0.0319
vn 0.4580 -0.8354 -0.3038
vn 0.7447 -0.4487 -0.4940
vn -0.5683 0.6745 0.4712
vn -0.7518 0.2154 0.6233
vn -0.7341 -0.3010 0.6086
vn -0.5201 -0.7373 0.4312
vn -0.1663 -0.9764 0.1379
vn 0.2323 -0.9534 -0.1926
vn 0.5683 -0.6745 -0.4712
vn 0.7518 -0.2154 -0.6233
vn 0.7341 0.3010 -0.6086
vn 0.5201 0.7373 -0.4312
vn 0.1663 0.9764 -0.1379
vn -0.2323 0.9534 0.1926
vn 0.0217 -0.9995 -0.0223
vn 0.3678 -0.8497 -0.3777
vn 0.6149 -0.4723 -0.6315
vn 0.6973 0.0310 -0.7161
vn 0.5933 0.5261 -0.6093
vn 0.3302 0.8809 -0.3392
vn -0.0217 0.9995 0.0223
vn -0.3678 0.8497 0.3777
vn -0.6149 0.4723 0.6315
vn -0.6973 -0.0310 0.7161
vn -0.5933 -0.5261 0.6093
vn -0.3302 -0.8809 0.3392
vn 0.4291 0.7191 -0.5466
vn 0.1494 0.9703 -0.1903
vn -0.1706 0.9611 0.2173
vn -0.4446 0.6939 0.5663
vn -0.5993 0.2413 0.7633
vn -0.5936 -0.2756 0.7561
vn -0.4292 -0.7191 0.5466
vn -0.1494 -0.9703 0.1903
vn 0.1706 -0.9611 -0.2173
vn 0.4446 -0.6939 -0.5663
vn 0.5993 -0.2413 -0.7633
vn 0.5936 0.2756 -0.7561
vn -0.5304 -0.0044 0.8477
vn -0.4583 -0.5033 0.7325
vn -0.2634 -0.8679 0.4211
vn 0.0024 -1.0000 -0.0038
vn 0.2675 -0.8635 -0.4276
vn 0.4607 -0.4956 -0.7363
vn 0.5304 0.0044 -0.8477
vn 0.4583 0.5033 -0.7325
vn 0.2635 0.8679 -0.4211
vn -0.0024 1.0000 0.0038
vn -0.2675 0.8635 0.4276
vn -0.4607 0.4956 0.7363
vn 0.3067 -0.7129 -0.6307
vn 0.4214 -0.2670 -0.8667
vn 0.4234 0.2499 -0.8708
vn 0.3122 0.7003 -0.6420
vn 0.1171 0.9635 -0.2408
vn -0.1096 0.9681 0.2253
vn -0.3067 0.7129 0.6307
vn -0.4214 0.2670 0.8667
vn -0.4234 -0.2499 0.8708
vn -0.3122 -0.7003 0.6420
vn -0.1171 -0.9635 0.2408
vn 0.1096 -0.9681 -0.2253
vn 0.0075 0.9998 -0.0209
vn -0.1632 0.8766 0.4527
vn -0.2901 0.5185 0.8043
vn -0.3392 0.0222 0.9405
vn -0.2976 -0.4801 0.8252
vn -0.1763 -0.8544 0.4888
vn -0.0075 -0.9998 0.0209
vn 0.1632 -0.8766 -0.4527
vn 0.2901 -0.5186 -0.8043
vn 0.3392 -0.0222 -0.9405
vn 0.2976 0.4801 -0.8252
vn 0.1763 0.8544 -0.4888
vn -0.1738 -0.6810 0.7113
vn -0.0696 -0.9560 0.2849
vn 0.0533 -0.9744 -0.2183
vn 0.1619 -0.7313 -0.6626
vn 0.2269 -0.2926 -0.9289
vn 0.2313 0.2241 -0.9467
vn 0.1738 0.6810 -0.7113
vn 0.0696 0.9560 -0.2849
vn -0.0533 0.9744 0.2183
vn -0.1619 0.7313 0.6626
vn -0.2269 0.2926 0.9289
vn -0.2313 -0.2241 0.9467
vn 0.1326 -0.0487 -0.9900
vn 0.1181 0.4566 -0.8818
vn 0.0720 0.8402 -0.5374
vn 0.0065 0.9988 -0.0484
vn -0.0607 0.8891 0.4536
vn -0.1116 0.5411 0.8335
vn -0.1326 0.0487 0.9900
vn -0.1181 -0.4566 0.8818
vn -0.0720 -0.8402 0.5374
vn -0.0065 -0.9988 0.0484
vn 0.0607 -0.8891 -0.4536
vn 0.1116 -0.5411 -0.8335
vn -0.0176 0.7492 0.6621
vn -0.0252 0.3179 0.9478
vn -0.0261 -0.1981 0.9798
vn -0.0200 -0.6613 0.7498
vn -0.0085 -0.9479 0.3186
vn 0.0053 -0.9801 -0.1986
vn 0.0176 -0.7492 -0.6621
vn 0.0252 -0.3179 -0.9478
vn 0.0261 0.1981 -0.9798
vn 0.0200 0.6613 -0.7498
vn 0.0085 0.9479 -0.3186
vn -0.0053 0.9801 0.1986
vn 0.0060 -0.9971 0.0752
vn -0.0346 -0.9010 -0.4324
vn -0.0659 -0.5633 -0.8236
vn -0.0796 -0.0753 -0.9940
vn -0.0719 0.4328 -0.8986
vn -0.0450 0.8255 -0.5626
vn -0.0060 0.9971 -0.0752
vn 0.0346 0.9010 0.4324
vn 0.0659 0.5633 0.8236
vn 0.0796 0.0753 0.9940
vn 0.0719 -0.4328 0.8986
vn 0.0450 -0.8255 0.5626
vn -0.1422 0.6411 -0.7542
vn -0.0637 0.9390 -0.3379
vn 0.0319 0.9850 0.1694
vn 0.1190 0.7665 0.6311
vn 0.1741 0.3430 0.9231
vn 0.1825 -0.1720 0.9680
vn 0.1422 -0.6411 0.7542
vn 0.0637 -0.9390 0.3379
vn -0.0319 -0.9850 -0.1694
vn -0.1190 -0.7665 -0.6311
vn -0.1740 -0.3430 -0.9231
vn -0.1825 0.1720 -0.9680
vn 0.2872 0.1017 0.9525
vn 0.2635 -0.4087 0.8738
vn 0.1692 -0.8102 0.5612
vn 0.0295 -0.9948 0.0977
vn -0.1183 -0.9122 -0.3922
vn -0.2341 -0.5851 -0.7764
vn -0.2872 -0.1017 -0.9525
vn -0.2635 0.4087 -0.8738
vn -0.1692 0.8102 -0.5612
vn -0.0295 0.9948 -0.0977
vn 0.1183 0.9122 0.3922
vn 0.2341 0.5851 0.7764
vn -0.2417 -0.7834 -0.5726
vn -0.3616 -0.3678 -0.8567
vn -0.3847 0.1457 -0.9115
vn -0.3049 0.6205 -0.7225
vn -0.1434 0.9295 -0.3397
vn 0.0568 0.9893 0.1346
vn 0.2417 0.7834 0.5726
vn 0.3616 0.3678 0.8567
vn 0.3847 -0.1457 0.9115
vn 0.3049 -0.6205 0.7225
vn 0.1434 -0.9295 0.3397
vn -0.0568 -0.9893 -0.1346
vn -0.0623 0.9917 -0.1124
vn 0.1866 0.9228 0.3370
vn 0.3853 0.6065 0.6955
vn 0.4806 0.1281 0.8675
vn 0.4473 -0.3843 0.8076
vn 0.2944 -0.7943 0.5315
vn 0.0623 -0.9917 0.1124
vn -0.1866 -0.9228 -0.3370
vn -0.3853 -0.6065 -0.6955
vn -0.4806 -0.1281 -0.8675
vn -0.4474 0.3843 -0.8076
vn -0.2944 0.7943 -0.5315
vn 0.4601 -0.5994 0.6550
vn 0.2261 -0.9194 0.3219
vn -0.0688 -0.9928 -0.0979
vn -0.3451 -0.7996 -0.4914
vn -0.5287 -0.3924 -0.7527
vn -0.5707 0.1194 -0.8125
vn -0.4601 0.5994 -0.6550
vn -0.2261 0.9194 -0.3219
vn 0.0688 0.9928 0.0979
vn 0.3451 0.7996 0.4914
vn 0.5287 0.3924 0.7527
vn 0.5707 -0.1194 0.8124
vn -0.6506 -0.1545 -0.7435
vn -0.6145 0.3596 -0.7022
vn -0.4139 0.7778 -0.4730
vn -0.1020 0.9879 -0.1166
vn 0.2374 0.9328 0.2713
vn 0.5128 0.6274 0.5860
vn 0.6506 0.1545 0.7435
vn 0.6145 -0.3596 0.7022
vn 0.4139 -0.7778 0.4730
vn 0.1020 -0.9879 0.1166
vn -0.2374 -0.9328 -0.2713
vn -0.5128 -0.6274 -0.5860
vn 0.4254 0.8154 0.3927
vn 0.6679 0.4168 0.6166
vn 0.7316 -0.0929 0.6754
vn 0.5997 -0.5779 0.5536
vn 0.3069 -0.9086 0.2834
vn -0.0685 -0.9956 -0.0632
vn -0.4254 -0.8154 -0.3927
vn -0.6679 -0.4168 -0.6166
vn -0.7316 0.0929 -0.6754
vn -0.5997 0.5779 -0.5536
vn -0.3069 0.9086 -0.2834
vn 0.0685 0.9956 0.0632
vn 0.1454 -0.9835 0.1080
vn -0.2693 -0.9420 -0.2001
vn -0.6114 -0.6479 -0.4543
vn -0.7895 -0.1807 -0.5865
vn -0.7564 0.3346 -0.5620
vn -0.5209 0.7608 -0.3870
vn -0.1454 0.9835 -0.1080
vn 0.2693 0.9420 0.2001
vn 0.6114 0.6479 0.4543
vn 0.7895 0.1807 0.5865
vn 0.7564 -0.3346 0.5620
vn 0.5209 -0.7608 0.3870
vn -0.7161 0.5559 -0.4220
vn -0.3806 0.8971 -0.2243
vn 0.0574 0.9978 0.0338
vn 0.4799 0.8305 0.2828
vn 0.7733 0.4408 0.4557
vn 0.8597 -0.0664 0.5065
vn 0.7161 -0.5560 0.4220
vn 0.3806 -0.8971 0.2243
vn -0.0574 -0.9978 -0.0338
vn -0.4799 -0.8305 -0.2828
vn -0.7733 -0.4408 -0.4557
vn -0.8597 0.0664 -0.5065
vn 0.8910 0.2068 0.4043
vn 0.8659 -0.3095 0.3929
vn 0.6092 -0.7433 0.2764
vn 0.1888 -0.9783 0.0857
vn -0.2825 -0.9507 -0.1282
vn -0.6777 -0.6679 -0.3075
vn -0.8910 -0.2068 -0.4043
vn -0.8659 0.3095 -0.3929
vn -0.6092 0.7433 -0.2764
vn -0.1888 0.9783 -0.0857
vn 0.2825 0.9507 0.1282
vn 0.6777 0.6679 0.3075
vn -0.5077 -0.8450 -0.1679
vn -0.8408 -0.4645 -0.2781
vn -0.9486 0.0399 -0.3138
vn -0.8029 0.5336 -0.2656
vn -0.4420 0.8850 -0.1462
vn 0.0380 0.9992 0.0126
vn 0.5077 0.8450 0.1679
vn 0.8408 0.4645 0.2781
vn 0.9486 -0.0399 0.3138
vn 0.8029 -0.5336 0.2656
vn 0.4420 -0.8850 0.1462
vn -0.0380 -0.9992 -0.0126
vn -0.2281 0.9724 -0.0493
vn 0.2784 0.9586 0.0602
vn 0.7098 0.6875 0.1535
vn 0.9506 0.2327 0.2056
vn 0.9371 -0.2841 0.2027
vn 0.6730 -0.7252 0.1455
vn 0.2281 -0.9724 0.0493
vn -0.2784 -0.9586 -0.0602
vn -0.7098 -0.6875 -0.1535
vn -0.9506 -0.2327 -0.2056
vn -0.9371 0.2841 -0.2027
vn -0.6730 0.7252 -0.1455
vn 0.8547 -0.5109 0.0914
vn 0.4862 -0.8723 0.0520
vn -0.0133 -0.9999 -0.0014
vn -0.5091 -0.8590 -0.0544
vn -0.8680 -0.4879 -0.0928
vn -0.9942 0.0133 -0.1063
vn -0.8547 0.5109 -0.0914
vn -0.4862 0.8723 -0.0520
vn 0.0133 0.9999 0.0014
vn 0.5091 0.8590 0.0544
vn 0.8680 0.4879 0.0928
vn 0.9942 -0.0133 0.1063
vn -0.9660 -0.2585 -0.0000
vn -0.9660 0.2585 -0.0000
vn -0.7076 0.7066 -0.0000
vn -0.2592 0.9658 -0.0000
vn 0.2592 0.9658 -0.0000
vn 0.7076 0.7066 -0.0000
vn 0.9660 0.2585 -0.0000
vn 0.9660 -0.2585 -0.0000
vn 0.7076 -0.7066 -0.0000
vn 0.2592 -0.9658 -0.0000
vn -0.2592 -0.9658 -0.0000
vn -0.7076 -0.7066 -0.0000
vn 0.4862 0.8723 -0.0520
vn 0.8547 0.5109 -0.0914
vn 0.9942 0.0133 -0.1063
vn 0.8680 -0.4879 -0.0928
vn 0.5091 -0.8590 -0.0544
vn 0.0133 -0.9999 -0.0014
vn -0.4862 -0.8723 0.0520
vn -0.8547 -0.5109 0.0914
vn -0.9942 -0.0133 0.1063
vn -0.8680 0.4879 0.0928
vn -0.5091 0.8590 0.0544
vn -0.0133 0.9999 0.0014
vn 0.2784 -0.9586 -0.0602
vn -0.2281 -0.9724 0.0493
vn -0.6730 -0.7252 0.1455
vn -0.9371 -0.2841 0.2027
vn -0.9506 0.2327 0.2056
vn -0.7098 0.6875 0.1535
vn -0.2784 0.9586 0.0602
vn 0.2281 0.9724 -0.0493
vn 0.6730 0.7252 -0.1455
vn 0.9371 0.2841 -0.2027
vn 0.9506 -0.2327 -0.2056
vn 0.7098 -0.6875 -0.1535
vn -0.8408 0.4645 0.2781
vn -0.5077 0.8450 0.1679
vn -0.0380 0.9992 0.0126
vn 0.4420 0.8850 -0.1462
vn 0.8029 0.5336 -0.2656
vn 0.9486 0.0399 -0.3138
vn 0.8408 -0.4645 -0.2781
vn 0.5077 -0.8450 -0.1679
vn 0.0380 -0.9992 -0.0126
vn -0.4420 -0.8850 0.1462
vn -0.8029 -0.5336 0.2656
vn -0.9486 -0.0399 0.3138
vn 0.8659 0.3095 -0.3929
vn 0.8910 -0.2068 -0.4043
vn 0.6777 -0.6679 -0.3075
vn 0.2825 -0.9507 -0.1282
vn -0.1888 -0.9783 0.0857
vn -0.6092 -0.7433 0.2764
vn -0.8659 -0.3095 0.3929
vn -0.8910 0.2068 0.4043
vn -0.6777 0.6679 0.3075
vn -0.2825 0.9507 0.1282
vn 0.1888 0.9783 -0.0857
vn 0.6092 0.7433 -0.2765
vn -0.3806 -0.8971 0.2243
vn -0.7161 -0.5559 0.4220
vn -0.8597 -0.0664 0.5065
vn -0.7733 0.4408 0.4557
vn -0.4799 0.8305 0.2828
vn -0.0574 0.9978 0.0338
vn 0.3806 0.8971 -0.2243
vn 0.7161 0.5559 -0.4220
vn 0.8597 0.0664 -0.5065
vn 0.7733 -0.4408 -0.4557
vn 0.4799 -0.8305 -0.2828
vn 0.0574 -0.9978 -0.0338
vn -0.2693 0.9420 0.2001
vn 0.1454 0.9835 -0.1080
vn 0.5209 0.7608 -0.3870
vn 0.7564 0.3346 -0.5620
vn 0.7895 -0.1807 -0.5865
vn 0.6114 -0.6479 -0.4543
vn 0.2693 -0.9420 -0.2001
vn -0.1454 -0.9835 0.1080
vn -0.5209 -0.7608 0.3870
vn -0.7564 -0.3346 0.5620
vn -0.7895 0.1807 0.5865
vn -0.6114 0.6479 0.4543
vn 0.6679 -0.4168 -0.6166
vn 0.4254 -0.8154 -0.3927
vn 0.0685 -0.9956 -0.0632
vn -0.3069 -0.9086 0.2833
vn -0.5997 -0.5779 0.5536
vn -0.7316 -0.0929 0.6754
vn -0.6679 0.4168 0.6166
vn -0.4254 0.8154 0.3927
vn -0.0685 0.9956 0.0632
vn 0.3069 0.9086 -0.2834
vn 0.5997 0.5779 -0.5536
vn 0.7316 0.0929 -0.6754
vn -0.6145 -0.3596 0.7022
vn -0.6506 0.1545 0.7435
vn -0.5128 0.6274 0.5860
vn -0.2374 0.9328 0.2713
vn 0.1020 0.9879 -0.1166
vn 0.4139 0.7778 -0.4730
vn 0.6145 0.3596 -0.7022
vn 0.6506 -0.1545 -0.7435
vn 0.5128 -0.6274 -0.5860
vn 0.2374 -0.9328 -0.2713
vn -0.1020 -0.9879 0.1166
vn -0.4139 -0.7778 0.4730
vn 0.2261 0.9194 -0.3219
vn 0.4601 0.5994 -0.6550
vn 0.5707 0.1194 -0.8124
vn 0.5287 -0.3924 -0.7527
vn 0.3451 -0.7996 -0.4914
vn 0.0688 -0.9928 -0.0979
vn -0.2261 -0.9194 0.3219
vn -0.4601 -0.5994 0.6550
vn -0.5707 -0.1194 0.8125
vn -0.5287 0.3924 0.7527
vn -0.3451 0.7996 0.4914
vn -0.0688 0.9928 0.0979
vn 0.1866 -0.9228 -0.3370
vn -0.0623 -0.9917 0.1124
vn -0.2944 -0.7943 0.5315
vn -0.4474 -0.3843 0.8076
vn -0.4806 0.1281 0.8676
vn -0.3853 0.6065 0.6955
vn -0.1866 0.9228 0.3370
vn 0.0623 0.9917 -0.1124
vn 0.2944 0.7943 -0.5315
vn 0.4473 0.3843 -0.8076
vn 0.4806 -0.1281 -0.8675
vn 0.3853 -0.6065 -0.6955
vn -0.3616 0.3678 0.8567
vn -0.2417 0.7834 0.5726
vn -0.0568 0.9893 0.1346
vn 0.1434 0.9295 -0.3397
vn 0.3049 0.6205 -0.7225
vn 0.3847 0.1457 -0.9115
vn 0.3616 -0.3678 -0.8567
vn 0.2417 -0.7834 -0.5726
vn 0.0568 -0.9893 -0.1346
vn -0.1434 -0.9295 0.3397
vn -0.3049 -0.6205 0.7225
vn -0.3847 -0.1457 0.9115
vn 0.2635 0.4087 -0.8738
vn 0.2872 -0.1017 -0.9525
vn 0.2341 -0.5851 -0.7764
vn 0.1183 -0.9122 -0.3922
vn -0.0295 -0.9948 0.0977
vn -0.1692 -0.8102 0.5612
vn -0.2635 -0.4087 0.8738
vn -0.2872 0.1017 0.9525
vn -0.2341 0.5851 0.7764
vn -0.1183 0.9122 0.3922
vn 0.0295 0.9948 -0.0977
vn 0.1692 0.8102 -0.5612
vn -0.0637 -0.9390 0.3379
vn -0.1422 -0.6411 0.7542
vn -0.1825 -0.1720 0.9680
vn -0.1741 0.3430 0.9231
vn -0.1190 0.7665 0.6311
vn -0.0319 0.9850 0.1694
vn 0.0637 0.9390 -0.3379
vn 0.1422 0.6411 -0.7541
vn 0.1825 0.1720 -0.9680
vn 0.1740 -0.3430 -0.9231
vn 0.1190 -0.7665 -0.6311
vn 0.0320 -0.9850 -0.1694
vn -0.0346 0.9010 0.4324
vn 0.0060 0.9971 -0.0752
vn 0.0450 0.8255 -0.5626
vn 0.0719 0.4328 -0.8986
vn 0.0796 -0.0753 -0.9940
vn 0.0659 -0.5633 -0.8236
vn 0.0346 -0.9010 -0.4324
vn -0.0060 -0.9971 0.0752
vn -0.0450 -0.8255 0.5626
vn -0.0719 -0.4328 0.8986
vn -0.0796 0.0753 0.9940
vn -0.0659 0.5633 0.8236
vn -0.0252 -0.3179 -0.9478
vn -0.0176 -0.7492 -0.6621
vn -0.0053 -0.9801 -0.1986
vn 0.0085 -0.9479 0.3186
vn 0.0200 -0.6613 0.7498
vn 0.0261 -0.1981 0.9798
vn 0.0252 0.3179 0.9478
vn 0.0176 0.7492 0.6621
vn 0.0053 0.9801 0.1986
vn -0.0085 0.9479 -0.3186
vn -0.0200 0.6613 -0.7498
vn -0.0261 0.1981 -0.9798
vn 0.1181 -0.4566 0.8818
vn 0.1326 0.0487 0.9900
vn 0.1116 0.5411 0.8335
vn 0.0607 0.8891 0.4536
vn -0.0065 0.9988 -0.0484
vn -0.0720 0.8402 -0.5374
vn -0.1181 0.4566 -0.8818
vn -0.1326 -0.0487 -0.9900
vn -0.1116 -0.5411 -0.8335
vn -0.0607 -0.8891 -0.4536
vn 0.0065 -0.9988 0.0484
vn 0.0720 -0.8402 0.5374
vn -0.0696 0.9560 -0.2849
vn -0.1738 0.6810 -0.7113
vn -0.2313 0.2241 -0.9467
vn -0.2269 -0.2926 -0.9289
vn -0.1619 -0.7313 -0.6626
vn -0.0533 -0.9744 -0.2183
vn 0.0696 -0.9560 0.2849
vn 0.1738 -0.6810 0.7113
vn 0.2313 -0.2241 0.9467
vn 0.2269 0.2926 0.9289
vn 0.1619 0.7313 0.6626
vn 0.0533 0.9744 0.2183
vn -0.1632 -0.8766 -0.4527
vn 0.0075 -0.9998 0.0209
vn 0.1763 -0.8544 0.4888
vn 0.2976 -0.4801 0.8252
vn 0.3392 0.0222 0.9405
vn 0.2901 0.5186 0.8043
vn 0.1632 0.8766 0.4527
vn -0.0075 0.9998 -0.0209
vn -0.1763 0.8544 -0.4888
vn -0.2976 0.4801 -0.8252
vn -0.3392 -0.0222 -0.9405
vn -0.2901 -0.5186 -0.8043
vn 0.4214 0.2670 0.8667
vn 0.3067 0.7129 0.6307
vn 0.1096 0.9681 0.2253
vn -0.1171 0.9635 -0.2408
vn -0.3122 0.7003 -0.6420
vn -0.4234 0.2499 -0.8708
vn -0.4214 -0.2670 -0.8667
vn -0.3067 -0.7129 -0.6307
vn -0.1096 -0.9681 -0.2253
vn 0.1171 -0.9635 0.2408
vn 0.3122 -0.7003 0.6420
vn 0.4234 -0.2499 0.8708
vn -0.4583 0.5033 -0.7325
vn -0.5304 0.0044 -0.8477
vn -0.4607 -0.4956 -0.7363
vn -0.2675 -0.8635 -0.4276
vn -0.0024 -1.0000 -0.0038
vn 0.2635 -0.8679 0.4211
vn 0.4583 -0.5033 0.7325
vn 0.5304 -0.0044 0.8477
vn 0.4607 0.4956 0.7363
vn 0.2675 0.8635 0.4276
vn 0.0024 1.0000 0.0038
vn -0.2634 0.8679 -0.4211
vn 0.1494 -0.9703 0.1903
vn 0.4292 -0.7191 0.5466
vn 0.5936 -0.2756 0.7561
vn 0.5993 0.2413 0.7633
vn 0.4446 0.6939 0.5663
vn 0.1706 0.9611 0.2173
vn -0.1494 0.9703 -0.1903
vn -0.4292 0.7191 -0.5466
vn -0.5936 0.2756 -0.7561
vn -0.5993 -0.2413 -0.7633
vn -0.4446 -0.6939 -0.5663
vn -0.1706 -0.9611 -0.2173
vn 0.3678 0.8497 0.3777
vn 0.0217 0.9995 0.0223
vn -0.3302 0.8809 -0.3392
vn -0.5933 0.5261 -0.6093
vn -0.6973 0.0310 -0.7161
vn -0.6149 -0.4723 -0.6315
vn -0.3678 -0.8497 -0.3777
vn -0.0217 -0.9995 -0.0223
vn 0.3302 -0.8809 0.3392
vn 0.5933 -0.5261 0.6093
vn 0.6973 -0.0310 0.7161
vn 0.6149 0.4723 0.6315
vn -0.7518 -0.2154 -0.6233
vn -0.5683 -0.6745 -0.4712
vn -0.2323 -0.9534 -0.1926
vn 0.1663 -0.9764 0.1379
vn 0.5201 -0.7373 0.4312
vn 0.7341 -0.3010 0.6086
vn 0.7518 0.2154 0.6233
vn 0.5683 0.6745 0.4712
vn 0.2323 0.9534 0.1926
vn -0.1663 0.9764 -0.1379
vn -0.5201 0.7373 -0.4312
vn -0.7341 0.3010 -0.6086
vn 0.6967 -0.5485 0.4622
vn 0.8319 -0.0576 0.5519
vn 0.7447 0.4487 0.4940
vn 0.4580 0.8354 0.3038
vn 0.0481 0.9983 0.0319
vn -0.3748 0.8932 -0.2486
vn -0.6968 0.5486 -0.4622
vn -0.8319 0.0576 -0.5519
vn -0.7447 -0.4487 -0.4940
vn -0.4580 -0.8354 -0.3038
vn -0.0481 -0.9983 -0.0319
vn 0.3748 -0.8932 0.2486
vn -0.1685 0.9818 -0.0876
vn -0.5818 0.7550 -0.3023
vn -0.8388 0.3263 -0.4359
vn -0.8713 -0.1894 -0.4527
vn -0.6708 -0.6546 -0.3486
vn -0.2903 -0.9450 -0.1508
vn 0.1685 -0.9818 0.0876
vn 0.5818 -0.7550 0.3023
vn 0.8388 -0.3263 0.4359
vn 0.8713 0.1894 0.4528
vn 0.6708 0.6546 0.3486
vn 0.2903 0.9450 0.1508
vn -0.5324 -0.8205 -0.2082
vn -0.0785 -0.9964 -0.0307
vn 0.3966 -0.9048 0.1551
vn 0.7648 -0.5706 0.2991
vn 0.9280 -0.0841 0.3629
vn 0.8431 0.4248 0.3297
vn 0.5324 0.8205 0.2082
vn 0.0785 0.9964 0.0307
vn -0.3966 0.9048 -0.1551
vn -0.7648 0.5706 -0.2991
vn -0.9280 0.0841 -0.3629
vn -0.8431 -0.4248 -0.3297
vn 0.9518 0.1632 0.2596
vn 0.7459 0.6343 0.2034
vn 0.3398 0.9359 0.0927
vn -0.1579 0.9865 -0.0431
vn -0.6130 0.7722 -0.1672
vn -0.9033 0.3513 -0.2463
vn -0.9518 -0.1632 -0.2596
vn -0.7459 -0.6343 -0.2034
vn -0.3398 -0.9359 -0.0927
vn 0.1579 -0.9865 0.0431
vn 0.6130 -0.7722 0.1672
vn 0.9033 -0.3513 0.2463
vn -0.7955 0.5923 -0.1282
vn -0.9812 0.1105 -0.1581
vn -0.9046 -0.4006 -0.1457
vn -0.5858 -0.8049 -0.0944
vn -0.1094 -0.9938 -0.0176
vn 0.3964 -0.9158 0.0639
vn 0.7955 -0.5923 0.1282
vn 0.9812 -0.1106 0.1581
vn 0.9046 0.4006 0.1457
vn 0.5858 0.8049 0.0944
vn 0.1094 0.9938 0.0176
vn -0.3964 0.9158 -0.0639
vn 0.1371 -0.9905 0.0073
vn 0.6137 -0.7889 0.0327
vn 0.9253 -0.3761 0.0493
vn 0.9892 0.1369 0.0527
vn 0.7886 0.6135 0.0420
vn 0.3765 0.9262 0.0201
vn -0.1371 0.9905 -0.0073
vn -0.6137 0.7889 -0.0327
vn -0.9253 0.3761 -0.0493
vn -0.9892 -0.1369 -0.0527
vn -0.7886 -0.6135 -0.0420
vn -0.3765 -0.9262 -0.0201
s 0
f 13//1 1//1 12//1 24//1
f 1//2 13//2 14//2 2//2
f 2//3 14//3 15//3 3//3
f 3//4 15//4 16//4 4//4
f 4//5 16//5 17//5 5//5
f 5//6 17//6 18//6 6//6
f 6//7 18//7 19//7 7//7
f 7//8 19//8 20//8 8//8
f 8//9 20//9 21//9 9//9
f 9//10 21//10 22//10 10//10
f 10//11 22//11 23//11 11//11
f 11//12 23//12 24//12 12//12
f 25//13 13//13 24//13 36//13
f 13//14 25//14 26//14 14//14
f 14//15 26//15 27//15 15//15
f 15//16 27//16 28//16 16//16
f 16//17 28//17 29//17 17//17
f 17//18 29//18 30//18 18//18
f 18//19 30//19 31//19 19//19
f 19//20 31//20 32//20 20//20
f 20//21 32//21 33//21 21//21
f 21//22 33//22 34//22 22//22
f 22//23 34//23 35//23 23//23
f 23//24 35//24 36//24 24//24
f 37//25 25//25 36//25 48//25
f 25//26 37//26 38//26 26//26
f 26//27 38//27 39//27 27//27
f 27//28 39//28 40//28 28//28
f 28//29 40//29 41//29 29//29
f 29//30 41//30 42//30 30//30
f 30//31 42//31 43//31 31//31
f 31//32 43//32 44//32 32//32
f 32//33 44//33 45//33 33//33
f 33//34 45//34 46//34 34//34
f 34//35 46//35 47//35 35//35
f 35//36 47//36 48//36 36//36
f 49//37 37//37 48//37 60//37
f 37//38 49//38 50//38 38//38
f 38//39 50//39 51//39 39//39
f 39//40 51//40 52//40 40//40
f 40//41 52//41 53//41 41//41
f 41//42 53//42 54//42 42//42
f 42//43 54//43 55//43 43//43
f 43//44 55//44 56//44 44//44
f 44//45 56//45 57//45 45//45
f 45//46 57//46 58//46 46//46
f 46//47 58//47 59//47 47//47
f 47//48 59//48 60//48 48//48
f 61//49 49//49 60//49 72//49
f 49//50 61//50 62//50 50//50
f 50//51 62//51 63//51 51//51
f 51//52 63//52 64//52 52//52
f 52//53 64//53 65//53 53//53
f 53//54 65//54 66//54 54//54
f 54//55 66//55 67//55 55//55
f 55//56 67//56 68//56 56//56
f 56//57 68//57 69//57 57//57
f 57//58 69//58 70//58 58//58
f 58//59 70//59 71//59 59//59
f 59//60 71//60 72//60 60//60
f 73//61 61//61 72//61 84//61
f 61//62 73//62 74//62 62//62
f 62//63 74//63 75//63 63//63
f 63//64 75//64 76//64 64//64
f 64//65 76//65 77//65 65//65
f 65//66 77//66 78//66 66//66
f 66//67 78//67 79//67 67//67
f 67//68 79//68 80//68 68//68
f 68//69 80//69 81//69 69//69
f 69//70 81//70 82//70 70//70
f 70//71 82//71 83//71 71//71
f 71//72 83//72 84//72 72//72
f 85//73 73//73 84//73 96//73
f 73//74 85//74 86//74 74//74
f 74//75 86//75 87//75 75//75
f 75//76 87//76 88//76 76//76
f 76//77 88//77 89//77 77//77
f 77//78 89//78 90//78 78//78
f 78//79 90//79 91//79 79//79
f 79//80 91//80 92//80 80//80
f 80//81 92//81 93//81 81//81
f 81//82 93//82 94//82 82//82
f 82//83 94//83 95//83 83//83
f 83//84 95//84 96//84 84//84
f 97//85 85//85 96//85 108//85
f 85//86 97//86 98//86 86//86
f 86//87 98//87 99//87 87//87
f 87//88 99//88 100//88 88//88
f 88//89 100//89 101//89 89//89
f 89//90 101//90 102//90 90//90
f 90//91 102//91 103//91 91//91
f 91//92 103//92 104//92 92//92
f 92//93 104//93 105//93 93//93
f 93//94 105//94 106//94 94//94
f 94//95 106//95 107//95 95//95
f 95//96 107//96 108//96 96//96
f 109//97 97//97 108//97 120//97
f 97//98 109//98 110//98 98//98
f 98//99 110//99 111//99 99//99
f 99//100 111//100 112//100 100//100
f 100//101 112//101 113//101 101//101
f 101//102 113//102 114//102 102//102
f 102//103 114//103 115//103 103//103
f 103//104 115//104 116//104 104//104
f 104//105 116//105 117//105 105//105
f 105//106 117//106 118//106 106//106
f 106//107 118//107 119//107 107//107
f 107//108 119//108 120//108 108//108
f 121//109 109//109 120//109 132//109
f 109//110 121//110 122//110 110//110
f 110//111 122//111 123//111 111//111
f 111//112 123//112 124//112 112//112
f 112//113 124//113 125//113 113//113
f 113//114 125//114 126//114 114//114
f 114//115 126//115 127//115 115//115
f 115//116 127//116 128//116 116//116
f 116//117 128//117 129//117 117//117
f 117//118 129//118 130//118 118//118
f 118//119 130//119 131//119 119//119
f 119//120 131//120 132//120 120//120
f 133//121 121//121 132//121 144//121
f 121//122 133//122 134//122 122//122
f 122//123 134//123 135//123 123//123
f 123//124 135//124 136//124 124//124
f 124//125 136//125 137//125 125//125
f 125//126 137//126 138//126 126//126
f 126//127 138//127 139//127 127//127
f 127//128 139//128 140//128 128//128
f 128//129 140//129 141//129 129//129
f 129//130 141//130 142//130 130//130
f 130//131 142//131 143//131 131//131
f 131//132 143//132 144//132 132//132
f 145//133 133//133 144//133 156//133
f 133//134 145//134 146//134 134//134
f 134//135 146//135 147//135 135//135
f 135//136 147//136 148//136 136//136
f 136//137 148//137 149//137 137//137
f 137//138 149//138 150//138 138//138
f 138//139 150//139 151//139 139//139
f 139//140 151//140 152//140 140//140
f 140//141 152//141 153//141 141//141
f 141//142 153//142 154//142 142//142
f 142//143 154//143 155//143 143//143
f 143//144 155//144 156//144 144//144
f 157//145 145//145 156//145 168//145
f 145//146 157//146 158//146 146//146
f 146//147 158//147 159//147 147//147
f 147//148 159//148 160//148 148//148
f 148//149 160//149 161//149 149//149
f 149//150 161//150 162//150 150//150
f 150//151 162//151 163//151 151//151
f 151//152 163//152 164//152 152//152
f 152//153 164//153 165//153 153//153
f 153//154 165//154 166//154 154//154
f 154//155 166//155 167//155 155//155
f 155//156 167//156 168//156 156//156
f 169//157 157//157 168//157 180//157
f 157//158 169//158 170//158 158//158
f 158//159 170//159 171//159 159//159
f 159//160 171//160 172//160 160//160
f 160//161 172//161 173//161 161//161
f 161//162 173//162 174//162 162//162
f 162//163 174//163 175//163 163//163
f 163//164 175//164 176//164 164//164
f 164//165 176//165 177//165 165//165
f 165//166 177//166 178//166 166//166
f 166//167 178//167 179//167 167//167
f 167//168 179//168 180//168 168//168
f 181//169 169//169 180//169 192//169
f 169//170 181//170 182//170 170//170
f 170//171 182//171 183//171 171//171
f 171//172 183//172 184//172 172//172
f 172//173 184//173 185//173 173//173
f 173//174 185//174 186//174 174//174
f 174//175 186//175 187//175 175//175
f 175//176 187//176 188//176 176//176
f 176//177 188//177 189//177 177//177
f 177//178 189//178 190//178 178//178
f 178//179 190//179 191//179 179//179
f 179//180 191//180 192//180 180//180
f 193//181 181//181 192//181 204//181
f 181//182 193//182 194//182 182//182
f 182//183 194//183 195//183 183//183
f 183//184 195//184 196//184 184//184
f 184//185 196//185 197//185 185//185
f 185//186 197//186 198//186 186//186
f 186//187 198//187 199//187 187//187
f 187//188 199//188 200//188 188//188
f 188//189 200//189 201//189 189//189
f 189//190 201//190 202//190 190//190
f 190//191 202//191 203//191 191//191
f 191//192 203//192 204//192 192//192
f 205//193 193//193 204//193 216//193
f 193//194 205//194 206//194 194//194
f 194//195 206//195 207//195 195//195
f 195//196 207//196 208//196 196//196
f 196//197 208//197 209//197 197//197
f 197//198 209//198 210//198 198//198
f 198//199 210//199 211//199 199//199
f 199//200 211//200 212//200 200//200
f 200//201 212//201 213//201 201//201
f 201//202 213//202 214//202 202//202
f 202//203 214//203 215//203 203//203
f 203//204 215//204 216//204 204//204
f 217//205 205//205 216//205 228//205
f 205//206 217//206 218//206 206//206
f 206//207 218//207 219//207 207//207
f 207//208 219//208 220//208 208//208
f 208//209 220//209 221//209 209//209
f 209//210 221//210 222//210 210//210
f 210//211 222//211 223//211 211//211
f 211//212 223//212 224//212 212//212
f 212//213 224//213 225//213 213//213
f 213//214 225//214 226//214 214//214
f 214//215 226//215 227//215 215//215
f 215//216 227//216 228//216 216//216
f 229//217 217//217 228//217 240//217
f 217//218 229//218 230//218 218//218
f 218//219 230//219 231//219 219//219
f 219//220 231//220 232//220 220//220
f 220//221 232//221 233//221 221//221
f 221//222 233//222 234//222 222//222
f 222//223 234//223 235//223 223//223
f 223//224 235//224 236//224 224//224
f 224//225 236//225 237//225 225//225
f 225//226 237//226 238//226 226//226
f 226//227 238//227 239//227 227//227
f 227//228 239//228 240//228 228//228
f 241//229 229//229 240//229 252//229
f 229//230 241//230 242//230 230//230
f 230//231 242//231 243//231 231//231
f 231//232 243//232 244//232 232//232
f 232//233 244//233 245//233 233//233
f 233//234 245//234 246//234 234//234
f 234//235 246//235 247//235 235//235
f 235//236 247//236 248//236 236//236
f 236//237 248//237 249//237 237//237
f 237//238 249//238 250//238 238//238
f 238//239 250//239 251//239 239//239
f 239//240 251//240 252//240 240//240
f 253//241 241//241 252//241 264//241
f 241//242 253//242 254//242 242//242
f 242//243 254//243 255//243 243//243
f 243//244 255//244 256//244 244//244
f 244//245 256//245 257//245 245//245
f 245//246 257//246 258//246 246//246
f 246//247 258//247 259//247 247//247
f 247//248 259//248 260//248 248//248
f 248//249 260//249 261//249 249//249
f 249//250 261//250 262//250 250//250
f 250//251 262//251 263//251 251//251
f 251//252 263//252 264//252 252//252
f 265//253 253//253 264//253 276//253
f 253//254 265//254 266//254 254//254
f 254//255 266//255 267//255 255//255
f 255//256 267//256 268//256 256//256
f 256//257 268//257 269//257 257//257
f 257//258 269//258 270//258 258//258
f 258//259 270//259 271//259 259//259
f 259//260 271//260 272//260 260//260
f 260//261 272//261 273//261 261//261
f 261//262 273//262 274//262 262//262
f 262//263 274//263 275//263 263//263
f 263//264 275//264 276//264 264//264
f 277//265 265//265 276//265 288//265
f 265//266 277//266 278//266 266//266
f 266//267 278//267 279//267 267//267
f 267//268 279//268 280//268 268//268
f 268//269 280//269 281//269 269//269
f 269//270 281//270 282//270 270//270
f 270//271 282//271 283//271 271//271
f 271//272 283//272 284//272 272//272
f 272//273 284//273 285//273 273//273
f 273//274 285//274 286//274 274//274
f 274//275 286//275 287//275 275//275
f 275//276 287//276 288//276 276//276
f 289//277 277//277 288//277 300//277
f 277//278 289//278 290//278 278//278
f 278//279 290//279 291//279 279//279
f 279//280 291//280 292//280 280//280
f 280//281 292//281 293//281 281//281
f 281//282 293//282 294//282 282//282
f 282//283 294//283 295//283 283//283
f 283//284 295//284 296//284 284//284
f 284//285 296//285 297//285 285//285
f 285//286 297//286 298//286 286//286
f 286//287 298//287 299//287 287//287
f 287//288 299//288 300//288 288//288
f 301//289 289//289 300//289 312//289
f 289//290 301//290 302//290 290//290
f 290//291 302//291 303//291 291//291
f 291//292 303//292 304//292 292//292
f 292//293 304//293 305//293 293//293
f 293//294 305//294 306//294 294//294
f 294//295 306//295 307//295 295//295
f 295//296 307//296 308//296 296//296
f 296//297 308//297 309//297 297//297
f 297//298 309//298 310//298 298//298
f 298//299 310//299 311//299 299//299
f 299//300 311//300 312//300 300//300
f 313//301 301//301 312//301 324//301
f 301//302 313//302 314//302 302//302
f 302//303 314//303 315//303 303//303
f 303//304 315//304 316//304 304//304
f 304//305 316//305 317//305 305//305
f 305//306 317//306 318//306 306//306
f 306//307 318//307 319//307 307//307
f 307//308 319//308 320//308 308//308
f 308//309 320//309 321//309 309//309
f 309//310 321//310 322//310 310//310
f 310//311 322//311 323//311 311//311
f 311//312 323//312 324//312 312//312
f 325//313 313//313 324//313 336//313
f 313//314 325//314 326//314 314//314
f 314//315 326//315 327//315 315//315
f 315//316 327//316 328//316 316//316
f 316//317 328//317 329//317 317//317
f 317//318 329//318 330//318 318//318
f 318//319 330//319 331//319 319//319
f 319//320 331//320 332//320 320//320
f 320//321 332//321 333//321 321//321
f 321//322 333//322 334//322 322//322
f 322//323 334//323 335//323 323//323
f 323//324 335//324 336//324 324//324
f 337//325 325//325 336//325 348//325
f 325//326 337//326 338//326 326//326
f 326//327 338//327 339//327 327//327
f 327//328 339//328 340//328 328//328
f 328//329 340//329 341//329 329//329
f 329//330 341//330 342//330 330//330
f 330//331 342//331 343//331 331//331
f 331//332 343//332 344//332 332//332
f 332//333 344//333 345//333 333//333
f 333//334 345//334 346//334 334//334
f 334//335 346//335 347//335 335//335
f 335//336 347//336 348//336 336//336
f 349//337 337//337 348//337 360//337
f 337//338 349//338 350//338 338//338
f 338//339 350//339 351//339 339//339
f 339//340 351//340 352//340 340//340
f 340//341 352//341 353//341 341//341
f 341//342 353//342 354//342 342//342
f 342//343 354//343 355//343 343//343
f 343//344 355//344 356//344 344//344
f 344//345 356//345 357//345 345//345
f 345//346 357//346 358//346 346//346
f 346//347 358//347 359//347 347//347
f 347//348 359//348 360//348 348//348
f 361//349 349//349 360//349 372//349
f 349//350 361//350 362//350 350//350
f 350//351 362//351 363//351 351//351
f 351//352 363//352 364//352 352//352
f 352//353 364//353 365//353 353//353
f 353//354 365//354 366//354 354//354
f 354//355 366//355 367//355 355//355
f 355//356 367//356 368//356 356//356
f 356//357 368//357 369//357 357//357
f 357//358 369//358 370//358 358//358
f 358//359 370//359 371//359 359//359
f 359//360 371//360 372//360 360//360
f 373//361 361//361 372//361 384//361
f 361//362 373//362 374//362 362//362
f 362//363 374//363 375//363 363//363
f 363//364 375//364 376//364 364//364
f 364//365 376//365 377//365 365//365
f 365//366 377//366 378//366 366//366
f 366//367 378//367 379//367 367//367
f 367//368 379//368 380//368 368//368
f 368//369 380//369 381//369 369//369
f 369//370 381//370 382//370 370//370
f 370//371 382//371 383//371 371//371
f 371//372 383//372 384//372 372//372
f 385//373 373//373 384//373 396//373
f 373//374 385//374 386//374 374//374
f 374//375 386//375 387//375 375//375
f 375//376 387//376 388//376 376//376
f 376//377 388//377 389//377 377//377
f 377//378 389//378 390//378 378//378
f 378//379 390//379 391//379 379//379
f 379//380 391//380 392//380 380//380
f 380//381 392//381 393//381 381//381
f 381//382 393//382 394//382 382//382
f 382//383 394//383 395//383 383//383
f 383//384 395//384 396//384 384//384
f 397//385 385//385 396//385 408//385
f 385//386 397//386 398//386 386//386
f 386//387 398//387 399//387 387//387
f 387//388 399//388 400//388 388//388
f 388//389 400//389 401//389 389//389
f 389//390 401//390 402//390 390//390
f 390//391 402//391 403//391 391//391
f 391//392 403//392 404//392 392//392
f 392//393 404//393 405//393 393//393
f 393//394 405//394 406//394 394//394
f 394//395 406//395 407//395 395//395
f 395//396 407//396 408//396 396//396
f 409//397 397//397 408//397 420//397
f 397//398 409//398 410//398 398//398
f 398//399 410//399 411//399 399//399
f 399//400 411//400 412//400 400//400
f 400//401 412//401 413//401 401//401
f 401//402 413//402 414//402 402//402
f 402//403 414//403 415//403 403//403
f 403//404 415//404 416//404 404//404
f 404//405 416//405 417//405 405//405
f 405//406 417//406 418//406 406//406
f 406//407 418//407 419//407 407//407
f 407//408 419//408 420//408 408//408
f 421//409 409//409 420//409 432//409
f 409//410 421//410 422//410 410//410
f 410//411 422//411 423//411 411//411
f 411//412 423//412 424//412 412//412
f 412//413 424//413 425//413 413//413
f 413//414 425//414 426//414 414//414
f 414//415 426//415 427//415 415//415
f 415//416 427//416 428//416 416//416
f 416//417 428//417 429//417 417//417
f 417//418 429//418 430//418 418//418
f 418//419 430//419 431//419 419//419
f 419//420 431//420 432//420 420//420
f 433//421 421//421 432//421 444//421
f 421//422 433//422 434//422 422//422
f 422//423 434//423 435//423 423//423
f 423//424 435//424 436//424 424//424
f 424//425 436//425 437//425 425//425
f 425//426 437//426 438//426 426//426
f 426//427 438//427 439//427 427//427
f 427//428 439//428 440//428 428//428
f 428//429 440//429 441//429 429//429
f 429//430 441//430 442//430 430//430
f 430//431 442//431 443//431 431//431
f 431//432 443//432 444//432 432//432
f 445//433 433//433 444//433 456//433
f 433//434 445//434 446//434 434//434
f 434//435 446//435 447//435 435//435
f 435//436 447//436 448//436 436//436
f 436//437 448//437 449//437 437//437
f 437//438 449//438 450//438 438//438
f 438//439 450//439 451//439 439//439
f 439//440 451//440 452//440 440//440
f 440//441 452//441 453//441 441//441
f 441//442 453//442 454//442 442//442
f 442//443 454//443 455//443 443//443
f 443//444 455//444 456//444 444//444
f 457//445 445//445 456//445 468//445
f 445//446 457//446 458//446 446//446
f 446//447 458//447 459//447 447//447
f 447//448 459//448 460//448 448//448
f 448//449 460//449 461//449 449//449
f 449//450 461//450 462//450 450//450
f 450//451 462//451 463//451 451//451
f 451//452 463//452 464//452 452//452
f 452//453 464//453 465//453 453//453
f 453//454 465//454 466//454 454//454
f 454//455 466//455 467//455 455//455
f 455//456 467//456 468//456 456//456
f 469//457 457//457 468//457 480//457
f 457//458 469//458 470//458 458//458
f 458//459 470//459 471//459 459//459
f 459//460 471//460 472//460 460//460
f 460//461 472//461 473//461 461//461
f 461//462 473//462 474//462 462//462
f 462//463 474//463 475//463 463//463
f 463//464 475//464 476//464 464//464
f 464//465 476//465 477//465 465//465
f 465//466 477//466 478//466 466//466
f 466//467 478//467 479//467 467//467
f 467//468 479//468 480//468 468//468
f 481//469 469//469 480//469 492//469
f 469//470 481//470 482//470 470//470
f 470//471 482//471 483//471 471//471
f 471//472 483//472 484//472 472//472
f 472//473 484//473 485//473 473//473
f 473//474 485//474 486//474 474//474
f 474//475 486//475 487//475 475//475
f 475//476 487//476 488//476 476//476
f 476//477 488//477 489//477 477//477
f 477//478 489//478 490//478 478//478
f 478//479 490//479 491//479 479//479
f 479//480 491//480 492//480 480//480
f 493//481 481//481 492//481 504//481
f 481//482 493//482 494//482 482//482
f 482//483 494//483 495//483 483//483
f 483//484 495//484 496//484 484//484
f 484//485 496//485 497//485 485//485
f 485//486 497//486 498//486 486//486
f 486//487 498//487 499//487 487//487
f 487//488 499//488 500//488 488//488
f 488//489 500//489 501//489 489//489
f 489//490 501//490 502//490 490//490
f 490//491 502//491 503//491 491//491
f 491//492 503//492 504//492 492//492
f 505//493 493//493 504//493 516//493
f 493//494 505//494 506//494 494//494
f 494//495 506//495 507//495 495//495
f 495//496 507//496 508//496 496//496
f 496//497 508//497 509//497 497//497
f 497//498 509//498 510//498 498//498
f 498//499 510//499 511//499 499//499
f 499//500 511//500 512//500 500//500
f 500//501 512//501 513//501 501//501
f 501//502 513//502 514//502 502//502
f 502//503 514//503 515//503 503//503
f 503//504 515//504 516//504 504//504
f 517//505 505//505 516//505 528//505
f 505//506 517//506 518//506 506//506
f 506//507 518//507 519//507 507//507
f 507//508 519//508 520//508 508//508
f 508//509 520//509 521//509 509//509
f 509//510 521//510 522//510 510//510
f 510//511 522//511 523//511 511//511
f 511//512 523//512 524//512 512//512
f 512//513 524//513 525//513 513//513
f 513//514 525//514 526//514 514//514
f 514//515 526//515 527//515 515//515
f 515//516 527//516 528//516 516//516
f 529//517 517//517 528//517 540//517
f 517//518 529//518 530//518 518//518
f 518//519 530//519 531//519 519//519
f 519//520 531//520 532//520 520//520
f 520//521 532//521 533//521 521//521
f 521//522 533//522 534//522 522//522
f 522//523 534//523 535//523 523//523
f 523//524 535//524 536//524 524//524
f 524//525 536//525 537//525 525//525
f 525//526 537//526 538//526 526//526
f 526//527 538//527 539//527 527//527
f 527//528 539//528 540//528 528//528
f 541//529 529//529 540//529 552//529
f 529//530 541//530 542//530 530//530
f 530//531 542//531 543//531 531//531
f 531//532 543//532 544//532 532//532
f 532//533 544//533 545//533 533//533
f 533//534 545//534 546//534 534//534
f 534//535 546//535 547//535 535//535
f 535//536 547//536 548//536 536//536
f 536//537 548//537 549//537 537//537
f 537//538 549//538 550//538 538//538
f 538//539 550//539 551//539 539//539
f 539//540 551//540 552//540 540//540
f 553//541 541//541 552//541 564//541
f 541//542 553//542 554//542 542//542
f 542//543 554//543 555//543 543//543
f 543//544 555//544 556//544 544//544
f 544//545 556//545 557//545 545//545
f 545//546 557//546 558//546 546//546
f 546//547 558//547 559//547 547//547
f 547//548 559//548 560//548 548//548
f 548//549 560//549 561//549 549//549
f 549//550 561//550 562//550 550//550
f 550//551 562//551 563//551 551//551
f 551//552 563//552 564//552 552//552
f 565//553 553//553 564//553 576//553
f 553//554 565//554 566//554 554//554
f 554//555 566//555 567//555 555//555
f 555//556 567//556 568//556 556//556
f 556//557 568//557 569//557 557//557
f 557//558 569//558 570//558 558//558
f 558//559 570//559 571//559 559//559
f 559//560 571//560 572//560 560//560
f 560//561 572//561 573//561 561//561
f 561//562 573//562 574//562 562//562
f 562//563 574//563 575//563 563//563
f 563//564 575//564 576//564 564//564
f 577//565 565//565 576//565 588//565
f 565//566 577//566 578//566 566//566
f 566//567 578//567 579//567 567//567
f 567//568 579//568 580//568 568//568
f 568//569 580//569 581//569 569//569
f 569//570 581//570 582//570 570//570
f 570//571 582//571 583//571 571//571
f 571//572 583//572 584//572 572//572
f 572//573 584//573 585//573 573//573
f 573//574 585//574 586//574 574//574
f 574//575 586//575 587//575 575//575
f 575//576 587//576 588//576 576//576
f 589//577 577//577 588//577 600//577
f 577//578 589//578 590//578 578//578
f 578//579 590//579 591//579 579//579
f 579//580 591//580 592//580 580//580
f 580//581 592//581 593//581 581//581
f 581//582 593//582 594//582 582//582
f 582//583 594//583 595//583 583//583
f 583//584 595//584 596//584 584//584
f 584//585 596//585 597//585 585//585
f 585//586 597//586 598//586 586//586
f 586//587 598//587 599//587 587//587
f 587//588 599//588 600//588 588//588
f 601//589 589//589 600//589 612//589
f 589//590 601//590 602//590 590//590
f 590//591 602//591 603//591 591//591
f 591//592 603//592 604//592 592//592
f 592//593 604//593 605//593 593//593
f 593//594 605//594 606//594 594//594
f 594//595 606//595 607//595 595//595
f 595//596 607//596 608//596 596//596
f 596//597 608//597 609//597 597//597
f 597//598 609//598 610//598 598//598
f 598//599 610//599 611//599 599//599
f 599//600 611//600 612//600 600//600
f 613//601 601//601 612//601 624//601
f 601//602 613//602 614//602 602//602
f 602//603 614//603 615//603 603//603
f 603//604 615//604 616//604 604//604
f 604//605 616//605 617//605 605//605
f 605//606 617//606 618//606 606//606
f 606//607 618//607 619//607 607//607
f 607//608 619//608 620//608 608//608
f 608//609 620//609 621//609 609//609
f 609//610 621//610 622//610 610//610
f 610//611 622//611 623//611 611//611
f 611//612 623//612 624//612 612//612
f 625//613 613//613 624//613 636//613
f 613//614 625//614 626//614 614//614
f 614//615 626//615 627//615 615//615
f 615//616 627//616 628//616 616//616
f 616//617 628//617 629//617 617//617
f 617//618 629//618 630//618 618//618
f 618//619 630//619 631//619 619//619
f 619//620 631//620 632//620 620//620
f 620//621 632//621 633//621 621//621
f 621//622 633//622 634//622 622//622
f 622//623 634//623 635//623 623//623
f 623//624 635//624 636//624 624//624
f 637//625 625//625 636//625 648//625
f 625//626 637//626 638//626 626//626
f 626//627 638//627 639//627 627//627
f 627//628 639//628 640//628 628//628
f 628//629 640//629 641//629 629//629
f 629//630 641//630 642//630 630//630
f 630//631 642//631 643//631 631//631
f 631//632 643//632 644//632 632//632
f 632//633 644//633 645//633 633//633
f 633//634 645//634 646//634 634//634
f 634//635 646//635 647//635 635//635
f 635//636 647//636 648//636 636//636
f 649//637 637//637 648//637 660//637
f 637//638 649//638 650//638 638//638
f 638//639 650//639 651//639 639//639
f 639//640 651//640 652//640 640//640
f 640//641 652//641 653//641 641//641
f 641//642 653//642 654//642 642//642
f 642//643 654//643 655//643 643//643
f 643//644 655//644 656//644 644//644
f 644//645 656//645 657//645 645//645
f 645//646 657//646 658//646 646//646
f 646//647 658//647 659//647 647//647
f 647//648 659//648 660//648 648//648
f 661//649 649//649 660//649 672//649
f 649//650 661//650 662//650 650//650
f 650//651 662//651 663//651 651//651
f 651//652 663//652 664//652 652//652
f 652//653 664//653 665//653 653//653
f 653//654 665//654 666//654 654//654
f 654//655 666//655 667//655 655//655
f 655//656 667//656 668//656 656//656
f 656//657 668//657 669//657 657//657
f 657//658 669//658 670//658 658//658
f 658//659 670//659 671//659 659//659
f 659//660 671//660 672//660 660//660
f 673//661 661//661 672//661 684//661
f 661//662 673//662 674//662 662//662
f 662//663 674//663 675//663 663//663
f 663//664 675//664 676//664 664//664
f 664//665 676//665 677//665 665//665
f 665//666 677//666 678//666 666//666
f 666//667 678//667 679//667 667//667
f 667//668 679//668 680//668 668//668
f 668//669 680//669 681//669 669//669
f 669//670 681//670 682//670 670//670
f 670//671 682//671 683//671 671//671
f 671//672 683//672 684//672 672//672
f 685//673 673//673 684//673 696//673
f 673//674 685//674 686//674 674//674
f 674//675 686//675 687//675 675//675
f 675//676 687//676 688//676 676//676
f 676//677 688//677 689//677 677//677
f 677//678 689//678 690//678 678//678
f 678//679 690//679 691//679 679//679
f 679//680 691//680 692//680 680//680
f 680//681 692//681 693//681 681//681
f 681//682 693//682 694//682 682//682
f 682//683 694//683 695//683 683//683
f 683//684 695//684 696//684 684//684
f 697//685 685//685 696//685 708//685
f 685//686 697//686 698//686 686//686
f 686//687 698//687 699//687 687//687
f 687//688 699//688 700//688 688//688
f 688//689 700//689 701//689 689//689
f 689//690 701//690 702//690 690//690
f 690//691 702//691 703//691 691//691
f 691//692 703//692 704//692 692//692
f 692//693 704//693 705//693 693//693
f 693//694 705//694 706//694 694//694
f 694//695 706//695 707//695 695//695
f 695//696 707//696 708//696 696//696
f 1//697 697//697 708//697 12//697
f 697//698 1//698 2//698 698//698
f 698//699 2//699 3//699 699//699
f 699//700 3//700 4//700 700//700
f 700//701 4//701 5//701 701//701
f 701//702 5//702 6//702 702//702
f 702//703 6//703 7//703 703//703
f 703//704 7//704 8//704 704//704
f 704//705 8//705 9//705 705//705
f 705//706 9//706 10//706 706//706
f 706//707 10//707 11//707 707//707
f 707//708 11//708 12//708 708//708
