<?xml version="1.0" encoding="utf-8"?>
<COLLADA xmlns="http://www.collada.org/2005/11/COLLADASchema" version="1.4.1" xmlns:xsi="http://www.w3.org/2001/XMLSchema-instance">
  <asset>
    <contributor>
      <author>Blender User</author>
      <authoring_tool>Blender 4.5.1 LTS commit date:2025-07-29, commit time:05:31, hash:b0a72b245dcf</authoring_tool>
    </contributor>
    <created>2025-08-19T09:28:28</created>
    <modified>2025-08-19T09:28:28</modified>
    <unit name="meter" meter="1"/>
    <up_axis>Z_UP</up_axis>
  </asset>
  <library_cameras>
    <camera id="Camera-camera" name="Camera">
      <optics>
        <technique_common>
          <perspective>
            <xfov sid="xfov">39.59775</xfov>
            <aspect_ratio>1.777778</aspect_ratio>
            <znear sid="znear">0.1</znear>
            <zfar sid="zfar">100</zfar>
          </perspective>
        </technique_common>
      </optics>
      <extra>
        <technique profile="blender">
          <shiftx sid="shiftx" type="float">0</shiftx>
          <shifty sid="shifty" type="float">0</shifty>
          <dof_distance sid="dof_distance" type="float">10</dof_distance>
        </technique>
      </extra>
    </camera>
  </library_cameras>
  <library_lights>
    <light id="Light-light" name="Light">
      <technique_common>
        <point>
          <color sid="color">1000 1000 1000</color>
          <constant_attenuation>1</constant_attenuation>
          <linear_attenuation>0</linear_attenuation>
          <quadratic_attenuation>0</quadratic_attenuation>
        </point>
      </technique_common>
      <extra>
        <technique profile="blender">
          <type sid="type" type="int">0</type>
          <flag sid="flag" type="int">0</flag>
          <mode sid="mode" type="int">2097153</mode>
          <red sid="red" type="float">1</red>
          <green sid="green" type="float">1</green>
          <blue sid="blue" type="float">1</blue>
          <energy sid="blender_energy" type="float">1000</energy>
          <spotsize sid="spotsize" type="float">75</spotsize>
          <spotblend sid="spotblend" type="float">0.15</spotblend>
          <clipsta sid="clipsta" type="float">0.04999995</clipsta>
          <clipend sid="clipend" type="float">40</clipend>
          <radius sid="radius" type="float">0.1</radius>
          <area_shape sid="area_shape" type="int">1</area_shape>
          <area_size sid="area_size" type="float">0.1</area_size>
          <area_sizey sid="area_sizey" type="float">0.1</area_sizey>
          <area_sizez sid="area_sizez" type="float">1</area_sizez>
        </technique>
      </extra>
    </light>
  </library_lights>
  <library_images/>
  <library_geometries>
    <geometry id="Grid-mesh" name="Grid">
      <mesh>
        <source id="Grid-mesh-positions">
          <float_array id="Grid-mesh-positions-array" count="423">-1 -1 0.3000001 -0.8 -1 0.3000001 -0.6 -1 0.3000001 -0.4 -1 0.3000001 -0.1999999 -1 0.3000001 0 -1 0.3000001 0.2 -1 0.3000001 0.4 -1 0.3000001 0.6 -1 0.3000001 0.8000001 -1 0.3000001 1 -1 0.3000001 -1 -0.8 0.3000001 -0.8 -0.8 0.4495867 -0.6 -0.8 0.4495867 -0.4 -0.8 0.4495867 -0.1999999 -0.8 0.4495867 0 -0.8 0.4495867 0.2 -0.8 0.4495867 0.4 -0.8 0.4495867 0.6 -0.8 0.4495867 0.8000001 -0.8 0.4495867 1 -0.8 0.3000001 -1 -0.6 0.3000001 -0.8 -0.6 0.4495867 -0.6 -0.6 0.5999999 -0.4 -0.6 0.5999999 -0.1999999 -0.6 0.5999999 0 -0.6 0.5999999 0.2 -0.6 0.5999999 0.4 -0.6 0.5999999 0.6 -0.6 0.5999999 0.8000001 -0.6 0.4495867 1 -0.6 0.3000001 -1 -0.4 0.3000001 -0.8 -0.4 0.4495867 -0.6 -0.4 0.5999999 -0.4 -0.4 0.6999998 -0.1999999 -0.4 0.6999998 0 -0.4 0.6999998 0.2 -0.4 0.6999998 0.4 -0.4 0.6999998 0.6 -0.4 0.5999999 0.8000001 -0.4 0.4495867 1 -0.4 0.3000001 -1 -0.1999999 0.3000001 -0.8 -0.1999999 0.4495867 -0.6 -0.1999999 0.5999999 -0.4 -0.1999999 0.6999998 -0.2 -0.2 0.8 0 -0.2 0.9 0.2 -0.2 0.8 0.4 -0.1999999 0.6999998 0.6 -0.1999999 0.5999999 0.8000001 -0.1999999 0.4495867 1 -0.1999999 0.3000001 -1 0 0.3000001 -0.8 0 0.4495867 -0.6 0 0.5999999 -0.4 0 0.6999998 -0.2 0 0.9 0 0 1 0.2 0 0.9 0.4 0 0.6999998 0.6 0 0.5999999 0.8000001 0 0.4495867 1 0 0.3000001 -1 0.2 0.3000001 -0.8 0.2 0.4495867 -0.6 0.2 0.5999999 -0.4 0.2 0.6999998 -0.2 0.2 0.8 0 0.2 0.9 0.2 0.2 0.8 0.4 0.2 0.6999998 0.6 0.2 0.5999999 0.8000001 0.2 0.4495867 1 0.2 0.3000001 -1 0.4 0.3000001 -0.8 0.4 0.4495867 -0.6 0.4 0.5999999 -0.4 0.4 0.6999998 -0.1999999 0.4 0.6999998 0 0.4 0.6999998 0.2 0.4 0.6999998 0.4 0.4 0.6999998 0.6 0.4 0.5999999 0.8000001 0.4 0.4495867 1 0.4 0.3000001 -1 0.6 0.3000001 -0.8 0.6 0.4495867 -0.6 0.6 0.5999999 -0.4 0.6 0.5999999 -0.1999999 0.6 0.5999999 0 0.6 0.5999999 0.2 0.6 0.5999999 0.4 0.6 0.5999999 0.6 0.6 0.5999999 0.8000001 0.6 0.4495867 1 0.6 0.3000001 -1 0.8000001 0.3000001 -0.8 0.8000001 0.4495867 -0.6 0.8000001 0.4495867 -0.4 0.8000001 0.4495867 -0.1999999 0.8000001 0.4495867 0 0.8000001 0.4495867 0.2 0.8000001 0.4495867 0.4 0.8000001 0.4495867 0.6 0.8000001 0.4495867 0.8000001 0.8000001 0.4495867 1 0.8000001 0.3000001 -1 1 0.3000001 -0.8 1 0.3000001 -0.6 1 0.3000001 -0.4 1 0.3000001 -0.1999999 1 0.3000001 0 1 0.3000001 0.2 1 0.3000001 0.4 1 0.3000001 0.6 1 0.3000001 0.8000001 1 0.3000001 1 1 0.3000001 0 -0.1666666 0.9 0 -0.1333333 0.9500001 0 -0.1 0.9500001 0 -0.06666666 0.9 0 -0.0333333 1 -0.0333333 0 1 -0.06666666 0 0.9 -0.1 0 0.9500001 -0.1333333 0 0.9500001 -0.1666666 0 0.9 0.1666666 0 0.9 0.1333333 0 0.9500001 0.1 0 0.9500001 0.06666666 0 0.9 0.0333333 0 1 0 0.0333333 1 0 0.06666666 0.9 0 0.1 0.9500001 0 0.1333333 0.9500001 0 0.1666666 0.9</float_array>
          <technique_common>
            <accessor source="#Grid-mesh-positions-array" count="141" stride="3">
              <param name="X" type="float"/>
              <param name="Y" type="float"/>
              <param name="Z" type="float"/>
            </accessor>
          </technique_common>
        </source>
        <source id="Grid-mesh-normals">
          <float_array id="Grid-mesh-normals-array" count="822">0 -0.5989402 0.8007938 0 -0.5989402 0.8007938 0 -0.5989402 0.8007938 0 -0.5989402 0.8007938 0 -0.5989402 0.8007938 0 -0.5989401 0.8007938 0 -0.5989402 0.8007938 0 -0.5989402 0.8007938 0.5138272 -0.513827 0.6869959 -0.5989402 0 0.8007938 0 0 1 0 -0.6010562 0.7992067 0 -0.6010562 0.7992067 0 -0.6010562 0.7992067 0 -0.6010562 0.7992067 0 -0.6010562 0.7992068 0 -0.6010562 0.7992067 0.5151612 -0.5151613 0.6849948 0.5989403 0 0.8007937 -0.5989402 0 0.8007938 -0.6010562 0 0.7992067 0 0 1 0 -0.4472132 0.8944275 0 -0.4472132 0.8944275 0 -0.4472132 0.8944274 0 -0.4472132 0.8944274 0.408248 -0.408248 0.8164969 0.6010561 0 0.7992069 0.5989403 0 0.8007937 -0.5989402 0 0.8007938 -0.6010562 0 0.7992067 -0.4472132 0 0.8944275 0 0 1 0 -0.4472144 0.8944268 0.3333331 -0.6666672 0.6666663 0.408249 -0.4082489 0.816496 0.4472132 0 0.8944275 0.6010561 0 0.7992069 0.5989403 0 0.8007937 -0.5989402 0 0.8007938 -0.6010562 0 0.7992067 -0.4472132 0 0.8944275 -0.4472144 0 0.8944268 0 0 1 0 0 1 0.6666672 -0.3333332 0.6666662 0.4472132 0 0.8944275 0.6010561 0 0.7992069 0.5989403 0 0.8007937 -0.5989402 0 0.8007938 -0.6010562 0 0.7992067 -0.4472132 0 0.8944274 -0.4472143 0 0.8944268 0 0 1 0.4472136 0 0.8944272 0.6666672 0.3333331 0.6666663 0.4472132 0 0.8944274 0.6010561 0 0.7992069 0.5989403 0 0.8007937 -0.5989401 0 0.8007938 -0.6010562 0 0.7992068 -0.4472132 0 0.8944274 0 0 1 0 0.4472144 0.8944268 0.3333331 0.6666672 0.6666663 0.4082489 0.4082489 0.816496 0.4472132 0 0.8944274 0.6010561 0 0.7992069 0.5989403 0 0.8007937 -0.5989402 0 0.8007938 -0.6010562 0 0.7992067 0 0 1 0 0.4472132 0.8944275 0 0.4472132 0.8944275 0 0.4472132 0.8944274 0 0.4472132 0.8944274 0.408248 0.408248 0.8164969 0.6010561 0 0.7992069 0.5989403 0 0.8007937 -0.5989402 0 0.8007938 0 0 1 0 0.6010561 0.7992069 0 0.6010561 0.7992069 0 0.6010561 0.7992069 0 0.6010561 0.7992069 0 0.6010561 0.7992069 0 0.6010561 0.7992069 0.5151612 0.5151612 0.6849949 0.5989403 0 0.8007937 0 0.5989403 0.8007937 0 0.5989403 0.8007937 0 0.5989403 0.8007937 0 0.5989403 0.8007937 0 0.5989403 0.8007937 0 0.5989403 0.8007937 0 0.5989403 0.8007937 0 0.5989403 0.8007937 0.5138271 0.5138271 0.6869959 0 0 -1 0 0 -1 0 0 -1 0 0 -1 0 0 -1 0 0 -1 0 0 -1 0 0 -1 0 0 -1 0 0 -1 0 0 -1 0 0 -1 0 0 -1 0 0 -1 0 0 -1 0 0 -1 0 0 -1 0 0 -1 0 0 -1 0 0 -1 0 0 -1 0 0 -1 0 0 -1 0 0 -1 0 0 -1 0 0 -1 0 0 -1 0 0 -1 0 0 -1 0 0 -1 0 0 -1 0 0 -1 0 0 -1 0 0 -1 0 0 -1 0 0 -1 0 0 -1 0 0 -1 0 0 1 0.6882472 0.6882472 0.2294159 -0.6396022 -0.6396022 0.4264014 0 0 1 0.6396023 0.6396021 0.4264013 -0.4472137 0 0.8944271 -0.6396023 0.6396021 0.4264013 0 0 1 0.6396024 -0.6396021 0.4264014 -0.6882473 0.688247 0.2294158 0.3665083 -0.3665084 0.8551862 0.6396021 -0.6396023 0.4264014 0 0 1 -0.639602 0.6396023 0.4264014 0.6882472 -0.6882473 0.2294157 -0.3665084 -0.3665084 0.8551861 -0.6396022 -0.6396022 0.4264013 0 0 1 0.6396022 0.6396023 0.4264013 -0.6882472 -0.6882472 0.2294157 -0.5138271 -0.5138271 0.686996 0 -0.5989402 0.8007938 0 -0.5989402 0.8007938 0 -0.5989402 0.8007938 0 -0.5989402 0.8007938 0 -0.5989402 0.8007938 0 -0.5989401 0.8007938 0 -0.5989402 0.8007938 0 -0.5989402 0.8007938 -0.5989402 0 0.8007938 -0.5151612 -0.5151612 0.6849947 0 -0.6010562 0.7992067 0 -0.6010562 0.7992067 0 -0.6010562 0.7992067 0 -0.6010562 0.7992067 0 -0.6010562 0.7992068 0 -0.6010562 0.7992067 0 0 1 0.5989403 0 0.8007937 -0.5989402 0 0.8007938 -0.6010562 0 0.7992067 -0.408248 -0.408248 0.8164969 0 -0.4472132 0.8944275 0 -0.4472132 0.8944275 0 -0.4472132 0.8944274 0 -0.4472132 0.8944274 0 0 1 0.6010561 0 0.7992069 0.5989403 0 0.8007937 -0.5989402 0 0.8007938 -0.6010562 0 0.7992067 -0.4472132 0 0.8944275 -0.4082489 -0.4082489 0.816496 -0.3333332 -0.6666672 0.6666662 0 -0.4472144 0.8944268 0 0 1 0.4472132 0 0.8944275 0.6010561 0 0.7992069 0.5989403 0 0.8007937 -0.5989402 0 0.8007938 -0.6010562 0 0.7992067 -0.4472132 0 0.8944275 -0.6666672 -0.3333332 0.6666662 0.4472144 0 0.8944268 0.4472132 0 0.8944275 0.6010561 0 0.7992069 0.5989403 0 0.8007937 -0.5989402 0 0.8007938 -0.6010562 0 0.7992067 -0.4472132 0 0.8944274 -0.6666671 0.3333331 0.6666663 0.3665083 0.3665083 0.8551861 0 0.4472136 0.8944272 0.4472144 0 0.8944268 0.4472132 0 0.8944274 0.6010561 0 0.7992069 0.5989403 0 0.8007937 -0.5989401 0 0.8007938 -0.6010562 0 0.7992068 -0.4472132 0 0.8944274 -0.4082489 0.408249 0.816496 -0.3333332 0.6666672 0.6666662 0 0.4472144 0.8944268 0 0 1 0.4472132 0 0.8944274 0.6010561 0 0.7992069 0.5989403 0 0.8007937 -0.5989402 0 0.8007938 -0.6010562 0 0.7992067 -0.408248 0.408248 0.8164969 0 0.4472132 0.8944275 0 0.4472132 0.8944275 0 0.4472132 0.8944274 0 0.4472132 0.8944274 0 0 1 0.6010561 0 0.7992069 0.5989403 0 0.8007937 -0.5989402 0 0.8007938 -0.5151613 0.5151612 0.6849948 0 0.6010561 0.7992069 0 0.6010561 0.7992069 0 0.6010561 0.7992069 0 0.6010561 0.7992069 0 0.6010561 0.7992069 0 0.6010561 0.7992069 0 0 1 0.5989403 0 0.8007937 -0.513827 0.5138272 0.6869959 0 0.5989403 0.8007937 0 0.5989403 0.8007937 0 0.5989403 0.8007937 0 0.5989403 0.8007937 0 0.5989403 0.8007937 0 0.5989403 0.8007937 0 0.5989403 0.8007937 0 0.5989403 0.8007937 0.6882472 0.6882472 0.2294158 -0.6396022 -0.6396021 0.4264015 0 0 1 0.6396021 0.6396021 0.4264014 0 0.4472136 0.8944272 -0.3665084 0.3665083 0.8551862 -0.6396023 0.639602 0.4264014 0 0 1 0.6396023 -0.639602 0.4264014 -0.6882473 0.6882471 0.2294158 0.4472136 0 0.8944272 0 -0.4472137 0.8944271 0.639602 -0.6396023 0.4264014 0 0 1 -0.6396021 0.6396024 0.4264014 0.688247 -0.6882473 0.2294158 0 -0.4472137 0.8944271 -0.4472137 0 0.8944271 -0.6396022 -0.6396022 0.4264013 0 0 1 0.6396022 0.6396022 0.4264013 -0.6882472 -0.6882472 0.2294157</float_array>
          <technique_common>
            <accessor source="#Grid-mesh-normals-array" count="274" stride="3">
              <param name="X" type="float"/>
              <param name="Y" type="float"/>
              <param name="Z" type="float"/>
            </accessor>
          </technique_common>
        </source>
        <source id="Grid-mesh-map-0">
          <float_array id="Grid-mesh-map-0-array" count="1644">0.2 0 0.1 0.1 0.1 0 0.3 0 0.2 0.1 0.2 0 0.4 0 0.3 0.1 0.3 0 0.5 0 0.4 0.1 0.4 0 0.6 0 0.5 0.1 0.5 0 0.7000001 0 0.6 0.1 0.6 0 0.8000001 0 0.7000001 0.1 0.7000001 0 0.9000001 0 0.8000001 0.1 0.8000001 0 0.9000001 0 1 0.1 0.9000001 0.1 0.1 0.1 0 0.2 0 0.1 0.2 0.1 0.1 0.2 0.1 0.1 0.3 0.1 0.2 0.2 0.2 0.1 0.4 0.1 0.3 0.2 0.3 0.1 0.5 0.1 0.4 0.2 0.4 0.1 0.6 0.1 0.5 0.2 0.5 0.1 0.7000001 0.1 0.6 0.2 0.6 0.1 0.8000001 0.1 0.7000001 0.2 0.7000001 0.1 0.8000001 0.1 0.9000001 0.2 0.8000001 0.2 1 0.1 0.9000001 0.2 0.9000001 0.1 0.1 0.2 0 0.3 0 0.2 0.2 0.2 0.1 0.3 0.1 0.2 0.3 0.2 0.2 0.3 0.2 0.2 0.4 0.2 0.3 0.3 0.3 0.2 0.5 0.2 0.4 0.3 0.4 0.2 0.6 0.2 0.5 0.3 0.5 0.2 0.7000001 0.2 0.6 0.3 0.6 0.2 0.7000001 0.2 0.8000001 0.3 0.7000001 0.3 0.9000001 0.2 0.8000001 0.3 0.8000001 0.2 1 0.2 0.9000001 0.3 0.9000001 0.2 0.1 0.3 0 0.4 0 0.3 0.2 0.3 0.1 0.4 0.1 0.3 0.3 0.3 0.2 0.4 0.2 0.3 0.4 0.3 0.3 0.4 0.3 0.3 0.5 0.3 0.4 0.4 0.4 0.3 0.5 0.3 0.6 0.4 0.5 0.4 0.6 0.3 0.7000001 0.4 0.6 0.4 0.8000001 0.3 0.7000001 0.4 0.7000001 0.3 0.9000001 0.3 0.8000001 0.4 0.8000001 0.3 1 0.3 0.9000001 0.4 0.9000001 0.3 0.1 0.4 0 0.5 0 0.4 0.2 0.4 0.1 0.5 0.1 0.4 0.3 0.4 0.2 0.5 0.2 0.4 0.4 0.4 0.3 0.5 0.3 0.4 0.4833333 0.5 0.5 0.4833333 0.5 0.5 0.5 0.4833333 0.5166667 0.5 0.5 0.5 0.6 0.4 0.7000001 0.5 0.6 0.5 0.8000001 0.4 0.7000001 0.5 0.7000001 0.4 0.9000001 0.4 0.8000001 0.5 0.8000001 0.4 1 0.4 0.9000001 0.5 0.9000001 0.4 0.1 0.5 0 0.6 0 0.5 0.2 0.5 0.1 0.6 0.1 0.5 0.3 0.5 0.2 0.6 0.2 0.5 0.3 0.5 0.4 0.6 0.3 0.6 0.4833333 0.5 0.5 0.5 0.5 0.5166667 0.6 0.6 0.5 0.6 0.5 0.5833333 0.7000001 0.5 0.6 0.6 0.6 0.5 0.8000001 0.5 0.7000001 0.6 0.7000001 0.5 0.9000001 0.5 0.8000001 0.6 0.8000001 0.5 1 0.5 0.9000001 0.6 0.9000001 0.5 0.1 0.6 0 0.7000001 0 0.6 0.2 0.6 0.1 0.7000001 0.1 0.6 0.3 0.6 0.2 0.7000001 0.2 0.6 0.3 0.6 0.4 0.7000001 0.3 0.7000001 0.4 0.6 0.5 0.7000001 0.4 0.7000001 0.6 0.6 0.5 0.7000001 0.5 0.6 0.7000001 0.6 0.6 0.7000001 0.6 0.6 0.8000001 0.6 0.7000001 0.7000001 0.7000001 0.6 0.9000001 0.6 0.8000001 0.7000001 0.8000001 0.6 1 0.6 0.9000001 0.7000001 0.9000001 0.6 0.1 0.7000001 0 0.8000001 0 0.7000001 0.2 0.7000001 0.1 0.8000001 0.1 0.7000001 0.2 0.7000001 0.3 0.8000001 0.2 0.8000001 0.4 0.7000001 0.3 0.8000001 0.3 0.7000001 0.5 0.7000001 0.4 0.8000001 0.4 0.7000001 0.6 0.7000001 0.5 0.8000001 0.5 0.7000001 0.7000001 0.7000001 0.6 0.8000001 0.6 0.7000001 0.8000001 0.7000001 0.7000001 0.8000001 0.7000001 0.7000001 0.9000001 0.7000001 0.8000001 0.8000001 0.8000001 0.7000001 1 0.7000001 0.9000001 0.8000001 0.9000001 0.7000001 0.1 0.8000001 0 0.9000001 0 0.8000001 0.1 0.8000001 0.2 0.9000001 0.1 0.9000001 0.3 0.8000001 0.2 0.9000001 0.2 0.8000001 0.4 0.8000001 0.3 0.9000001 0.3 0.8000001 0.5 0.8000001 0.4 0.9000001 0.4 0.8000001 0.6 0.8000001 0.5 0.9000001 0.5 0.8000001 0.7000001 0.8000001 0.6 0.9000001 0.6 0.8000001 0.8000001 0.8000001 0.7000001 0.9000001 0.7000001 0.8000001 0.9000001 0.8000001 0.8000001 0.9000001 0.8000001 0.8000001 1 0.8000001 0.9000001 0.9000001 0.9000001 0.8000001 0.2 0.9000001 0.1 1 0.1 0.9000001 0.3 0.9000001 0.2 1 0.2 0.9000001 0.4 0.9000001 0.3 1 0.3 0.9000001 0.5 0.9000001 0.4 1 0.4 0.9000001 0.6 0.9000001 0.5 1 0.5 0.9000001 0.7000001 0.9000001 0.6 1 0.6 0.9000001 0.8000001 0.9000001 0.7000001 1 0.7000001 0.9000001 0.9000001 0.9000001 0.8000001 1 0.8000001 0.9000001 1 0.9000001 0.9000001 1 0.9000001 0.9000001 0 0 0 0 0 0 0 0 0 0 0 0 0 0 0 0 0 0 0 0 0 0 0 0 0 0 0 0 0 0 0 0 0 0 0 0 0 0 0 0 0 0 0 0 0 0 0 0 0 0 0 0 0 0 0 0 0 0 0 0 0 0 0 0 0 0 0 0 0 0 0 0 0 0 0 0 0 0 0 0 0 0 0 0 0 0 0 0 0 0 0 0 0 0 0 0 0 0 0 0 0 0 0 0 0 0 0 0 0 0 0 0 0 0 0 0 0 0 0 0 0 0 0 0 0 0 0 0 0 0 0 0 0 0 0 0 0 0 0 0 0 0 0 0 0 0 0 0 0 0 0 0 0 0 0 0 0 0 0 0 0 0 0 0 0 0 0 0 0 0 0 0 0 0 0 0 0 0 0 0 0 0 0 0 0 0 0 0 0 0 0 0 0 0 0 0 0 0 0 0 0 0 0 0 0 0 0 0 0 0 0 0 0 0 0 0 0 0 0 0 0 0 0 0 0 0 0 0 0.5 0.5 0.5166667 0.5 0.5 0.5166667 0.5333333 0.5 0.5 0.5166667 0.5166667 0.5 0.55 0.5 0.5 0.5333333 0.5333333 0.5 0.5666667 0.5 0.5 0.55 0.55 0.5 0.5666667 0.5 0.5 0.5833333 0.5 0.5666666 0.5 0.5833333 0.5 0.6 0.4 0.6 0.4166667 0.5 0.5 0.5666666 0.5 0.5833333 0.45 0.5 0.5 0.5666666 0.4333333 0.5 0.45 0.5 0.5 0.5333333 0.5 0.55 0.4666666 0.5 0.5 0.5166667 0.5 0.5333333 0.6 0.4 0.5833333 0.5 0.5 0.4166667 0.5 0.4166667 0.5666667 0.5 0.5 0.4333333 0.5666667 0.5 0.5 0.45 0.5 0.4333333 0.5 0.45 0.5333333 0.5 0.5 0.4666666 0.5 0.4666666 0.5166667 0.5 0.5 0.4833333 0.4166667 0.5 0.4 0.4 0.5 0.4166667 0.5 0.4166667 0.4333333 0.5 0.4166667 0.5 0.5 0.4333333 0.45 0.5 0.4333333 0.5 0.5 0.45 0.4666666 0.5 0.45 0.5 0.5 0.4666666 0.4833333 0.5 0.4666666 0.5 0.1 0 0.1 0.1 0 0.1 0.2 0 0.2 0.1 0.1 0.1 0.3 0 0.3 0.1 0.2 0.1 0.4 0 0.4 0.1 0.3 0.1 0.5 0 0.5 0.1 0.4 0.1 0.6 0 0.6 0.1 0.5 0.1 0.7000001 0 0.7000001 0.1 0.6 0.1 0.8000001 0 0.8000001 0.1 0.7000001 0.1 0.9000001 0 0.9000001 0.1 0.8000001 0.1 0.1 0.1 0.1 0.2 0 0.2 0.2 0.1 0.2 0.2 0.1 0.2 0.3 0.1 0.3 0.2 0.2 0.2 0.4 0.1 0.4 0.2 0.3 0.2 0.5 0.1 0.5 0.2 0.4 0.2 0.6 0.1 0.6 0.2 0.5 0.2 0.7000001 0.1 0.7000001 0.2 0.6 0.2 0.8000001 0.1 0.8000001 0.2 0.7000001 0.2 0.8000001 0.1 0.9000001 0.1 0.9000001 0.2 1 0.1 1 0.2 0.9000001 0.2 0.1 0.2 0.1 0.3 0 0.3 0.2 0.2 0.2 0.3 0.1 0.3 0.3 0.2 0.3 0.3 0.2 0.3 0.4 0.2 0.4 0.3 0.3 0.3 0.5 0.2 0.5 0.3 0.4 0.3 0.6 0.2 0.6 0.3 0.5 0.3 0.7000001 0.2 0.7000001 0.3 0.6 0.3 0.7000001 0.2 0.8000001 0.2 0.8000001 0.3 0.9000001 0.2 0.9000001 0.3 0.8000001 0.3 1 0.2 1 0.3 0.9000001 0.3 0.1 0.3 0.1 0.4 0 0.4 0.2 0.3 0.2 0.4 0.1 0.4 0.3 0.3 0.3 0.4 0.2 0.4 0.4 0.3 0.4 0.4 0.3 0.4 0.5 0.3 0.5 0.4 0.4 0.4 0.5 0.3 0.6 0.3 0.6 0.4 0.6 0.3 0.7000001 0.3 0.7000001 0.4 0.8000001 0.3 0.8000001 0.4 0.7000001 0.4 0.9000001 0.3 0.9000001 0.4 0.8000001 0.4 1 0.3 1 0.4 0.9000001 0.4 0.1 0.4 0.1 0.5 0 0.5 0.2 0.4 0.2 0.5 0.1 0.5 0.3 0.4 0.3 0.5 0.2 0.5 0.4 0.4 0.4 0.5 0.3 0.5 0.6 0.4 0.7000001 0.4 0.7000001 0.5 0.8000001 0.4 0.8000001 0.5 0.7000001 0.5 0.9000001 0.4 0.9000001 0.5 0.8000001 0.5 1 0.4 1 0.5 0.9000001 0.5 0.1 0.5 0.1 0.6 0 0.6 0.2 0.5 0.2 0.6 0.1 0.6 0.3 0.5 0.3 0.6 0.2 0.6 0.3 0.5 0.4 0.5 0.4 0.6 0.5 0.5833333 0.5833333 0.5 0.6 0.6 0.5833333 0.5 0.6 0.5 0.6 0.6 0.7000001 0.5 0.7000001 0.6 0.6 0.6 0.8000001 0.5 0.8000001 0.6 0.7000001 0.6 0.9000001 0.5 0.9000001 0.6 0.8000001 0.6 1 0.5 1 0.6 0.9000001 0.6 0.1 0.6 0.1 0.7000001 0 0.7000001 0.2 0.6 0.2 0.7000001 0.1 0.7000001 0.3 0.6 0.3 0.7000001 0.2 0.7000001 0.3 0.6 0.4 0.6 0.4 0.7000001 0.4 0.6 0.5 0.6 0.5 0.7000001 0.6 0.6 0.6 0.7000001 0.5 0.7000001 0.7000001 0.6 0.7000001 0.7000001 0.6 0.7000001 0.8000001 0.6 0.8000001 0.7000001 0.7000001 0.7000001 0.9000001 0.6 0.9000001 0.7000001 0.8000001 0.7000001 1 0.6 1 0.7000001 0.9000001 0.7000001 0.1 0.7000001 0.1 0.8000001 0 0.8000001 0.2 0.7000001 0.2 0.8000001 0.1 0.8000001 0.2 0.7000001 0.3 0.7000001 0.3 0.8000001 0.4 0.7000001 0.4 0.8000001 0.3 0.8000001 0.5 0.7000001 0.5 0.8000001 0.4 0.8000001 0.6 0.7000001 0.6 0.8000001 0.5 0.8000001 0.7000001 0.7000001 0.7000001 0.8000001 0.6 0.8000001 0.8000001 0.7000001 0.8000001 0.8000001 0.7000001 0.8000001 0.9000001 0.7000001 0.9000001 0.8000001 0.8000001 0.8000001 1 0.7000001 1 0.8000001 0.9000001 0.8000001 0.1 0.8000001 0.1 0.9000001 0 0.9000001 0.1 0.8000001 0.2 0.8000001 0.2 0.9000001 0.3 0.8000001 0.3 0.9000001 0.2 0.9000001 0.4 0.8000001 0.4 0.9000001 0.3 0.9000001 0.5 0.8000001 0.5 0.9000001 0.4 0.9000001 0.6 0.8000001 0.6 0.9000001 0.5 0.9000001 0.7000001 0.8000001 0.7000001 0.9000001 0.6 0.9000001 0.8000001 0.8000001 0.8000001 0.9000001 0.7000001 0.9000001 0.9000001 0.8000001 0.9000001 0.9000001 0.8000001 0.9000001 1 0.8000001 1 0.9000001 0.9000001 0.9000001 0 0.9000001 0.1 0.9000001 0.1 1 0.2 0.9000001 0.2 1 0.1 1 0.3 0.9000001 0.3 1 0.2 1 0.4 0.9000001 0.4 1 0.3 1 0.5 0.9000001 0.5 1 0.4 1 0.6 0.9000001 0.6 1 0.5 1 0.7000001 0.9000001 0.7000001 1 0.6 1 0.8000001 0.9000001 0.8000001 1 0.7000001 1 0.9000001 0.9000001 0.9000001 1 0.8000001 1 0.5333333 0.5 0.5 0.5333333 0.5 0.5166667 0.55 0.5 0.5 0.55 0.5 0.5333333 0.5666667 0.5 0.5 0.5666666 0.5 0.55 0.5666667 0.5 0.5833333 0.5 0.5 0.5833333 0.4 0.6 0.4 0.5 0.4166667 0.5 0.4166667 0.5 0.5 0.5833333 0.4 0.6 0.4166667 0.5 0.4333333 0.5 0.5 0.5666666 0.45 0.5 0.5 0.55 0.5 0.5666666 0.45 0.5 0.4666666 0.5 0.5 0.5333333 0.4666666 0.5 0.4833333 0.5 0.5 0.5166667 0.5 0.4166667 0.5 0.4 0.6 0.4 0.6 0.4 0.6 0.5 0.5833333 0.5 0.5 0.4166667 0.5833333 0.5 0.5666667 0.5 0.5666667 0.5 0.55 0.5 0.5 0.45 0.5 0.45 0.55 0.5 0.5333333 0.5 0.5 0.4666666 0.5333333 0.5 0.5166667 0.5 0.4 0.5 0.4 0.4 0.4166667 0.5 0.4 0.4 0.5 0.4 0.5 0.4166667 0.5 0.4166667 0.5 0.4333333 0.4333333 0.5 0.5 0.4333333 0.5 0.45 0.45 0.5 0.5 0.45 0.5 0.4666666 0.4666666 0.5 0.5 0.4666666 0.5 0.4833333 0.4833333 0.5</float_array>
          <technique_common>
            <accessor source="#Grid-mesh-map-0-array" count="822" stride="2">
              <param name="S" type="float"/>
              <param name="T" type="float"/>
            </accessor>
          </technique_common>
        </source>
        <vertices id="Grid-mesh-vertices">
          <input semantic="POSITION" source="#Grid-mesh-positions"/>
        </vertices>
        <triangles count="274">
          <input semantic="VERTEX" source="#Grid-mesh-vertices" offset="0"/>
          <input semantic="NORMAL" source="#Grid-mesh-normals" offset="1"/>
          <input semantic="TEXCOORD" source="#Grid-mesh-map-0" offset="2" set="0"/>
          <p>2 0 0 12 0 1 1 0 2 3 1 3 13 1 4 2 1 5 4 2 6 14 2 7 3 2 8 5 3 9 15 3 10 4 3 11 6 4 12 16 4 13 5 4 14 7 5 15 17 5 16 6 5 17 8 6 18 18 6 19 7 6 20 9 7 21 19 7 22 8 7 23 9 8 24 21 8 25 20 8 26 12 9 27 22 9 28 11 9 29 13 10 30 23 10 31 12 10 32 14 11 33 24 11 34 13 11 35 15 12 36 25 12 37 14 12 38 16 13 39 26 13 40 15 13 41 17 14 42 27 14 43 16 14 44 18 15 45 28 15 46 17 15 47 19 16 48 29 16 49 18 16 50 19 17 51 31 17 52 30 17 53 21 18 54 31 18 55 20 18 56 23 19 57 33 19 58 22 19 59 24 20 60 34 20 61 23 20 62 25 21 63 35 21 64 24 21 65 26 22 66 36 22 67 25 22 68 27 23 69 37 23 70 26 23 71 28 24 72 38 24 73 27 24 74 29 25 75 39 25 76 28 25 77 29 26 78 41 26 79 40 26 80 31 27 81 41 27 82 30 27 83 32 28 84 42 28 85 31 28 86 34 29 87 44 29 88 33 29 89 35 30 90 45 30 91 34 30 92 36 31 93 46 31 94 35 31 95 37 32 96 47 32 97 36 32 98 38 33 99 48 33 100 37 33 101 38 34 102 50 34 103 49 34 104 39 35 105 51 35 106 50 35 107 41 36 108 51 36 109 40 36 110 42 37 111 52 37 112 41 37 113 43 38 114 53 38 115 42 38 116 45 39 117 55 39 118 44 39 119 46 40 120 56 40 121 45 40 122 47 41 123 57 41 124 46 41 125 48 42 126 58 42 127 47 42 128 126 43 129 125 43 130 60 43 131 125 44 132 135 44 133 60 44 134 50 45 135 62 45 136 61 45 137 52 46 138 62 46 139 51 46 140 53 47 141 63 47 142 52 47 143 54 48 144 64 48 145 53 48 146 56 49 147 66 49 148 55 49 149 57 50 150 67 50 151 56 50 152 58 51 153 68 51 154 57 51 155 58 52 156 70 52 157 69 52 158 126 53 159 60 53 160 136 53 161 72 54 162 71 54 163 140 54 164 62 55 165 72 55 166 61 55 167 63 56 168 73 56 169 62 56 170 64 57 171 74 57 172 63 57 173 65 58 174 75 58 175 64 58 176 67 59 177 77 59 178 66 59 179 68 60 180 78 60 181 67 60 182 69 61 183 79 61 184 68 61 185 69 62 186 81 62 187 80 62 188 70 63 189 82 63 190 81 63 191 72 64 192 82 64 193 71 64 194 73 65 195 83 65 196 72 65 197 74 66 198 84 66 199 73 66 200 75 67 201 85 67 202 74 67 203 76 68 204 86 68 205 75 68 206 78 69 207 88 69 208 77 69 209 79 70 210 89 70 211 78 70 212 79 71 213 91 71 214 90 71 215 81 72 216 91 72 217 80 72 218 82 73 219 92 73 220 81 73 221 83 74 222 93 74 223 82 74 224 84 75 225 94 75 226 83 75 227 85 76 228 95 76 229 84 76 230 86 77 231 96 77 232 85 77 233 87 78 234 97 78 235 86 78 236 89 79 237 99 79 238 88 79 239 89 80 240 101 80 241 100 80 242 91 81 243 101 81 244 90 81 245 92 82 246 102 82 247 91 82 248 93 83 249 103 83 250 92 83 251 94 84 252 104 84 253 93 84 254 95 85 255 105 85 256 94 85 257 96 86 258 106 86 259 95 86 260 97 87 261 107 87 262 96 87 263 98 88 264 108 88 265 97 88 266 101 89 267 111 89 268 100 89 269 102 90 270 112 90 271 101 90 272 103 91 273 113 91 274 102 91 275 104 92 276 114 92 277 103 92 278 105 93 279 115 93 280 104 93 281 106 94 282 116 94 283 105 94 284 107 95 285 117 95 286 106 95 287 108 96 288 118 96 289 107 96 290 109 97 291 119 97 292 108 97 293 99 98 294 110 98 295 111 98 296 99 99 297 111 99 298 112 99 299 113 100 300 77 100 301 112 100 302 114 101 303 77 101 304 113 101 305 77 102 306 88 102 307 112 102 308 114 103 309 115 103 310 55 103 311 109 104 312 98 104 313 118 104 314 119 105 315 109 105 316 118 105 317 120 106 318 109 106 319 119 106 320 32 107 321 21 107 322 8 107 323 4 108 324 3 108 325 44 108 326 117 109 327 98 109 328 87 109 329 54 110 330 43 110 331 6 110 332 117 111 333 87 111 334 76 111 335 115 112 336 116 112 337 76 112 338 115 113 339 76 113 340 65 113 341 66 114 342 114 114 343 55 114 344 55 115 345 115 115 346 65 115 347 65 116 348 5 116 349 55 116 350 54 117 351 5 117 352 65 117 353 5 118 354 44 118 355 55 118 356 5 119 357 4 119 358 44 119 359 3 120 360 33 120 361 44 120 362 43 121 363 32 121 364 8 121 365 3 122 366 22 122 367 33 122 368 98 123 369 117 123 370 118 123 371 88 124 372 99 124 373 112 124 374 21 125 375 10 125 376 9 125 377 1 126 378 0 126 379 11 126 380 1 127 381 11 127 382 2 127 383 11 128 384 22 128 385 2 128 386 116 129 387 117 129 388 76 129 389 66 130 390 77 130 391 114 130 392 5 131 393 54 131 394 6 131 395 6 132 396 43 132 397 7 132 398 7 133 399 43 133 400 8 133 401 8 134 402 21 134 403 9 134 404 22 135 405 3 135 406 2 135 407 60 136 408 135 136 409 136 136 410 134 137 411 136 137 412 135 137 413 133 138 414 137 138 415 134 138 416 132 139 417 138 139 418 133 139 419 132 140 420 140 140 421 139 140 422 140 141 423 71 141 424 70 141 425 130 142 426 139 142 427 140 142 428 128 143 429 139 143 430 129 143 431 128 144 432 137 144 433 138 144 434 127 145 435 136 145 436 137 145 437 50 146 438 131 146 439 121 146 440 121 147 441 132 147 442 122 147 443 132 148 444 123 148 445 122 148 446 123 149 447 134 149 448 124 149 449 124 150 450 135 150 451 125 150 452 130 151 453 48 151 454 121 151 455 121 152 456 129 152 457 130 152 458 122 153 459 128 153 460 129 153 461 123 154 462 127 154 463 128 154 464 124 155 465 126 155 466 127 155 467 1 156 468 12 156 469 11 156 470 2 157 471 13 157 472 12 157 473 3 158 474 14 158 475 13 158 476 4 159 477 15 159 478 14 159 479 5 160 480 16 160 481 15 160 482 6 161 483 17 161 484 16 161 485 7 162 486 18 162 487 17 162 488 8 163 489 19 163 490 18 163 491 9 164 492 20 164 493 19 164 494 12 165 495 23 165 496 22 165 497 13 166 498 24 166 499 23 166 500 14 167 501 25 167 502 24 167 503 15 168 504 26 168 505 25 168 506 16 169 507 27 169 508 26 169 509 17 170 510 28 170 511 27 170 512 18 171 513 29 171 514 28 171 515 19 172 516 30 172 517 29 172 518 19 173 519 20 173 520 31 173 521 21 174 522 32 174 523 31 174 524 23 175 525 34 175 526 33 175 527 24 176 528 35 176 529 34 176 530 25 177 531 36 177 532 35 177 533 26 178 534 37 178 535 36 178 536 27 179 537 38 179 538 37 179 539 28 180 540 39 180 541 38 180 542 29 181 543 40 181 544 39 181 545 29 182 546 30 182 547 41 182 548 31 183 549 42 183 550 41 183 551 32 184 552 43 184 553 42 184 554 34 185 555 45 185 556 44 185 557 35 186 558 46 186 559 45 186 560 36 187 561 47 187 562 46 187 563 37 188 564 48 188 565 47 188 566 38 189 567 49 189 568 48 189 569 38 190 570 39 190 571 50 190 572 39 191 573 40 191 574 51 191 575 41 192 576 52 192 577 51 192 578 42 193 579 53 193 580 52 193 581 43 194 582 54 194 583 53 194 584 45 195 585 56 195 586 55 195 587 46 196 588 57 196 589 56 196 590 47 197 591 58 197 592 57 197 593 48 198 594 59 198 595 58 198 596 50 199 597 51 199 598 62 199 599 52 200 600 63 200 601 62 200 602 53 201 603 64 201 604 63 201 605 54 202 606 65 202 607 64 202 608 56 203 609 67 203 610 66 203 611 57 204 612 68 204 613 67 204 614 58 205 615 69 205 616 68 205 617 58 206 618 59 206 619 70 206 620 140 207 621 131 207 622 72 207 623 131 208 624 61 208 625 72 208 626 62 209 627 73 209 628 72 209 629 63 210 630 74 210 631 73 210 632 64 211 633 75 211 634 74 211 635 65 212 636 76 212 637 75 212 638 67 213 639 78 213 640 77 213 641 68 214 642 79 214 643 78 214 644 69 215 645 80 215 646 79 215 647 69 216 648 70 216 649 81 216 650 70 217 651 71 217 652 82 217 653 72 218 654 83 218 655 82 218 656 73 219 657 84 219 658 83 219 659 74 220 660 85 220 661 84 220 662 75 221 663 86 221 664 85 221 665 76 222 666 87 222 667 86 222 668 78 223 669 89 223 670 88 223 671 79 224 672 90 224 673 89 224 674 79 225 675 80 225 676 91 225 677 81 226 678 92 226 679 91 226 680 82 227 681 93 227 682 92 227 683 83 228 684 94 228 685 93 228 686 84 229 687 95 229 688 94 229 689 85 230 690 96 230 691 95 230 692 86 231 693 97 231 694 96 231 695 87 232 696 98 232 697 97 232 698 89 233 699 100 233 700 99 233 701 89 234 702 90 234 703 101 234 704 91 235 705 102 235 706 101 235 707 92 236 708 103 236 709 102 236 710 93 237 711 104 237 712 103 237 713 94 238 714 105 238 715 104 238 716 95 239 717 106 239 718 105 239 719 96 240 720 107 240 721 106 240 722 97 241 723 108 241 724 107 241 725 98 242 726 109 242 727 108 242 728 99 243 729 100 243 730 111 243 731 101 244 732 112 244 733 111 244 734 102 245 735 113 245 736 112 245 737 103 246 738 114 246 739 113 246 740 104 247 741 115 247 742 114 247 743 105 248 744 116 248 745 115 248 746 106 249 747 117 249 748 116 249 749 107 250 750 118 250 751 117 250 752 108 251 753 119 251 754 118 251 755 134 252 756 137 252 757 136 252 758 133 253 759 138 253 760 137 253 761 132 254 762 139 254 763 138 254 764 132 255 765 131 255 766 140 255 767 70 256 768 59 256 769 130 256 770 130 257 771 140 257 772 70 257 773 130 258 774 129 258 775 139 258 776 128 259 777 138 259 778 139 259 779 128 260 780 127 260 781 137 260 782 127 261 783 126 261 784 136 261 785 121 262 786 49 262 787 50 262 788 50 263 789 61 263 790 131 263 791 121 264 792 131 264 793 132 264 794 132 265 795 133 265 796 123 265 797 123 266 798 133 266 799 134 266 800 124 267 801 134 267 802 135 267 803 59 268 804 48 268 805 130 268 806 48 269 807 49 269 808 121 269 809 121 270 810 122 270 811 129 270 812 122 271 813 123 271 814 128 271 815 123 272 816 124 272 817 127 272 818 124 273 819 125 273 820 126 273 821</p>
        </triangles>
      </mesh>
    </geometry>
  </library_geometries>
  <library_visual_scenes>
    <visual_scene id="Scene" name="Scene">
      <node id="Grid" name="Grid" type="NODE">
        <matrix sid="transform">1 0 0 0 0 1 0 0 0 0 1 0 0 0 0 1</matrix>
        <instance_geometry url="#Grid-mesh" name="Grid"/>
      </node>
      <node id="Camera" name="Camera" type="NODE">
        <matrix sid="transform">0.6859207 -0.3240135 0.6515582 7.358891 0.7276763 0.3054208 -0.6141704 -6.925791 0 0.8953956 0.4452714 4.958309 0 0 0 1</matrix>
        <instance_camera url="#Camera-camera"/>
      </node>
      <node id="Light" name="Light" type="NODE">
        <matrix sid="transform">-0.2908646 -0.7711008 0.5663932 4.076245 0.9551712 -0.1998834 0.2183912 1.005454 -0.05518906 0.6045247 0.7946723 5.903862 0 0 0 1</matrix>
        <instance_light url="#Light-light"/>
      </node>
    </visual_scene>
  </library_visual_scenes>
  <scene>
    <instance_visual_scene url="#Scene"/>
  </scene>
</COLLADA>