# Blender 4.5.1 LTS
# www.blender.org
mtllib PyrimidThing.mtl
o Grid
v -1.000000 0.300000 1.000000
v -0.800000 0.300000 1.000000
v -0.600000 0.300000 1.000000
v -0.400000 0.300000 1.000000
v -0.200000 0.300000 1.000000
v 0.000000 0.300000 1.000000
v 0.200000 0.300000 1.000000
v 0.400000 0.300000 1.000000
v 0.600000 0.300000 1.000000
v 0.800000 0.300000 1.000000
v 1.000000 0.300000 1.000000
v -1.000000 0.300000 0.800000
v -0.800000 0.449587 0.800000
v -0.600000 0.449587 0.800000
v -0.400000 0.449587 0.800000
v -0.200000 0.449587 0.800000
v 0.000000 0.449587 0.800000
v 0.200000 0.449587 0.800000
v 0.400000 0.449587 0.800000
v 0.600000 0.449587 0.800000
v 0.800000 0.449587 0.800000
v 1.000000 0.300000 0.800000
v -1.000000 0.300000 0.600000
v -0.800000 0.449587 0.600000
v -0.600000 0.600000 0.600000
v -0.400000 0.600000 0.600000
v -0.200000 0.600000 0.600000
v 0.000000 0.600000 0.600000
v 0.200000 0.600000 0.600000
v 0.400000 0.600000 0.600000
v 0.600000 0.600000 0.600000
v 0.800000 0.449587 0.600000
v 1.000000 0.300000 0.600000
v -1.000000 0.300000 0.400000
v -0.800000 0.449587 0.400000
v -0.600000 0.600000 0.400000
v -0.400000 0.700000 0.400000
v -0.200000 0.700000 0.400000
v 0.000000 0.700000 0.400000
v 0.200000 0.700000 0.400000
v 0.400000 0.700000 0.400000
v 0.600000 0.600000 0.400000
v 0.800000 0.449587 0.400000
v 1.000000 0.300000 0.400000
v -1.000000 0.300000 0.200000
v -0.800000 0.449587 0.200000
v -0.600000 0.600000 0.200000
v -0.400000 0.700000 0.200000
v -0.200000 0.800000 0.200000
v -0.000000 0.900000 0.200000
v 0.200000 0.800000 0.200000
v 0.400000 0.700000 0.200000
v 0.600000 0.600000 0.200000
v 0.800000 0.449587 0.200000
v 1.000000 0.300000 0.200000
v -1.000000 0.300000 0.000000
v -0.800000 0.449587 0.000000
v -0.600000 0.600000 0.000000
v -0.400000 0.700000 0.000000
v -0.200000 0.900000 0.000000
v -0.000000 1.000000 0.000000
v 0.200000 0.900000 0.000000
v 0.400000 0.700000 0.000000
v 0.600000 0.600000 0.000000
v 0.800000 0.449587 0.000000
v 1.000000 0.300000 0.000000
v -1.000000 0.300000 -0.200000
v -0.800000 0.449587 -0.200000
v -0.600000 0.600000 -0.200000
v -0.400000 0.700000 -0.200000
v -0.200000 0.800000 -0.200000
v -0.000000 0.900000 -0.200000
v 0.200000 0.800000 -0.200000
v 0.400000 0.700000 -0.200000
v 0.600000 0.600000 -0.200000
v 0.800000 0.449587 -0.200000
v 1.000000 0.300000 -0.200000
v -1.000000 0.300000 -0.400000
v -0.800000 0.449587 -0.400000
v -0.600000 0.600000 -0.400000
v -0.400000 0.700000 -0.400000
v -0.200000 0.700000 -0.400000
v 0.000000 0.700000 -0.400000
v 0.200000 0.700000 -0.400000
v 0.400000 0.700000 -0.400000
v 0.600000 0.600000 -0.400000
v 0.800000 0.449587 -0.400000
v 1.000000 0.300000 -0.400000
v -1.000000 0.300000 -0.600000
v -0.800000 0.449587 -0.600000
v -0.600000 0.600000 -0.600000
v -0.400000 0.600000 -0.600000
v -0.200000 0.600000 -0.600000
v 0.000000 0.600000 -0.600000
v 0.200000 0.600000 -0.600000
v 0.400000 0.600000 -0.600000
v 0.600000 0.600000 -0.600000
v 0.800000 0.449587 -0.600000
v 1.000000 0.300000 -0.600000
v -1.000000 0.300000 -0.800000
v -0.800000 0.449587 -0.800000
v -0.600000 0.449587 -0.800000
v -0.400000 0.449587 -0.800000
v -0.200000 0.449587 -0.800000
v 0.000000 0.449587 -0.800000
v 0.200000 0.449587 -0.800000
v 0.400000 0.449587 -0.800000
v 0.600000 0.449587 -0.800000
v 0.800000 0.449587 -0.800000
v 1.000000 0.300000 -0.800000
v -1.000000 0.300000 -1.000000
v -0.800000 0.300000 -1.000000
v -0.600000 0.300000 -1.000000
v -0.400000 0.300000 -1.000000
v -0.200000 0.300000 -1.000000
v 0.000000 0.300000 -1.000000
v 0.200000 0.300000 -1.000000
v 0.400000 0.300000 -1.000000
v 0.600000 0.300000 -1.000000
v 0.800000 0.300000 -1.000000
v 1.000000 0.300000 -1.000000
v -0.000000 0.900000 0.166667
v -0.000000 0.950000 0.133333
v -0.000000 0.950000 0.100000
v -0.000000 0.900000 0.066667
v -0.000000 1.000000 0.033333
v -0.033333 1.000000 0.000000
v -0.066667 0.900000 0.000000
v -0.100000 0.950000 0.000000
v -0.133333 0.950000 0.000000
v -0.166667 0.900000 0.000000
v 0.166667 0.900000 0.000000
v 0.133333 0.950000 0.000000
v 0.100000 0.950000 0.000000
v 0.066667 0.900000 0.000000
v 0.033333 1.000000 0.000000
v -0.000000 1.000000 -0.033333
v -0.000000 0.900000 -0.066667
v -0.000000 0.950000 -0.100000
v -0.000000 0.950000 -0.133333
v -0.000000 0.900000 -0.166667
vn -0.3306 0.8840 0.3306
vn -0.0000 0.8008 0.5989
vn 0.3306 0.8840 0.3306
vn -0.5989 0.8008 -0.0000
vn -0.3320 0.8829 0.3320
vn -0.0000 0.7992 0.6011
vn 0.3320 0.8829 0.3320
vn 0.5989 0.8008 -0.0000
vn -0.6011 0.7992 -0.0000
vn -0.2357 0.9428 0.2357
vn -0.0000 0.8944 0.4472
vn 0.2357 0.9428 0.2357
vn 0.6011 0.7992 -0.0000
vn -0.4472 0.8944 -0.0000
vn -0.1961 0.7845 0.5883
vn 0.1961 0.7845 0.5883
vn 0.4472 0.8944 -0.0000
vn -0.5883 0.7845 0.1961
vn -0.0000 1.0000 -0.0000
vn 0.5883 0.7845 0.1961
vn -0.5883 0.7845 -0.1961
vn 0.3368 0.8793 -0.3368
vn 0.5883 0.7845 -0.1961
vn -0.2357 0.9428 -0.2357
vn -0.1961 0.7845 -0.5883
vn 0.1961 0.7845 -0.5883
vn 0.2357 0.9428 -0.2357
vn -0.0000 0.8944 -0.4472
vn -0.3320 0.8829 -0.3320
vn -0.0000 0.7992 -0.6011
vn 0.3320 0.8829 -0.3320
vn -0.3306 0.8840 -0.3306
vn -0.0000 0.8008 -0.5989
vn 0.3306 0.8840 -0.3306
vn -0.0000 -1.0000 -0.0000
vn 0.6882 0.2294 -0.6882
vn -0.6396 0.4264 0.6396
vn 0.6396 0.4264 -0.6396
vn -0.3368 0.8793 -0.3368
vn -0.6396 0.4264 -0.6396
vn 0.6396 0.4264 0.6396
vn -0.6882 0.2294 -0.6882
vn 0.3368 0.8793 0.3368
vn 0.6882 0.2294 0.6882
vn -0.3368 0.8793 0.3368
vn -0.6882 0.2294 0.6882
vt 0.000000 0.000000
vt 0.100000 0.000000
vt 0.100000 0.100000
vt 0.000000 0.100000
vt 0.200000 0.000000
vt 0.200000 0.100000
vt 0.300000 0.000000
vt 0.300000 0.100000
vt 0.200000 0.100000
vt 0.400000 0.000000
vt 0.400000 0.100000
vt 0.500000 0.000000
vt 0.500000 0.100000
vt 0.600000 0.000000
vt 0.600000 0.100000
vt 0.700000 0.000000
vt 0.700000 0.100000
vt 0.800000 0.000000
vt 0.800000 0.100000
vt 0.900000 0.000000
vt 0.900000 0.100000
vt 1.000000 0.000000
vt 1.000000 0.100000
vt 0.100000 0.200000
vt 0.000000 0.200000
vt 0.200000 0.200000
vt 0.300000 0.200000
vt 0.200000 0.200000
vt 0.400000 0.200000
vt 0.500000 0.200000
vt 0.600000 0.200000
vt 0.700000 0.200000
vt 0.800000 0.200000
vt 0.900000 0.200000
vt 1.000000 0.200000
vt 0.000000 0.200000
vt 0.100000 0.200000
vt 0.100000 0.300000
vt 0.000000 0.300000
vt 0.200000 0.200000
vt 0.200000 0.300000
vt 0.300000 0.200000
vt 0.300000 0.300000
vt 0.200000 0.300000
vt 0.400000 0.200000
vt 0.400000 0.300000
vt 0.500000 0.200000
vt 0.500000 0.300000
vt 0.600000 0.200000
vt 0.600000 0.300000
vt 0.700000 0.200000
vt 0.700000 0.300000
vt 0.800000 0.200000
vt 0.800000 0.300000
vt 0.900000 0.200000
vt 0.900000 0.300000
vt 1.000000 0.200000
vt 1.000000 0.300000
vt 0.100000 0.400000
vt 0.000000 0.400000
vt 0.200000 0.400000
vt 0.300000 0.400000
vt 0.200000 0.400000
vt 0.400000 0.400000
vt 0.500000 0.400000
vt 0.600000 0.400000
vt 0.700000 0.400000
vt 0.800000 0.400000
vt 0.900000 0.400000
vt 1.000000 0.400000
vt 0.100000 0.500000
vt 0.000000 0.500000
vt 0.200000 0.500000
vt 0.300000 0.500000
vt 0.200000 0.500000
vt 0.400000 0.500000
vt 0.483333 0.500000
vt 0.500000 0.483333
vt 0.500000 0.500000
vt 0.516667 0.500000
vt 0.700000 0.500000
vt 0.600000 0.500000
vt 0.800000 0.500000
vt 0.900000 0.500000
vt 1.000000 0.500000
vt 0.100000 0.600000
vt 0.000000 0.600000
vt 0.200000 0.600000
vt 0.300000 0.600000
vt 0.200000 0.600000
vt 0.400000 0.600000
vt 0.500000 0.516667
vt 0.583333 0.500000
vt 0.600000 0.600000
vt 0.500000 0.600000
vt 0.500000 0.583333
vt 0.700000 0.600000
vt 0.800000 0.600000
vt 0.900000 0.600000
vt 1.000000 0.600000
vt 0.100000 0.700000
vt 0.000000 0.700000
vt 0.200000 0.700000
vt 0.300000 0.700000
vt 0.200000 0.700000
vt 0.400000 0.700000
vt 0.500000 0.700000
vt 0.600000 0.700000
vt 0.700000 0.700000
vt 0.800000 0.700000
vt 0.900000 0.700000
vt 1.000000 0.700000
vt 0.100000 0.800000
vt 0.000000 0.800000
vt 0.200000 0.800000
vt 0.300000 0.800000
vt 0.200000 0.800000
vt 0.400000 0.800000
vt 0.500000 0.800000
vt 0.600000 0.800000
vt 0.700000 0.800000
vt 0.800000 0.800000
vt 0.900000 0.800000
vt 1.000000 0.800000
vt 0.100000 0.900000
vt 0.000000 0.900000
vt 0.200000 0.900000
vt 0.300000 0.900000
vt 0.200000 0.900000
vt 0.400000 0.900000
vt 0.500000 0.900000
vt 0.600000 0.900000
vt 0.700000 0.900000
vt 0.800000 0.900000
vt 0.900000 0.900000
vt 1.000000 0.900000
vt 0.100000 1.000000
vt 0.000000 1.000000
vt 0.200000 1.000000
vt 0.300000 1.000000
vt 0.200000 1.000000
vt 0.400000 1.000000
vt 0.500000 1.000000
vt 0.600000 1.000000
vt 0.700000 1.000000
vt 0.800000 1.000000
vt 0.900000 1.000000
vt 1.000000 1.000000
vt 0.533333 0.500000
vt 0.500000 0.533333
vt 0.550000 0.500000
vt 0.500000 0.550000
vt 0.566667 0.500000
vt 0.500000 0.566667
vt 0.416667 0.500000
vt 0.433333 0.500000
vt 0.450000 0.500000
vt 0.466667 0.500000
vt 0.500000 0.416667
vt 0.500000 0.433333
vt 0.500000 0.450000
vt 0.500000 0.466667
s 0
f 1/1/1 2/2/1 13/3/1 12/4/1
f 2/2/2 3/5/2 14/6/2 13/3/2
f 3/5/2 4/7/2 15/8/2 14/9/2
f 4/7/2 5/10/2 16/11/2 15/8/2
f 5/10/2 6/12/2 17/13/2 16/11/2
f 6/12/2 7/14/2 18/15/2 17/13/2
f 7/14/2 8/16/2 19/17/2 18/15/2
f 8/16/2 9/18/2 20/19/2 19/17/2
f 9/18/2 10/20/2 21/21/2 20/19/2
f 10/20/3 11/22/3 22/23/3 21/21/3
f 12/4/4 13/3/4 24/24/4 23/25/4
f 13/3/5 14/6/5 25/26/5 24/24/5
f 14/6/6 15/8/6 26/27/6 25/28/6
f 15/8/6 16/11/6 27/29/6 26/27/6
f 16/11/6 17/13/6 28/30/6 27/29/6
f 17/13/6 18/15/6 29/31/6 28/30/6
f 18/15/6 19/17/6 30/32/6 29/31/6
f 19/17/6 20/19/6 31/33/6 30/32/6
f 20/19/7 21/21/7 32/34/7 31/33/7
f 21/21/8 22/23/8 33/35/8 32/34/8
f 23/36/4 24/37/4 35/38/4 34/39/4
f 24/37/9 25/40/9 36/41/9 35/38/9
f 25/40/10 26/42/10 37/43/10 36/44/10
f 26/42/11 27/45/11 38/46/11 37/43/11
f 27/45/11 28/47/11 39/48/11 38/46/11
f 28/47/11 29/49/11 40/50/11 39/48/11
f 29/49/11 30/51/11 41/52/11 40/50/11
f 30/51/12 31/53/12 42/54/12 41/52/12
f 31/53/13 32/55/13 43/56/13 42/54/13
f 32/55/8 33/57/8 44/58/8 43/56/8
f 34/39/4 35/38/4 46/59/4 45/60/4
f 35/38/9 36/41/9 47/61/9 46/59/9
f 36/41/14 37/43/14 48/62/14 47/63/14
f 37/43/10 38/46/10 49/64/10 48/62/10
f 38/46/15 39/48/15 50/65/15 49/64/15
f 39/48/16 40/50/16 51/66/16 50/65/16
f 40/50/12 41/52/12 52/67/12 51/66/12
f 41/52/17 42/54/17 53/68/17 52/67/17
f 42/54/13 43/56/13 54/69/13 53/68/13
f 43/56/8 44/58/8 55/70/8 54/69/8
f 45/60/4 46/59/4 57/71/4 56/72/4
f 46/59/9 47/61/9 58/73/9 57/71/9
f 47/61/14 48/62/14 59/74/14 58/75/14
f 48/62/18 49/64/18 60/76/18 59/74/18
f 127/77/19 126/78/19 61/79/19
f 126/78/19 136/80/19 61/79/19
f 51/66/20 52/67/20 63/81/20 62/82/20
f 52/67/17 53/68/17 64/83/17 63/81/17
f 53/68/13 54/69/13 65/84/13 64/83/13
f 54/69/8 55/70/8 66/85/8 65/84/8
f 56/72/4 57/71/4 68/86/4 67/87/4
f 57/71/9 58/73/9 69/88/9 68/86/9
f 58/73/14 59/74/14 70/89/14 69/90/14
f 59/74/21 60/76/21 71/91/21 70/89/21
f 127/77/19 61/79/19 137/92/19
f 132/93/22 62/82/22 73/94/22 72/95/22 141/96/22
f 62/82/23 63/81/23 74/97/23 73/94/23
f 63/81/17 64/83/17 75/98/17 74/97/17
f 64/83/13 65/84/13 76/99/13 75/98/13
f 65/84/8 66/85/8 77/100/8 76/99/8
f 67/87/4 68/86/4 79/101/4 78/102/4
f 68/86/9 69/88/9 80/103/9 79/101/9
f 69/88/14 70/89/14 81/104/14 80/105/14
f 70/89/24 71/91/24 82/106/24 81/104/24
f 71/91/25 72/95/25 83/107/25 82/106/25
f 72/95/26 73/94/26 84/108/26 83/107/26
f 73/94/27 74/97/27 85/109/27 84/108/27
f 74/97/17 75/98/17 86/110/17 85/109/17
f 75/98/13 76/99/13 87/111/13 86/110/13
f 76/99/8 77/100/8 88/112/8 87/111/8
f 78/102/4 79/101/4 90/113/4 89/114/4
f 79/101/9 80/103/9 91/115/9 90/113/9
f 80/103/24 81/104/24 92/116/24 91/117/24
f 81/104/28 82/106/28 93/118/28 92/116/28
f 82/106/28 83/107/28 94/119/28 93/118/28
f 83/107/28 84/108/28 95/120/28 94/119/28
f 84/108/28 85/109/28 96/121/28 95/120/28
f 85/109/27 86/110/27 97/122/27 96/121/27
f 86/110/13 87/111/13 98/123/13 97/122/13
f 87/111/8 88/112/8 99/124/8 98/123/8
f 89/114/4 90/113/4 101/125/4 100/126/4
f 90/113/29 91/115/29 102/127/29 101/125/29
f 91/115/30 92/116/30 103/128/30 102/129/30
f 92/116/30 93/118/30 104/130/30 103/128/30
f 93/118/30 94/119/30 105/131/30 104/130/30
f 94/119/30 95/120/30 106/132/30 105/131/30
f 95/120/30 96/121/30 107/133/30 106/132/30
f 96/121/30 97/122/30 108/134/30 107/133/30
f 97/122/31 98/123/31 109/135/31 108/134/31
f 98/123/8 99/124/8 110/136/8 109/135/8
f 100/126/32 101/125/32 112/137/32 111/138/32
f 101/125/33 102/127/33 113/139/33 112/137/33
f 102/127/33 103/128/33 114/140/33 113/141/33
f 103/128/33 104/130/33 115/142/33 114/140/33
f 104/130/33 105/131/33 116/143/33 115/142/33
f 105/131/33 106/132/33 117/144/33 116/143/33
f 106/132/33 107/133/33 118/145/33 117/144/33
f 107/133/33 108/134/33 119/146/33 118/145/33
f 108/134/33 109/135/33 120/147/33 119/146/33
f 109/135/34 110/136/34 121/148/34 120/147/34
f 100/1/35 111/1/35 112/1/35
f 100/1/35 112/1/35 113/1/35
f 114/1/35 78/1/35 113/1/35
f 115/1/35 78/1/35 114/1/35
f 78/1/35 89/1/35 113/1/35
f 115/1/35 116/1/35 56/1/35
f 110/1/35 99/1/35 119/1/35
f 120/1/35 110/1/35 119/1/35
f 121/1/35 110/1/35 120/1/35
f 33/1/35 22/1/35 9/1/35
f 5/1/35 4/1/35 45/1/35
f 118/1/35 99/1/35 88/1/35
f 55/1/35 44/1/35 7/1/35
f 118/1/35 88/1/35 77/1/35
f 116/1/35 117/1/35 77/1/35
f 116/1/35 77/1/35 66/1/35
f 67/1/35 115/1/35 56/1/35
f 56/1/35 116/1/35 66/1/35
f 66/1/35 6/1/35 56/1/35
f 55/1/35 6/1/35 66/1/35
f 6/1/35 45/1/35 56/1/35
f 6/1/35 5/1/35 45/1/35
f 4/1/35 34/1/35 45/1/35
f 44/1/35 33/1/35 9/1/35
f 4/1/35 23/1/35 34/1/35
f 99/1/35 118/1/35 119/1/35
f 89/1/35 100/1/35 113/1/35
f 22/1/35 11/1/35 10/1/35
f 2/1/35 1/1/35 12/1/35
f 2/1/35 12/1/35 3/1/35
f 12/1/35 23/1/35 3/1/35
f 117/1/35 118/1/35 77/1/35
f 67/1/35 78/1/35 115/1/35
f 6/1/35 55/1/35 7/1/35
f 7/1/35 44/1/35 8/1/35
f 8/1/35 44/1/35 9/1/35
f 9/1/35 22/1/35 10/1/35
f 23/1/35 4/1/35 3/1/35
f 61/79/19 136/80/19 137/92/19
f 136/80/36 135/149/36 138/150/36 137/92/36
f 135/149/37 134/151/37 139/152/37 138/150/37
f 134/151/19 133/153/19 140/154/19 139/152/19
f 133/153/38 132/93/38 141/96/38 140/154/38
f 60/76/39 131/155/39 141/96/39 72/95/39 71/91/39
f 131/155/40 130/156/40 140/154/40 141/96/40
f 130/156/19 129/157/19 139/152/19 140/154/19
f 129/157/41 128/158/41 138/150/41 139/152/41
f 128/158/42 127/77/42 137/92/42 138/150/42
f 50/65/43 51/66/43 62/82/43 132/93/43 122/159/43
f 122/159/41 132/93/41 133/153/41 123/160/41
f 123/160/19 133/153/19 134/151/19 124/161/19
f 124/161/40 134/151/40 135/149/40 125/162/40
f 125/162/44 135/149/44 136/80/44 126/78/44
f 49/64/45 50/65/45 122/159/45 131/155/45 60/76/45
f 131/155/37 122/159/37 123/160/37 130/156/37
f 130/156/19 123/160/19 124/161/19 129/157/19
f 129/157/38 124/161/38 125/162/38 128/158/38
f 128/158/46 125/162/46 126/78/46 127/77/46
