# Blender 4.5.1 LTS
# www.blender.org
mtllib StandardDiamondMesh.mtl
o Cube
v 0.000000 0.000000 -1.000000
v 0.000000 1.000000 0.000000
v 1.000000 0.000000 0.000000
v 0.000000 -1.000000 0.000000
v 0.000000 0.000000 -1.000000
v 1.000000 0.000000 0.000000
v 1.000000 0.000000 0.000000
v 0.000000 1.000000 0.000000
v 0.000000 0.000000 1.000000
v 1.000000 0.000000 0.000000
v 0.000000 0.000000 1.000000
v 0.000000 -1.000000 0.000000
v 0.000000 0.000000 -1.000000
v -1.000000 0.000000 0.000000
v 0.000000 1.000000 0.000000
v -1.000000 0.000000 0.000000
v 0.000000 0.000000 -1.000000
v 0.000000 -1.000000 0.000000
v -1.000000 0.000000 0.000000
v 0.000000 0.000000 1.000000
v 0.000000 1.000000 0.000000
v 0.000000 -1.000000 0.000000
v 0.000000 0.000000 1.000000
v -1.000000 0.000000 0.000000
vn 0.5774 0.5774 -0.5774
vn 0.5774 -0.5774 -0.5774
vn 0.5774 0.5774 0.5774
vn 0.5774 -0.5774 0.5774
vn -0.5774 0.5774 -0.5774
vn -0.5774 -0.5774 -0.5774
vn -0.5774 0.5774 0.5774
vn -0.5774 -0.5774 0.5774
vn -0.0000 1.0000 -0.0000
vt 0.500000 0.375000
vt 0.625000 0.375000
vt 0.500000 0.500000
vt 0.250000 0.625000
vt 0.250000 0.500000
vt 0.375000 0.625000
vt 0.500000 0.750000
vt 0.625000 0.875000
vt 0.500000 0.875000
vt 0.250000 0.750000
vt 0.500000 0.250000
vt 0.500000 0.125000
vt 0.625000 0.125000
vt 0.125000 0.625000
vt 0.500000 0.000000
vt 0.500000 0.000000
vt 0.500000 0.125000
vt 0.500000 0.375000
vt 0.625000 0.875000
vt 0.500000 0.875000
vt 0.750000 0.625000
s 0
usemtl Material
f 1/1/1 2/2/1 3/3/1
f 4/4/2 5/5/2 6/6/2
f 7/7/3 8/8/3 9/9/3
f 10/6/4 11/10/4 12/4/4
f 13/11/5 14/12/5 15/13/5
f 16/14/6 17/5/6 18/4/6
f 19/12/7 20/15/7 21/13/7
f 22/4/8 23/10/8 24/14/8
f 18/4/9 22/4/9 24/14/9 16/14/9
f 4/4/9 18/4/9 17/5/9 5/5/9
f 3/3/9 6/6/9 5/5/9 1/1/9
f 23/16/9 20/15/9 19/12/9 24/17/9
f 9/9/9 11/10/9 10/6/9 7/7/9
f 13/11/9 17/18/9 16/17/9 14/12/9
f 8/8/9 21/19/9 20/20/9 9/9/9
f 2/2/9 8/8/9 7/7/9 3/3/9
f 22/4/9 12/4/9 11/10/9 23/10/9
f 21/13/9 15/13/9 14/12/9 19/12/9
f 15/13/9 2/2/9 1/1/9 13/11/9
f 12/4/9 4/4/9 6/6/9 10/6/9
f 17/18/9 13/11/9 1/1/9 5/5/9
f 6/6/9 3/3/9 7/7/9 10/6/9
f 2/2/9 15/21/9 21/21/9 8/8/9
f 18/4/9 4/4/9 12/4/9 22/4/9
f 11/10/9 9/9/9 20/20/9 23/20/9
f 24/17/9 19/12/9 14/12/9 16/17/9
