<?xml version="1.0" encoding="utf-8"?>
<COLLADA xmlns="http://www.collada.org/2005/11/COLLADASchema" version="1.4.1" xmlns:xsi="http://www.w3.org/2001/XMLSchema-instance">
  <asset>
    <contributor>
      <author>Blender User</author>
      <authoring_tool>Blender 4.5.1 LTS commit date:2025-07-29, commit time:05:31, hash:b0a72b245dcf</authoring_tool>
    </contributor>
    <created>2025-08-19T11:04:11</created>
    <modified>2025-08-19T11:04:11</modified>
    <unit name="meter" meter="1"/>
    <up_axis>Z_UP</up_axis>
  </asset>
  <library_cameras>
    <camera id="Camera-camera" name="Camera">
      <optics>
        <technique_common>
          <perspective>
            <xfov sid="xfov">39.59775</xfov>
            <aspect_ratio>1.777778</aspect_ratio>
            <znear sid="znear">0.1</znear>
            <zfar sid="zfar">100</zfar>
          </perspective>
        </technique_common>
      </optics>
      <extra>
        <technique profile="blender">
          <shiftx sid="shiftx" type="float">0</shiftx>
          <shifty sid="shifty" type="float">0</shifty>
          <dof_distance sid="dof_distance" type="float">10</dof_distance>
        </technique>
      </extra>
    </camera>
  </library_cameras>
  <library_lights>
    <light id="Light-light" name="Light">
      <technique_common>
        <point>
          <color sid="color">1000 1000 1000</color>
          <constant_attenuation>1</constant_attenuation>
          <linear_attenuation>0</linear_attenuation>
          <quadratic_attenuation>0</quadratic_attenuation>
        </point>
      </technique_common>
      <extra>
        <technique profile="blender">
          <type sid="type" type="int">0</type>
          <flag sid="flag" type="int">0</flag>
          <mode sid="mode" type="int">2097153</mode>
          <red sid="red" type="float">1</red>
          <green sid="green" type="float">1</green>
          <blue sid="blue" type="float">1</blue>
          <energy sid="blender_energy" type="float">1000</energy>
          <spotsize sid="spotsize" type="float">75</spotsize>
          <spotblend sid="spotblend" type="float">0.15</spotblend>
          <clipsta sid="clipsta" type="float">0.04999995</clipsta>
          <clipend sid="clipend" type="float">40</clipend>
          <radius sid="radius" type="float">0.1</radius>
          <area_shape sid="area_shape" type="int">1</area_shape>
          <area_size sid="area_size" type="float">0.1</area_size>
          <area_sizey sid="area_sizey" type="float">0.1</area_sizey>
          <area_sizez sid="area_sizez" type="float">1</area_sizez>
        </technique>
      </extra>
    </light>
  </library_lights>
  <library_effects>
    <effect id="Material-effect">
      <profile_COMMON>
        <technique sid="common">
          <lambert>
            <emission>
              <color sid="emission">0 0 0 1</color>
            </emission>
            <diffuse>
              <color sid="diffuse">0.8 0.8 0.8 1</color>
            </diffuse>
            <index_of_refraction>
              <float sid="ior">1.45</float>
            </index_of_refraction>
          </lambert>
        </technique>
      </profile_COMMON>
    </effect>
  </library_effects>
  <library_images/>
  <library_materials>
    <material id="Material-material" name="Material">
      <instance_effect url="#Material-effect"/>
    </material>
  </library_materials>
  <library_geometries>
    <geometry id="Cube-mesh" name="Cube">
      <mesh>
        <source id="Cube-mesh-positions">
          <float_array id="Cube-mesh-positions-array" count="72">0 1 0 0 0 1 1 0 0 0 0 -1 0 1 0 1 0 0 1 0 0 0 0 1 0 -1 0 1 0 0 0 -1 0 0 0 -1 0 1 0 -1 0 0 0 0 1 -1 0 0 0 1 0 0 0 -1 -1 0 0 0 -1 0 0 0 1 0 0 -1 0 -1 0 -1 0 0</float_array>
          <technique_common>
            <accessor source="#Cube-mesh-positions-array" count="24" stride="3">
              <param name="X" type="float"/>
              <param name="Y" type="float"/>
              <param name="Z" type="float"/>
            </accessor>
          </technique_common>
        </source>
        <source id="Cube-mesh-normals">
          <float_array id="Cube-mesh-normals-array" count="132">0.5773503 0.5773503 0.5773503 0.5773503 0.5773503 -0.5773503 0.5773503 -0.5773503 0.5773503 0.5773503 -0.5773503 -0.5773503 -0.5773503 0.5773503 0.5773503 -0.5773503 0.5773503 -0.5773503 -0.5773503 -0.5773503 0.5773503 -0.5773503 -0.5773503 -0.5773503 0 0 1 0 0 1 0 0 1 0 0 1 0 0 1 0 0 1 0 0 1 0 0 1 0 0 1 0 0 1 0 0 1 0 0 1 0 0 1 0 0 1 0 0 1 0 0 1 0 0 1 0 0 1 0 0 1 0 0 1 0 0 1 0 0 1 0 0 1 0 0 1 0 0 1 0 0 1 0 0 1 0 0 1 0 0 1 0 0 1 0 0 1 0 0 1 0 0 1 0 0 1 0 0 1 0 0 1</float_array>
          <technique_common>
            <accessor source="#Cube-mesh-normals-array" count="44" stride="3">
              <param name="X" type="float"/>
              <param name="Y" type="float"/>
              <param name="Z" type="float"/>
            </accessor>
          </technique_common>
        </source>
        <source id="Cube-mesh-map-0">
          <float_array id="Cube-mesh-map-0-array" count="264">0.5 0.375 0.625 0.375 0.5 0.5 0.25 0.625 0.25 0.5 0.375 0.625 0.5 0.75 0.625 0.875 0.5 0.875 0.375 0.625 0.25 0.75 0.25 0.625 0.5 0.25 0.5 0.125 0.625 0.125 0.125 0.625 0.25 0.5 0.25 0.625 0.5 0.125 0.5 0 0.625 0.125 0.25 0.625 0.25 0.75 0.125 0.625 0.25 0.625 0.125 0.625 0.25 0.625 0.25 0.625 0.25 0.5 0.25 0.625 0.375 0.625 0.5 0.375 0.5 0.5 0.5 0 0.5 0.125 0.5 0 0.25 0.75 0.5 0.75 0.5 0.875 0.5 0.375 0.5 0.125 0.5 0.25 0.625 0.875 0.5 0.875 0.625 0.875 0.625 0.875 0.5 0.5 0.625 0.375 0.25 0.625 0.25 0.75 0.25 0.625 0.625 0.125 0.5 0.125 0.625 0.125 0.625 0.375 0.5 0.25 0.625 0.125 0.25 0.625 0.375 0.625 0.25 0.625 0.5 0.25 0.25 0.5 0.5 0.375 0.5 0.5 0.375 0.625 0.375 0.625 0.75 0.625 0.625 0.875 0.625 0.375 0.25 0.625 0.25 0.625 0.25 0.625 0.5 0.875 0.5 0.875 0.25 0.75 0.5 0.125 0.5 0.125 0.5 0.125 0.25 0.625 0.125 0.625 0.125 0.625 0.25 0.625 0.25 0.5 0.25 0.5 0.375 0.625 0.25 0.5 0.5 0.375 0.5 0 0.5 0.125 0.5 0.125 0.25 0.75 0.375 0.625 0.5 0.75 0.5 0.375 0.5 0.125 0.5 0.125 0.625 0.875 0.5 0.875 0.5 0.875 0.625 0.875 0.5 0.75 0.5 0.5 0.25 0.625 0.25 0.75 0.25 0.75 0.625 0.125 0.5 0.125 0.5 0.125 0.625 0.375 0.5 0.375 0.5 0.25 0.25 0.625 0.375 0.625 0.375 0.625 0.5 0.25 0.5 0.375 0.25 0.5 0.5 0.5 0.5 0.75 0.375 0.625 0.75 0.625 0.75 0.625 0.625 0.875 0.25 0.625 0.25 0.625 0.25 0.625 0.5 0.875 0.5 0.875 0.5 0.875 0.5 0.125 0.5 0.125 0.5 0.125</float_array>
          <technique_common>
            <accessor source="#Cube-mesh-map-0-array" count="132" stride="2">
              <param name="S" type="float"/>
              <param name="T" type="float"/>
            </accessor>
          </technique_common>
        </source>
        <vertices id="Cube-mesh-vertices">
          <input semantic="POSITION" source="#Cube-mesh-positions"/>
        </vertices>
        <triangles material="Material-material" count="44">
          <input semantic="VERTEX" source="#Cube-mesh-vertices" offset="0"/>
          <input semantic="NORMAL" source="#Cube-mesh-normals" offset="1"/>
          <input semantic="TEXCOORD" source="#Cube-mesh-map-0" offset="2" set="0"/>
          <p>0 0 0 1 0 1 2 0 2 3 1 3 4 1 4 5 1 5 6 2 6 7 2 7 8 2 8 9 3 9 10 3 10 11 3 11 12 4 12 13 4 13 14 4 14 15 5 15 16 5 16 17 5 17 18 6 18 19 6 19 20 6 20 21 7 21 22 7 22 23 7 23 21 8 24 15 8 25 17 8 26 17 9 27 4 9 28 3 9 29 5 10 30 0 10 31 2 10 32 19 11 33 23 11 34 22 11 35 10 12 36 6 12 37 8 12 38 16 13 39 13 13 40 12 13 41 20 14 42 8 14 43 7 14 44 7 15 45 2 15 46 1 15 47 11 16 48 22 16 49 21 16 50 14 17 51 18 17 52 20 17 53 1 18 54 12 18 55 14 18 56 3 19 57 9 19 58 11 19 59 12 20 60 4 20 61 16 20 62 2 21 63 9 21 64 5 21 65 14 22 66 7 22 67 1 22 68 3 23 69 21 23 70 17 23 71 8 24 72 22 24 73 10 24 74 18 25 75 15 25 76 23 25 77 21 26 78 23 26 79 15 26 80 17 27 81 16 27 82 4 27 83 5 28 84 4 28 85 0 28 86 19 29 87 18 29 88 23 29 89 10 30 90 9 30 91 6 30 92 16 31 93 15 31 94 13 31 95 20 32 96 19 32 97 8 32 98 7 33 99 6 33 100 2 33 101 11 34 102 10 34 103 22 34 104 14 35 105 13 35 106 18 35 107 1 36 108 0 36 109 12 36 110 3 37 111 5 37 112 9 37 113 12 38 114 0 38 115 4 38 116 2 39 117 6 39 118 9 39 119 14 40 120 20 40 121 7 40 122 3 41 123 11 41 124 21 41 125 8 42 126 19 42 127 22 42 128 18 43 129 13 43 130 15 43 131</p>
        </triangles>
      </mesh>
    </geometry>
  </library_geometries>
  <library_visual_scenes>
    <visual_scene id="Scene" name="Scene">
      <node id="Camera" name="Camera" type="NODE">
        <matrix sid="transform">0.6859207 -0.3240135 0.6515582 7.358891 0.7276763 0.3054208 -0.6141704 -6.925791 0 0.8953956 0.4452714 4.958309 0 0 0 1</matrix>
        <instance_camera url="#Camera-camera"/>
      </node>
      <node id="Light" name="Light" type="NODE">
        <matrix sid="transform">-0.2908646 -0.7711008 0.5663932 4.076245 0.9551712 -0.1998834 0.2183912 1.005454 -0.05518906 0.6045247 0.7946723 5.903862 0 0 0 1</matrix>
        <instance_light url="#Light-light"/>
      </node>
      <node id="Cube" name="Cube" type="NODE">
        <matrix sid="transform">1 0 0 0 0 1 0 0 0 0 1 0 0 0 0 1</matrix>
        <instance_geometry url="#Cube-mesh" name="Cube">
          <bind_material>
            <technique_common>
              <instance_material symbol="Material-material" target="#Material-material">
                <bind_vertex_input semantic="UVMap" input_semantic="TEXCOORD" input_set="0"/>
              </instance_material>
            </technique_common>
          </bind_material>
        </instance_geometry>
      </node>
    </visual_scene>
  </library_visual_scenes>
  <scene>
    <instance_visual_scene url="#Scene"/>
  </scene>
</COLLADA>