# Blender 4.5.1 LTS
# www.blender.org
mtllib RandomThing.mtl
o Cube
v 0.000000 -1.000000 1.000000
v -0.163299 -0.918350 0.918350
v -1.000000 0.000000 1.000000
v -0.918350 -0.163299 0.918350
v -0.918350 -0.918350 0.163299
v -1.000000 -1.000000 0.000000
v 0.000000 1.000000 1.000000
v -0.163299 0.918350 0.918350
v -1.000000 1.000000 0.000000
v -0.918350 0.918350 0.163299
v -0.918350 0.163299 0.918350
v -1.000000 0.000000 1.000000
v -1.000000 -1.000000 0.000000
v -0.918350 -0.918350 -0.163299
v -1.000000 0.000000 -1.000000
v -0.918350 -0.163299 -0.918350
v -0.163299 -0.918350 -0.918350
v 0.000000 -1.000000 -1.000000
v 0.000000 1.000000 -1.000000
v -0.163299 0.918350 -0.918350
v -1.000000 0.000000 -1.000000
v -0.918350 0.163299 -0.918350
v -0.918350 0.918350 -0.163299
v -1.000000 1.000000 0.000000
v 1.000000 -1.000000 0.000000
v 0.918350 -0.918350 0.163299
v 1.000000 0.000000 1.000000
v 0.918350 -0.163299 0.918350
v 0.163299 -0.918350 0.918350
v 0.000000 -1.000000 1.000000
v 0.000000 1.000000 1.000000
v 0.163299 0.918350 0.918350
v 1.000000 0.000000 1.000000
v 0.918350 0.163299 0.918350
v 0.918350 0.918350 0.163299
v 1.000000 1.000000 0.000000
v 0.000000 -1.000000 -1.000000
v 0.163299 -0.918350 -0.918350
v 1.000000 0.000000 -1.000000
v 0.918350 -0.163299 -0.918350
v 0.918350 -0.918350 -0.163299
v 1.000000 -1.000000 0.000000
v 1.000000 1.000000 0.000000
v 0.918350 0.918350 -0.163299
v 1.000000 0.000000 -1.000000
v 0.918350 0.163299 -0.918350
v 0.163299 0.918350 -0.918350
v 0.000000 1.000000 -1.000000
v -0.963548 -0.935264 0.187791
v -0.935263 -0.963548 0.187791
v -0.935671 -0.935671 0.180620
v -1.012538 -0.984253 0.089812
v -1.017321 -1.017321 0.017320
v -0.984253 -1.012538 0.089812
v -0.017320 -1.017321 1.017321
v -0.089812 -0.984253 1.012538
v -0.089812 -1.012538 0.984253
v -0.187791 -0.935264 0.963548
v -0.180620 -0.935671 0.935671
v -0.187791 -0.963548 0.935264
v -1.017321 -0.017320 1.017321
v -1.012538 -0.089812 0.984253
v -0.984253 -0.089812 1.012538
v -0.963548 -0.187791 0.935264
v -0.935671 -0.180620 0.935671
v -0.935263 -0.187791 0.963548
v -0.963548 0.187791 0.935263
v -0.935264 0.187791 0.963548
v -0.935671 0.180620 0.935671
v -1.012538 0.089812 0.984253
v -1.017321 0.017320 1.017321
v -0.984253 0.089812 1.012538
v -0.089812 0.984253 1.012538
v -0.017320 1.017321 1.017321
v -0.089812 1.012538 0.984253
v -0.187791 0.963548 0.935263
v -0.180620 0.935671 0.935671
v -0.187791 0.935264 0.963548
v -1.017321 1.017321 0.017320
v -1.012538 0.984253 0.089812
v -0.984253 1.012538 0.089812
v -0.963548 0.935264 0.187791
v -0.935671 0.935671 0.180620
v -0.935264 0.963548 0.187791
v -0.187791 -0.935264 -0.963548
v -0.187791 -0.963548 -0.935263
v -0.180620 -0.935671 -0.935671
v -0.089812 -0.984253 -1.012538
v -0.017320 -1.017321 -1.017321
v -0.089812 -1.012538 -0.984253
v -0.984253 -1.012538 -0.089812
v -1.017321 -1.017321 -0.017320
v -1.012538 -0.984253 -0.089812
v -0.963548 -0.935264 -0.187791
v -0.935671 -0.935671 -0.180620
v -0.935264 -0.963548 -0.187791
v -1.012538 -0.089812 -0.984253
v -1.017321 -0.017320 -1.017321
v -0.984253 -0.089812 -1.012538
v -0.935264 -0.187791 -0.963548
v -0.935671 -0.180620 -0.935671
v -0.963548 -0.187791 -0.935263
v -0.963548 0.935264 -0.187791
v -0.935263 0.963548 -0.187791
v -0.935671 0.935671 -0.180620
v -1.012538 0.984253 -0.089812
v -1.017321 1.017321 -0.017320
v -0.984253 1.012538 -0.089812
v -0.017320 1.017321 -1.017321
v -0.089812 0.984253 -1.012538
v -0.089812 1.012538 -0.984253
v -0.187791 0.935264 -0.963548
v -0.180620 0.935671 -0.935671
v -0.187791 0.963548 -0.935264
v -1.017321 0.017320 -1.017321
v -1.012538 0.089812 -0.984253
v -0.984253 0.089812 -1.012538
v -0.963548 0.187791 -0.935264
v -0.935671 0.180620 -0.935671
v -0.935263 0.187791 -0.963548
v 0.187791 -0.935264 0.963548
v 0.187791 -0.963548 0.935263
v 0.180620 -0.935671 0.935671
v 0.089812 -0.984253 1.012538
v 0.017320 -1.017321 1.017321
v 0.089812 -1.012538 0.984253
v 0.984253 -1.012538 0.089812
v 1.017321 -1.017321 0.017320
v 1.012538 -0.984253 0.089812
v 0.963548 -0.935264 0.187791
v 0.935671 -0.935671 0.180620
v 0.935264 -0.963548 0.187791
v 1.017321 -0.017320 1.017321
v 0.984253 -0.089812 1.012538
v 1.012538 -0.089812 0.984253
v 0.935264 -0.187791 0.963548
v 0.935671 -0.180620 0.935671
v 0.963548 -0.187791 0.935263
v 0.963548 0.935264 0.187791
v 0.935263 0.963548 0.187791
v 0.935671 0.935671 0.180620
v 1.012538 0.984253 0.089812
v 1.017321 1.017321 0.017320
v 0.984253 1.012538 0.089812
v 0.089812 1.012538 0.984253
v 0.017320 1.017321 1.017321
v 0.089812 0.984253 1.012538
v 0.187791 0.935264 0.963548
v 0.180620 0.935671 0.935671
v 0.187791 0.963548 0.935264
v 0.984253 0.089812 1.012538
v 1.017321 0.017320 1.017321
v 1.012538 0.089812 0.984253
v 0.963548 0.187791 0.935264
v 0.935671 0.180620 0.935671
v 0.935263 0.187791 0.963548
v 0.963548 -0.935264 -0.187791
v 0.935263 -0.963548 -0.187791
v 0.935671 -0.935671 -0.180620
v 1.012538 -0.984253 -0.089812
v 1.017321 -1.017321 -0.017320
v 0.984253 -1.012538 -0.089812
v 0.017320 -1.017321 -1.017321
v 0.089812 -0.984253 -1.012538
v 0.089812 -1.012538 -0.984253
v 0.187791 -0.935264 -0.963548
v 0.180620 -0.935671 -0.935671
v 0.187791 -0.963548 -0.935264
v 0.984253 -0.089812 -1.012538
v 1.017321 -0.017320 -1.017321
v 1.012538 -0.089812 -0.984253
v 0.963548 -0.187791 -0.935264
v 0.935671 -0.180620 -0.935671
v 0.935263 -0.187791 -0.963548
v 0.187791 0.935264 -0.963548
v 0.187791 0.963548 -0.935263
v 0.180620 0.935671 -0.935671
v 0.089812 0.984253 -1.012538
v 0.017320 1.017321 -1.017321
v 0.089812 1.012538 -0.984253
v 0.984253 1.012538 -0.089812
v 1.017321 1.017321 -0.017320
v 1.012538 0.984253 -0.089812
v 0.963548 0.935264 -0.187791
v 0.935671 0.935671 -0.180620
v 0.935264 0.963548 -0.187791
v 1.017321 0.017320 -1.017321
v 0.984253 0.089812 -1.012538
v 1.012538 0.089812 -0.984253
v 0.935264 0.187791 -0.963548
v 0.935671 0.180620 -0.935671
v 0.963548 0.187791 -0.935263
vn -0.0000 -1.0000 -0.0000
vn -0.5774 -0.5774 0.5774
vn -0.0000 -0.0000 1.0000
vn -1.0000 -0.0000 -0.0000
vn -0.5774 0.5774 0.5774
vn -0.0000 1.0000 -0.0000
vn -0.5774 -0.5774 -0.5774
vn -0.0000 -0.0000 -1.0000
vn -0.5774 0.5774 -0.5774
vn 0.5774 -0.5774 0.5774
vn 1.0000 -0.0000 -0.0000
vn 0.5774 0.5774 0.5774
vn 0.5774 -0.5774 -0.5774
vn 0.5774 0.5774 -0.5774
vn 0.2449 0.2449 0.9381
vn -0.6633 -0.6633 0.3464
vn -0.3464 -0.6633 0.6633
vn -0.9381 0.2449 -0.2449
vn -0.6633 -0.3464 0.6633
vn 0.2449 -0.9381 -0.2449
vn 0.2449 0.9381 -0.2449
vn -0.6633 0.3464 0.6633
vn -0.3464 0.6633 0.6633
vn -0.9381 -0.2449 -0.2449
vn -0.6633 0.6633 0.3464
vn 0.2449 -0.2449 0.9381
vn -0.9381 0.2449 0.2449
vn -0.3464 -0.6633 -0.6633
vn -0.6633 -0.6633 -0.3464
vn 0.2449 0.2449 -0.9381
vn -0.6633 -0.3464 -0.6633
vn 0.2449 -0.9381 0.2449
vn 0.2449 -0.2449 -0.9381
vn -0.6633 0.6633 -0.3464
vn -0.3464 0.6633 -0.6633
vn -0.9381 -0.2449 0.2449
vn -0.6633 0.3464 -0.6633
vn 0.2449 0.9381 0.2449
vn 0.9381 0.2449 -0.2449
vn 0.3464 -0.6633 0.6633
vn 0.6633 -0.6633 0.3464
vn -0.2449 0.2449 0.9381
vn 0.6633 -0.3464 0.6633
vn -0.2449 -0.9381 -0.2449
vn -0.2449 -0.2449 0.9381
vn 0.6633 0.6633 0.3464
vn 0.3464 0.6633 0.6633
vn 0.9381 -0.2449 -0.2449
vn 0.6633 0.3464 0.6633
vn -0.2449 0.9381 -0.2449
vn -0.2449 0.2449 -0.9381
vn 0.6633 -0.6633 -0.3464
vn 0.3464 -0.6633 -0.6633
vn 0.9381 0.2449 0.2449
vn 0.6633 -0.3464 -0.6633
vn -0.2449 -0.9381 0.2449
vn 0.9381 -0.2449 0.2449
vn 0.3464 0.6633 -0.6633
vn 0.6633 0.6633 -0.3464
vn -0.2449 -0.2449 -0.9381
vn 0.6633 0.3464 -0.6633
vn -0.2449 0.9381 0.2449
vn -0.5774 -0.5773 0.5774
vn -0.1196 -0.9856 0.1196
vn -0.5774 -0.5774 0.5773
vn -0.6969 0.1691 0.6969
vn -0.1196 -0.1196 0.9856
vn -0.5774 -0.5773 0.5773
vn -0.6969 -0.6969 -0.1691
vn -0.9856 -0.1196 0.1196
vn 0.1691 -0.6969 0.6969
vn -0.5774 0.5774 0.5773
vn -0.1196 0.1196 0.9856
vn -0.5774 0.5773 0.5774
vn -0.6969 0.6969 -0.1691
vn -0.1196 0.9856 0.1196
vn -0.6969 -0.1691 0.6969
vn -0.9856 0.1196 0.1196
vn 0.1691 0.6969 0.6969
vn -0.5774 -0.5773 -0.5774
vn -0.1196 -0.9856 -0.1196
vn -0.5774 -0.5774 -0.5773
vn -0.6969 0.1691 -0.6969
vn -0.9856 -0.1196 -0.1196
vn 0.1691 -0.6969 -0.6969
vn -0.1196 -0.1196 -0.9856
vn -0.6969 -0.6969 0.1691
vn -0.5774 0.5773 -0.5774
vn -0.1196 0.9856 -0.1196
vn -0.5774 0.5774 -0.5773
vn -0.6969 -0.1691 -0.6969
vn -0.1196 0.1196 -0.9856
vn -0.5774 0.5773 -0.5773
vn -0.6969 0.6969 0.1691
vn -0.9856 0.1196 -0.1196
vn 0.1691 0.6969 -0.6969
vn 0.5774 -0.5773 0.5774
vn 0.1196 -0.9856 0.1196
vn 0.5774 -0.5774 0.5773
vn 0.6969 0.1691 0.6969
vn 0.9856 -0.1196 0.1196
vn -0.1691 -0.6969 0.6969
vn 0.1196 -0.1196 0.9856
vn 0.6969 -0.6969 -0.1691
vn 0.5774 0.5773 0.5774
vn 0.1196 0.9856 0.1196
vn 0.5774 0.5774 0.5773
vn 0.6969 -0.1691 0.6969
vn 0.1196 0.1196 0.9856
vn 0.5774 0.5773 0.5773
vn 0.6969 0.6969 -0.1691
vn 0.9856 0.1196 0.1196
vn -0.1691 0.6969 0.6969
vn 0.5774 -0.5773 -0.5774
vn 0.1196 -0.9856 -0.1196
vn 0.5774 -0.5774 -0.5773
vn 0.6969 0.1691 -0.6969
vn 0.1196 -0.1196 -0.9856
vn 0.5774 -0.5773 -0.5773
vn 0.6969 -0.6969 0.1691
vn 0.9856 -0.1196 -0.1196
vn -0.1691 -0.6969 -0.6969
vn 0.5774 0.5773 -0.5774
vn 0.1196 0.9856 -0.1196
vn 0.5774 0.5774 -0.5773
vn 0.6969 -0.1691 -0.6969
vn 0.9856 0.1196 -0.1196
vn -0.1691 0.6969 -0.6969
vn 0.1196 0.1196 -0.9856
vn 0.6969 0.6969 0.1691
vn -0.4082 0.8165 0.4082
vn 0.8165 -0.4082 0.4082
vn -0.8165 0.4082 -0.4082
vn 0.4082 -0.8165 -0.4082
vn 0.4082 0.4082 0.8165
vn -0.4082 -0.4082 -0.8165
vn 0.8165 0.4082 0.4082
vn -0.4082 0.4082 -0.8165
vn -0.8165 -0.4082 -0.4082
vn 0.4082 -0.4082 0.8165
vn 0.4082 0.8165 -0.4082
vn -0.4082 -0.8165 0.4082
vn -0.4082 0.8165 -0.4082
vn -0.4082 -0.4082 0.8165
vn 0.4082 0.4082 -0.8165
vn 0.4082 -0.8165 0.4082
vn -0.8165 0.4082 0.4082
vn 0.8165 -0.4082 -0.4082
vn -0.4082 -0.8165 -0.4082
vn 0.8165 0.4082 -0.4082
vn -0.8165 -0.4082 0.4082
vn 0.4082 0.8165 0.4082
vn 0.4082 -0.4082 -0.8165
vn -0.4082 0.4082 0.8165
vn 0.5773 -0.5774 0.5774
vn 0.5773 0.5774 -0.5774
vt 0.196372 0.482255
vt 0.287771 0.462229
vt 0.294574 0.455426
vt 0.375000 0.625000
vt 0.375000 0.625000
vt 0.349312 0.849312
vt 0.319559 0.819559
vt 0.200542 0.473915
vt 0.266374 0.747870
vt 0.455137 0.936633
vt 0.229031 0.539412
vt 0.500000 0.750000
vt 0.500000 0.750000
vt 0.724312 0.775688
vt 0.694559 0.805441
vt 0.500000 0.697830
vt 0.500000 0.731190
vt 0.375000 0.875000
vt 0.375000 0.125000
vt 0.500000 0.000000
vt 0.625000 0.125000
vt 0.500000 0.250000
vt 0.635206 0.840122
vt 0.823969 0.651359
vt 0.540825 0.706350
vt 0.625000 0.625000
vt 0.650688 0.400688
vt 0.680441 0.430441
vt 0.799458 0.473915
vt 0.807797 0.490595
vt 0.750000 0.750000
vt 0.625000 0.625000
vt 0.168909 0.581091
vt 0.452053 0.297947
vt 0.291809 0.458191
vt 0.301377 0.448623
vt 0.625000 0.375000
vt 0.500000 0.500000
vt 0.733626 0.477458
vt 0.544863 0.288695
vt 0.770969 0.457762
vt 0.381011 0.651424
vt 0.475393 0.745805
vt 0.342219 0.801395
vt 0.676395 0.782781
vt 0.526424 0.743989
vt 0.620805 0.649607
vt 0.323605 0.467219
vt 0.473576 0.506011
vt 0.379195 0.600393
vt 0.618989 0.598576
vt 0.524607 0.504195
vt 0.657781 0.448605
vt 0.231803 0.535275
vt 0.226263 0.535653
vt 0.229031 0.539412
vt 0.214662 0.494655
vt 0.200542 0.473915
vt 0.209525 0.496710
vt 0.313912 0.802976
vt 0.305637 0.795526
vt 0.282551 0.761830
vt 0.266374 0.747870
vt 0.274081 0.752868
vt 0.482557 0.764689
vt 0.485808 0.774838
vt 0.455640 0.886582
vt 0.458570 0.895922
vt 0.541787 0.699627
vt 0.537727 0.708126
vt 0.540825 0.706350
vt 0.516949 0.693829
vt 0.500000 0.697830
vt 0.513609 0.702637
vt 0.677267 0.809252
vt 0.694559 0.805441
vt 0.685866 0.803748
vt 0.651137 0.824687
vt 0.635206 0.840122
vt 0.642010 0.829706
vt 0.807798 0.490595
vt 0.802248 0.528453
vt 0.807753 0.531835
vt 0.811607 0.624225
vt 0.816674 0.627705
vt 0.297005 0.452995
vt 0.287969 0.460460
vt 0.291809 0.458191
vt 0.294510 0.455490
vt 0.285911 0.462154
vt 0.193548 0.501290
vt 0.196372 0.482255
vt 0.199368 0.495611
vt 0.183437 0.553860
vt 0.168909 0.581091
vt 0.177434 0.559862
vt 0.481740 0.266325
vt 0.484377 0.265623
vt 0.455640 0.294360
vt 0.452607 0.295822
vt 0.768197 0.454660
vt 0.773736 0.460199
vt 0.785290 0.464351
vt 0.799457 0.473915
vt 0.790452 0.469514
vt 0.680441 0.430441
vt 0.685893 0.434659
vt 0.694443 0.441088
vt 0.717449 0.462515
vt 0.725919 0.468848
vt 0.517442 0.264072
vt 0.514192 0.262944
vt 0.544360 0.287289
vt 0.541430 0.286496
vt 0.348061 0.808330
vt 0.344525 0.804794
vt 0.342219 0.801395
vt 0.352185 0.836949
vt 0.349312 0.849312
vt 0.348650 0.833414
vt 0.375446 0.636599
vt 0.379738 0.633820
vt 0.383345 0.649675
vt 0.381011 0.651424
vt 0.378921 0.652323
vt 0.490787 0.751940
vt 0.491543 0.745626
vt 0.475891 0.749292
vt 0.475393 0.745805
vt 0.476779 0.743109
vt 0.618108 0.648221
vt 0.624292 0.649109
vt 0.620805 0.649607
vt 0.620625 0.633457
vt 0.626940 0.634213
vt 0.711949 0.772815
vt 0.708414 0.776350
vt 0.679794 0.780475
vt 0.676395 0.782781
vt 0.683330 0.776939
vt 0.511599 0.749554
vt 0.508820 0.745262
vt 0.524674 0.741655
vt 0.527322 0.746079
vt 0.381891 0.601779
vt 0.376124 0.600475
vt 0.379375 0.616543
vt 0.373572 0.615274
vt 0.306183 0.459053
vt 0.302647 0.462589
vt 0.323567 0.466164
vt 0.320031 0.469700
vt 0.488913 0.499934
vt 0.491180 0.504738
vt 0.475325 0.508345
vt 0.473576 0.506011
vt 0.473093 0.503506
vt 0.651939 0.441670
vt 0.655474 0.445205
vt 0.657781 0.448605
vt 0.647815 0.413051
vt 0.650688 0.400688
vt 0.651350 0.416586
vt 0.624554 0.613401
vt 0.620262 0.616180
vt 0.616655 0.600326
vt 0.618989 0.598576
vt 0.621079 0.597678
vt 0.509213 0.498060
vt 0.508457 0.504375
vt 0.524109 0.500708
vt 0.524607 0.504195
vt 0.523221 0.506891
vt 0.301377 0.448623
s 0
usemtl Material.001
f 13/1/1 18/2/1 37/3/1 42/4/1 25/5/1 30/6/1 1/7/1 6/8/1
f 2/9/2 4/10/2 5/11/2
f 30/6/3 27/12/3 33/13/3 31/14/3 7/15/3 12/16/3 3/17/3 1/18/3
f 6/19/4 3/20/4 12/20/4 9/21/4 24/21/4 21/22/4 15/22/4 13/19/4
f 8/23/5 10/24/5 11/25/5
f 43/26/6 48/27/6 19/28/6 24/29/6 9/30/6 7/31/6 31/14/6 36/32/6
f 14/33/7 16/34/7 17/35/7
f 18/36/8 15/22/8 21/22/8 19/37/8 48/27/8 45/38/8 39/38/8 37/3/8
f 20/39/9 22/40/9 23/41/9
f 26/42/10 28/43/10 29/44/10
f 42/4/11 39/38/11 45/38/11 43/26/11 36/32/11 33/13/11 27/12/11 25/5/11
f 32/45/12 34/46/12 35/47/12
f 38/48/13 40/49/13 41/50/13
f 44/51/14 46/52/14 47/53/14
f 49/54/15 50/55/15 51/56/15
f 52/57/16 53/58/16 54/59/16
f 55/7/17 56/60/17 57/61/17
f 58/62/18 59/63/18 60/64/18
f 61/17/19 62/65/19 63/66/19
f 64/67/20 65/10/20 66/68/20
f 67/69/21 68/70/21 69/71/21
f 70/72/22 71/73/22 72/74/22
f 73/75/23 74/76/23 75/77/23
f 76/78/24 77/79/24 78/80/24
f 79/81/25 80/82/25 81/83/25
f 82/84/26 83/24/26 84/85/26
f 85/86/27 86/87/27 87/88/27
f 88/89/28 89/2/28 90/90/28
f 91/91/29 92/92/29 93/93/29
f 94/94/30 95/95/30 96/96/30
f 97/97/31 98/22/31 99/98/31
f 100/99/32 101/34/32 102/100/32
f 103/101/33 104/102/33 105/41/33
f 106/103/34 107/104/34 108/105/34
f 109/106/35 110/107/35 111/108/35
f 112/109/36 113/39/36 114/110/36
f 115/22/37 116/111/37 117/112/37
f 118/113/38 119/40/38 120/114/38
f 121/115/39 122/116/39 123/117/39
f 124/118/40 125/119/40 126/120/40
f 127/121/41 128/5/41 129/122/41
f 130/123/42 131/124/42 132/125/42
f 133/12/43 134/126/43 135/127/43
f 136/128/44 137/129/44 138/130/44
f 139/131/45 140/132/45 141/133/45
f 142/134/46 143/26/46 144/135/46
f 145/136/47 146/14/47 147/137/47
f 148/138/48 149/139/48 150/140/48
f 151/141/49 152/13/49 153/142/49
f 154/143/50 155/46/50 156/144/50
f 157/145/51 158/146/51 159/50/51
f 160/147/52 161/4/52 162/148/52
f 163/3/53 164/149/53 165/150/53
f 166/151/54 167/48/54 168/152/54
f 169/153/55 170/38/55 171/154/55
f 172/155/56 173/156/56 174/157/56
f 175/158/57 176/159/57 177/160/57
f 178/161/58 179/162/58 180/163/58
f 181/164/59 182/26/59 183/165/59
f 184/166/60 185/167/60 186/168/60
f 187/38/61 188/169/61 189/170/61
f 190/171/62 191/172/62 192/173/62
f 49/54/63 52/57/63 54/59/63 50/55/63
f 53/58/64 55/7/64 57/61/64 54/59/64
f 56/60/65 58/62/65 60/64/65 57/61/65
f 59/63/66 51/56/66 50/55/66 60/64/66
f 55/7/67 61/17/67 63/66/67 56/60/67
f 62/65/68 64/67/68 66/68/68 63/66/68
f 65/10/69 59/63/69 58/62/69 66/68/69
f 61/17/70 53/58/70 52/57/70 62/65/70
f 51/56/71 65/10/71 64/67/71 49/54/71
f 67/69/72 70/72/72 72/74/72 68/70/72
f 71/73/73 74/76/73 73/75/73 72/74/73
f 75/77/74 76/78/74 78/80/74 73/75/74
f 77/79/75 69/71/75 68/70/75 78/80/75
f 74/76/76 79/81/76 81/83/76 75/77/76
f 80/82/72 82/84/72 84/85/72 81/83/72
f 83/24/77 77/79/77 76/78/77 84/85/77
f 79/81/78 71/73/78 70/72/78 80/82/78
f 69/71/79 83/24/79 82/84/79 67/69/79
f 85/86/80 88/89/80 90/90/80 86/87/80
f 89/2/81 92/92/81 91/91/81 90/90/81
f 93/93/82 94/94/82 96/96/82 91/91/82
f 95/95/83 87/88/83 86/87/83 96/96/83
f 92/92/84 98/22/84 97/97/84 93/93/84
f 99/98/82 100/99/82 102/100/82 97/97/82
f 101/34/85 95/95/85 94/94/85 102/100/85
f 98/22/86 89/2/86 88/89/86 99/98/86
f 87/88/87 101/34/87 100/99/87 85/86/87
f 103/101/88 106/103/88 108/105/88 104/102/88
f 107/104/89 109/106/89 111/108/89 108/105/89
f 110/107/90 112/109/90 114/110/90 111/108/90
f 113/39/91 105/41/91 104/102/91 114/110/91
f 109/106/92 115/22/92 117/112/92 110/107/92
f 116/111/93 118/113/93 120/114/93 117/112/93
f 119/40/94 113/39/94 112/109/94 120/114/94
f 115/22/95 107/104/95 106/103/95 116/111/95
f 105/41/96 119/40/96 118/113/96 103/101/96
f 121/115/97 124/118/97 126/120/97 122/116/97
f 125/119/98 128/5/98 127/121/98 126/120/98
f 129/122/99 130/123/99 132/125/99 127/121/99
f 131/124/100 123/117/100 122/116/100 132/125/100
f 128/5/101 133/12/101 135/127/101 129/122/101
f 134/126/99 136/128/99 138/130/99 135/127/99
f 137/129/102 131/124/102 130/123/102 138/130/102
f 133/12/103 125/119/103 124/118/103 134/126/103
f 123/117/104 137/129/104 136/128/104 121/115/104
f 139/131/105 142/134/105 144/135/105 140/132/105
f 143/26/106 146/14/106 145/136/106 144/135/106
f 147/137/107 148/138/107 150/140/107 145/136/107
f 149/139/108 141/133/108 140/132/108 150/140/108
f 146/14/109 152/13/109 151/141/109 147/137/109
f 153/142/110 154/143/110 156/144/110 151/141/110
f 155/46/111 149/139/111 148/138/111 156/144/111
f 152/13/112 143/26/112 142/134/112 153/142/112
f 141/133/113 155/46/113 154/143/113 139/131/113
f 157/145/114 160/147/114 162/148/114 158/146/114
f 161/4/115 163/3/115 165/150/115 162/148/115
f 164/149/116 166/151/116 168/152/116 165/150/116
f 167/48/117 159/50/117 158/146/117 168/152/117
f 163/3/118 170/38/118 169/153/118 164/149/118
f 171/154/119 172/155/119 174/157/119 169/153/119
f 173/156/120 167/48/120 166/151/120 174/157/120
f 170/38/121 161/4/121 160/147/121 171/154/121
f 159/50/122 173/156/122 172/155/122 157/145/122
f 175/158/123 178/161/123 180/163/123 176/159/123
f 179/162/124 182/26/124 181/164/124 180/163/124
f 183/165/125 184/166/125 186/168/125 181/164/125
f 185/167/126 177/160/126 176/159/126 186/168/126
f 182/26/127 187/38/127 189/170/127 183/165/127
f 188/169/125 190/171/125 192/173/125 189/170/125
f 191/172/128 185/167/128 184/166/128 192/173/128
f 187/38/129 179/162/129 178/161/129 188/169/129
f 177/160/130 191/172/130 190/171/130 175/158/130
f 2/9/131 5/11/131 51/56/131 59/63/131
f 62/65/65 52/57/65 49/54/65 64/67/65
f 5/11/132 4/10/132 65/10/132 51/56/132
f 54/59/63 57/61/63 60/64/63 50/55/63
f 3/20/133 6/19/133 53/19/133 61/20/133
f 6/8/134 1/7/134 55/7/134 53/58/134
f 56/60/63 63/66/63 66/68/63 58/62/63
f 1/18/135 3/17/135 61/17/135 55/18/135
f 4/10/136 2/9/136 59/63/136 65/10/136
f 80/82/5 70/72/5 67/69/5 82/84/5
f 11/25/137 10/24/137 83/24/137 69/71/137
f 72/74/5 73/75/5 78/80/5 68/70/5
f 8/23/138 11/25/138 69/71/138 77/79/138
f 9/21/139 12/20/139 71/20/139 79/21/139
f 12/16/140 7/15/140 74/76/140 71/73/140
f 75/77/5 81/83/5 84/85/5 76/78/5
f 7/31/141 9/30/141 79/81/141 74/31/141
f 10/24/142 8/23/142 77/79/142 83/24/142
f 14/33/143 17/35/143 87/88/143 95/95/143
f 99/98/7 88/89/7 85/86/7 100/99/7
f 17/35/144 16/34/144 101/34/144 87/88/144
f 90/90/7 91/91/7 96/96/7 86/87/7
f 15/22/145 18/36/145 89/174/145 98/22/145
f 18/2/146 13/1/146 92/92/146 89/2/146
f 93/93/7 97/97/7 102/100/7 94/94/7
f 13/19/147 15/22/147 98/22/147 92/19/147
f 16/34/148 14/33/148 95/95/148 101/34/148
f 20/39/149 23/41/149 105/41/149 113/39/149
f 116/111/90 106/103/90 103/101/90 118/113/90
f 23/41/150 22/40/150 119/40/150 105/41/150
f 108/105/88 111/108/88 114/110/88 104/102/88
f 21/22/151 24/21/151 107/21/151 115/22/151
f 24/29/152 19/28/152 109/106/152 107/104/152
f 110/107/88 117/112/88 120/114/88 112/109/88
f 19/37/153 21/22/153 115/22/153 109/37/153
f 22/40/154 20/39/154 113/39/154 119/40/154
f 134/126/10 124/118/10 121/115/10 136/128/10
f 29/44/153 28/43/153 137/129/153 123/117/153
f 126/120/155 127/121/155 132/125/155 122/116/155
f 26/42/152 29/44/152 123/117/152 131/124/152
f 27/12/154 30/6/154 125/119/154 133/12/154
f 30/6/149 25/5/149 128/5/149 125/119/149
f 129/122/10 135/127/10 138/130/10 130/123/10
f 25/5/150 27/12/150 133/12/150 128/5/150
f 28/43/151 26/42/151 131/124/151 137/129/151
f 32/45/146 35/47/146 141/133/146 149/139/146
f 153/142/107 142/134/107 139/131/107 154/143/107
f 35/47/147 34/46/147 155/46/147 141/133/147
f 144/135/105 145/136/105 150/140/105 140/132/105
f 33/13/148 36/32/148 143/26/148 152/13/148
f 36/32/143 31/14/143 146/14/143 143/26/143
f 147/137/105 151/141/105 156/144/105 148/138/105
f 31/14/144 33/13/144 152/13/144 146/14/144
f 34/46/145 32/45/145 149/139/145 155/46/145
f 38/48/141 41/50/141 159/50/141 167/48/141
f 171/154/116 160/147/116 157/145/116 172/155/116
f 41/50/139 40/49/139 173/156/139 159/50/139
f 162/148/114 165/150/114 168/152/114 158/146/114
f 42/4/142 37/3/142 163/3/142 161/4/142
f 39/38/137 42/4/137 161/4/137 170/38/137
f 164/149/114 169/153/114 174/157/114 166/151/114
f 37/3/138 39/38/138 170/38/138 163/3/138
f 40/49/140 38/48/140 167/48/140 173/156/140
f 188/169/14 178/161/14 175/158/14 190/171/14
f 47/53/135 46/52/135 191/172/135 177/160/135
f 180/163/156 181/164/156 186/168/156 176/159/156
f 44/51/134 47/53/134 177/160/134 185/167/134
f 45/38/136 48/27/136 179/162/136 187/38/136
f 48/27/131 43/26/131 182/26/131 179/162/131
f 183/165/14 189/170/14 192/173/14 184/166/14
f 43/26/132 45/38/132 187/38/132 182/26/132
f 46/52/133 44/51/133 185/167/133 191/172/133
o Plane
v -10.000000 -1.203506 10.000000
v 10.000000 -1.203506 10.000000
v -10.000000 -1.203506 -10.000000
v 10.000000 -1.203506 -10.000000
vn -0.0000 1.0000 -0.0000
vt 0.000000 0.000000
vt 1.000000 0.000000
vt 1.000000 1.000000
vt 0.000000 1.000000
s 0
f 193/175/157 194/176/157 196/177/157 195/178/157
