# Blender 4.5.1 LTS
# www.blender.org
mtllib Trungle0029.mtl
o BODY
v 0.320726 0.882149 -0.271190
v 0.074494 0.882149 -0.413351
v -0.395220 0.882149 -0.142162
v -0.395220 0.882149 0.142162
v 0.074494 0.882149 0.413351
v 0.320726 0.882149 0.271190
v 0.856529 -0.223816 -0.413351
v 0.938606 0.008333 -0.271190
v 0.938606 0.008333 0.271190
v 0.856529 -0.223816 0.413351
v 0.699958 -0.666667 0.142162
v 0.699958 -0.666667 -0.142162
v -0.234446 0.008333 -0.948452
v -0.070292 -0.223816 -0.948452
v -0.226863 -0.666667 -0.677262
v -0.473094 -0.666667 -0.535101
v -0.786237 -0.223816 -0.535101
v -0.704160 0.008333 -0.677262
v -0.704160 0.008333 0.677262
v -0.786237 -0.223816 0.535101
v -0.473094 -0.666667 0.535101
v -0.226863 -0.666667 0.677262
v -0.070292 -0.223816 0.948452
v -0.234446 0.008333 0.948452
v -0.228553 1.250000 -0.142162
v -0.353553 1.125000 -0.214330
v -0.253153 1.243829 -0.156364
v -0.276141 1.240210 -0.169637
v -0.296832 1.233530 -0.181582
v -0.314539 1.218173 -0.191805
v -0.316798 1.212956 -0.193110
v -0.316903 1.207547 -0.193170
v -0.316148 1.202060 -0.192734
v -0.315822 1.196612 -0.192546
v -0.324952 1.179284 -0.197818
v -0.333880 1.162339 -0.202972
v -0.343212 1.144627 -0.208360
v -0.353553 1.125000 0.214330
v -0.228553 1.250000 0.142162
v -0.343212 1.144627 0.208360
v -0.333880 1.162339 0.202972
v -0.324952 1.179284 0.197818
v -0.315822 1.196612 0.192546
v -0.316148 1.202060 0.192734
v -0.316903 1.207547 0.193170
v -0.316798 1.212956 0.193110
v -0.314539 1.218173 0.191805
v -0.296832 1.233530 0.181582
v -0.276141 1.240210 0.169637
v -0.253153 1.243829 0.156364
v -0.008839 1.125000 0.413351
v -0.008839 1.250000 0.269014
v -0.008839 1.144627 0.401410
v -0.008839 1.162339 0.390635
v -0.008839 1.179284 0.380326
v -0.008839 1.196612 0.369783
v -0.008839 1.202060 0.370159
v -0.008839 1.207547 0.371032
v -0.008839 1.212956 0.370910
v -0.008839 1.218173 0.368302
v -0.008839 1.233530 0.347855
v -0.008839 1.240210 0.323964
v -0.008839 1.243829 0.297419
v 0.362392 1.125000 0.199021
v 0.237392 1.250000 0.126852
v 0.352051 1.144627 0.193050
v 0.342719 1.162339 0.187663
v 0.333791 1.179284 0.182508
v 0.324661 1.196612 0.177237
v 0.324986 1.202060 0.177425
v 0.325742 1.207547 0.177861
v 0.325637 1.212956 0.177800
v 0.323378 1.218173 0.176496
v 0.305671 1.233530 0.166273
v 0.284980 1.240210 0.154327
v 0.261992 1.243829 0.141055
v 0.362392 1.125000 -0.199021
v 0.237392 1.250000 -0.126852
v 0.352051 1.144627 -0.193050
v 0.342719 1.162339 -0.187663
v 0.333791 1.179284 -0.182508
v 0.324661 1.196612 -0.177237
v 0.324986 1.202060 -0.177425
v 0.325742 1.207547 -0.177861
v 0.325637 1.212956 -0.177800
v 0.323378 1.218173 -0.176496
v 0.305671 1.233530 -0.166273
v 0.284980 1.240210 -0.154327
v 0.261992 1.243829 -0.141055
v -0.008839 1.125000 -0.413351
v -0.008839 1.250000 -0.269014
v -0.008839 1.144627 -0.401410
v -0.008839 1.162339 -0.390635
v -0.008839 1.179284 -0.380326
v -0.008839 1.196612 -0.369783
v -0.008839 1.202060 -0.370159
v -0.008839 1.207547 -0.371032
v -0.008839 1.212956 -0.370910
v -0.008839 1.218173 -0.368302
v -0.008839 1.233530 -0.347855
v -0.008839 1.240210 -0.323964
v -0.008839 1.243829 -0.297419
v 1.257642 -0.192851 0.126852
v 1.181458 -0.033333 0.199021
v 1.254434 -0.170899 0.138184
v 1.251540 -0.151090 0.148410
v 1.248771 -0.132138 0.158193
v 1.245939 -0.112758 0.168197
v 1.248062 -0.107730 0.171343
v 1.250603 -0.102808 0.174511
v 1.252307 -0.097673 0.177634
v 1.251916 -0.092002 0.180645
v 1.240341 -0.071621 0.189512
v 1.223061 -0.058426 0.193369
v 1.202593 -0.047352 0.195458
v 1.057714 -0.383333 0.413351
v 1.175565 -0.425000 0.269014
v 1.080907 -0.391533 0.406226
v 1.102580 -0.399196 0.402047
v 1.122087 -0.406093 0.394334
v 1.138782 -0.411995 0.376600
v 1.140911 -0.412748 0.370577
v 1.141011 -0.412783 0.364331
v 1.140298 -0.412531 0.357995
v 1.139992 -0.412423 0.351704
v 1.148600 -0.415466 0.331695
v 1.157017 -0.418442 0.312129
v 1.165815 -0.421553 0.291678
v 0.942809 -0.708333 0.214330
v 1.102327 -0.632149 0.142162
v 0.968059 -0.710715 0.210767
v 0.990939 -0.714966 0.208678
v 1.012673 -0.715565 0.204821
v 1.034486 -0.706988 0.195955
v 1.038354 -0.702823 0.192943
v 1.040257 -0.697758 0.189820
v 1.041373 -0.692333 0.186652
v 1.042883 -0.687088 0.183507
v 1.057267 -0.673794 0.173502
v 1.071333 -0.660794 0.163719
v 1.086034 -0.647207 0.153493
v 0.942809 -0.708333 -0.214330
v 1.102327 -0.632149 -0.142162
v 0.968059 -0.710715 -0.210767
v 0.990939 -0.714966 -0.208678
v 1.012673 -0.715565 -0.204821
v 1.034486 -0.706988 -0.195955
v 1.038355 -0.702823 -0.192943
v 1.040257 -0.697758 -0.189820
v 1.041374 -0.692333 -0.186652
v 1.042883 -0.687088 -0.183507
v 1.057267 -0.673794 -0.173502
v 1.071333 -0.660794 -0.163719
v 1.086035 -0.647207 -0.153493
v 1.057714 -0.383333 -0.413351
v 1.175565 -0.425000 -0.269014
v 1.080907 -0.391533 -0.406226
v 1.102580 -0.399196 -0.402047
v 1.122087 -0.406093 -0.394334
v 1.138782 -0.411995 -0.376600
v 1.140911 -0.412748 -0.370577
v 1.141011 -0.412783 -0.364331
v 1.140298 -0.412531 -0.357995
v 1.139992 -0.412423 -0.351704
v 1.148600 -0.415466 -0.331695
v 1.157017 -0.418442 -0.312129
v 1.165815 -0.421553 -0.291678
v 1.181458 -0.033333 -0.199021
v 1.257642 -0.192851 -0.126852
v 1.202594 -0.047352 -0.195458
v 1.223061 -0.058426 -0.193369
v 1.240341 -0.071621 -0.189512
v 1.251916 -0.092002 -0.180645
v 1.252307 -0.097673 -0.177634
v 1.250604 -0.102808 -0.174511
v 1.248062 -0.107730 -0.171343
v 1.245939 -0.112758 -0.168197
v 1.248771 -0.132138 -0.158193
v 1.251540 -0.151090 -0.148410
v 1.254435 -0.170899 -0.138184
v -0.428048 -0.632149 -1.025724
v -0.285789 -0.708333 -0.923662
v -0.408739 -0.653285 -1.020685
v -0.391708 -0.673752 -1.017731
v -0.374765 -0.691032 -1.012276
v -0.355720 -0.702608 -0.999737
v -0.351756 -0.702999 -0.995478
v -0.349135 -0.701295 -0.991061
v -0.347053 -0.698753 -0.986581
v -0.344701 -0.696631 -0.982133
v -0.330446 -0.699463 -0.967984
v -0.316506 -0.702232 -0.954149
v -0.301936 -0.705126 -0.939687
v -0.657020 -0.708333 -0.709332
v -0.674279 -0.632149 -0.883562
v -0.662825 -0.705126 -0.731328
v -0.668064 -0.702232 -0.751177
v -0.673076 -0.699463 -0.770167
v -0.678201 -0.696631 -0.789586
v -0.680878 -0.698753 -0.793847
v -0.683716 -0.701295 -0.797891
v -0.686231 -0.702999 -0.802369
v -0.687937 -0.702608 -0.807932
v -0.689274 -0.691033 -0.830694
v -0.685527 -0.673752 -0.848094
v -0.679570 -0.653285 -0.864321
v -0.886830 -0.383333 -0.709331
v -0.820755 -0.425000 -0.883562
v -0.885741 -0.389876 -0.731328
v -0.884758 -0.395780 -0.751177
v -0.883818 -0.401428 -0.770167
v -0.882857 -0.407204 -0.789586
v -0.885750 -0.409020 -0.793847
v -0.889093 -0.410849 -0.797891
v -0.891537 -0.412652 -0.802368
v -0.891737 -0.414391 -0.807931
v -0.881270 -0.419510 -0.830694
v -0.863728 -0.421737 -0.848094
v -0.842446 -0.422943 -0.864321
v -0.763086 -0.033333 -0.923662
v -0.738678 -0.192851 -1.025724
v -0.765444 -0.049626 -0.939687
v -0.767572 -0.064328 -0.954149
v -0.769608 -0.078393 -0.967984
v -0.771690 -0.092777 -0.982133
v -0.774475 -0.094287 -0.986581
v -0.777566 -0.095403 -0.991061
v -0.780045 -0.097306 -0.995478
v -0.780998 -0.101174 -0.999737
v -0.776433 -0.122988 -1.012276
v -0.765789 -0.144722 -1.017731
v -0.752169 -0.167601 -1.020685
v -0.418371 -0.033333 -1.122683
v -0.518964 -0.192851 -1.152576
v -0.431071 -0.049626 -1.132738
v -0.442531 -0.064328 -1.141811
v -0.453495 -0.078393 -1.150492
v -0.464707 -0.092777 -1.159370
v -0.467167 -0.094287 -1.164006
v -0.469501 -0.095403 -1.168922
v -0.472086 -0.097306 -1.173278
v -0.475298 -0.101174 -1.176233
v -0.488440 -0.122988 -1.178549
v -0.498486 -0.144722 -1.172058
v -0.507855 -0.167601 -1.161740
v -0.170884 -0.383333 -1.122683
v -0.354810 -0.425000 -1.152576
v -0.190478 -0.389876 -1.132738
v -0.208159 -0.395780 -1.141812
v -0.225075 -0.401428 -1.150493
v -0.242373 -0.407204 -1.159370
v -0.244616 -0.409020 -1.164006
v -0.246447 -0.410849 -1.168922
v -0.249103 -0.412652 -1.173278
v -0.253820 -0.414391 -1.176233
v -0.278767 -0.419510 -1.178549
v -0.302607 -0.421737 -1.172058
v -0.327301 -0.422943 -1.161740
v -0.674279 -0.632149 0.883562
v -0.657020 -0.708333 0.709332
v -0.679570 -0.653285 0.864321
v -0.685527 -0.673752 0.848094
v -0.689274 -0.691033 0.830694
v -0.687937 -0.702608 0.807931
v -0.686231 -0.702999 0.802368
v -0.683716 -0.701295 0.797891
v -0.680878 -0.698753 0.793847
v -0.678201 -0.696631 0.789586
v -0.673076 -0.699463 0.770167
v -0.668064 -0.702232 0.751177
v -0.662825 -0.705126 0.731328
v -0.285789 -0.708333 0.923662
v -0.428048 -0.632149 1.025724
v -0.301936 -0.705126 0.939687
v -0.316506 -0.702232 0.954149
v -0.330446 -0.699463 0.967984
v -0.344701 -0.696631 0.982133
v -0.347053 -0.698753 0.986581
v -0.349135 -0.701295 0.991061
v -0.351756 -0.702999 0.995478
v -0.355720 -0.702608 0.999737
v -0.374765 -0.691032 1.012276
v -0.391708 -0.673752 1.017731
v -0.408739 -0.653285 1.020685
v -0.170884 -0.383333 1.122683
v -0.354810 -0.425000 1.152576
v -0.190478 -0.389876 1.132738
v -0.208159 -0.395780 1.141812
v -0.225075 -0.401428 1.150492
v -0.242373 -0.407204 1.159370
v -0.244616 -0.409020 1.164006
v -0.246447 -0.410849 1.168922
v -0.249103 -0.412652 1.173278
v -0.253820 -0.414391 1.176233
v -0.278767 -0.419510 1.178549
v -0.302607 -0.421737 1.172058
v -0.327301 -0.422943 1.161740
v -0.418371 -0.033333 1.122683
v -0.518964 -0.192851 1.152576
v -0.431071 -0.049626 1.132738
v -0.442531 -0.064328 1.141812
v -0.453495 -0.078393 1.150493
v -0.464707 -0.092777 1.159370
v -0.467167 -0.094287 1.164006
v -0.469501 -0.095403 1.168922
v -0.472086 -0.097306 1.173278
v -0.475298 -0.101174 1.176233
v -0.488440 -0.122988 1.178549
v -0.498486 -0.144722 1.172058
v -0.507855 -0.167601 1.161740
v -0.763086 -0.033333 0.923662
v -0.738678 -0.192851 1.025724
v -0.765444 -0.049626 0.939687
v -0.767572 -0.064328 0.954149
v -0.769608 -0.078393 0.967984
v -0.771690 -0.092777 0.982133
v -0.774475 -0.094287 0.986581
v -0.777566 -0.095403 0.991061
v -0.780045 -0.097306 0.995478
v -0.780998 -0.101174 0.999737
v -0.776433 -0.122988 1.012276
v -0.765789 -0.144722 1.017731
v -0.752169 -0.167601 1.020685
v -0.886830 -0.383333 0.709332
v -0.820755 -0.425000 0.883562
v -0.885741 -0.389876 0.731328
v -0.884758 -0.395780 0.751177
v -0.883818 -0.401428 0.770167
v -0.882857 -0.407204 0.789586
v -0.885750 -0.409020 0.793847
v -0.889093 -0.410849 0.797891
v -0.891537 -0.412652 0.802368
v -0.891737 -0.414391 0.807931
v -0.881270 -0.419510 0.830694
v -0.863729 -0.421737 0.848094
v -0.842446 -0.422943 0.864321
v -0.353553 1.000000 -0.214330
v -0.353553 1.000000 0.214330
v -0.008839 1.000000 0.413351
v 0.362392 1.000000 0.199021
v 0.362392 1.000000 -0.199021
v -0.008839 1.000000 -0.413351
v 1.063606 0.008333 0.199021
v 0.939863 -0.341667 0.413351
v 0.824958 -0.666667 0.214330
v 0.824958 -0.666667 -0.214330
v 0.939863 -0.341667 -0.413351
v 1.063606 0.008333 -0.199021
v -0.226863 -0.666667 -0.821600
v -0.598094 -0.666667 -0.607269
v -0.827904 -0.341667 -0.607269
v -0.704160 0.008333 -0.821600
v -0.359446 0.008333 -1.020621
v -0.111959 -0.341667 -1.020621
v -0.598094 -0.666667 0.607269
v -0.226863 -0.666667 0.821600
v -0.111959 -0.341667 1.020621
v -0.359446 0.008333 1.020621
v -0.704160 0.008333 0.821600
v -0.827904 -0.341667 0.607269
v 0.086280 0.890482 -0.433764
v 0.332511 0.890482 -0.291602
v 0.950391 0.016667 -0.291602
v 0.868315 -0.215482 -0.433764
v -0.058507 -0.215482 -0.968864
v -0.222661 0.016667 -0.968864
v -0.418790 0.890482 0.142162
v -0.418790 0.890482 -0.142162
v -0.727731 0.016667 -0.677262
v -0.809808 -0.215482 -0.535101
v -0.809808 -0.215482 0.535101
v -0.727731 0.016667 0.677262
v 0.332511 0.890482 0.291602
v 0.086280 0.890482 0.433764
v -0.222661 0.016667 0.968864
v -0.058507 -0.215482 0.968864
v 0.868315 -0.215482 0.433764
v 0.950391 0.016667 0.291602
v 0.699958 -0.691667 -0.142162
v 0.699958 -0.691667 0.142162
v -0.226863 -0.691667 0.677262
v -0.473094 -0.691667 0.535101
v -0.473094 -0.691667 -0.535101
v -0.226863 -0.691667 -0.677262
vn 0.8165 0.5774 -0.0000
vn 0.4082 -0.5774 -0.7071
vn -0.4082 0.5774 -0.7071
vn -0.8165 -0.5774 -0.0000
vn 0.4082 -0.5774 0.7071
vn -0.4082 0.5774 0.7071
vn -0.2433 0.9699 -0.0000
vn -0.1555 0.9878 -0.0000
vn -0.3073 0.9516 -0.0000
vn -0.6552 0.7554 -0.0000
vn -0.9177 0.3974 -0.0000
vn -0.9998 0.0195 -0.0000
vn -0.9906 -0.1365 -0.0000
vn -0.9982 -0.0596 -0.0000
vn -0.8847 0.4661 -0.0000
vn -0.1217 0.9699 0.2107
vn -0.0777 0.9878 0.1347
vn -0.1536 0.9516 0.2661
vn -0.3276 0.7554 0.5674
vn -0.4588 0.3974 0.7947
vn -0.4999 0.0195 0.8659
vn -0.4953 -0.1365 0.8579
vn -0.4991 -0.0596 0.8645
vn -0.4424 0.4661 0.7662
vn 0.1217 0.9699 0.2107
vn 0.0777 0.9878 0.1347
vn 0.1536 0.9516 0.2661
vn 0.3276 0.7554 0.5674
vn 0.4588 0.3974 0.7947
vn 0.4999 0.0195 0.8659
vn 0.4953 -0.1365 0.8579
vn 0.4991 -0.0596 0.8645
vn 0.4424 0.4661 0.7662
vn 0.2433 0.9699 -0.0000
vn 0.1555 0.9878 -0.0000
vn 0.3073 0.9516 -0.0000
vn 0.6552 0.7554 -0.0000
vn 0.9177 0.3974 -0.0000
vn 0.9998 0.0195 -0.0000
vn 0.9906 -0.1365 -0.0000
vn 0.9982 -0.0596 -0.0000
vn 0.8847 0.4661 -0.0000
vn 0.1217 0.9699 -0.2107
vn 0.0777 0.9878 -0.1347
vn 0.1536 0.9516 -0.2661
vn 0.3276 0.7554 -0.5674
vn 0.4588 0.3974 -0.7947
vn 0.4999 0.0195 -0.8659
vn 0.4953 -0.1365 -0.8579
vn 0.4991 -0.0596 -0.8645
vn 0.4424 0.4661 -0.7662
vn -0.1217 0.9699 -0.2107
vn -0.0777 0.9878 -0.1347
vn -0.1536 0.9516 -0.2661
vn -0.3276 0.7555 -0.5674
vn -0.4588 0.3974 -0.7947
vn -0.4999 0.0195 -0.8659
vn -0.4953 -0.1365 -0.8579
vn -0.4991 -0.0596 -0.8645
vn -0.4424 0.4661 -0.7662
vn 0.9118 -0.0752 0.4037
vn 0.9312 -0.3608 -0.0516
vn 0.9112 -0.3945 -0.1182
vn 0.9459 -0.3241 0.0169
vn 0.9314 -0.1186 0.3441
vn 0.7436 0.1377 0.6542
vn 0.4483 0.3462 0.8241
vn 0.3112 0.4138 0.8555
vn 0.3911 0.3761 0.8400
vn 0.7564 -0.5146 0.4037
vn 0.9511 -0.3047 -0.0516
vn 0.9567 -0.2659 -0.1182
vn 0.9394 -0.3425 0.0169
vn 0.7989 -0.4932 0.3441
vn 0.4918 -0.5745 0.6542
vn 0.1311 -0.5510 0.8241
vn -0.0180 -0.5175 0.8555
vn 0.0677 -0.5383 0.8400
vn 0.6787 -0.7344 -0.0000
vn 0.9610 -0.2766 -0.0000
vn 0.9795 -0.2016 -0.0000
vn 0.9361 -0.3517 -0.0000
vn 0.7327 -0.6805 -0.0000
vn 0.3659 -0.9306 -0.0000
vn -0.0275 -0.9996 -0.0000
vn -0.1827 -0.9832 -0.0000
vn -0.0939 -0.9956 -0.0000
vn 0.7564 -0.5146 -0.4037
vn 0.9511 -0.3047 0.0516
vn 0.9567 -0.2659 0.1181
vn 0.9394 -0.3425 -0.0169
vn 0.7989 -0.4932 -0.3441
vn 0.4918 -0.5745 -0.6542
vn 0.1311 -0.5510 -0.8241
vn -0.0180 -0.5175 -0.8555
vn 0.0677 -0.5383 -0.8400
vn 0.9118 -0.0752 -0.4037
vn 0.9312 -0.3608 0.0516
vn 0.9113 -0.3945 0.1182
vn 0.9459 -0.3241 -0.0169
vn 0.9314 -0.1186 -0.3441
vn 0.7436 0.1377 -0.6542
vn 0.4483 0.3462 -0.8241
vn 0.3112 0.4138 -0.8555
vn 0.3911 0.3761 -0.8400
vn 0.9895 0.1446 -0.0000
vn 0.9213 -0.3889 -0.0000
vn 0.8885 -0.4589 -0.0000
vn 0.9491 -0.3149 -0.0000
vn 0.9976 0.0688 -0.0000
vn 0.8696 0.4938 -0.0000
vn 0.6069 0.7948 -0.0000
vn 0.4759 0.8795 -0.0000
vn 0.5527 0.8334 -0.0000
vn -0.4167 -0.5527 -0.7217
vn -0.4398 -0.4759 -0.7617
vn -0.3974 -0.6069 -0.6883
vn -0.2469 -0.8696 -0.4277
vn -0.0344 -0.9976 -0.0596
vn 0.1574 -0.9491 0.2727
vn 0.2294 -0.8885 0.3974
vn 0.1945 -0.9213 0.3368
vn -0.0723 -0.9895 -0.1252
vn -0.6195 -0.4380 -0.6515
vn -0.5693 -0.4026 -0.7168
vn -0.6534 -0.4620 -0.5996
vn -0.7929 -0.5607 -0.2385
vn -0.7991 -0.5650 0.2054
vn -0.6757 -0.4778 0.5613
vn -0.5961 -0.4215 0.6834
vn -0.6374 -0.4507 0.6250
vn -0.8095 -0.5724 0.1302
vn -0.6600 -0.2086 -0.7217
vn -0.5952 -0.2560 -0.7617
vn -0.7046 -0.1724 -0.6883
vn -0.9021 0.0571 -0.4277
vn -0.9520 0.3001 -0.0595
vn -0.8424 0.4648 0.2727
vn -0.7612 0.5125 0.3974
vn -0.8038 0.4904 0.3368
vn -0.9570 0.2617 -0.1252
vn -0.4978 -0.0939 -0.8622
vn -0.4916 -0.1827 -0.8515
vn -0.4998 -0.0275 -0.8657
vn -0.4653 0.3659 -0.8060
vn -0.3403 0.7327 -0.5894
vn -0.1758 0.9361 -0.3045
vn -0.1008 0.9795 -0.1746
vn -0.1383 0.9610 -0.2395
vn -0.3672 0.6787 -0.6360
vn -0.2950 -0.2086 -0.9324
vn -0.3620 -0.2560 -0.8963
vn -0.2438 -0.1724 -0.9544
vn 0.0807 0.0570 -0.9951
vn 0.4245 0.3002 -0.8543
vn 0.6573 0.4648 -0.5932
vn 0.7248 0.5125 -0.4605
vn 0.6936 0.4904 -0.5277
vn 0.3701 0.2617 -0.8914
vn -0.2545 -0.4380 -0.8622
vn -0.3361 -0.4026 -0.8515
vn -0.1926 -0.4621 -0.8657
vn 0.1899 -0.5607 -0.8060
vn 0.5774 -0.5650 -0.5894
vn 0.8240 -0.4778 -0.3045
vn 0.8899 -0.4215 -0.1746
vn 0.8599 -0.4507 -0.2395
vn 0.5175 -0.5724 -0.6360
vn -0.4167 -0.5527 0.7217
vn -0.4398 -0.4759 0.7617
vn -0.3974 -0.6069 0.6883
vn -0.2469 -0.8696 0.4277
vn -0.0344 -0.9976 0.0596
vn 0.1574 -0.9491 -0.2727
vn 0.2294 -0.8885 -0.3974
vn 0.1945 -0.9213 -0.3368
vn -0.0723 -0.9895 0.1252
vn -0.2545 -0.4380 0.8622
vn -0.3361 -0.4026 0.8515
vn -0.1926 -0.4621 0.8657
vn 0.1899 -0.5607 0.8060
vn 0.5774 -0.5650 0.5894
vn 0.8240 -0.4778 0.3045
vn 0.8899 -0.4215 0.1746
vn 0.8599 -0.4507 0.2395
vn 0.5175 -0.5724 0.6360
vn -0.2950 -0.2086 0.9324
vn -0.3620 -0.2560 0.8963
vn -0.2438 -0.1724 0.9544
vn 0.0807 0.0570 0.9951
vn 0.4244 0.3001 0.8543
vn 0.6574 0.4648 0.5932
vn 0.7248 0.5125 0.4605
vn 0.6936 0.4904 0.5277
vn 0.3701 0.2617 0.8914
vn -0.4978 -0.0939 0.8622
vn -0.4916 -0.1827 0.8515
vn -0.4998 -0.0275 0.8657
vn -0.4653 0.3659 0.8060
vn -0.3403 0.7327 0.5893
vn -0.1758 0.9361 0.3045
vn -0.1008 0.9795 0.1746
vn -0.1383 0.9610 0.2395
vn -0.3672 0.6787 0.6360
vn -0.6600 -0.2086 0.7217
vn -0.5952 -0.2560 0.7617
vn -0.7046 -0.1724 0.6883
vn -0.9021 0.0571 0.4277
vn -0.9520 0.3001 0.0596
vn -0.8424 0.4648 -0.2727
vn -0.7612 0.5125 -0.3974
vn -0.8038 0.4904 -0.3368
vn -0.9570 0.2617 0.1252
vn -0.6195 -0.4380 0.6515
vn -0.5693 -0.4026 0.7168
vn -0.6534 -0.4620 0.5996
vn -0.7929 -0.5607 0.2385
vn -0.7991 -0.5650 -0.2054
vn -0.6757 -0.4778 -0.5613
vn -0.5961 -0.4215 -0.6834
vn -0.6374 -0.4507 -0.6250
vn -0.8095 -0.5724 -0.1302
vn -1.0000 -0.0000 -0.0000
vn -0.0000 1.0000 -0.0000
vn -0.5000 -0.0000 -0.8660
vn -0.5000 -0.0000 0.8660
vn 0.5000 -0.0000 0.8660
vn 1.0000 -0.0000 -0.0000
vn 0.5000 -0.0000 -0.8660
vn 0.1667 0.4714 0.8660
vn 0.9428 -0.3333 -0.0000
vn 0.3333 0.9428 -0.0000
vn -0.1667 -0.4714 0.8660
vn -0.3333 -0.9428 -0.0000
vn -0.1667 -0.4714 -0.8660
vn 0.1667 0.4714 -0.8660
vn 0.1667 -0.9428 0.2887
vn -0.4714 -0.3333 -0.8165
vn 0.8333 -0.4714 -0.2887
vn -0.6667 -0.4714 0.5774
vn -0.8333 0.4714 0.2887
vn -0.1667 0.9428 -0.2887
vn 0.6667 0.4714 -0.5774
vn 0.1667 -0.9428 -0.2887
vn -0.4714 -0.3333 0.8165
vn -0.6667 -0.4714 -0.5774
vn 0.8333 -0.4714 0.2887
vn 0.6667 0.4714 0.5774
vn -0.1667 0.9428 0.2887
vn -0.8333 0.4714 -0.2887
vn -0.9428 0.3333 -0.0000
vn 0.4714 0.3333 0.8165
vn 0.4714 0.3333 -0.8165
vn -0.0000 -1.0000 -0.0000
s 0
usemtl Material.002
f 343//1 348//1 341//1 340//1
f 349//2 354//2 347//2 346//2
f 353//3 352//3 337//3 342//3
f 355//4 360//4 351//4 350//4
f 357//5 356//5 345//5 344//5
f 359//6 358//6 339//6 338//6
f 39//7 25//7 27//7 50//7
f 50//8 27//8 28//8 49//8
f 49//9 28//9 29//9 48//9
f 48//10 29//10 30//10 47//10
f 47//11 30//11 31//11 46//11
f 46//12 31//12 32//12 45//12
f 45//13 32//13 33//13 44//13
f 44//14 33//14 34//14 43//14
f 43//15 34//15 35//15 42//15
f 42//15 35//15 36//15 41//15
f 41//15 36//15 37//15 40//15
f 40//15 37//15 26//15 38//15
f 52//16 39//16 50//16 63//16
f 63//17 50//17 49//17 62//17
f 62//18 49//18 48//18 61//18
f 61//19 48//19 47//19 60//19
f 60//20 47//20 46//20 59//20
f 59//21 46//21 45//21 58//21
f 58//22 45//22 44//22 57//22
f 57//23 44//23 43//23 56//23
f 56//24 43//24 42//24 55//24
f 55//24 42//24 41//24 54//24
f 54//24 41//24 40//24 53//24
f 53//24 40//24 38//24 51//24
f 65//25 52//25 63//25 76//25
f 76//26 63//26 62//26 75//26
f 75//27 62//27 61//27 74//27
f 74//28 61//28 60//28 73//28
f 73//29 60//29 59//29 72//29
f 72//30 59//30 58//30 71//30
f 71//31 58//31 57//31 70//31
f 70//32 57//32 56//32 69//32
f 69//33 56//33 55//33 68//33
f 68//33 55//33 54//33 67//33
f 67//33 54//33 53//33 66//33
f 66//33 53//33 51//33 64//33
f 78//34 65//34 76//34 89//34
f 89//35 76//35 75//35 88//35
f 88//36 75//36 74//36 87//36
f 87//37 74//37 73//37 86//37
f 86//38 73//38 72//38 85//38
f 85//39 72//39 71//39 84//39
f 84//40 71//40 70//40 83//40
f 83//41 70//41 69//41 82//41
f 82//42 69//42 68//42 81//42
f 81//42 68//42 67//42 80//42
f 80//42 67//42 66//42 79//42
f 79//42 66//42 64//42 77//42
f 91//43 78//43 89//43 102//43
f 102//44 89//44 88//44 101//44
f 101//45 88//45 87//45 100//45
f 100//46 87//46 86//46 99//46
f 99//47 86//47 85//47 98//47
f 98//48 85//48 84//48 97//48
f 97//49 84//49 83//49 96//49
f 96//50 83//50 82//50 95//50
f 95//51 82//51 81//51 94//51
f 94//51 81//51 80//51 93//51
f 93//51 80//51 79//51 92//51
f 92//51 79//51 77//51 90//51
f 25//52 91//52 102//52 27//52
f 27//53 102//53 101//53 28//53
f 28//54 101//54 100//54 29//54
f 29//55 100//55 99//55 30//55
f 30//56 99//56 98//56 31//56
f 31//57 98//57 97//57 32//57
f 32//58 97//58 96//58 33//58
f 33//59 96//59 95//59 34//59
f 34//60 95//60 94//60 35//60
f 35//60 94//60 93//60 36//60
f 36//60 93//60 92//60 37//60
f 37//60 92//60 90//60 26//60
f 117//61 103//61 105//61 128//61
f 128//61 105//61 106//61 127//61
f 127//61 106//61 107//61 126//61
f 126//61 107//61 108//61 125//61
f 125//62 108//62 109//62 124//62
f 124//63 109//63 110//63 123//63
f 123//64 110//64 111//64 122//64
f 122//65 111//65 112//65 121//65
f 121//66 112//66 113//66 120//66
f 120//67 113//67 114//67 119//67
f 119//68 114//68 115//68 118//68
f 118//69 115//69 104//69 116//69
f 130//70 117//70 128//70 141//70
f 141//70 128//70 127//70 140//70
f 140//70 127//70 126//70 139//70
f 139//70 126//70 125//70 138//70
f 138//71 125//71 124//71 137//71
f 137//72 124//72 123//72 136//72
f 136//73 123//73 122//73 135//73
f 135//74 122//74 121//74 134//74
f 134//75 121//75 120//75 133//75
f 133//76 120//76 119//76 132//76
f 132//77 119//77 118//77 131//77
f 131//78 118//78 116//78 129//78
f 143//79 130//79 141//79 154//79
f 154//79 141//79 140//79 153//79
f 153//79 140//79 139//79 152//79
f 152//79 139//79 138//79 151//79
f 151//80 138//80 137//80 150//80
f 150//81 137//81 136//81 149//81
f 149//82 136//82 135//82 148//82
f 148//83 135//83 134//83 147//83
f 147//84 134//84 133//84 146//84
f 146//85 133//85 132//85 145//85
f 145//86 132//86 131//86 144//86
f 144//87 131//87 129//87 142//87
f 156//88 143//88 154//88 167//88
f 167//88 154//88 153//88 166//88
f 166//88 153//88 152//88 165//88
f 165//88 152//88 151//88 164//88
f 164//89 151//89 150//89 163//89
f 163//90 150//90 149//90 162//90
f 162//91 149//91 148//91 161//91
f 161//92 148//92 147//92 160//92
f 160//93 147//93 146//93 159//93
f 159//94 146//94 145//94 158//94
f 158//95 145//95 144//95 157//95
f 157//96 144//96 142//96 155//96
f 169//97 156//97 167//97 180//97
f 180//97 167//97 166//97 179//97
f 179//97 166//97 165//97 178//97
f 178//97 165//97 164//97 177//97
f 177//98 164//98 163//98 176//98
f 176//99 163//99 162//99 175//99
f 175//100 162//100 161//100 174//100
f 174//101 161//101 160//101 173//101
f 173//102 160//102 159//102 172//102
f 172//103 159//103 158//103 171//103
f 171//104 158//104 157//104 170//104
f 170//105 157//105 155//105 168//105
f 103//106 169//106 180//106 105//106
f 105//106 180//106 179//106 106//106
f 106//106 179//106 178//106 107//106
f 107//106 178//106 177//106 108//106
f 108//107 177//107 176//107 109//107
f 109//108 176//108 175//108 110//108
f 110//109 175//109 174//109 111//109
f 111//110 174//110 173//110 112//110
f 112//111 173//111 172//111 113//111
f 113//112 172//112 171//112 114//112
f 114//113 171//113 170//113 115//113
f 115//114 170//114 168//114 104//114
f 195//115 181//115 183//115 206//115
f 206//116 183//116 184//116 205//116
f 205//117 184//117 185//117 204//117
f 204//118 185//118 186//118 203//118
f 203//119 186//119 187//119 202//119
f 202//120 187//120 188//120 201//120
f 201//121 188//121 189//121 200//121
f 200//122 189//122 190//122 199//122
f 199//123 190//123 191//123 198//123
f 198//123 191//123 192//123 197//123
f 197//123 192//123 193//123 196//123
f 196//123 193//123 182//123 194//123
f 208//124 195//124 206//124 219//124
f 219//125 206//125 205//125 218//125
f 218//126 205//126 204//126 217//126
f 217//127 204//127 203//127 216//127
f 216//128 203//128 202//128 215//128
f 215//129 202//129 201//129 214//129
f 214//130 201//130 200//130 213//130
f 213//131 200//131 199//131 212//131
f 212//132 199//132 198//132 211//132
f 211//132 198//132 197//132 210//132
f 210//132 197//132 196//132 209//132
f 209//132 196//132 194//132 207//132
f 221//133 208//133 219//133 232//133
f 232//134 219//134 218//134 231//134
f 231//135 218//135 217//135 230//135
f 230//136 217//136 216//136 229//136
f 229//137 216//137 215//137 228//137
f 228//138 215//138 214//138 227//138
f 227//139 214//139 213//139 226//139
f 226//140 213//140 212//140 225//140
f 225//141 212//141 211//141 224//141
f 224//141 211//141 210//141 223//141
f 223//141 210//141 209//141 222//141
f 222//141 209//141 207//141 220//141
f 234//142 221//142 232//142 245//142
f 245//143 232//143 231//143 244//143
f 244//144 231//144 230//144 243//144
f 243//145 230//145 229//145 242//145
f 242//146 229//146 228//146 241//146
f 241//147 228//147 227//147 240//147
f 240//148 227//148 226//148 239//148
f 239//149 226//149 225//149 238//149
f 238//150 225//150 224//150 237//150
f 237//150 224//150 223//150 236//150
f 236//150 223//150 222//150 235//150
f 235//150 222//150 220//150 233//150
f 247//151 234//151 245//151 258//151
f 258//152 245//152 244//152 257//152
f 257//153 244//153 243//153 256//153
f 256//154 243//154 242//154 255//154
f 255//155 242//155 241//155 254//155
f 254//156 241//156 240//156 253//156
f 253//157 240//157 239//157 252//157
f 252//158 239//158 238//158 251//158
f 251//159 238//159 237//159 250//159
f 250//159 237//159 236//159 249//159
f 249//159 236//159 235//159 248//159
f 248//159 235//159 233//159 246//159
f 181//160 247//160 258//160 183//160
f 183//161 258//161 257//161 184//161
f 184//162 257//162 256//162 185//162
f 185//163 256//163 255//163 186//163
f 186//164 255//164 254//164 187//164
f 187//165 254//165 253//165 188//165
f 188//166 253//166 252//166 189//166
f 189//167 252//167 251//167 190//167
f 190//168 251//168 250//168 191//168
f 191//168 250//168 249//168 192//168
f 192//168 249//168 248//168 193//168
f 193//168 248//168 246//168 182//168
f 273//169 259//169 261//169 284//169
f 284//170 261//170 262//170 283//170
f 283//171 262//171 263//171 282//171
f 282//172 263//172 264//172 281//172
f 281//173 264//173 265//173 280//173
f 280//174 265//174 266//174 279//174
f 279//175 266//175 267//175 278//175
f 278//176 267//176 268//176 277//176
f 277//177 268//177 269//177 276//177
f 276//177 269//177 270//177 275//177
f 275//177 270//177 271//177 274//177
f 274//177 271//177 260//177 272//177
f 286//178 273//178 284//178 297//178
f 297//179 284//179 283//179 296//179
f 296//180 283//180 282//180 295//180
f 295//181 282//181 281//181 294//181
f 294//182 281//182 280//182 293//182
f 293//183 280//183 279//183 292//183
f 292//184 279//184 278//184 291//184
f 291//185 278//185 277//185 290//185
f 290//186 277//186 276//186 289//186
f 289//186 276//186 275//186 288//186
f 288//186 275//186 274//186 287//186
f 287//186 274//186 272//186 285//186
f 299//187 286//187 297//187 310//187
f 310//188 297//188 296//188 309//188
f 309//189 296//189 295//189 308//189
f 308//190 295//190 294//190 307//190
f 307//191 294//191 293//191 306//191
f 306//192 293//192 292//192 305//192
f 305//193 292//193 291//193 304//193
f 304//194 291//194 290//194 303//194
f 303//195 290//195 289//195 302//195
f 302//195 289//195 288//195 301//195
f 301//195 288//195 287//195 300//195
f 300//195 287//195 285//195 298//195
f 312//196 299//196 310//196 323//196
f 323//197 310//197 309//197 322//197
f 322//198 309//198 308//198 321//198
f 321//199 308//199 307//199 320//199
f 320//200 307//200 306//200 319//200
f 319//201 306//201 305//201 318//201
f 318//202 305//202 304//202 317//202
f 317//203 304//203 303//203 316//203
f 316//204 303//204 302//204 315//204
f 315//204 302//204 301//204 314//204
f 314//204 301//204 300//204 313//204
f 313//204 300//204 298//204 311//204
f 325//205 312//205 323//205 336//205
f 336//206 323//206 322//206 335//206
f 335//207 322//207 321//207 334//207
f 334//208 321//208 320//208 333//208
f 333//209 320//209 319//209 332//209
f 332//210 319//210 318//210 331//210
f 331//211 318//211 317//211 330//211
f 330//212 317//212 316//212 329//212
f 329//213 316//213 315//213 328//213
f 328//213 315//213 314//213 327//213
f 327//213 314//213 313//213 326//213
f 326//213 313//213 311//213 324//213
f 259//214 325//214 336//214 261//214
f 261//215 336//215 335//215 262//215
f 262//216 335//216 334//216 263//216
f 263//217 334//217 333//217 264//217
f 264//218 333//218 332//218 265//218
f 265//219 332//219 331//219 266//219
f 266//220 331//220 330//220 267//220
f 267//221 330//221 329//221 268//221
f 268//222 329//222 328//222 269//222
f 269//222 328//222 327//222 270//222
f 270//222 327//222 326//222 271//222
f 271//222 326//222 324//222 260//222
f 338//223 38//223 26//223 337//223
f 25//224 39//224 52//224 65//224 78//224 91//224
f 337//225 26//225 90//225 342//225
f 339//226 51//226 38//226 338//226
f 340//227 64//227 51//227 339//227
f 341//228 77//228 64//228 340//228
f 342//229 90//229 77//229 341//229
f 344//230 116//230 104//230 343//230
f 103//231 117//231 130//231 143//231 156//231 169//231
f 343//232 104//232 168//232 348//232
f 345//233 129//233 116//233 344//233
f 346//234 142//234 129//234 345//234
f 347//235 155//235 142//235 346//235
f 348//236 168//236 155//236 347//236
f 350//237 194//237 182//237 349//237
f 181//238 195//238 208//238 221//238 234//238 247//238
f 349//239 182//239 246//239 354//239
f 351//240 207//240 194//240 350//240
f 352//241 220//241 207//241 351//241
f 353//242 233//242 220//242 352//242
f 354//243 246//243 233//243 353//243
f 356//244 272//244 260//244 355//244
f 259//245 273//245 286//245 299//245 312//245 325//245
f 355//246 260//246 324//246 360//246
f 357//247 285//247 272//247 356//247
f 358//248 298//248 285//248 357//248
f 359//249 311//249 298//249 358//249
f 360//250 324//250 311//250 359//250
f 3//251 4//251 338//251 337//251
f 5//252 6//252 340//252 339//252
f 1//253 2//253 342//253 341//253
f 9//252 10//252 344//252 343//252
f 11//254 12//254 346//254 345//254
f 7//253 8//253 348//253 347//253
f 15//254 16//254 350//254 349//254
f 17//251 18//251 352//251 351//251
f 13//253 14//253 354//253 353//253
f 21//254 22//254 356//254 355//254
f 23//252 24//252 358//252 357//252
f 19//251 20//251 360//251 359//251
f 6//252 9//252 343//252 340//252
f 8//253 1//253 341//253 348//253
f 12//254 15//254 349//254 346//254
f 14//253 7//253 347//253 354//253
f 2//253 13//253 353//253 342//253
f 18//251 3//251 337//251 352//251
f 16//254 21//254 355//254 350//254
f 20//251 17//251 351//251 360//251
f 10//252 23//252 357//252 344//252
f 22//254 11//254 345//254 356//254
f 4//251 19//251 359//251 338//251
f 24//252 5//252 339//252 358//252
f 1//249 362//249 361//249 2//249
f 8//248 363//248 362//248 1//248
f 7//247 364//247 363//247 8//247
f 14//244 365//244 364//244 7//244
f 13//246 366//246 365//246 14//246
f 2//250 361//250 366//250 13//250
f 3//232 368//232 367//232 4//232
f 18//236 369//236 368//236 3//236
f 17//235 370//235 369//235 18//235
f 20//234 371//234 370//234 17//234
f 19//233 372//233 371//233 20//233
f 4//230 367//230 372//230 19//230
f 5//242 374//242 373//242 6//242
f 24//241 375//241 374//241 5//241
f 23//240 376//240 375//240 24//240
f 10//237 377//237 376//237 23//237
f 9//239 378//239 377//239 10//239
f 6//243 373//243 378//243 9//243
f 11//228 380//228 379//228 12//228
f 22//227 381//227 380//227 11//227
f 21//226 382//226 381//226 22//226
f 16//223 383//223 382//223 21//223
f 15//225 384//225 383//225 16//225
f 12//229 379//229 384//229 15//229
o FACES
v 0.086280 0.890482 -0.433764
v 0.332511 0.890482 -0.291602
v 0.950391 0.016667 -0.291602
v 0.868315 -0.215482 -0.433764
v -0.058507 -0.215482 -0.968864
v -0.222661 0.016667 -0.968864
v -0.418790 0.890482 0.142162
v -0.418790 0.890482 -0.142162
v -0.727731 0.016667 -0.677262
v -0.809808 -0.215482 -0.535101
v -0.809808 -0.215482 0.535101
v -0.727731 0.016667 0.677262
v 0.332511 0.890482 0.291602
v 0.086280 0.890482 0.433764
v -0.222661 0.016667 0.968864
v -0.058507 -0.215482 0.968864
v 0.868315 -0.215482 0.433764
v 0.950391 0.016667 0.291602
v 0.699958 -0.691667 -0.142162
v 0.699958 -0.691667 0.142162
v -0.226863 -0.691667 0.677262
v -0.473094 -0.691667 0.535101
v -0.473094 -0.691667 -0.535101
v -0.226863 -0.691667 -0.677262
vn -0.0000 -1.0000 -0.0000
vn 0.4714 0.3333 0.8165
vn -0.9428 0.3333 -0.0000
vn 0.4714 0.3333 -0.8165
s 0
usemtl Material.001
f 403//255 404//255 405//255 406//255 407//255 408//255
f 397//256 398//256 399//256 400//256 401//256 402//256
f 391//257 392//257 393//257 394//257 395//257 396//257
f 385//258 386//258 387//258 388//258 389//258 390//258
