ISO-10303-21;
HEADER;
/* Generated by software containing ST-Developer
 * from STEP Tools, Inc. (www.steptools.com) 
 */

FILE_DESCRIPTION(
/* description */ (''),
/* implementation_level */ '2;1');

FILE_NAME(
/* name */ 'PUMP THING.step',
/* time_stamp */ '2025-08-20T14:53:17-05:00',
/* author */ (''),
/* organization */ (''),
/* preprocessor_version */ 'ST-DEVELOPER v20.1',
/* originating_system */ 'Autodesk Translation Framework v14.10.0.0',
/* authorisation */ '');

FILE_SCHEMA (('AUTOMOTIVE_DESIGN { 1 0 10303 214 3 1 1 }'));
ENDSEC;

DATA;
#10=MECHANICAL_DESIGN_GEOMETRIC_PRESENTATION_REPRESENTATION('',(#15,#16,
#17,#18,#19,#20,#21,#22,#23,#24),#892);
#11=SHAPE_REPRESENTATION_RELATIONSHIP('SRR','None',#902,#12);
#12=ADVANCED_BREP_SHAPE_REPRESENTATION('',(#25,#26,#27,#28,#29,#30,#31,
#32,#33,#34),#891);
#13=CONICAL_SURFACE('',#561,2.02900206651713,1.22173047639603);
#14=CONICAL_SURFACE('',#565,3.25000010372147,0.872664625997165);
#15=STYLED_ITEM('',(#911),#25);
#16=STYLED_ITEM('',(#911),#26);
#17=STYLED_ITEM('',(#911),#27);
#18=STYLED_ITEM('',(#911),#28);
#19=STYLED_ITEM('',(#911),#29);
#20=STYLED_ITEM('',(#911),#30);
#21=STYLED_ITEM('',(#911),#31);
#22=STYLED_ITEM('',(#911),#32);
#23=STYLED_ITEM('',(#911),#33);
#24=STYLED_ITEM('',(#911),#34);
#25=MANIFOLD_SOLID_BREP('Body1',#466);
#26=MANIFOLD_SOLID_BREP('Body2',#467);
#27=MANIFOLD_SOLID_BREP('Body3',#468);
#28=MANIFOLD_SOLID_BREP('Body4',#469);
#29=MANIFOLD_SOLID_BREP('Body5',#470);
#30=MANIFOLD_SOLID_BREP('Body6',#471);
#31=MANIFOLD_SOLID_BREP('Body7',#472);
#32=MANIFOLD_SOLID_BREP('Body8',#473);
#33=MANIFOLD_SOLID_BREP('Body9',#474);
#34=MANIFOLD_SOLID_BREP('Body10',#475);
#35=TOROIDAL_SURFACE('',#495,3.25000010372147,0.125000003989287);
#36=TOROIDAL_SURFACE('',#503,3.25000010372147,0.125000003989287);
#37=TOROIDAL_SURFACE('',#511,3.25000010372147,0.125000003989287);
#38=TOROIDAL_SURFACE('',#519,3.25000010372147,0.125000003989287);
#39=TOROIDAL_SURFACE('',#527,3.25000010372147,0.125000003989287);
#40=TOROIDAL_SURFACE('',#535,3.25000010372147,0.125000003989287);
#41=TOROIDAL_SURFACE('',#543,3.25000010372147,0.125000003989287);
#42=TOROIDAL_SURFACE('',#551,3.25000010372147,0.125000003989287);
#43=TOROIDAL_SURFACE('',#559,3.25000010372147,0.125000003989287);
#44=TOROIDAL_SURFACE('',#572,3.25000010372147,0.125000003989287);
#45=PLANE('',#492);
#46=PLANE('',#493);
#47=PLANE('',#500);
#48=PLANE('',#501);
#49=PLANE('',#508);
#50=PLANE('',#509);
#51=PLANE('',#516);
#52=PLANE('',#517);
#53=PLANE('',#524);
#54=PLANE('',#525);
#55=PLANE('',#532);
#56=PLANE('',#533);
#57=PLANE('',#540);
#58=PLANE('',#541);
#59=PLANE('',#548);
#60=PLANE('',#549);
#61=PLANE('',#556);
#62=PLANE('',#557);
#63=PLANE('',#567);
#64=PLANE('',#570);
#65=FACE_OUTER_BOUND('',#107,.T.);
#66=FACE_OUTER_BOUND('',#108,.T.);
#67=FACE_OUTER_BOUND('',#109,.T.);
#68=FACE_OUTER_BOUND('',#110,.T.);
#69=FACE_OUTER_BOUND('',#111,.T.);
#70=FACE_OUTER_BOUND('',#112,.T.);
#71=FACE_OUTER_BOUND('',#113,.T.);
#72=FACE_OUTER_BOUND('',#114,.T.);
#73=FACE_OUTER_BOUND('',#115,.T.);
#74=FACE_OUTER_BOUND('',#116,.T.);
#75=FACE_OUTER_BOUND('',#117,.T.);
#76=FACE_OUTER_BOUND('',#118,.T.);
#77=FACE_OUTER_BOUND('',#119,.T.);
#78=FACE_OUTER_BOUND('',#120,.T.);
#79=FACE_OUTER_BOUND('',#121,.T.);
#80=FACE_OUTER_BOUND('',#122,.T.);
#81=FACE_OUTER_BOUND('',#123,.T.);
#82=FACE_OUTER_BOUND('',#124,.T.);
#83=FACE_OUTER_BOUND('',#125,.T.);
#84=FACE_OUTER_BOUND('',#126,.T.);
#85=FACE_OUTER_BOUND('',#127,.T.);
#86=FACE_OUTER_BOUND('',#128,.T.);
#87=FACE_OUTER_BOUND('',#129,.T.);
#88=FACE_OUTER_BOUND('',#130,.T.);
#89=FACE_OUTER_BOUND('',#131,.T.);
#90=FACE_OUTER_BOUND('',#132,.T.);
#91=FACE_OUTER_BOUND('',#133,.T.);
#92=FACE_OUTER_BOUND('',#134,.T.);
#93=FACE_OUTER_BOUND('',#135,.T.);
#94=FACE_OUTER_BOUND('',#136,.T.);
#95=FACE_OUTER_BOUND('',#137,.T.);
#96=FACE_OUTER_BOUND('',#138,.T.);
#97=FACE_OUTER_BOUND('',#139,.T.);
#98=FACE_OUTER_BOUND('',#140,.T.);
#99=FACE_OUTER_BOUND('',#141,.T.);
#100=FACE_OUTER_BOUND('',#142,.T.);
#101=FACE_OUTER_BOUND('',#143,.T.);
#102=FACE_OUTER_BOUND('',#144,.T.);
#103=FACE_OUTER_BOUND('',#145,.T.);
#104=FACE_OUTER_BOUND('',#146,.T.);
#105=FACE_OUTER_BOUND('',#147,.T.);
#106=FACE_OUTER_BOUND('',#148,.T.);
#107=EDGE_LOOP('',(#304,#305,#306,#307));
#108=EDGE_LOOP('',(#308));
#109=EDGE_LOOP('',(#309));
#110=EDGE_LOOP('',(#310,#311,#312,#313));
#111=EDGE_LOOP('',(#314,#315,#316,#317));
#112=EDGE_LOOP('',(#318));
#113=EDGE_LOOP('',(#319));
#114=EDGE_LOOP('',(#320,#321,#322,#323));
#115=EDGE_LOOP('',(#324,#325,#326,#327));
#116=EDGE_LOOP('',(#328));
#117=EDGE_LOOP('',(#329));
#118=EDGE_LOOP('',(#330,#331,#332,#333));
#119=EDGE_LOOP('',(#334,#335,#336,#337));
#120=EDGE_LOOP('',(#338));
#121=EDGE_LOOP('',(#339));
#122=EDGE_LOOP('',(#340,#341,#342,#343));
#123=EDGE_LOOP('',(#344,#345,#346,#347));
#124=EDGE_LOOP('',(#348));
#125=EDGE_LOOP('',(#349));
#126=EDGE_LOOP('',(#350,#351,#352,#353));
#127=EDGE_LOOP('',(#354,#355,#356,#357));
#128=EDGE_LOOP('',(#358));
#129=EDGE_LOOP('',(#359));
#130=EDGE_LOOP('',(#360,#361,#362,#363));
#131=EDGE_LOOP('',(#364,#365,#366,#367));
#132=EDGE_LOOP('',(#368));
#133=EDGE_LOOP('',(#369));
#134=EDGE_LOOP('',(#370,#371,#372,#373));
#135=EDGE_LOOP('',(#374,#375,#376,#377));
#136=EDGE_LOOP('',(#378));
#137=EDGE_LOOP('',(#379));
#138=EDGE_LOOP('',(#380,#381,#382,#383));
#139=EDGE_LOOP('',(#384,#385,#386,#387));
#140=EDGE_LOOP('',(#388));
#141=EDGE_LOOP('',(#389));
#142=EDGE_LOOP('',(#390,#391,#392,#393));
#143=EDGE_LOOP('',(#394,#395,#396,#397,#398));
#144=EDGE_LOOP('',(#399,#400,#401,#402,#403));
#145=EDGE_LOOP('',(#404));
#146=EDGE_LOOP('',(#405,#406,#407,#408));
#147=EDGE_LOOP('',(#409));
#148=EDGE_LOOP('',(#410,#411,#412,#413));
#149=LINE('',#763,#161);
#150=LINE('',#775,#162);
#151=LINE('',#787,#163);
#152=LINE('',#799,#164);
#153=LINE('',#811,#165);
#154=LINE('',#823,#166);
#155=LINE('',#835,#167);
#156=LINE('',#847,#168);
#157=LINE('',#859,#169);
#158=LINE('',#873,#170);
#159=LINE('',#877,#171);
#160=LINE('',#882,#172);
#161=VECTOR('',#580,3.25000010372147);
#162=VECTOR('',#597,3.25000010372147);
#163=VECTOR('',#614,3.25000010372147);
#164=VECTOR('',#631,3.25000010372147);
#165=VECTOR('',#648,3.25000010372147);
#166=VECTOR('',#665,3.25000010372147);
#167=VECTOR('',#682,3.25000010372147);
#168=VECTOR('',#699,3.25000010372147);
#169=VECTOR('',#716,3.25000010372147);
#170=VECTOR('',#735,2.02900206651713);
#171=VECTOR('',#740,3.25000010372147);
#172=VECTOR('',#747,3.25000010372147);
#173=CIRCLE('',#490,3.25000010372147);
#174=CIRCLE('',#491,3.25000010372147);
#175=CIRCLE('',#494,3.25000010372147);
#176=CIRCLE('',#496,0.125000003989287);
#177=CIRCLE('',#498,3.25000010372147);
#178=CIRCLE('',#499,3.25000010372147);
#179=CIRCLE('',#502,3.25000010372147);
#180=CIRCLE('',#504,0.125000003989287);
#181=CIRCLE('',#506,3.25000010372147);
#182=CIRCLE('',#507,3.25000010372147);
#183=CIRCLE('',#510,3.25000010372147);
#184=CIRCLE('',#512,0.125000003989287);
#185=CIRCLE('',#514,3.25000010372147);
#186=CIRCLE('',#515,3.25000010372147);
#187=CIRCLE('',#518,3.25000010372147);
#188=CIRCLE('',#520,0.125000003989287);
#189=CIRCLE('',#522,3.25000010372147);
#190=CIRCLE('',#523,3.25000010372147);
#191=CIRCLE('',#526,3.25000010372147);
#192=CIRCLE('',#528,0.125000003989287);
#193=CIRCLE('',#530,3.25000010372147);
#194=CIRCLE('',#531,3.25000010372147);
#195=CIRCLE('',#534,3.25000010372147);
#196=CIRCLE('',#536,0.125000003989287);
#197=CIRCLE('',#538,3.25000010372147);
#198=CIRCLE('',#539,3.25000010372147);
#199=CIRCLE('',#542,3.25000010372147);
#200=CIRCLE('',#544,0.125000003989287);
#201=CIRCLE('',#546,3.25000010372147);
#202=CIRCLE('',#547,3.25000010372147);
#203=CIRCLE('',#550,3.25000010372147);
#204=CIRCLE('',#552,0.125000003989287);
#205=CIRCLE('',#554,3.25000010372147);
#206=CIRCLE('',#555,3.25000010372147);
#207=CIRCLE('',#558,3.25000010372147);
#208=CIRCLE('',#560,0.125000003989287);
#209=CIRCLE('',#562,2.249757621907);
#210=CIRCLE('',#563,2.249757621907);
#211=CIRCLE('',#564,1.80824651112726);
#212=CIRCLE('',#566,3.25000010372147);
#213=CIRCLE('',#569,3.25000010372147);
#214=CIRCLE('',#571,3.25000010372147);
#215=CIRCLE('',#573,0.125000003989287);
#216=VERTEX_POINT('',#760);
#217=VERTEX_POINT('',#762);
#218=VERTEX_POINT('',#767);
#219=VERTEX_POINT('',#772);
#220=VERTEX_POINT('',#774);
#221=VERTEX_POINT('',#779);
#222=VERTEX_POINT('',#784);
#223=VERTEX_POINT('',#786);
#224=VERTEX_POINT('',#791);
#225=VERTEX_POINT('',#796);
#226=VERTEX_POINT('',#798);
#227=VERTEX_POINT('',#803);
#228=VERTEX_POINT('',#808);
#229=VERTEX_POINT('',#810);
#230=VERTEX_POINT('',#815);
#231=VERTEX_POINT('',#820);
#232=VERTEX_POINT('',#822);
#233=VERTEX_POINT('',#827);
#234=VERTEX_POINT('',#832);
#235=VERTEX_POINT('',#834);
#236=VERTEX_POINT('',#839);
#237=VERTEX_POINT('',#844);
#238=VERTEX_POINT('',#846);
#239=VERTEX_POINT('',#851);
#240=VERTEX_POINT('',#856);
#241=VERTEX_POINT('',#858);
#242=VERTEX_POINT('',#863);
#243=VERTEX_POINT('',#868);
#244=VERTEX_POINT('',#869);
#245=VERTEX_POINT('',#872);
#246=VERTEX_POINT('',#876);
#247=VERTEX_POINT('',#881);
#248=VERTEX_POINT('',#885);
#249=EDGE_CURVE('',#216,#216,#173,.T.);
#250=EDGE_CURVE('',#216,#217,#149,.T.);
#251=EDGE_CURVE('',#217,#217,#174,.T.);
#252=EDGE_CURVE('',#218,#218,#175,.T.);
#253=EDGE_CURVE('',#217,#218,#176,.T.);
#254=EDGE_CURVE('',#219,#219,#177,.T.);
#255=EDGE_CURVE('',#219,#220,#150,.T.);
#256=EDGE_CURVE('',#220,#220,#178,.T.);
#257=EDGE_CURVE('',#221,#221,#179,.T.);
#258=EDGE_CURVE('',#220,#221,#180,.T.);
#259=EDGE_CURVE('',#222,#222,#181,.T.);
#260=EDGE_CURVE('',#222,#223,#151,.T.);
#261=EDGE_CURVE('',#223,#223,#182,.T.);
#262=EDGE_CURVE('',#224,#224,#183,.T.);
#263=EDGE_CURVE('',#223,#224,#184,.T.);
#264=EDGE_CURVE('',#225,#225,#185,.T.);
#265=EDGE_CURVE('',#225,#226,#152,.T.);
#266=EDGE_CURVE('',#226,#226,#186,.T.);
#267=EDGE_CURVE('',#227,#227,#187,.T.);
#268=EDGE_CURVE('',#226,#227,#188,.T.);
#269=EDGE_CURVE('',#228,#228,#189,.T.);
#270=EDGE_CURVE('',#228,#229,#153,.T.);
#271=EDGE_CURVE('',#229,#229,#190,.T.);
#272=EDGE_CURVE('',#230,#230,#191,.T.);
#273=EDGE_CURVE('',#229,#230,#192,.T.);
#274=EDGE_CURVE('',#231,#231,#193,.T.);
#275=EDGE_CURVE('',#231,#232,#154,.T.);
#276=EDGE_CURVE('',#232,#232,#194,.T.);
#277=EDGE_CURVE('',#233,#233,#195,.T.);
#278=EDGE_CURVE('',#232,#233,#196,.T.);
#279=EDGE_CURVE('',#234,#234,#197,.T.);
#280=EDGE_CURVE('',#234,#235,#155,.T.);
#281=EDGE_CURVE('',#235,#235,#198,.T.);
#282=EDGE_CURVE('',#236,#236,#199,.T.);
#283=EDGE_CURVE('',#235,#236,#200,.T.);
#284=EDGE_CURVE('',#237,#237,#201,.T.);
#285=EDGE_CURVE('',#237,#238,#156,.T.);
#286=EDGE_CURVE('',#238,#238,#202,.T.);
#287=EDGE_CURVE('',#239,#239,#203,.T.);
#288=EDGE_CURVE('',#238,#239,#204,.T.);
#289=EDGE_CURVE('',#240,#240,#205,.T.);
#290=EDGE_CURVE('',#240,#241,#157,.T.);
#291=EDGE_CURVE('',#241,#241,#206,.T.);
#292=EDGE_CURVE('',#242,#242,#207,.T.);
#293=EDGE_CURVE('',#241,#242,#208,.T.);
#294=EDGE_CURVE('',#243,#244,#209,.T.);
#295=EDGE_CURVE('',#244,#243,#210,.T.);
#296=EDGE_CURVE('',#243,#245,#158,.T.);
#297=EDGE_CURVE('',#245,#245,#211,.T.);
#298=EDGE_CURVE('',#244,#246,#159,.T.);
#299=EDGE_CURVE('',#246,#246,#212,.T.);
#300=EDGE_CURVE('',#246,#247,#160,.T.);
#301=EDGE_CURVE('',#247,#247,#213,.T.);
#302=EDGE_CURVE('',#248,#248,#214,.T.);
#303=EDGE_CURVE('',#247,#248,#215,.T.);
#304=ORIENTED_EDGE('',*,*,#249,.F.);
#305=ORIENTED_EDGE('',*,*,#250,.T.);
#306=ORIENTED_EDGE('',*,*,#251,.T.);
#307=ORIENTED_EDGE('',*,*,#250,.F.);
#308=ORIENTED_EDGE('',*,*,#249,.T.);
#309=ORIENTED_EDGE('',*,*,#252,.F.);
#310=ORIENTED_EDGE('',*,*,#251,.F.);
#311=ORIENTED_EDGE('',*,*,#253,.T.);
#312=ORIENTED_EDGE('',*,*,#252,.T.);
#313=ORIENTED_EDGE('',*,*,#253,.F.);
#314=ORIENTED_EDGE('',*,*,#254,.F.);
#315=ORIENTED_EDGE('',*,*,#255,.T.);
#316=ORIENTED_EDGE('',*,*,#256,.T.);
#317=ORIENTED_EDGE('',*,*,#255,.F.);
#318=ORIENTED_EDGE('',*,*,#254,.T.);
#319=ORIENTED_EDGE('',*,*,#257,.F.);
#320=ORIENTED_EDGE('',*,*,#256,.F.);
#321=ORIENTED_EDGE('',*,*,#258,.T.);
#322=ORIENTED_EDGE('',*,*,#257,.T.);
#323=ORIENTED_EDGE('',*,*,#258,.F.);
#324=ORIENTED_EDGE('',*,*,#259,.F.);
#325=ORIENTED_EDGE('',*,*,#260,.T.);
#326=ORIENTED_EDGE('',*,*,#261,.T.);
#327=ORIENTED_EDGE('',*,*,#260,.F.);
#328=ORIENTED_EDGE('',*,*,#259,.T.);
#329=ORIENTED_EDGE('',*,*,#262,.F.);
#330=ORIENTED_EDGE('',*,*,#261,.F.);
#331=ORIENTED_EDGE('',*,*,#263,.T.);
#332=ORIENTED_EDGE('',*,*,#262,.T.);
#333=ORIENTED_EDGE('',*,*,#263,.F.);
#334=ORIENTED_EDGE('',*,*,#264,.F.);
#335=ORIENTED_EDGE('',*,*,#265,.T.);
#336=ORIENTED_EDGE('',*,*,#266,.T.);
#337=ORIENTED_EDGE('',*,*,#265,.F.);
#338=ORIENTED_EDGE('',*,*,#264,.T.);
#339=ORIENTED_EDGE('',*,*,#267,.F.);
#340=ORIENTED_EDGE('',*,*,#266,.F.);
#341=ORIENTED_EDGE('',*,*,#268,.T.);
#342=ORIENTED_EDGE('',*,*,#267,.T.);
#343=ORIENTED_EDGE('',*,*,#268,.F.);
#344=ORIENTED_EDGE('',*,*,#269,.F.);
#345=ORIENTED_EDGE('',*,*,#270,.T.);
#346=ORIENTED_EDGE('',*,*,#271,.T.);
#347=ORIENTED_EDGE('',*,*,#270,.F.);
#348=ORIENTED_EDGE('',*,*,#269,.T.);
#349=ORIENTED_EDGE('',*,*,#272,.F.);
#350=ORIENTED_EDGE('',*,*,#271,.F.);
#351=ORIENTED_EDGE('',*,*,#273,.T.);
#352=ORIENTED_EDGE('',*,*,#272,.T.);
#353=ORIENTED_EDGE('',*,*,#273,.F.);
#354=ORIENTED_EDGE('',*,*,#274,.F.);
#355=ORIENTED_EDGE('',*,*,#275,.T.);
#356=ORIENTED_EDGE('',*,*,#276,.T.);
#357=ORIENTED_EDGE('',*,*,#275,.F.);
#358=ORIENTED_EDGE('',*,*,#274,.T.);
#359=ORIENTED_EDGE('',*,*,#277,.F.);
#360=ORIENTED_EDGE('',*,*,#276,.F.);
#361=ORIENTED_EDGE('',*,*,#278,.T.);
#362=ORIENTED_EDGE('',*,*,#277,.T.);
#363=ORIENTED_EDGE('',*,*,#278,.F.);
#364=ORIENTED_EDGE('',*,*,#279,.F.);
#365=ORIENTED_EDGE('',*,*,#280,.T.);
#366=ORIENTED_EDGE('',*,*,#281,.T.);
#367=ORIENTED_EDGE('',*,*,#280,.F.);
#368=ORIENTED_EDGE('',*,*,#279,.T.);
#369=ORIENTED_EDGE('',*,*,#282,.F.);
#370=ORIENTED_EDGE('',*,*,#281,.F.);
#371=ORIENTED_EDGE('',*,*,#283,.T.);
#372=ORIENTED_EDGE('',*,*,#282,.T.);
#373=ORIENTED_EDGE('',*,*,#283,.F.);
#374=ORIENTED_EDGE('',*,*,#284,.F.);
#375=ORIENTED_EDGE('',*,*,#285,.T.);
#376=ORIENTED_EDGE('',*,*,#286,.T.);
#377=ORIENTED_EDGE('',*,*,#285,.F.);
#378=ORIENTED_EDGE('',*,*,#284,.T.);
#379=ORIENTED_EDGE('',*,*,#287,.F.);
#380=ORIENTED_EDGE('',*,*,#286,.F.);
#381=ORIENTED_EDGE('',*,*,#288,.T.);
#382=ORIENTED_EDGE('',*,*,#287,.T.);
#383=ORIENTED_EDGE('',*,*,#288,.F.);
#384=ORIENTED_EDGE('',*,*,#289,.F.);
#385=ORIENTED_EDGE('',*,*,#290,.T.);
#386=ORIENTED_EDGE('',*,*,#291,.T.);
#387=ORIENTED_EDGE('',*,*,#290,.F.);
#388=ORIENTED_EDGE('',*,*,#289,.T.);
#389=ORIENTED_EDGE('',*,*,#292,.F.);
#390=ORIENTED_EDGE('',*,*,#291,.F.);
#391=ORIENTED_EDGE('',*,*,#293,.T.);
#392=ORIENTED_EDGE('',*,*,#292,.T.);
#393=ORIENTED_EDGE('',*,*,#293,.F.);
#394=ORIENTED_EDGE('',*,*,#294,.T.);
#395=ORIENTED_EDGE('',*,*,#295,.T.);
#396=ORIENTED_EDGE('',*,*,#296,.T.);
#397=ORIENTED_EDGE('',*,*,#297,.T.);
#398=ORIENTED_EDGE('',*,*,#296,.F.);
#399=ORIENTED_EDGE('',*,*,#294,.F.);
#400=ORIENTED_EDGE('',*,*,#295,.F.);
#401=ORIENTED_EDGE('',*,*,#298,.T.);
#402=ORIENTED_EDGE('',*,*,#299,.T.);
#403=ORIENTED_EDGE('',*,*,#298,.F.);
#404=ORIENTED_EDGE('',*,*,#297,.F.);
#405=ORIENTED_EDGE('',*,*,#299,.F.);
#406=ORIENTED_EDGE('',*,*,#300,.T.);
#407=ORIENTED_EDGE('',*,*,#301,.T.);
#408=ORIENTED_EDGE('',*,*,#300,.F.);
#409=ORIENTED_EDGE('',*,*,#302,.F.);
#410=ORIENTED_EDGE('',*,*,#301,.F.);
#411=ORIENTED_EDGE('',*,*,#303,.T.);
#412=ORIENTED_EDGE('',*,*,#302,.T.);
#413=ORIENTED_EDGE('',*,*,#303,.F.);
#414=CYLINDRICAL_SURFACE('',#489,3.25000010372147);
#415=CYLINDRICAL_SURFACE('',#497,3.25000010372147);
#416=CYLINDRICAL_SURFACE('',#505,3.25000010372147);
#417=CYLINDRICAL_SURFACE('',#513,3.25000010372147);
#418=CYLINDRICAL_SURFACE('',#521,3.25000010372147);
#419=CYLINDRICAL_SURFACE('',#529,3.25000010372147);
#420=CYLINDRICAL_SURFACE('',#537,3.25000010372147);
#421=CYLINDRICAL_SURFACE('',#545,3.25000010372147);
#422=CYLINDRICAL_SURFACE('',#553,3.25000010372147);
#423=CYLINDRICAL_SURFACE('',#568,3.25000010372147);
#424=ADVANCED_FACE('',(#65),#414,.T.);
#425=ADVANCED_FACE('',(#66),#45,.T.);
#426=ADVANCED_FACE('',(#67),#46,.T.);
#427=ADVANCED_FACE('',(#68),#35,.T.);
#428=ADVANCED_FACE('',(#69),#415,.T.);
#429=ADVANCED_FACE('',(#70),#47,.T.);
#430=ADVANCED_FACE('',(#71),#48,.T.);
#431=ADVANCED_FACE('',(#72),#36,.T.);
#432=ADVANCED_FACE('',(#73),#416,.T.);
#433=ADVANCED_FACE('',(#74),#49,.T.);
#434=ADVANCED_FACE('',(#75),#50,.T.);
#435=ADVANCED_FACE('',(#76),#37,.T.);
#436=ADVANCED_FACE('',(#77),#417,.T.);
#437=ADVANCED_FACE('',(#78),#51,.T.);
#438=ADVANCED_FACE('',(#79),#52,.T.);
#439=ADVANCED_FACE('',(#80),#38,.T.);
#440=ADVANCED_FACE('',(#81),#418,.T.);
#441=ADVANCED_FACE('',(#82),#53,.T.);
#442=ADVANCED_FACE('',(#83),#54,.T.);
#443=ADVANCED_FACE('',(#84),#39,.T.);
#444=ADVANCED_FACE('',(#85),#419,.T.);
#445=ADVANCED_FACE('',(#86),#55,.T.);
#446=ADVANCED_FACE('',(#87),#56,.T.);
#447=ADVANCED_FACE('',(#88),#40,.T.);
#448=ADVANCED_FACE('',(#89),#420,.T.);
#449=ADVANCED_FACE('',(#90),#57,.T.);
#450=ADVANCED_FACE('',(#91),#58,.T.);
#451=ADVANCED_FACE('',(#92),#41,.T.);
#452=ADVANCED_FACE('',(#93),#421,.T.);
#453=ADVANCED_FACE('',(#94),#59,.T.);
#454=ADVANCED_FACE('',(#95),#60,.T.);
#455=ADVANCED_FACE('',(#96),#42,.T.);
#456=ADVANCED_FACE('',(#97),#422,.T.);
#457=ADVANCED_FACE('',(#98),#61,.T.);
#458=ADVANCED_FACE('',(#99),#62,.T.);
#459=ADVANCED_FACE('',(#100),#43,.T.);
#460=ADVANCED_FACE('',(#101),#13,.T.);
#461=ADVANCED_FACE('',(#102),#14,.T.);
#462=ADVANCED_FACE('',(#103),#63,.T.);
#463=ADVANCED_FACE('',(#104),#423,.T.);
#464=ADVANCED_FACE('',(#105),#64,.T.);
#465=ADVANCED_FACE('',(#106),#44,.T.);
#466=CLOSED_SHELL('',(#424,#425,#426,#427));
#467=CLOSED_SHELL('',(#428,#429,#430,#431));
#468=CLOSED_SHELL('',(#432,#433,#434,#435));
#469=CLOSED_SHELL('',(#436,#437,#438,#439));
#470=CLOSED_SHELL('',(#440,#441,#442,#443));
#471=CLOSED_SHELL('',(#444,#445,#446,#447));
#472=CLOSED_SHELL('',(#448,#449,#450,#451));
#473=CLOSED_SHELL('',(#452,#453,#454,#455));
#474=CLOSED_SHELL('',(#456,#457,#458,#459));
#475=CLOSED_SHELL('',(#460,#461,#462,#463,#464,#465));
#476=DERIVED_UNIT_ELEMENT(#478,1.);
#477=DERIVED_UNIT_ELEMENT(#896,-3.);
#478=(
MASS_UNIT()
NAMED_UNIT(*)
SI_UNIT(.KILO.,.GRAM.)
);
#479=DERIVED_UNIT((#476,#477));
#480=MEASURE_REPRESENTATION_ITEM('density measure',
POSITIVE_RATIO_MEASURE(7850.),#479);
#481=PROPERTY_DEFINITION_REPRESENTATION(#486,#483);
#482=PROPERTY_DEFINITION_REPRESENTATION(#487,#484);
#483=REPRESENTATION('material name',(#485),#891);
#484=REPRESENTATION('density',(#480),#891);
#485=DESCRIPTIVE_REPRESENTATION_ITEM('Steel','Steel');
#486=PROPERTY_DEFINITION('material property','material name',#904);
#487=PROPERTY_DEFINITION('material property','density of part',#904);
#488=AXIS2_PLACEMENT_3D('',#758,#574,#575);
#489=AXIS2_PLACEMENT_3D('',#759,#576,#577);
#490=AXIS2_PLACEMENT_3D('',#761,#578,#579);
#491=AXIS2_PLACEMENT_3D('',#764,#581,#582);
#492=AXIS2_PLACEMENT_3D('',#765,#583,#584);
#493=AXIS2_PLACEMENT_3D('',#766,#585,#586);
#494=AXIS2_PLACEMENT_3D('',#768,#587,#588);
#495=AXIS2_PLACEMENT_3D('',#769,#589,#590);
#496=AXIS2_PLACEMENT_3D('',#770,#591,#592);
#497=AXIS2_PLACEMENT_3D('',#771,#593,#594);
#498=AXIS2_PLACEMENT_3D('',#773,#595,#596);
#499=AXIS2_PLACEMENT_3D('',#776,#598,#599);
#500=AXIS2_PLACEMENT_3D('',#777,#600,#601);
#501=AXIS2_PLACEMENT_3D('',#778,#602,#603);
#502=AXIS2_PLACEMENT_3D('',#780,#604,#605);
#503=AXIS2_PLACEMENT_3D('',#781,#606,#607);
#504=AXIS2_PLACEMENT_3D('',#782,#608,#609);
#505=AXIS2_PLACEMENT_3D('',#783,#610,#611);
#506=AXIS2_PLACEMENT_3D('',#785,#612,#613);
#507=AXIS2_PLACEMENT_3D('',#788,#615,#616);
#508=AXIS2_PLACEMENT_3D('',#789,#617,#618);
#509=AXIS2_PLACEMENT_3D('',#790,#619,#620);
#510=AXIS2_PLACEMENT_3D('',#792,#621,#622);
#511=AXIS2_PLACEMENT_3D('',#793,#623,#624);
#512=AXIS2_PLACEMENT_3D('',#794,#625,#626);
#513=AXIS2_PLACEMENT_3D('',#795,#627,#628);
#514=AXIS2_PLACEMENT_3D('',#797,#629,#630);
#515=AXIS2_PLACEMENT_3D('',#800,#632,#633);
#516=AXIS2_PLACEMENT_3D('',#801,#634,#635);
#517=AXIS2_PLACEMENT_3D('',#802,#636,#637);
#518=AXIS2_PLACEMENT_3D('',#804,#638,#639);
#519=AXIS2_PLACEMENT_3D('',#805,#640,#641);
#520=AXIS2_PLACEMENT_3D('',#806,#642,#643);
#521=AXIS2_PLACEMENT_3D('',#807,#644,#645);
#522=AXIS2_PLACEMENT_3D('',#809,#646,#647);
#523=AXIS2_PLACEMENT_3D('',#812,#649,#650);
#524=AXIS2_PLACEMENT_3D('',#813,#651,#652);
#525=AXIS2_PLACEMENT_3D('',#814,#653,#654);
#526=AXIS2_PLACEMENT_3D('',#816,#655,#656);
#527=AXIS2_PLACEMENT_3D('',#817,#657,#658);
#528=AXIS2_PLACEMENT_3D('',#818,#659,#660);
#529=AXIS2_PLACEMENT_3D('',#819,#661,#662);
#530=AXIS2_PLACEMENT_3D('',#821,#663,#664);
#531=AXIS2_PLACEMENT_3D('',#824,#666,#667);
#532=AXIS2_PLACEMENT_3D('',#825,#668,#669);
#533=AXIS2_PLACEMENT_3D('',#826,#670,#671);
#534=AXIS2_PLACEMENT_3D('',#828,#672,#673);
#535=AXIS2_PLACEMENT_3D('',#829,#674,#675);
#536=AXIS2_PLACEMENT_3D('',#830,#676,#677);
#537=AXIS2_PLACEMENT_3D('',#831,#678,#679);
#538=AXIS2_PLACEMENT_3D('',#833,#680,#681);
#539=AXIS2_PLACEMENT_3D('',#836,#683,#684);
#540=AXIS2_PLACEMENT_3D('',#837,#685,#686);
#541=AXIS2_PLACEMENT_3D('',#838,#687,#688);
#542=AXIS2_PLACEMENT_3D('',#840,#689,#690);
#543=AXIS2_PLACEMENT_3D('',#841,#691,#692);
#544=AXIS2_PLACEMENT_3D('',#842,#693,#694);
#545=AXIS2_PLACEMENT_3D('',#843,#695,#696);
#546=AXIS2_PLACEMENT_3D('',#845,#697,#698);
#547=AXIS2_PLACEMENT_3D('',#848,#700,#701);
#548=AXIS2_PLACEMENT_3D('',#849,#702,#703);
#549=AXIS2_PLACEMENT_3D('',#850,#704,#705);
#550=AXIS2_PLACEMENT_3D('',#852,#706,#707);
#551=AXIS2_PLACEMENT_3D('',#853,#708,#709);
#552=AXIS2_PLACEMENT_3D('',#854,#710,#711);
#553=AXIS2_PLACEMENT_3D('',#855,#712,#713);
#554=AXIS2_PLACEMENT_3D('',#857,#714,#715);
#555=AXIS2_PLACEMENT_3D('',#860,#717,#718);
#556=AXIS2_PLACEMENT_3D('',#861,#719,#720);
#557=AXIS2_PLACEMENT_3D('',#862,#721,#722);
#558=AXIS2_PLACEMENT_3D('',#864,#723,#724);
#559=AXIS2_PLACEMENT_3D('',#865,#725,#726);
#560=AXIS2_PLACEMENT_3D('',#866,#727,#728);
#561=AXIS2_PLACEMENT_3D('',#867,#729,#730);
#562=AXIS2_PLACEMENT_3D('',#870,#731,#732);
#563=AXIS2_PLACEMENT_3D('',#871,#733,#734);
#564=AXIS2_PLACEMENT_3D('',#874,#736,#737);
#565=AXIS2_PLACEMENT_3D('',#875,#738,#739);
#566=AXIS2_PLACEMENT_3D('',#878,#741,#742);
#567=AXIS2_PLACEMENT_3D('',#879,#743,#744);
#568=AXIS2_PLACEMENT_3D('',#880,#745,#746);
#569=AXIS2_PLACEMENT_3D('',#883,#748,#749);
#570=AXIS2_PLACEMENT_3D('',#884,#750,#751);
#571=AXIS2_PLACEMENT_3D('',#886,#752,#753);
#572=AXIS2_PLACEMENT_3D('',#887,#754,#755);
#573=AXIS2_PLACEMENT_3D('',#888,#756,#757);
#574=DIRECTION('axis',(0.,0.,1.));
#575=DIRECTION('refdir',(1.,0.,0.));
#576=DIRECTION('center_axis',(0.,0.,1.));
#577=DIRECTION('ref_axis',(1.,0.,0.));
#578=DIRECTION('center_axis',(0.,0.,1.));
#579=DIRECTION('ref_axis',(1.,0.,0.));
#580=DIRECTION('',(0.,0.,-1.));
#581=DIRECTION('center_axis',(0.,0.,1.));
#582=DIRECTION('ref_axis',(1.,0.,0.));
#583=DIRECTION('center_axis',(0.,0.,1.));
#584=DIRECTION('ref_axis',(1.,0.,0.));
#585=DIRECTION('center_axis',(0.,0.,-1.));
#586=DIRECTION('ref_axis',(-1.,0.,0.));
#587=DIRECTION('center_axis',(0.,0.,1.));
#588=DIRECTION('ref_axis',(1.,0.,0.));
#589=DIRECTION('center_axis',(0.,0.,1.));
#590=DIRECTION('ref_axis',(1.,0.,0.));
#591=DIRECTION('center_axis',(1.22464679914735E-16,-1.,0.));
#592=DIRECTION('ref_axis',(-1.,-1.22464679914735E-16,0.));
#593=DIRECTION('center_axis',(0.,0.,1.));
#594=DIRECTION('ref_axis',(1.,0.,0.));
#595=DIRECTION('center_axis',(0.,0.,1.));
#596=DIRECTION('ref_axis',(1.,0.,0.));
#597=DIRECTION('',(0.,0.,-1.));
#598=DIRECTION('center_axis',(0.,0.,1.));
#599=DIRECTION('ref_axis',(1.,0.,0.));
#600=DIRECTION('center_axis',(0.,0.,1.));
#601=DIRECTION('ref_axis',(1.,0.,0.));
#602=DIRECTION('center_axis',(0.,0.,-1.));
#603=DIRECTION('ref_axis',(-1.,0.,0.));
#604=DIRECTION('center_axis',(0.,0.,1.));
#605=DIRECTION('ref_axis',(1.,0.,0.));
#606=DIRECTION('center_axis',(0.,0.,1.));
#607=DIRECTION('ref_axis',(1.,0.,0.));
#608=DIRECTION('center_axis',(1.22464679914735E-16,-1.,0.));
#609=DIRECTION('ref_axis',(-1.,-1.22464679914735E-16,0.));
#610=DIRECTION('center_axis',(0.,0.,1.));
#611=DIRECTION('ref_axis',(1.,0.,0.));
#612=DIRECTION('center_axis',(0.,0.,1.));
#613=DIRECTION('ref_axis',(1.,0.,0.));
#614=DIRECTION('',(0.,0.,-1.));
#615=DIRECTION('center_axis',(0.,0.,1.));
#616=DIRECTION('ref_axis',(1.,0.,0.));
#617=DIRECTION('center_axis',(0.,0.,1.));
#618=DIRECTION('ref_axis',(1.,0.,0.));
#619=DIRECTION('center_axis',(0.,0.,-1.));
#620=DIRECTION('ref_axis',(-1.,0.,0.));
#621=DIRECTION('center_axis',(0.,0.,1.));
#622=DIRECTION('ref_axis',(1.,0.,0.));
#623=DIRECTION('center_axis',(0.,0.,1.));
#624=DIRECTION('ref_axis',(1.,0.,0.));
#625=DIRECTION('center_axis',(1.22464679914735E-16,-1.,0.));
#626=DIRECTION('ref_axis',(-1.,-1.22464679914735E-16,0.));
#627=DIRECTION('center_axis',(0.,0.,1.));
#628=DIRECTION('ref_axis',(1.,0.,0.));
#629=DIRECTION('center_axis',(0.,0.,1.));
#630=DIRECTION('ref_axis',(1.,0.,0.));
#631=DIRECTION('',(0.,0.,-1.));
#632=DIRECTION('center_axis',(0.,0.,1.));
#633=DIRECTION('ref_axis',(1.,0.,0.));
#634=DIRECTION('center_axis',(0.,0.,1.));
#635=DIRECTION('ref_axis',(1.,0.,0.));
#636=DIRECTION('center_axis',(0.,0.,-1.));
#637=DIRECTION('ref_axis',(-1.,0.,0.));
#638=DIRECTION('center_axis',(0.,0.,1.));
#639=DIRECTION('ref_axis',(1.,0.,0.));
#640=DIRECTION('center_axis',(0.,0.,1.));
#641=DIRECTION('ref_axis',(1.,0.,0.));
#642=DIRECTION('center_axis',(1.22464679914735E-16,-1.,0.));
#643=DIRECTION('ref_axis',(-1.,-1.22464679914735E-16,0.));
#644=DIRECTION('center_axis',(0.,0.,1.));
#645=DIRECTION('ref_axis',(1.,0.,0.));
#646=DIRECTION('center_axis',(0.,0.,1.));
#647=DIRECTION('ref_axis',(1.,0.,0.));
#648=DIRECTION('',(0.,0.,-1.));
#649=DIRECTION('center_axis',(0.,0.,1.));
#650=DIRECTION('ref_axis',(1.,0.,0.));
#651=DIRECTION('center_axis',(0.,0.,1.));
#652=DIRECTION('ref_axis',(1.,0.,0.));
#653=DIRECTION('center_axis',(0.,0.,-1.));
#654=DIRECTION('ref_axis',(-1.,0.,0.));
#655=DIRECTION('center_axis',(0.,0.,1.));
#656=DIRECTION('ref_axis',(1.,0.,0.));
#657=DIRECTION('center_axis',(0.,0.,1.));
#658=DIRECTION('ref_axis',(1.,0.,0.));
#659=DIRECTION('center_axis',(1.22464679914735E-16,-1.,0.));
#660=DIRECTION('ref_axis',(-1.,-1.22464679914735E-16,0.));
#661=DIRECTION('center_axis',(0.,0.,1.));
#662=DIRECTION('ref_axis',(1.,0.,0.));
#663=DIRECTION('center_axis',(0.,0.,1.));
#664=DIRECTION('ref_axis',(1.,0.,0.));
#665=DIRECTION('',(0.,0.,-1.));
#666=DIRECTION('center_axis',(0.,0.,1.));
#667=DIRECTION('ref_axis',(1.,0.,0.));
#668=DIRECTION('center_axis',(0.,0.,1.));
#669=DIRECTION('ref_axis',(1.,0.,0.));
#670=DIRECTION('center_axis',(0.,0.,-1.));
#671=DIRECTION('ref_axis',(-1.,0.,0.));
#672=DIRECTION('center_axis',(0.,0.,1.));
#673=DIRECTION('ref_axis',(1.,0.,0.));
#674=DIRECTION('center_axis',(0.,0.,1.));
#675=DIRECTION('ref_axis',(1.,0.,0.));
#676=DIRECTION('center_axis',(1.22464679914735E-16,-1.,0.));
#677=DIRECTION('ref_axis',(-1.,-1.22464679914735E-16,0.));
#678=DIRECTION('center_axis',(0.,0.,1.));
#679=DIRECTION('ref_axis',(1.,0.,0.));
#680=DIRECTION('center_axis',(0.,0.,1.));
#681=DIRECTION('ref_axis',(1.,0.,0.));
#682=DIRECTION('',(0.,0.,-1.));
#683=DIRECTION('center_axis',(0.,0.,1.));
#684=DIRECTION('ref_axis',(1.,0.,0.));
#685=DIRECTION('center_axis',(0.,0.,1.));
#686=DIRECTION('ref_axis',(1.,0.,0.));
#687=DIRECTION('center_axis',(0.,0.,-1.));
#688=DIRECTION('ref_axis',(-1.,0.,0.));
#689=DIRECTION('center_axis',(0.,0.,1.));
#690=DIRECTION('ref_axis',(1.,0.,0.));
#691=DIRECTION('center_axis',(0.,0.,1.));
#692=DIRECTION('ref_axis',(1.,0.,0.));
#693=DIRECTION('center_axis',(1.22464679914735E-16,-1.,0.));
#694=DIRECTION('ref_axis',(-1.,-1.22464679914735E-16,0.));
#695=DIRECTION('center_axis',(0.,0.,1.));
#696=DIRECTION('ref_axis',(1.,0.,0.));
#697=DIRECTION('center_axis',(0.,0.,1.));
#698=DIRECTION('ref_axis',(1.,0.,0.));
#699=DIRECTION('',(0.,0.,-1.));
#700=DIRECTION('center_axis',(0.,0.,1.));
#701=DIRECTION('ref_axis',(1.,0.,0.));
#702=DIRECTION('center_axis',(0.,0.,1.));
#703=DIRECTION('ref_axis',(1.,0.,0.));
#704=DIRECTION('center_axis',(0.,0.,-1.));
#705=DIRECTION('ref_axis',(-1.,0.,0.));
#706=DIRECTION('center_axis',(0.,0.,1.));
#707=DIRECTION('ref_axis',(1.,0.,0.));
#708=DIRECTION('center_axis',(0.,0.,1.));
#709=DIRECTION('ref_axis',(1.,0.,0.));
#710=DIRECTION('center_axis',(1.22464679914735E-16,-1.,0.));
#711=DIRECTION('ref_axis',(-1.,-1.22464679914735E-16,0.));
#712=DIRECTION('center_axis',(0.,0.,1.));
#713=DIRECTION('ref_axis',(1.,0.,0.));
#714=DIRECTION('center_axis',(0.,0.,1.));
#715=DIRECTION('ref_axis',(1.,0.,0.));
#716=DIRECTION('',(0.,0.,-1.));
#717=DIRECTION('center_axis',(0.,0.,1.));
#718=DIRECTION('ref_axis',(1.,0.,0.));
#719=DIRECTION('center_axis',(0.,0.,1.));
#720=DIRECTION('ref_axis',(1.,0.,0.));
#721=DIRECTION('center_axis',(0.,0.,-1.));
#722=DIRECTION('ref_axis',(-1.,0.,0.));
#723=DIRECTION('center_axis',(0.,0.,1.));
#724=DIRECTION('ref_axis',(1.,0.,0.));
#725=DIRECTION('center_axis',(0.,0.,1.));
#726=DIRECTION('ref_axis',(1.,0.,0.));
#727=DIRECTION('center_axis',(1.22464679914735E-16,-1.,0.));
#728=DIRECTION('ref_axis',(-1.,-1.22464679914735E-16,0.));
#729=DIRECTION('center_axis',(0.,-8.57253135874645E-16,-1.));
#730=DIRECTION('ref_axis',(-1.,-3.39472112423118E-17,0.));
#731=DIRECTION('center_axis',(0.,0.,1.));
#732=DIRECTION('ref_axis',(-1.,-6.12323399573676E-17,0.));
#733=DIRECTION('center_axis',(0.,0.,1.));
#734=DIRECTION('ref_axis',(-1.,-6.12323399573676E-17,0.));
#735=DIRECTION('',(-0.939692620785908,3.7637705252035E-16,0.342020143325669));
#736=DIRECTION('center_axis',(0.,0.,-1.));
#737=DIRECTION('ref_axis',(-1.,0.,0.));
#738=DIRECTION('center_axis',(0.,0.,-1.));
#739=DIRECTION('ref_axis',(1.,0.,0.));
#740=DIRECTION('',(-0.766044443118978,-9.38133875270273E-17,-0.64278760968654));
#741=DIRECTION('center_axis',(0.,0.,1.));
#742=DIRECTION('ref_axis',(1.,0.,0.));
#743=DIRECTION('center_axis',(0.,0.,1.));
#744=DIRECTION('ref_axis',(1.,0.,0.));
#745=DIRECTION('center_axis',(0.,0.,1.));
#746=DIRECTION('ref_axis',(1.,0.,0.));
#747=DIRECTION('',(0.,0.,-1.));
#748=DIRECTION('center_axis',(0.,0.,1.));
#749=DIRECTION('ref_axis',(1.,0.,0.));
#750=DIRECTION('center_axis',(0.,0.,-1.));
#751=DIRECTION('ref_axis',(-1.,0.,0.));
#752=DIRECTION('center_axis',(0.,0.,1.));
#753=DIRECTION('ref_axis',(1.,0.,0.));
#754=DIRECTION('center_axis',(0.,0.,1.));
#755=DIRECTION('ref_axis',(1.,0.,0.));
#756=DIRECTION('center_axis',(1.22464679914735E-16,-1.,0.));
#757=DIRECTION('ref_axis',(-1.,-1.22464679914735E-16,0.));
#758=CARTESIAN_POINT('',(0.,0.,0.));
#759=CARTESIAN_POINT('Origin',(0.,0.,0.250000007978574));
#760=CARTESIAN_POINT('',(-3.25000010372147,-3.98010222425106E-16,0.252500007978574));
#761=CARTESIAN_POINT('Origin',(0.,0.,0.252500007978574));
#762=CARTESIAN_POINT('',(-3.25000010372147,-3.98010222425106E-16,0.250000007978574));
#763=CARTESIAN_POINT('',(-3.25000010372147,-3.98010222425106E-16,0.250000007978574));
#764=CARTESIAN_POINT('Origin',(0.,0.,0.250000007978574));
#765=CARTESIAN_POINT('Origin',(0.,0.,0.252500007978574));
#766=CARTESIAN_POINT('Origin',(3.25000010372147,0.,0.));
#767=CARTESIAN_POINT('',(-3.25000010372147,-3.98010222425106E-16,0.));
#768=CARTESIAN_POINT('Origin',(0.,0.,0.));
#769=CARTESIAN_POINT('Origin',(0.,0.,0.125000003989287));
#770=CARTESIAN_POINT('Origin',(-3.25000010372147,-3.98010222425106E-16,
0.125000003989287));
#771=CARTESIAN_POINT('Origin',(0.,0.,0.50555556353413));
#772=CARTESIAN_POINT('',(-3.25000010372147,-3.98010222425106E-16,0.50805556353413));
#773=CARTESIAN_POINT('Origin',(0.,0.,0.50805556353413));
#774=CARTESIAN_POINT('',(-3.25000010372147,-3.98010222425106E-16,0.50555556353413));
#775=CARTESIAN_POINT('',(-3.25000010372147,-3.98010222425106E-16,0.50555556353413));
#776=CARTESIAN_POINT('Origin',(0.,0.,0.50555556353413));
#777=CARTESIAN_POINT('Origin',(0.,0.,0.50805556353413));
#778=CARTESIAN_POINT('Origin',(3.25000010372147,0.,0.255555555555556));
#779=CARTESIAN_POINT('',(-3.25000010372147,-3.98010222425106E-16,0.255555555555556));
#780=CARTESIAN_POINT('Origin',(0.,0.,0.255555555555556));
#781=CARTESIAN_POINT('Origin',(0.,0.,0.380555559544843));
#782=CARTESIAN_POINT('Origin',(-3.25000010372147,-3.98010222425106E-16,
0.380555559544843));
#783=CARTESIAN_POINT('Origin',(0.,0.,0.761111119089686));
#784=CARTESIAN_POINT('',(-3.25000010372147,-3.98010222425106E-16,0.763611119089686));
#785=CARTESIAN_POINT('Origin',(0.,0.,0.763611119089686));
#786=CARTESIAN_POINT('',(-3.25000010372147,-3.98010222425106E-16,0.761111119089686));
#787=CARTESIAN_POINT('',(-3.25000010372147,-3.98010222425106E-16,0.761111119089686));
#788=CARTESIAN_POINT('Origin',(0.,0.,0.761111119089686));
#789=CARTESIAN_POINT('Origin',(0.,0.,0.763611119089686));
#790=CARTESIAN_POINT('Origin',(3.25000010372147,0.,0.511111111111111));
#791=CARTESIAN_POINT('',(-3.25000010372147,-3.98010222425106E-16,0.511111111111111));
#792=CARTESIAN_POINT('Origin',(0.,0.,0.511111111111111));
#793=CARTESIAN_POINT('Origin',(0.,0.,0.636111115100398));
#794=CARTESIAN_POINT('Origin',(-3.25000010372147,-3.98010222425106E-16,
0.636111115100398));
#795=CARTESIAN_POINT('Origin',(0.,0.,1.01666667464524));
#796=CARTESIAN_POINT('',(-3.25000010372147,-3.98010222425106E-16,1.01916667464524));
#797=CARTESIAN_POINT('Origin',(0.,0.,1.01916667464524));
#798=CARTESIAN_POINT('',(-3.25000010372147,-3.98010222425106E-16,1.01666667464524));
#799=CARTESIAN_POINT('',(-3.25000010372147,-3.98010222425106E-16,1.01666667464524));
#800=CARTESIAN_POINT('Origin',(0.,0.,1.01666667464524));
#801=CARTESIAN_POINT('Origin',(0.,0.,1.01916667464524));
#802=CARTESIAN_POINT('Origin',(3.25000010372147,0.,0.766666666666667));
#803=CARTESIAN_POINT('',(-3.25000010372147,-3.98010222425106E-16,0.766666666666667));
#804=CARTESIAN_POINT('Origin',(0.,0.,0.766666666666667));
#805=CARTESIAN_POINT('Origin',(0.,0.,0.891666670655954));
#806=CARTESIAN_POINT('Origin',(-3.25000010372147,-3.98010222425106E-16,
0.891666670655954));
#807=CARTESIAN_POINT('Origin',(0.,0.,1.2722222302008));
#808=CARTESIAN_POINT('',(-3.25000010372147,-3.98010222425106E-16,1.2747222302008));
#809=CARTESIAN_POINT('Origin',(0.,0.,1.2747222302008));
#810=CARTESIAN_POINT('',(-3.25000010372147,-3.98010222425106E-16,1.2722222302008));
#811=CARTESIAN_POINT('',(-3.25000010372147,-3.98010222425106E-16,1.2722222302008));
#812=CARTESIAN_POINT('Origin',(0.,0.,1.2722222302008));
#813=CARTESIAN_POINT('Origin',(0.,0.,1.2747222302008));
#814=CARTESIAN_POINT('Origin',(3.25000010372147,0.,1.02222222222222));
#815=CARTESIAN_POINT('',(-3.25000010372147,-3.98010222425106E-16,1.02222222222222));
#816=CARTESIAN_POINT('Origin',(0.,0.,1.02222222222222));
#817=CARTESIAN_POINT('Origin',(0.,0.,1.14722222621151));
#818=CARTESIAN_POINT('Origin',(-3.25000010372147,-3.98010222425106E-16,
1.14722222621151));
#819=CARTESIAN_POINT('Origin',(0.,0.,1.52777778575635));
#820=CARTESIAN_POINT('',(-3.25000010372147,-3.98010222425106E-16,1.53027778575635));
#821=CARTESIAN_POINT('Origin',(0.,0.,1.53027778575635));
#822=CARTESIAN_POINT('',(-3.25000010372147,-3.98010222425106E-16,1.52777778575635));
#823=CARTESIAN_POINT('',(-3.25000010372147,-3.98010222425106E-16,1.52777778575635));
#824=CARTESIAN_POINT('Origin',(0.,0.,1.52777778575635));
#825=CARTESIAN_POINT('Origin',(0.,0.,1.53027778575635));
#826=CARTESIAN_POINT('Origin',(3.25000010372147,0.,1.27777777777778));
#827=CARTESIAN_POINT('',(-3.25000010372147,-3.98010222425106E-16,1.27777777777778));
#828=CARTESIAN_POINT('Origin',(0.,0.,1.27777777777778));
#829=CARTESIAN_POINT('Origin',(0.,0.,1.40277778176706));
#830=CARTESIAN_POINT('Origin',(-3.25000010372147,-3.98010222425106E-16,
1.40277778176706));
#831=CARTESIAN_POINT('Origin',(0.,0.,1.78333334131191));
#832=CARTESIAN_POINT('',(-3.25000010372147,-3.98010222425106E-16,1.78583334131191));
#833=CARTESIAN_POINT('Origin',(0.,0.,1.78583334131191));
#834=CARTESIAN_POINT('',(-3.25000010372147,-3.98010222425106E-16,1.78333334131191));
#835=CARTESIAN_POINT('',(-3.25000010372147,-3.98010222425106E-16,1.78333334131191));
#836=CARTESIAN_POINT('Origin',(0.,0.,1.78333334131191));
#837=CARTESIAN_POINT('Origin',(0.,0.,1.78583334131191));
#838=CARTESIAN_POINT('Origin',(3.25000010372147,0.,1.53333333333333));
#839=CARTESIAN_POINT('',(-3.25000010372147,-3.98010222425106E-16,1.53333333333333));
#840=CARTESIAN_POINT('Origin',(0.,0.,1.53333333333333));
#841=CARTESIAN_POINT('Origin',(0.,0.,1.65833333732262));
#842=CARTESIAN_POINT('Origin',(-3.25000010372147,-3.98010222425106E-16,
1.65833333732262));
#843=CARTESIAN_POINT('Origin',(0.,0.,2.03888889686746));
#844=CARTESIAN_POINT('',(-3.25000010372147,-3.98010222425106E-16,2.04138889686746));
#845=CARTESIAN_POINT('Origin',(0.,0.,2.04138889686746));
#846=CARTESIAN_POINT('',(-3.25000010372147,-3.98010222425106E-16,2.03888889686746));
#847=CARTESIAN_POINT('',(-3.25000010372147,-3.98010222425106E-16,2.03888889686746));
#848=CARTESIAN_POINT('Origin',(0.,0.,2.03888889686746));
#849=CARTESIAN_POINT('Origin',(0.,0.,2.04138889686746));
#850=CARTESIAN_POINT('Origin',(3.25000010372147,0.,1.78888888888889));
#851=CARTESIAN_POINT('',(-3.25000010372147,-3.98010222425106E-16,1.78888888888889));
#852=CARTESIAN_POINT('Origin',(0.,0.,1.78888888888889));
#853=CARTESIAN_POINT('Origin',(0.,0.,1.91388889287818));
#854=CARTESIAN_POINT('Origin',(-3.25000010372147,-3.98010222425106E-16,
1.91388889287818));
#855=CARTESIAN_POINT('Origin',(0.,0.,2.29444445242302));
#856=CARTESIAN_POINT('',(-3.25000010372147,-3.98010222425106E-16,2.29694445242302));
#857=CARTESIAN_POINT('Origin',(0.,0.,2.29694445242302));
#858=CARTESIAN_POINT('',(-3.25000010372147,-3.98010222425106E-16,2.29444445242302));
#859=CARTESIAN_POINT('',(-3.25000010372147,-3.98010222425106E-16,2.29444445242302));
#860=CARTESIAN_POINT('Origin',(0.,0.,2.29444445242302));
#861=CARTESIAN_POINT('Origin',(0.,0.,2.29694445242302));
#862=CARTESIAN_POINT('Origin',(3.25000010372147,0.,2.04444444444444));
#863=CARTESIAN_POINT('',(-3.25000010372147,-3.98010222425106E-16,2.04444444444444));
#864=CARTESIAN_POINT('Origin',(0.,0.,2.04444444444444));
#865=CARTESIAN_POINT('Origin',(0.,0.,2.16944444843373));
#866=CARTESIAN_POINT('Origin',(-3.25000010372147,-3.98010222425106E-16,
2.16944444843373));
#867=CARTESIAN_POINT('Origin',(0.,-6.88789617631443E-17,3.47215155676776));
#868=CARTESIAN_POINT('',(2.249757621907,2.75515847052577E-16,3.39180310555694));
#869=CARTESIAN_POINT('',(-2.249757621907,-2.75515847052577E-16,3.39180310555694));
#870=CARTESIAN_POINT('Origin',(0.,-1.37757923526289E-16,3.39180310555694));
#871=CARTESIAN_POINT('Origin',(0.,-1.37757923526289E-16,3.39180310555694));
#872=CARTESIAN_POINT('',(1.80824651112726,-2.21446330192137E-16,3.55250000797857));
#873=CARTESIAN_POINT('',(2.02900206651713,-2.48481088622357E-16,3.47215155676776));
#874=CARTESIAN_POINT('Origin',(0.,0.,3.55250000797857));
#875=CARTESIAN_POINT('Origin',(0.,0.,2.55250000797857));
#876=CARTESIAN_POINT('',(-3.25000010372147,-3.98010222425106E-16,2.55250000797857));
#877=CARTESIAN_POINT('',(-3.25000010372147,-3.98010222425106E-16,2.55250000797857));
#878=CARTESIAN_POINT('Origin',(0.,0.,2.55250000797857));
#879=CARTESIAN_POINT('Origin',(0.,0.,3.55250000797857));
#880=CARTESIAN_POINT('Origin',(0.,0.,2.55000000797857));
#881=CARTESIAN_POINT('',(-3.25000010372147,-3.98010222425106E-16,2.55000000797857));
#882=CARTESIAN_POINT('',(-3.25000010372147,-3.98010222425106E-16,2.55000000797857));
#883=CARTESIAN_POINT('Origin',(0.,0.,2.55000000797857));
#884=CARTESIAN_POINT('Origin',(3.25000010372147,0.,2.3));
#885=CARTESIAN_POINT('',(-3.25000010372147,-3.98010222425106E-16,2.3));
#886=CARTESIAN_POINT('Origin',(0.,0.,2.3));
#887=CARTESIAN_POINT('Origin',(0.,0.,2.42500000398929));
#888=CARTESIAN_POINT('Origin',(-3.25000010372147,-3.98010222425106E-16,
2.42500000398929));
#889=UNCERTAINTY_MEASURE_WITH_UNIT(LENGTH_MEASURE(0.000393700787401575),
#894,'DISTANCE_ACCURACY_VALUE',
'Maximum model space distance between geometric entities at asserted c
onnectivities');
#890=UNCERTAINTY_MEASURE_WITH_UNIT(LENGTH_MEASURE(0.000393700787401575),
#894,'DISTANCE_ACCURACY_VALUE',
'Maximum model space distance between geometric entities at asserted c
onnectivities');
#891=(
GEOMETRIC_REPRESENTATION_CONTEXT(3)
GLOBAL_UNCERTAINTY_ASSIGNED_CONTEXT((#889))
GLOBAL_UNIT_ASSIGNED_CONTEXT((#894,#898,#899))
REPRESENTATION_CONTEXT('','3D')
);
#892=(
GEOMETRIC_REPRESENTATION_CONTEXT(3)
GLOBAL_UNCERTAINTY_ASSIGNED_CONTEXT((#890))
GLOBAL_UNIT_ASSIGNED_CONTEXT((#894,#898,#899))
REPRESENTATION_CONTEXT('','3D')
);
#893=DIMENSIONAL_EXPONENTS(1.,0.,0.,0.,0.,0.,0.);
#894=(
CONVERSION_BASED_UNIT('inch',#897)
LENGTH_UNIT()
NAMED_UNIT(#893)
);
#895=(
LENGTH_UNIT()
NAMED_UNIT(*)
SI_UNIT(.MILLI.,.METRE.)
);
#896=(
LENGTH_UNIT()
NAMED_UNIT(*)
SI_UNIT($,.METRE.)
);
#897=LENGTH_MEASURE_WITH_UNIT(LENGTH_MEASURE(25.4),#895);
#898=(
NAMED_UNIT(*)
PLANE_ANGLE_UNIT()
SI_UNIT($,.RADIAN.)
);
#899=(
NAMED_UNIT(*)
SI_UNIT($,.STERADIAN.)
SOLID_ANGLE_UNIT()
);
#900=SHAPE_DEFINITION_REPRESENTATION(#901,#902);
#901=PRODUCT_DEFINITION_SHAPE('',$,#904);
#902=SHAPE_REPRESENTATION('',(#488),#891);
#903=PRODUCT_DEFINITION_CONTEXT('part definition',#908,'design');
#904=PRODUCT_DEFINITION('(Unsaved)','(Unsaved)',#905,#903);
#905=PRODUCT_DEFINITION_FORMATION('',$,#910);
#906=PRODUCT_RELATED_PRODUCT_CATEGORY('(Unsaved)','(Unsaved)',(#910));
#907=APPLICATION_PROTOCOL_DEFINITION('international standard',
'automotive_design',2009,#908);
#908=APPLICATION_CONTEXT(
'Core Data for Automotive Mechanical Design Process');
#909=PRODUCT_CONTEXT('part definition',#908,'mechanical');
#910=PRODUCT('(Unsaved)','(Unsaved)',$,(#909));
#911=PRESENTATION_STYLE_ASSIGNMENT((#912));
#912=SURFACE_STYLE_USAGE(.BOTH.,#913);
#913=SURFACE_SIDE_STYLE('',(#914));
#914=SURFACE_STYLE_FILL_AREA(#915);
#915=FILL_AREA_STYLE('Steel - Satin',(#916));
#916=FILL_AREA_STYLE_COLOUR('Steel - Satin',#917);
#917=COLOUR_RGB('Steel - Satin',0.627450980392157,0.627450980392157,0.627450980392157);
ENDSEC;
END-ISO-10303-21;
