# Blender 4.5.1 LTS
# www.blender.org
mtllib CubeOfCube.mtl
o Cube
v 0.739705 0.739705 -1.000000
v 0.739705 1.000000 -0.739705
v 1.000000 0.739705 -0.739705
v 0.739705 -1.000000 -0.739705
v 0.739705 -0.739705 -1.000000
v 1.000000 -0.739705 -0.739705
v 1.000000 0.739705 0.739705
v 0.739705 1.000000 0.739705
v 0.739705 0.739705 1.000000
v 1.000000 -0.739705 0.739705
v 0.739705 -0.739705 1.000000
v 0.739705 -1.000000 0.739705
v -0.739705 0.739705 -1.000000
v -1.000000 0.739705 -0.739705
v -0.739705 1.000000 -0.739705
v -1.000000 -0.739705 -0.739705
v -0.739705 -0.739705 -1.000000
v -0.739705 -1.000000 -0.739705
v -1.000000 0.739705 0.739705
v -0.739705 0.739705 1.000000
v -0.739705 1.000000 0.739705
v -0.739705 -1.000000 0.739705
v -0.739705 -0.739705 1.000000
v -1.000000 -0.739705 0.739705
v -0.739705 -0.300000 -0.739705
v -0.739705 -0.300000 0.739705
v -0.300000 -0.739705 0.739705
v -0.300000 -0.739705 -0.739705
v 0.739705 -0.300000 -0.739705
v -0.739705 -0.739705 -0.300000
v 0.739705 -0.739705 -0.300000
v 0.300000 0.739705 -0.739705
v 0.300000 -0.739705 -0.739705
v 0.739705 0.739705 -0.300000
v -0.739705 -0.739705 0.300000
v -0.739705 0.739705 0.300000
v -0.300000 0.739705 0.739705
v 0.739705 0.739705 0.300000
v 0.739705 -0.739705 0.300000
v 0.300000 -0.739705 0.739705
v 0.300000 0.739705 0.739705
v -0.739705 0.739705 -0.300000
v -0.300000 0.739705 -0.739705
v 0.739705 0.300000 0.739705
v -0.739705 0.300000 0.739705
v 0.739705 0.300000 -0.739705
v 0.739705 -0.300000 0.739705
v -0.739705 0.300000 -0.739705
vn 0.5774 0.5774 -0.5774
vn 0.5774 -0.5774 -0.5774
vn 0.5774 0.5774 0.5774
vn 0.5774 -0.5774 0.5774
vn -0.5774 0.5774 -0.5774
vn -0.5774 -0.5774 -0.5774
vn -0.5774 0.5774 0.5774
vn -0.5774 -0.5774 0.5774
vn -0.7071 -0.7071 -0.0000
vn -0.0000 -0.7071 -0.7071
vn 0.7071 -0.0000 -0.7071
vn -0.7071 -0.0000 0.7071
vn 0.7071 -0.0000 0.7071
vn -0.7071 -0.0000 -0.7071
vn -0.0000 0.7071 0.7071
vn 0.7071 0.7071 -0.0000
vn -0.0000 -0.7071 0.7071
vn -0.7071 0.7071 -0.0000
vn -0.0000 0.7071 -0.7071
vn 0.7071 -0.7071 -0.0000
vn -1.0000 -0.0000 -0.0000
vn -0.0000 -0.0000 -1.0000
vn -0.0000 -1.0000 -0.0000
vn 1.0000 -0.0000 -0.0000
vn -0.0000 1.0000 -0.0000
vn -0.0000 -0.0000 1.0000
vt 0.592463 0.467463
vt 0.651654 0.520771
vt 0.592463 0.531965
vt 0.342463 0.532537
vt 0.395771 0.473346
vt 0.406965 0.532537
vt 0.592463 0.718035
vt 0.651654 0.729229
vt 0.592463 0.782537
vt 0.406965 0.717463
vt 0.395771 0.776654
vt 0.342463 0.717463
vt 0.592463 0.281965
vt 0.592463 0.217463
vt 0.625000 0.248337
vt 0.125000 0.532537
vt 0.157537 0.500000
vt 0.157537 0.532537
vt 0.592463 0.032537
vt 0.592463 0.000000
vt 0.625000 0.032537
vt 0.157537 0.717463
vt 0.157537 0.750000
vt 0.125000 0.717463
vt 0.407537 0.000000
vt 0.407537 0.032537
vt 0.407537 0.282537
vt 0.407537 0.217463
vt 0.625000 0.967463
vt 0.592463 0.967463
vt 0.842463 0.532537
vt 0.842463 0.717463
vt 0.407537 0.967463
s 0
usemtl Material
f 1/1/1 2/2/1 3/3/1
f 4/4/2 5/5/2 6/6/2
f 7/7/3 8/8/3 9/9/3
f 10/10/4 11/11/4 12/12/4
f 13/13/5 14/14/5 15/15/5
f 16/16/6 17/17/6 18/18/6
f 19/19/7 20/20/7 21/21/7
f 22/22/8 23/23/8 24/24/8
f 18/18/9 22/22/9 24/24/9 16/16/9
f 4/4/10 18/18/10 17/17/10 5/5/10
f 3/3/11 6/6/11 5/5/11 1/1/11
f 23/25/12 20/20/12 19/19/12 24/26/12
f 9/9/13 11/11/13 10/10/13 7/7/13
f 13/13/14 17/27/14 16/28/14 14/14/14
f 8/8/15 21/29/15 20/30/15 9/9/15
f 2/2/16 8/8/16 7/7/16 3/3/16
f 22/22/17 12/12/17 11/11/17 23/23/17
f 21/21/18 15/15/18 14/14/18 19/19/18
f 15/15/19 2/2/19 1/1/19 13/13/19
f 12/12/20 4/4/20 6/6/20 10/10/20
f 4/4/21 12/12/21 47/12/21 29/4/21
f 24/26/22 19/19/22 37/19/22 27/26/22
f 8/8/21 2/2/21 46/2/21 44/8/21
f 13/13/23 1/1/23 34/1/23 42/13/23
f 20/20/24 23/25/24 35/25/24 36/20/24
f 9/9/23 20/30/23 36/30/23 38/9/23
f 30/27/22 42/13/22 34/1/22 31/5/22
f 33/6/24 32/3/24 41/7/24 40/10/24
f 46/2/25 48/31/25 45/32/25 44/8/25
f 25/18/23 29/4/23 47/12/23 26/22/23
f 39/11/26 38/9/26 36/30/26 35/33/26
f 27/26/21 37/19/21 43/14/21 28/28/21
f 22/22/24 18/18/24 25/18/24 26/22/24
f 3/3/23 7/7/23 41/7/23 32/3/23
f 11/11/21 9/9/21 38/9/21 39/11/21
f 10/10/25 6/6/25 33/6/25 40/10/25
f 16/16/25 24/24/25 27/24/25 28/16/25
f 12/12/22 22/22/22 26/22/22 47/12/22
f 7/7/22 10/10/22 40/10/22 41/7/22
f 18/18/26 4/4/26 29/4/26 25/18/26
f 23/23/25 11/11/25 39/11/25 35/23/25
f 17/27/24 13/13/24 42/13/24 30/27/24
f 5/5/25 17/17/25 30/17/25 31/5/25
f 15/15/24 21/21/24 45/21/24 48/15/24
f 14/14/26 16/28/26 28/28/26 43/14/26
f 6/6/26 3/3/26 32/3/26 33/6/26
f 19/19/23 14/14/23 43/14/23 37/19/23
f 21/29/22 8/8/22 44/8/22 45/29/22
f 1/1/21 5/5/21 31/5/21 34/1/21
f 2/2/26 15/15/26 48/15/26 46/2/26
