ISO-10303-21;
HEADER;
/* Generated by software containing ST-Developer
 * from STEP Tools, Inc. (www.steptools.com) 
 */

FILE_DESCRIPTION(
/* description */ (''),
/* implementation_level */ '2;1');

FILE_NAME(
/* name */ 'The2BallsHolder.step',
/* time_stamp */ '2025-08-19T15:09:34-05:00',
/* author */ (''),
/* organization */ (''),
/* preprocessor_version */ 'ST-DEVELOPER v20.1',
/* originating_system */ 'Autodesk Translation Framework v14.10.0.0',
/* authorisation */ '');

FILE_SCHEMA (('AUTOMOTIVE_DESIGN { 1 0 10303 214 3 1 1 }'));
ENDSEC;

DATA;
#10=MECHANICAL_DESIGN_GEOMETRIC_PRESENTATION_REPRESENTATION('',(#13),#129);
#11=SHAPE_REPRESENTATION_RELATIONSHIP('SRR','None',#139,#12);
#12=ADVANCED_BREP_SHAPE_REPRESENTATION('',(#14),#128);
#13=STYLED_ITEM('',(#148),#14);
#14=MANIFOLD_SOLID_BREP('Body1',#62);
#15=PLANE('',#85);
#16=PLANE('',#86);
#17=FACE_OUTER_BOUND('',#22,.T.);
#18=FACE_OUTER_BOUND('',#23,.T.);
#19=FACE_OUTER_BOUND('',#24,.T.);
#20=FACE_OUTER_BOUND('',#25,.T.);
#21=FACE_OUTER_BOUND('',#26,.T.);
#22=EDGE_LOOP('',(#42,#43));
#23=EDGE_LOOP('',(#44,#45));
#24=EDGE_LOOP('',(#46,#47));
#25=EDGE_LOOP('',(#48,#49,#50));
#26=EDGE_LOOP('',(#51,#52,#53));
#27=CIRCLE('',#77,0.750000023935723);
#28=CIRCLE('',#78,0.750000023935724);
#29=CIRCLE('',#80,0.750000023935723);
#30=CIRCLE('',#81,0.750000023935724);
#31=CIRCLE('',#83,1.50000004787145);
#32=CIRCLE('',#84,1.50000004787145);
#33=VERTEX_POINT('',#113);
#34=VERTEX_POINT('',#114);
#35=VERTEX_POINT('',#118);
#36=EDGE_CURVE('',#33,#34,#27,.T.);
#37=EDGE_CURVE('',#34,#33,#28,.T.);
#38=EDGE_CURVE('',#34,#35,#29,.T.);
#39=EDGE_CURVE('',#35,#34,#30,.T.);
#40=EDGE_CURVE('',#33,#35,#31,.T.);
#41=EDGE_CURVE('',#33,#35,#32,.T.);
#42=ORIENTED_EDGE('',*,*,#36,.F.);
#43=ORIENTED_EDGE('',*,*,#37,.F.);
#44=ORIENTED_EDGE('',*,*,#38,.F.);
#45=ORIENTED_EDGE('',*,*,#39,.F.);
#46=ORIENTED_EDGE('',*,*,#40,.T.);
#47=ORIENTED_EDGE('',*,*,#41,.F.);
#48=ORIENTED_EDGE('',*,*,#41,.T.);
#49=ORIENTED_EDGE('',*,*,#39,.T.);
#50=ORIENTED_EDGE('',*,*,#37,.T.);
#51=ORIENTED_EDGE('',*,*,#40,.F.);
#52=ORIENTED_EDGE('',*,*,#36,.T.);
#53=ORIENTED_EDGE('',*,*,#38,.T.);
#54=SPHERICAL_SURFACE('',#76,0.750000023935723);
#55=SPHERICAL_SURFACE('',#79,0.750000023935723);
#56=SPHERICAL_SURFACE('',#82,1.50000004787145);
#57=ADVANCED_FACE('',(#17),#54,.F.);
#58=ADVANCED_FACE('',(#18),#55,.F.);
#59=ADVANCED_FACE('',(#19),#56,.T.);
#60=ADVANCED_FACE('',(#20),#15,.T.);
#61=ADVANCED_FACE('',(#21),#16,.F.);
#62=CLOSED_SHELL('',(#57,#58,#59,#60,#61));
#63=DERIVED_UNIT_ELEMENT(#65,1.);
#64=DERIVED_UNIT_ELEMENT(#133,-3.);
#65=(
MASS_UNIT()
NAMED_UNIT(*)
SI_UNIT(.KILO.,.GRAM.)
);
#66=DERIVED_UNIT((#63,#64));
#67=MEASURE_REPRESENTATION_ITEM('density measure',
POSITIVE_RATIO_MEASURE(7850.),#66);
#68=PROPERTY_DEFINITION_REPRESENTATION(#73,#70);
#69=PROPERTY_DEFINITION_REPRESENTATION(#74,#71);
#70=REPRESENTATION('material name',(#72),#128);
#71=REPRESENTATION('density',(#67),#128);
#72=DESCRIPTIVE_REPRESENTATION_ITEM('Steel','Steel');
#73=PROPERTY_DEFINITION('material property','material name',#141);
#74=PROPERTY_DEFINITION('material property','density of part',#141);
#75=AXIS2_PLACEMENT_3D('',#111,#87,#88);
#76=AXIS2_PLACEMENT_3D('',#112,#89,#90);
#77=AXIS2_PLACEMENT_3D('',#115,#91,#92);
#78=AXIS2_PLACEMENT_3D('',#116,#93,#94);
#79=AXIS2_PLACEMENT_3D('',#117,#95,#96);
#80=AXIS2_PLACEMENT_3D('',#119,#97,#98);
#81=AXIS2_PLACEMENT_3D('',#120,#99,#100);
#82=AXIS2_PLACEMENT_3D('',#121,#101,#102);
#83=AXIS2_PLACEMENT_3D('',#122,#103,#104);
#84=AXIS2_PLACEMENT_3D('',#123,#105,#106);
#85=AXIS2_PLACEMENT_3D('',#124,#107,#108);
#86=AXIS2_PLACEMENT_3D('',#125,#109,#110);
#87=DIRECTION('axis',(0.,0.,1.));
#88=DIRECTION('refdir',(1.,0.,0.));
#89=DIRECTION('center_axis',(-3.06161699787485E-17,5.3028761936208E-17,
1.));
#90=DIRECTION('ref_axis',(-0.500000000001055,0.866025403783829,0.));
#91=DIRECTION('center_axis',(0.,1.,0.));
#92=DIRECTION('ref_axis',(1.,0.,0.));
#93=DIRECTION('center_axis',(-0.866025403784438,0.500000000000001,0.));
#94=DIRECTION('ref_axis',(-0.500000000000001,-0.866025403784438,0.));
#95=DIRECTION('center_axis',(-3.06161699787485E-17,5.3028761936208E-17,
1.));
#96=DIRECTION('ref_axis',(-0.500000000001055,0.866025403783829,0.));
#97=DIRECTION('center_axis',(0.,1.,0.));
#98=DIRECTION('ref_axis',(1.,0.,0.));
#99=DIRECTION('center_axis',(-0.866025403784438,0.500000000000001,0.));
#100=DIRECTION('ref_axis',(-0.500000000000001,-0.866025403784438,0.));
#101=DIRECTION('center_axis',(-3.06161699787485E-17,5.3028761936208E-17,
1.));
#102=DIRECTION('ref_axis',(-0.500000000001055,0.866025403783829,0.));
#103=DIRECTION('center_axis',(0.,1.,0.));
#104=DIRECTION('ref_axis',(1.,0.,0.));
#105=DIRECTION('center_axis',(0.866025403784438,-0.500000000000001,0.));
#106=DIRECTION('ref_axis',(-0.500000000000001,-0.866025403784438,0.));
#107=DIRECTION('center_axis',(0.866025403784438,-0.500000000000001,0.));
#108=DIRECTION('ref_axis',(-0.500000000000001,-0.866025403784438,0.));
#109=DIRECTION('center_axis',(0.,1.,0.));
#110=DIRECTION('ref_axis',(1.,0.,0.));
#111=CARTESIAN_POINT('',(0.,0.,0.));
#112=CARTESIAN_POINT('Origin',(0.,0.,0.750000023935723));
#113=CARTESIAN_POINT('',(-2.87142661583477E-16,0.,1.50000004787145));
#114=CARTESIAN_POINT('',(4.59242564336661E-17,0.,0.));
#115=CARTESIAN_POINT('Origin',(0.,0.,0.750000023935723));
#116=CARTESIAN_POINT('Origin',(1.74838271594513E-16,1.74838271594513E-16,
0.750000023935723));
#117=CARTESIAN_POINT('Origin',(0.,0.,-0.750000023935723));
#118=CARTESIAN_POINT('',(4.59242564336661E-17,0.,-1.50000004787145));
#119=CARTESIAN_POINT('Origin',(0.,0.,-0.750000023935723));
#120=CARTESIAN_POINT('Origin',(1.74838271594513E-16,1.74838271594513E-16,
-0.750000023935723));
#121=CARTESIAN_POINT('Origin',(0.,0.,0.));
#122=CARTESIAN_POINT('Origin',(0.,0.,0.));
#123=CARTESIAN_POINT('Origin',(1.74838271594513E-16,1.74838271594513E-16,
0.));
#124=CARTESIAN_POINT('Origin',(-0.375000011967862,-0.649519073567273,0.));
#125=CARTESIAN_POINT('Origin',(0.750000023935723,0.,0.));
#126=UNCERTAINTY_MEASURE_WITH_UNIT(LENGTH_MEASURE(0.000393700787401575),
#131,'DISTANCE_ACCURACY_VALUE',
'Maximum model space distance between geometric entities at asserted c
onnectivities');
#127=UNCERTAINTY_MEASURE_WITH_UNIT(LENGTH_MEASURE(0.000393700787401575),
#131,'DISTANCE_ACCURACY_VALUE',
'Maximum model space distance between geometric entities at asserted c
onnectivities');
#128=(
GEOMETRIC_REPRESENTATION_CONTEXT(3)
GLOBAL_UNCERTAINTY_ASSIGNED_CONTEXT((#126))
GLOBAL_UNIT_ASSIGNED_CONTEXT((#131,#135,#136))
REPRESENTATION_CONTEXT('','3D')
);
#129=(
GEOMETRIC_REPRESENTATION_CONTEXT(3)
GLOBAL_UNCERTAINTY_ASSIGNED_CONTEXT((#127))
GLOBAL_UNIT_ASSIGNED_CONTEXT((#131,#135,#136))
REPRESENTATION_CONTEXT('','3D')
);
#130=DIMENSIONAL_EXPONENTS(1.,0.,0.,0.,0.,0.,0.);
#131=(
CONVERSION_BASED_UNIT('inch',#134)
LENGTH_UNIT()
NAMED_UNIT(#130)
);
#132=(
LENGTH_UNIT()
NAMED_UNIT(*)
SI_UNIT(.MILLI.,.METRE.)
);
#133=(
LENGTH_UNIT()
NAMED_UNIT(*)
SI_UNIT($,.METRE.)
);
#134=LENGTH_MEASURE_WITH_UNIT(LENGTH_MEASURE(25.4),#132);
#135=(
NAMED_UNIT(*)
PLANE_ANGLE_UNIT()
SI_UNIT($,.RADIAN.)
);
#136=(
NAMED_UNIT(*)
SI_UNIT($,.STERADIAN.)
SOLID_ANGLE_UNIT()
);
#137=SHAPE_DEFINITION_REPRESENTATION(#138,#139);
#138=PRODUCT_DEFINITION_SHAPE('',$,#141);
#139=SHAPE_REPRESENTATION('',(#75),#128);
#140=PRODUCT_DEFINITION_CONTEXT('part definition',#145,'design');
#141=PRODUCT_DEFINITION('(Unsaved)','(Unsaved)',#142,#140);
#142=PRODUCT_DEFINITION_FORMATION('',$,#147);
#143=PRODUCT_RELATED_PRODUCT_CATEGORY('(Unsaved)','(Unsaved)',(#147));
#144=APPLICATION_PROTOCOL_DEFINITION('international standard',
'automotive_design',2009,#145);
#145=APPLICATION_CONTEXT(
'Core Data for Automotive Mechanical Design Process');
#146=PRODUCT_CONTEXT('part definition',#145,'mechanical');
#147=PRODUCT('(Unsaved)','(Unsaved)',$,(#146));
#148=PRESENTATION_STYLE_ASSIGNMENT((#149));
#149=SURFACE_STYLE_USAGE(.BOTH.,#150);
#150=SURFACE_SIDE_STYLE('',(#151));
#151=SURFACE_STYLE_FILL_AREA(#152);
#152=FILL_AREA_STYLE('Steel - Satin',(#153));
#153=FILL_AREA_STYLE_COLOUR('Steel - Satin',#154);
#154=COLOUR_RGB('Steel - Satin',0.627450980392157,0.627450980392157,0.627450980392157);
ENDSEC;
END-ISO-10303-21;
