700 0 1 0           
30 Autodesk Translation Framework 21 ASM 231.2.0.65535 OSX 24 Tue Aug 19 15:09:18 2025 
25.39999999999999858 9.999999999999999547e-07 1.000000000000000036e-10 
body $1 -1 $-1 $2 $-1 $3 #
rgb_color-st-attrib $-1 -1 $4 $-1 $0 0.627450980392156854 0.627450980392156854 0.627450980392156854 #
lump $-1 -1 $-1 $-1 $5 $0 #
transform $-1 -1 1 0 0 0 1 0 0 0 1 0 0 0 1 no_rotate no_reflect no_shear #
ATTRIB_CUSTOM-attrib $-1 -1 $-1 $1 $0 @20 Timestamp_attrib_def 1 1755634083604166 #
shell $-1 -1 $-1 $-1 $-1 $6 $-1 $2 #
face $7 -1 $-1 $8 $9 $5 $-1 $10 forward single #
DXID-attrib $-1 -1 $-1 $-1 $6 @10 ASM ENTITY @1 0 #
face $11 -1 $-1 $12 $13 $5 $-1 $14 forward single #
loop $-1 -1 $-1 $-1 $15 $6 #
sphere-surface $-1 -1 $-1 0 0 0.7500000239357234033 -0.7500000239357234033 1 0 0 0 0 1 forward_v I I I I #
DXID-attrib $-1 -1 $-1 $-1 $8 @10 ASM ENTITY @1 1 #
face $16 -1 $-1 $17 $18 $5 $-1 $19 forward single #
loop $-1 -1 $-1 $-1 $20 $8 #
sphere-surface $-1 -1 $-1 0 0 -0.7500000239357234033 -0.7500000239357234033 1 0 0 0 0 1 forward_v I I I I #
coedge $21 -1 $-1 $22 $22 $23 $24 reversed $9 $-1 #
DXID-attrib $-1 -1 $-1 $-1 $12 @10 ASM ENTITY @1 2 #
face $25 -1 $-1 $26 $27 $5 $-1 $28 forward single #
loop $-1 -1 $-1 $-1 $29 $12 #
sphere-surface $-1 -1 $-1 0 0 0 1.500000047871446807 1 0 0 0 0 1 forward_v I I I I #
coedge $30 -1 $-1 $31 $31 $32 $33 reversed $13 $-1 #
ATTRIB_CUSTOM-attrib $-1 -1 $-1 $-1 $15 @17 sketch_attrib_def 1 1 3 @13 107 0 1 0 1 2 #
coedge $-1 -1 $-1 $15 $15 $34 $35 reversed $9 $-1 #
coedge $36 -1 $-1 $32 $37 $15 $24 forward $38 $-1 #
edge $-1 -1 $-1 $39 -1.570796326794897002 $40 1.570796326794896558 $15 $41 forward @7 unknown #
DXID-attrib $-1 -1 $-1 $-1 $17 @10 ASM ENTITY @1 3 #
face $42 -1 $-1 $-1 $38 $5 $-1 $43 reversed single #
loop $-1 -1 $-1 $-1 $44 $17 #
plane-surface $-1 -1 $-1 -0.3750000119678623678 -0.6495190735672727866 0 0.8660254037844380415 -0.5000000000000012212 0 -0.1968503937007878568 -0.3409548833796999801 0 forward_v I I I I #
coedge $45 -1 $-1 $46 $46 $37 $47 forward $18 $-1 #
ATTRIB_CUSTOM-attrib $-1 -1 $-1 $-1 $20 @17 sketch_attrib_def 1 1 3 @13 109 0 1 0 1 2 #
coedge $-1 -1 $-1 $20 $20 $48 $49 reversed $13 $-1 #
coedge $50 -1 $-1 $37 $23 $20 $33 forward $38 $-1 #
edge $-1 -1 $-1 $40 -1.570796326794896558 $51 1.570796326794896558 $20 $52 forward @7 unknown #
coedge $-1 -1 $-1 $44 $48 $22 $35 forward $27 $-1 #
edge $-1 -1 $-1 $40 -1.570796326794896558 $39 1.570796326794897002 $22 $53 forward @7 unknown #
ATTRIB_CUSTOM-attrib $-1 -1 $-1 $-1 $23 @17 sketch_attrib_def 1 1 3 @13 107 0 1 0 1 2 #
coedge $54 -1 $-1 $23 $32 $29 $47 reversed $38 $-1 #
loop $-1 -1 $-1 $-1 $37 $26 #
vertex $-1 -1 $-1 $47 $55 #
vertex $-1 -1 $-1 $33 $56 #
ellipse-curve $-1 -1 $-1 0 0 0.7500000239357234033 0 1 0 0.7500000239357234033 0 0 1 F -1.570796326794897002 F 1.570796326794896558 #
DXID-attrib $-1 -1 $-1 $-1 $26 @10 ASM ENTITY @1 4 #
plane-surface $-1 -1 $-1 0.7500000239357232923 0 0 0 1 0 0.3937007874015747699 0 0 forward_v I I I I #
coedge $-1 -1 $-1 $48 $34 $46 $57 forward $27 $-1 #
ATTRIB_CUSTOM-attrib $-1 -1 $-1 $-1 $29 @17 sketch_attrib_def 1 1 3 @13 102 0 0 0 1 2 #
coedge $-1 -1 $-1 $29 $29 $44 $57 reversed $18 $-1 #
edge $-1 -1 $-1 $39 -1.57079632679489678 $51 1.570796326794896558 $29 $58 forward @7 unknown #
coedge $-1 -1 $-1 $34 $44 $31 $49 forward $27 $-1 #
edge $-1 -1 $-1 $51 -1.570796326794896558 $40 1.570796326794896558 $31 $59 forward @7 unknown #
ATTRIB_CUSTOM-attrib $-1 -1 $-1 $-1 $32 @17 sketch_attrib_def 1 1 3 @13 109 0 1 0 1 2 #
vertex $-1 -1 $-1 $47 $60 #
ellipse-curve $-1 -1 $-1 0 0 -0.7500000239357234033 0 1 0 0.7500000239357234033 0 0 1 F -1.570796326794896558 F 1.570796326794896558 #
ellipse-curve $-1 -1 $-1 1.748382715945128263e-16 1.748382715945128263e-16 0.7500000239357234033 -0.8660254037844380415 0.5000000000000012212 0 -0.3750000119678626453 -0.6495190735672731197 0 1 I I #
ATTRIB_CUSTOM-attrib $-1 -1 $-1 $-1 $37 @17 sketch_attrib_def 1 1 3 @13 102 0 0 0 1 2 #
point $-1 -1 $-1 -2.871426615834773712e-16 0 1.500000047871446807 #
point $-1 -1 $-1 4.592425643366609661e-17 0 0 #
edge $-1 -1 $-1 $39 -1.57079632679489678 $51 1.570796326794896558 $46 $61 forward @7 unknown #
ellipse-curve $-1 -1 $-1 0 0 0 0 1 0 1.500000047871446807 0 0 1 F -1.57079632679489678 F 1.570796326794896558 #
ellipse-curve $-1 -1 $-1 1.748382715945128263e-16 1.748382715945128263e-16 -0.7500000239357234033 -0.8660254037844380415 0.5000000000000012212 0 -0.3750000119678626453 -0.6495190735672731197 0 1 I I #
point $-1 -1 $-1 4.592425643366609661e-17 0 -1.500000047871446807 #
ellipse-curve $-1 -1 $-1 1.748382715945128263e-16 1.748382715945128263e-16 0 0.8660254037844380415 -0.5000000000000012212 0 -0.7500000239357252907 -1.299038147134546239 0 1 I I #
End-of-ACIS-data 