                                                                        S      1
,,9H(Unsaved),15HThe2BallsHolder,7Hunknown,7Hunknown,32,38,7,99,15,,1., G      1
1,4HINCH,1,0.08,15H20250819.150846,0.000393700787401575,10000.,7HunknownG      2
,7Hunknown,11,0,;                                                       G      3
     186       1                                                00000000D      1
     186             -53       1       0                               0D      2
     514       2                                                00010000D      3
     514                       1       1                               0D      4
     510       3                                                00010000D      5
     510             -53       1       1                               0D      6
     510       4                                                00010000D      7
     510             -53       1       1                               0D      8
     510       5                                                00010000D      9
     510             -53       1       1                               0D     10
     510       6                                                00010000D     11
     510             -53       1       1                               0D     12
     510       7                                                00010000D     13
     510             -53       1       1                               0D     14
     508       8                                                00010000D     15
     508                       1       1                               0D     16
     508       9                                                00010000D     17
     508                       1       1                               0D     18
     508      10                                                00010000D     19
     508                       1       1                               0D     20
     508      11                                                00010000D     21
     508                       1       1                               0D     22
     508      12                                                00010000D     23
     508                       1       1                               0D     24
     126      13                                                00010000D     25
     126       0               8       0                               0D     26
     126      21                                                00010000D     27
     126       0              10       0                               0D     28
     126      31                                                00010000D     29
     126       0               7       0                               0D     30
     126      38                                                00010000D     31
     126       0               9       0                               0D     32
     126      47                                                00010000D     33
     126       0               8       0                               0D     34
     126      55                                                00010000D     35
     126       0              10       0                               0D     36
     128      65                                                00010000D     37
     128       0     -53      46       0                               0D     38
     128     111                                                00010000D     39
     128       0     -53      47       0                               0D     40
     128     158                                                00010000D     41
     128       0     -53      45       0                               0D     42
     128     203                                                00010000D     43
     128       0     -53       9       0                               0D     44
     128     212                                                00010000D     45
     128       0     -53       7       0                               0D     46
     502     219                                                00010000D     47
     502                       3       1                               0D     48
     504     222                                                00010001D     49
     504                       2       1                               0D     50
     406     224                                                00000000D     51
     406                       1      15                               0D     52
     314     225                                                00000200D     53
     314                       2       0                               0D     54
186,3,1,0,0,1,51;                                                      1P      1
514,5,5,1,7,1,9,1,11,1,13,1;                                           3P      2
510,37,1,1,15;                                                         5P      3
510,39,1,1,17;                                                         7P      4
510,41,1,1,19;                                                         9P      5
510,43,1,1,21;                                                        11P      6
510,45,1,1,23;                                                        13P      7
508,2,0,49,1,0,0,0,49,2,0,0;                                          15P      8
508,2,0,49,3,0,0,0,49,4,0,0;                                          17P      9
508,2,0,49,5,1,0,0,49,6,0,0;                                          19P     10
508,3,0,49,6,1,0,0,49,4,1,0,0,49,2,1,0;                               21P     11
508,3,0,49,5,0,0,0,49,1,1,0,0,49,3,1,0;                               23P     12
126,4,2,0,0,0,0,-1.5707963267949,-1.5707963267949,                    25P     13
-1.5707963267949,-2.22044604925031D-16,-2.22044604925031D-16,         25P     14
1.5707963267949,1.5707963267949,1.5707963267949,1.,                   25P     15
0.707106781186548,1.,0.707106781186548,1.,-2.87142661583477D-16,      25P     16
0.,1.50000004787145,0.750000023935723,0.,1.50000004787145,            25P     17
0.750000023935723,0.,0.750000023935724,0.750000023935724,0.,          25P     18
1.54090831912718D-16,4.59242564336661D-17,0.,0.,                      25P     19
-1.5707963267949,1.5707963267949,0.,0.,0.;                            25P     20
126,4,2,0,0,0,0,-1.5707963267949,-1.5707963267949,                    27P     21
-1.5707963267949,2.22044604925031D-16,2.22044604925031D-16,           27P     22
1.5707963267949,1.5707963267949,1.5707963267949,1.,                   27P     23
0.707106781186548,1.,0.707106781186548,1.,1.5187614337768D-16,        27P     24
1.35066698873047D-16,-1.74838271594513D-16,-0.375000011967863,        27P     25
-0.649519073567273,-2.07474396817951D-17,-0.375000011967862,          27P     26
-0.649519073567273,0.750000023935724,-0.375000011967862,              27P     27
-0.649519073567273,1.50000004787145,3.18409602386252D-16,             27P     28
4.23511111036082D-16,1.50000004787145,-1.5707963267949,               27P     29
1.5707963267949,0.,0.,0.;                                             27P     30
126,4,2,0,0,0,0,-1.5707963267949,-1.5707963267949,                    29P     31
-1.5707963267949,0.,0.,1.5707963267949,1.5707963267949,               29P     32
1.5707963267949,1.,0.707106781186548,1.,0.707106781186548,1.,         29P     33
4.59242564336661D-17,0.,0.,0.750000023935723,0.,                      29P     34
-1.54090831912718D-16,0.750000023935723,0.,-0.750000023935723,        29P     35
0.750000023935723,0.,-1.50000004787145,4.59242564336661D-17,0.,       29P     36
-1.50000004787145,-1.5707963267949,1.5707963267949,0.,0.,0.;          29P     37
126,4,2,0,0,0,0,-1.5707963267949,-1.5707963267949,                    31P     38
-1.5707963267949,0.,0.,1.5707963267949,1.5707963267949,               31P     39
1.5707963267949,1.,0.707106781186547,1.,0.707106781186547,1.,         31P     40
1.5187614337768D-16,1.35066698873047D-16,-1.50000004787145,           31P     41
-0.375000011967862,-0.649519073567273,-1.50000004787145,              31P     42
-0.375000011967862,-0.649519073567273,-0.750000023935723,             31P     43
-0.375000011967862,-0.649519073567273,2.07474396817951D-17,           31P     44
1.5187614337768D-16,1.35066698873047D-16,1.74838271594513D-16,        31P     45
-1.5707963267949,1.5707963267949,0.,0.,0.;                            31P     46
126,4,2,0,0,0,0,-1.5707963267949,-1.5707963267949,                    33P     47
-1.5707963267949,-1.11022302462516D-16,-1.11022302462516D-16,         33P     48
1.5707963267949,1.5707963267949,1.5707963267949,1.,                   33P     49
0.707106781186548,1.,0.707106781186548,1.,-2.41218405149811D-16,      33P     50
0.,1.50000004787145,1.50000004787145,0.,1.50000004787145,             33P     51
1.50000004787145,0.,1.66533459008572D-16,1.50000004787145,0.,         33P     52
-1.50000004787145,9.18485128673322D-17,0.,-1.50000004787145,          33P     53
-1.5707963267949,1.5707963267949,0.,0.,0.;                            33P     54
126,4,2,0,0,0,0,-1.5707963267949,-1.5707963267949,                    35P     55
-1.5707963267949,-1.11022302462516D-16,-1.11022302462516D-16,         35P     56
1.5707963267949,1.5707963267949,1.5707963267949,1.,                   35P     57
0.707106781186548,1.,0.707106781186547,1.,2.95447474169419D-16,       35P     58
3.83739538314616D-16,1.50000004787145,-0.750000023935725,             35P     59
-1.29903814713455,1.50000004787145,-0.750000023935725,                35P     60
-1.29903814713455,1.66533459008572D-16,-0.750000023935725,            35P     61
-1.29903814713455,-1.50000004787145,1.28914015160847D-16,             35P     62
9.52951261515813D-17,-1.50000004787145,-1.5707963267949,              35P     63
1.5707963267949,0.,0.,0.;                                             35P     64
128,4,6,2,2,0,0,0,0,0,-1.5707963267949,-1.5707963267949,              37P     65
-1.5707963267949,0.,0.,1.5707963267949,1.5707963267949,               37P     66
1.5707963267949,0.,0.,0.,1.39626340159628,1.39626340159628,           37P     67
2.79252680319255,2.79252680319255,4.18879020478883,                   37P     68
4.18879020478883,4.18879020478883,1.,0.707106781186548,1.,            37P     69
0.707106781186548,1.,0.766044443118717,0.541675220419518,             37P     70
0.766044443118717,0.541675220419518,0.766044443118717,1.,             37P     71
0.707106781186548,1.,0.707106781186548,1.,0.766044443118717,          37P     72
0.541675220419518,0.766044443118717,0.541675220419518,                37P     73
0.766044443118717,1.,0.707106781186548,1.,0.707106781186548,1.,       37P     74
0.766044443118717,0.541675220419518,0.766044443118717,                37P     75
0.541675220419518,0.766044443118717,1.,0.707106781186548,1.,          37P     76
0.707106781186548,1.,4.59242564336661D-17,0.,0.,                      37P     77
0.750000023935723,0.,1.54090831912718D-16,0.750000023935723,0.,       37P     78
0.750000023935723,0.750000023935723,0.,1.50000004787145,              37P     79
4.59242564336661D-17,0.,1.50000004787145,4.59242564336661D-17,        37P     80
3.85350266356118D-17,0.,0.750000023935723,0.629324743467936,          37P     81
1.54090831912718D-16,0.750000023935723,0.629324743467936,             37P     82
0.750000023935723,0.750000023935723,0.629324743467936,                37P     83
1.50000004787145,4.59242564336661D-17,3.85350266356118D-17,           37P     84
1.50000004787145,7.97466344037817D-18,4.52265637872016D-17,0.,        37P     85
0.130236137405992,0.738605838331348,1.71235516502531D-16,             37P     86
0.130236137405992,0.738605838331348,0.750000023935723,                37P     87
0.130236137405992,0.738605838331348,1.50000004787145,                 37P     88
7.97466344037817D-18,4.52265637872016D-17,1.50000004787145,           37P     89
-2.99749295529098D-17,5.19181009387914D-17,0.,                        37P     90
-0.489527749123739,0.84788693319476,1.88380201092345D-16,             37P     91
-0.489527749123739,0.84788693319476,0.750000023935723,                37P     92
-0.489527749123739,0.84788693319476,1.50000004787145,                 37P     93
-2.99749295529098D-17,5.19181009387914D-17,1.50000004787145,          37P     94
-4.31546848858213D-17,1.57070207674971D-17,0.,                        37P     95
-0.704769488082071,0.256515115679606,1.94334487563708D-16,            37P     96
-0.704769488082071,0.256515115679606,0.750000023935723,               37P     97
-0.704769488082071,0.256515115679606,1.50000004787145,                37P     98
-4.31546848858213D-17,1.57070207674971D-17,1.50000004787145,          37P     99
-5.63344402187329D-17,-2.05040594037972D-17,0.,                       37P    100
-0.920011227040403,-0.334856701835548,2.00288774035071D-16,           37P    101
-0.920011227040403,-0.334856701835548,0.750000023935723,              37P    102
-0.920011227040403,-0.334856701835548,1.50000004787145,               37P    103
-5.63344402187329D-17,-2.05040594037972D-17,1.50000004787145,         37P    104
-2.29621282167361D-17,-3.97715727215218D-17,0.,                       37P    105
-0.375000011966278,-0.649519073568187,1.85211991435367D-16,           37P    106
-0.375000011966278,-0.649519073568188,0.750000023935723,              37P    107
-0.375000011966278,-0.649519073568187,1.50000004787145,               37P    108
-2.29621282167361D-17,-3.97715727215218D-17,1.50000004787145,         37P    109
-1.5707963267949,1.5707963267949,0.,4.18879020478883;                 37P    110
128,4,6,2,2,0,0,0,0,0,-1.5707963267949,-1.5707963267949,              39P    111
-1.5707963267949,0.,0.,1.5707963267949,1.5707963267949,               39P    112
1.5707963267949,0.,0.,0.,1.39626340159628,1.39626340159628,           39P    113
2.79252680319255,2.79252680319255,4.18879020478883,                   39P    114
4.18879020478883,4.18879020478883,1.,0.707106781186548,1.,            39P    115
0.707106781186548,1.,0.766044443118717,0.541675220419518,             39P    116
0.766044443118717,0.541675220419518,0.766044443118717,1.,             39P    117
0.707106781186548,1.,0.707106781186548,1.,0.766044443118717,          39P    118
0.541675220419518,0.766044443118717,0.541675220419518,                39P    119
0.766044443118717,1.,0.707106781186548,1.,0.707106781186548,1.,       39P    120
0.766044443118717,0.541675220419518,0.766044443118717,                39P    121
0.541675220419518,0.766044443118717,1.,0.707106781186548,1.,          39P    122
0.707106781186548,1.,4.59242564336661D-17,0.,-1.50000004787145,       39P    123
0.750000023935723,0.,-1.50000004787145,0.750000023935723,0.,          39P    124
-0.750000023935723,0.750000023935723,0.,-1.54090831912718D-16,        39P    125
4.59242564336661D-17,0.,0.,4.59242564336661D-17,                      39P    126
3.85350266356118D-17,-1.50000004787145,0.750000023935723,             39P    127
0.629324743467936,-1.50000004787145,0.750000023935723,                39P    128
0.629324743467936,-0.750000023935723,0.750000023935723,               39P    129
0.629324743467936,-1.54090831912718D-16,4.59242564336661D-17,         39P    130
3.85350266356118D-17,0.,7.97466344037817D-18,                         39P    131
4.52265637872016D-17,-1.50000004787145,0.130236137405992,             39P    132
0.738605838331348,-1.50000004787145,0.130236137405992,                39P    133
0.738605838331348,-0.750000023935723,0.130236137405992,               39P    134
0.738605838331348,-1.71235516502531D-16,7.97466344037817D-18,         39P    135
4.52265637872016D-17,0.,-2.99749295529098D-17,                        39P    136
5.19181009387914D-17,-1.50000004787145,-0.489527749123739,            39P    137
0.84788693319476,-1.50000004787145,-0.489527749123739,                39P    138
0.84788693319476,-0.750000023935723,-0.489527749123739,               39P    139
0.84788693319476,-1.88380201092345D-16,-2.99749295529098D-17,         39P    140
5.19181009387914D-17,0.,-4.31546848858213D-17,                        39P    141
1.57070207674971D-17,-1.50000004787145,-0.704769488082071,            39P    142
0.256515115679606,-1.50000004787145,-0.704769488082071,               39P    143
0.256515115679606,-0.750000023935723,-0.704769488082071,              39P    144
0.256515115679606,-1.94334487563708D-16,-4.31546848858213D-17,        39P    145
1.57070207674971D-17,0.,-5.63344402187329D-17,                        39P    146
-2.05040594037972D-17,-1.50000004787145,-0.920011227040403,           39P    147
-0.334856701835548,-1.50000004787145,-0.920011227040403,              39P    148
-0.334856701835548,-0.750000023935723,-0.920011227040403,             39P    149
-0.334856701835548,-2.00288774035071D-16,-5.63344402187329D-17,       39P    150
-2.05040594037972D-17,0.,-2.29621282167361D-17,                       39P    151
-3.97715727215218D-17,-1.50000004787145,-0.375000011966278,           39P    152
-0.649519073568187,-1.50000004787145,-0.375000011966278,              39P    153
-0.649519073568188,-0.750000023935723,-0.375000011966278,             39P    154
-0.649519073568187,-1.85211991435367D-16,-2.29621282167361D-17,       39P    155
-3.97715727215218D-17,0.,-1.5707963267949,1.5707963267949,0.,         39P    156
4.18879020478883;                                                     39P    157
128,4,6,2,2,0,0,0,0,0,-1.5707963267949,-1.5707963267949,              41P    158
-1.5707963267949,0.,0.,1.5707963267949,1.5707963267949,               41P    159
1.5707963267949,0.,0.,0.,1.39626340159628,1.39626340159628,           41P    160
2.79252680319255,2.79252680319255,4.18879020478883,                   41P    161
4.18879020478883,4.18879020478883,1.,0.707106781186548,1.,            41P    162
0.707106781186548,1.,0.766044443118717,0.541675220419518,             41P    163
0.766044443118717,0.541675220419518,0.766044443118717,1.,             41P    164
0.707106781186548,1.,0.707106781186548,1.,0.766044443118717,          41P    165
0.541675220419518,0.766044443118717,0.541675220419518,                41P    166
0.766044443118717,1.,0.707106781186548,1.,0.707106781186548,1.,       41P    167
0.766044443118717,0.541675220419518,0.766044443118717,                41P    168
0.541675220419518,0.766044443118717,1.,0.707106781186548,1.,          41P    169
0.707106781186548,1.,9.18485128673322D-17,0.,1.50000004787145,        41P    170
1.50000004787145,0.,1.50000004787145,1.50000004787145,0.,0.,          41P    171
1.50000004787145,0.,-1.50000004787145,9.18485128673322D-17,0.,        41P    172
-1.50000004787145,9.18485128673322D-17,7.70700532712237D-17,          41P    173
1.50000004787145,1.50000004787145,1.25864948693587,                   41P    174
1.50000004787145,1.50000004787145,1.25864948693587,0.,                41P    175
1.50000004787145,1.25864948693587,-1.50000004787145,                  41P    176
9.18485128673322D-17,7.70700532712237D-17,-1.50000004787145,          41P    177
1.59493268807563D-17,9.04531275744033D-17,1.50000004787145,           41P    178
0.260472274811985,1.4772116766627,1.50000004787145,                   41P    179
0.260472274811985,1.4772116766627,0.,0.260472274811985,               41P    180
1.4772116766627,-1.50000004787145,1.59493268807563D-17,               41P    181
9.04531275744033D-17,-1.50000004787145,-5.99498591058195D-17,         41P    182
1.03836201877583D-16,1.50000004787145,-0.979055498247477,             41P    183
1.69577386638952,1.50000004787145,-0.979055498247478,                 41P    184
1.69577386638952,0.,-0.979055498247477,1.69577386638952,              41P    185
-1.50000004787145,-5.99498591058195D-17,1.03836201877583D-16,         41P    186
-1.50000004787145,-8.63093697716427D-17,3.14140415349942D-17,         41P    187
1.50000004787145,-1.40953897616414,0.513030231359211,                 41P    188
1.50000004787145,-1.40953897616414,0.513030231359211,0.,              41P    189
-1.40953897616414,0.513030231359211,-1.50000004787145,                41P    190
-8.63093697716427D-17,3.14140415349942D-17,-1.50000004787145,         41P    191
-1.12668880437466D-16,-4.10081188075944D-17,1.50000004787145,         41P    192
-1.84002245408081,-0.669713403671096,1.50000004787145,                41P    193
-1.84002245408081,-0.669713403671096,0.,-1.84002245408081,            41P    194
-0.669713403671096,-1.50000004787145,-1.12668880437466D-16,           41P    195
-4.10081188075944D-17,-1.50000004787145,-4.59242564334722D-17,        41P    196
-7.95431454430435D-17,1.50000004787145,-0.750000023932557,            41P    197
-1.29903814713637,1.50000004787145,-0.750000023932557,                41P    198
-1.29903814713638,0.,-0.750000023932557,-1.29903814713637,            41P    199
-1.50000004787145,-4.59242564334722D-17,-7.95431454430435D-17,        41P    200
-1.50000004787145,-1.5707963267949,1.5707963267949,0.,                41P    201
4.18879020478883;                                                     41P    202
128,1,1,1,1,0,0,1,0,0,-1.90600006079674,-1.90600006079674,            43P    203
1.90600006079674,1.90600006079674,-3.81100012159348,                  43P    204
-3.81100012159348,3.81100012159348,3.81100012159348,1.,1.,1.,1.,      43P    205
0.000196850393701072,0.000340954883380052,1.50039374865885,           43P    206
-0.750196874329426,-1.29937910201793,1.50039374865885,                43P    207
0.000196850393701072,0.000340954883380052,-1.50039374865885,          43P    208
-0.750196874329426,-1.29937910201793,-1.50039374865885,               43P    209
-1.90600006079674,1.90600006079674,-3.81100012159348,                 43P    210
3.81100012159348;                                                     43P    211
128,1,1,1,1,0,0,1,0,0,-1.90600006079674,-1.90600006079674,            45P    212
1.90600006079674,1.90600006079674,-3.81100012159348,                  45P    213
-3.81100012159348,3.81100012159348,3.81100012159348,1.,1.,1.,1.,      45P    214
1.50039374865885,0.,1.50039374865885,-0.000393700787401794,0.,        45P    215
1.50039374865885,1.50039374865885,0.,-1.50039374865885,               45P    216
-0.000393700787401794,0.,-1.50039374865885,-1.90600006079674,         45P    217
1.90600006079674,-3.81100012159348,3.81100012159348;                  45P    218
502,3,-2.87142661583477D-16,0.,1.50000004787145,                      47P    219
4.59242564336661D-17,0.,0.,4.59242564336661D-17,0.,                   47P    220
-1.50000004787145;                                                    47P    221
504,6,25,47,1,47,2,27,47,2,47,1,29,47,2,47,3,31,47,3,47,2,33,47,      49P    222
1,47,3,35,47,1,47,3;                                                  49P    223
406,1,5HBody1;                                                        51P    224
314,62.7450980392157,62.7450980392157,62.7450980392157,13HSteel       53P    225
- Satin;                                                              53P    226
S      1G      3D     54P    226                                        T      1
