# WaveFront *.obj file (generated by Autodesk ATF)

mtllib Pillar.mtl

g Body1

v -5.080000 -0.000000 0.635000
v -5.023261 0.757135 0.635000
v -4.854310 1.497356 0.635000
v -4.576922 2.204129 0.635000
v -4.197293 2.861666 0.635000
v -3.723904 3.455278 0.635000
v -3.167328 3.971704 0.635000
v -2.540000 4.399409 0.635000
v -1.855932 4.728839 0.635000
v -1.130406 4.952634 0.635000
v -0.379629 5.065795 0.635000
v 0.379629 5.065795 0.635000
v 1.130406 4.952634 0.635000
v 1.855932 4.728839 0.635000
v 2.540000 4.399409 0.635000
v 3.167328 3.971704 0.635000
v 3.723904 3.455278 0.635000
v 4.197293 2.861666 0.635000
v 4.576922 2.204129 0.635000
v 4.854310 1.497356 0.635000
v 5.023261 0.757135 0.635000
v 5.080000 0.000000 0.635000
v 5.023261 -0.757135 0.635000
v 4.854310 -1.497356 0.635000
v 4.576922 -2.204129 0.635000
v 4.197293 -2.861666 0.635000
v 3.723904 -3.455278 0.635000
v 3.167328 -3.971704 0.635000
v 2.540000 -4.399409 0.635000
v 1.855932 -4.728839 0.635000
v 1.130406 -4.952634 0.635000
v 0.379629 -5.065795 0.635000
v -0.379629 -5.065795 0.635000
v -1.130406 -4.952634 0.635000
v -1.855932 -4.728839 0.635000
v -2.540000 -4.399409 0.635000
v -3.167328 -3.971704 0.635000
v -3.723904 -3.455278 0.635000
v -4.197293 -2.861666 0.635000
v -4.576922 -2.204129 0.635000
v -4.854310 -1.497356 0.635000
v -5.023261 -0.757135 0.635000
v -5.080000 -0.000000 0.000000
v -5.023261 -0.757135 0.000000
v -4.854310 -1.497356 0.000000
v -4.576922 -2.204129 0.000000
v -4.197293 -2.861666 0.000000
v -3.723904 -3.455278 0.000000
v -3.167328 -3.971704 0.000000
v -2.540000 -4.399409 0.000000
v -1.855932 -4.728839 0.000000
v -1.130406 -4.952634 0.000000
v -0.379629 -5.065795 0.000000
v 0.379629 -5.065795 0.000000
v 1.130406 -4.952634 0.000000
v 1.855932 -4.728839 0.000000
v 2.540000 -4.399409 0.000000
v 3.167328 -3.971704 0.000000
v 3.723904 -3.455278 0.000000
v 4.197293 -2.861666 0.000000
v 4.576922 -2.204129 0.000000
v 4.854310 -1.497356 0.000000
v 5.023261 -0.757135 0.000000
v 5.080000 0.000000 0.000000
v 5.023261 0.757135 0.000000
v 4.854310 1.497356 0.000000
v 4.576922 2.204129 0.000000
v 4.197293 2.861666 0.000000
v 3.723904 3.455278 0.000000
v 3.167328 3.971704 0.000000
v 2.540000 4.399409 0.000000
v 1.855932 4.728839 0.000000
v 1.130406 4.952634 0.000000
v 0.379629 5.065795 0.000000
v -0.379629 5.065795 0.000000
v -1.130406 4.952634 0.000000
v -1.855932 4.728839 0.000000
v -2.540000 4.399409 0.000000
v -3.167328 3.971704 0.000000
v -3.723904 3.455278 0.000000
v -4.197293 2.861666 0.000000
v -4.576922 2.204129 0.000000
v -4.854310 1.497356 0.000000
v -5.023261 0.757135 0.000000
vt -0.635000 15.199325 0.000000
vt -0.000000 15.199325 0.000000
vt -0.635000 15.959291 0.000000
vt -0.000000 15.959291 0.000000
vt -0.635000 -15.959291 0.000000
vt -0.000000 -15.959291 0.000000
vt -0.635000 -15.199325 0.000000
vt -0.000000 -15.199325 0.000000
vt -0.635000 -14.439359 0.000000
vt -0.000000 -14.439359 0.000000
vt -0.635000 -13.679392 0.000000
vt -0.000000 -13.679392 0.000000
vt -0.635000 -12.919426 0.000000
vt -0.000000 -12.919426 0.000000
vt -0.635000 -12.159460 0.000000
vt -0.000000 -12.159460 0.000000
vt -0.635000 -11.399494 0.000000
vt -0.000000 -11.399494 0.000000
vt -0.635000 -10.639527 0.000000
vt -0.000000 -10.639527 0.000000
vt -0.635000 -9.879561 0.000000
vt -0.000000 -9.879561 0.000000
vt -0.635000 -9.119595 0.000000
vt -0.000000 -9.119595 0.000000
vt -0.635000 -8.359629 0.000000
vt -0.000000 -8.359629 0.000000
vt -0.635000 -7.599662 0.000000
vt -0.000000 -7.599662 0.000000
vt -0.635000 -6.839696 0.000000
vt -0.000000 -6.839696 0.000000
vt -0.635000 -6.079730 0.000000
vt -0.000000 -6.079730 0.000000
vt -0.635000 -5.319764 0.000000
vt -0.000000 -5.319764 0.000000
vt -0.635000 -4.559797 0.000000
vt -0.000000 -4.559797 0.000000
vt -0.635000 -3.799831 0.000000
vt -0.000000 -3.799831 0.000000
vt -0.635000 -3.039865 0.000000
vt -0.000000 -3.039865 0.000000
vt -0.635000 -2.279899 0.000000
vt -0.000000 -2.279899 0.000000
vt -0.635000 -1.519932 0.000000
vt -0.000000 -1.519932 0.000000
vt -0.635000 -0.759966 0.000000
vt -0.000000 -0.759966 0.000000
vt -0.635000 0.000000 0.000000
vt -0.000000 0.000000 0.000000
vt -0.635000 0.759966 0.000000
vt -0.000000 0.759966 0.000000
vt -0.635000 1.519932 0.000000
vt -0.000000 1.519932 0.000000
vt -0.635000 2.279899 0.000000
vt -0.000000 2.279899 0.000000
vt -0.635000 3.039865 0.000000
vt -0.000000 3.039865 0.000000
vt -0.635000 3.799831 0.000000
vt -0.000000 3.799831 0.000000
vt -0.635000 4.559797 0.000000
vt -0.000000 4.559797 0.000000
vt -0.635000 5.319764 0.000000
vt -0.000000 5.319764 0.000000
vt -0.635000 6.079730 0.000000
vt -0.000000 6.079730 0.000000
vt -0.635000 6.839696 0.000000
vt -0.000000 6.839696 0.000000
vt -0.635000 7.599662 0.000000
vt -0.000000 7.599662 0.000000
vt -0.635000 8.359629 0.000000
vt -0.000000 8.359629 0.000000
vt -0.635000 9.119595 0.000000
vt -0.000000 9.119595 0.000000
vt -0.635000 9.879561 0.000000
vt -0.000000 9.879561 0.000000
vt -0.635000 10.639527 0.000000
vt -0.000000 10.639527 0.000000
vt -0.635000 11.399494 0.000000
vt -0.000000 11.399494 0.000000
vt -0.635000 12.159460 0.000000
vt -0.000000 12.159460 0.000000
vt -0.635000 12.919426 0.000000
vt -0.000000 12.919426 0.000000
vt -0.635000 13.679392 0.000000
vt -0.000000 13.679392 0.000000
vt -0.635000 14.439359 0.000000
vt -0.000000 14.439359 0.000000
vt -5.023261 -0.757135 0.000000
vt 5.023261 -0.757135 0.000000
vt -5.080000 -0.000000 0.000000
vt 5.080000 0.000000 0.000000
vt -5.023261 0.757135 0.000000
vt 5.023261 0.757135 0.000000
vt -4.854310 1.497356 0.000000
vt 4.854310 1.497356 0.000000
vt -4.576922 2.204129 0.000000
vt 4.576922 2.204129 0.000000
vt -4.197293 2.861666 0.000000
vt 4.197293 2.861666 0.000000
vt -3.723904 3.455278 0.000000
vt 3.723904 3.455278 0.000000
vt -3.167328 3.971704 0.000000
vt 3.167328 3.971704 0.000000
vt -2.540000 4.399409 0.000000
vt 2.540000 4.399409 0.000000
vt -1.855932 4.728839 0.000000
vt 1.855932 4.728839 0.000000
vt -1.130406 4.952634 0.000000
vt 1.130406 4.952634 0.000000
vt -0.379629 5.065795 0.000000
vt 0.379629 5.065795 0.000000
vt 4.854310 -1.497356 0.000000
vt -4.854310 -1.497356 0.000000
vt 4.576922 -2.204129 0.000000
vt -4.576922 -2.204129 0.000000
vt 4.197293 -2.861666 0.000000
vt -4.197293 -2.861666 0.000000
vt 3.723904 -3.455278 0.000000
vt -3.723904 -3.455278 0.000000
vt 3.167328 -3.971704 0.000000
vt -3.167328 -3.971704 0.000000
vt 2.540000 -4.399409 0.000000
vt -2.540000 -4.399409 0.000000
vt 1.855932 -4.728839 0.000000
vt -1.855932 -4.728839 0.000000
vt 1.130406 -4.952634 0.000000
vt -1.130406 -4.952634 0.000000
vt 0.379629 -5.065795 0.000000
vt -0.379629 -5.065795 0.000000
vt 5.023261 0.757135 0.000000
vt -5.023261 0.757135 0.000000
vt 5.080000 -0.000000 0.000000
vt -5.080000 0.000000 0.000000
vt 5.023261 -0.757135 0.000000
vt -5.023261 -0.757135 0.000000
vt 4.854310 -1.497356 0.000000
vt -4.854310 -1.497356 0.000000
vt 4.576922 -2.204129 0.000000
vt -4.576922 -2.204129 0.000000
vt 4.197293 -2.861666 0.000000
vt -4.197293 -2.861666 0.000000
vt 3.723904 -3.455278 0.000000
vt -3.723904 -3.455278 0.000000
vt 3.167328 -3.971704 0.000000
vt -3.167328 -3.971704 0.000000
vt 2.540000 -4.399409 0.000000
vt -2.540000 -4.399409 0.000000
vt 1.855932 -4.728839 0.000000
vt -1.855932 -4.728839 0.000000
vt 1.130406 -4.952634 0.000000
vt -1.130406 -4.952634 0.000000
vt 0.379629 -5.065795 0.000000
vt -0.379629 -5.065795 0.000000
vt -4.854310 1.497356 0.000000
vt 4.854310 1.497356 0.000000
vt -4.576922 2.204129 0.000000
vt 4.576922 2.204129 0.000000
vt -4.197293 2.861666 0.000000
vt 4.197293 2.861666 0.000000
vt -3.723904 3.455278 0.000000
vt 3.723904 3.455278 0.000000
vt -3.167328 3.971704 0.000000
vt 3.167328 3.971704 0.000000
vt -2.540000 4.399409 0.000000
vt 2.540000 4.399409 0.000000
vt -1.855932 4.728839 0.000000
vt 1.855932 4.728839 0.000000
vt -1.130406 4.952634 0.000000
vt 1.130406 4.952634 0.000000
vt -0.379629 5.065795 0.000000
vt 0.379629 5.065795 0.000000
vn -0.988831 0.149042 -0.000000
vn -0.988831 0.149042 -0.000000
vn -1.000000 0.000000 -0.000000
vn -1.000000 0.000000 -0.000000
vn -0.988831 -0.149042 0.000000
vn -0.988831 -0.149042 0.000000
vn -0.955573 -0.294755 0.000000
vn -0.955573 -0.294755 0.000000
vn -0.900969 -0.433884 0.000000
vn -0.900969 -0.433884 0.000000
vn -0.826239 -0.563320 0.000000
vn -0.826239 -0.563320 0.000000
vn -0.733052 -0.680173 0.000000
vn -0.733052 -0.680173 0.000000
vn -0.623490 -0.781831 0.000000
vn -0.623490 -0.781831 0.000000
vn -0.500000 -0.866025 0.000000
vn -0.500000 -0.866025 0.000000
vn -0.365341 -0.930874 0.000000
vn -0.365341 -0.930874 0.000000
vn -0.222521 -0.974928 0.000000
vn -0.222521 -0.974928 0.000000
vn -0.074730 -0.997204 0.000000
vn -0.074730 -0.997204 0.000000
vn 0.074730 -0.997204 -0.000000
vn 0.074730 -0.997204 -0.000000
vn 0.222521 -0.974928 -0.000000
vn 0.222521 -0.974928 -0.000000
vn 0.365341 -0.930874 -0.000000
vn 0.365341 -0.930874 -0.000000
vn 0.500000 -0.866025 -0.000000
vn 0.500000 -0.866025 -0.000000
vn 0.623490 -0.781831 -0.000000
vn 0.623490 -0.781831 -0.000000
vn 0.733052 -0.680173 -0.000000
vn 0.733052 -0.680173 -0.000000
vn 0.826239 -0.563320 -0.000000
vn 0.826239 -0.563320 -0.000000
vn 0.900969 -0.433884 -0.000000
vn 0.900969 -0.433884 -0.000000
vn 0.955573 -0.294755 -0.000000
vn 0.955573 -0.294755 -0.000000
vn 0.988831 -0.149042 -0.000000
vn 0.988831 -0.149042 -0.000000
vn 1.000000 -0.000000 -0.000000
vn 1.000000 -0.000000 -0.000000
vn 0.988831 0.149042 -0.000000
vn 0.988831 0.149042 -0.000000
vn 0.955573 0.294755 -0.000000
vn 0.955573 0.294755 -0.000000
vn 0.900969 0.433884 -0.000000
vn 0.900969 0.433884 -0.000000
vn 0.826239 0.563320 -0.000000
vn 0.826239 0.563320 -0.000000
vn 0.733052 0.680173 -0.000000
vn 0.733052 0.680173 -0.000000
vn 0.623490 0.781831 -0.000000
vn 0.623490 0.781831 -0.000000
vn 0.500000 0.866025 -0.000000
vn 0.500000 0.866025 -0.000000
vn 0.365341 0.930874 -0.000000
vn 0.365341 0.930874 -0.000000
vn 0.222521 0.974928 -0.000000
vn 0.222521 0.974928 -0.000000
vn 0.074730 0.997204 -0.000000
vn 0.074730 0.997204 -0.000000
vn -0.074730 0.997204 -0.000000
vn -0.074730 0.997204 -0.000000
vn -0.222521 0.974928 -0.000000
vn -0.222521 0.974928 -0.000000
vn -0.365341 0.930874 -0.000000
vn -0.365341 0.930874 -0.000000
vn -0.500000 0.866025 -0.000000
vn -0.500000 0.866025 -0.000000
vn -0.623490 0.781831 -0.000000
vn -0.623490 0.781831 -0.000000
vn -0.733052 0.680173 -0.000000
vn -0.733052 0.680173 -0.000000
vn -0.826239 0.563320 -0.000000
vn -0.826239 0.563320 -0.000000
vn -0.900969 0.433884 -0.000000
vn -0.900969 0.433884 -0.000000
vn -0.955573 0.294755 -0.000000
vn -0.955573 0.294755 -0.000000
vn 0.000000 0.000000 1.000000
vn 0.000000 0.000000 1.000000
vn 0.000000 0.000000 1.000000
vn 0.000000 0.000000 1.000000
vn 0.000000 0.000000 1.000000
vn 0.000000 0.000000 1.000000
vn 0.000000 0.000000 1.000000
vn 0.000000 0.000000 1.000000
vn 0.000000 0.000000 1.000000
vn 0.000000 0.000000 1.000000
vn 0.000000 0.000000 1.000000
vn 0.000000 0.000000 1.000000
vn 0.000000 0.000000 1.000000
vn 0.000000 0.000000 1.000000
vn 0.000000 0.000000 1.000000
vn 0.000000 0.000000 1.000000
vn 0.000000 0.000000 1.000000
vn 0.000000 0.000000 1.000000
vn 0.000000 0.000000 1.000000
vn 0.000000 0.000000 1.000000
vn 0.000000 0.000000 1.000000
vn 0.000000 0.000000 1.000000
vn 0.000000 0.000000 1.000000
vn 0.000000 0.000000 1.000000
vn 0.000000 0.000000 1.000000
vn 0.000000 0.000000 1.000000
vn 0.000000 0.000000 1.000000
vn 0.000000 0.000000 1.000000
vn 0.000000 0.000000 1.000000
vn 0.000000 0.000000 1.000000
vn 0.000000 0.000000 1.000000
vn 0.000000 0.000000 1.000000
vn 0.000000 0.000000 1.000000
vn 0.000000 0.000000 1.000000
vn 0.000000 0.000000 1.000000
vn 0.000000 0.000000 1.000000
vn 0.000000 0.000000 1.000000
vn 0.000000 0.000000 1.000000
vn 0.000000 0.000000 1.000000
vn 0.000000 0.000000 1.000000
vn 0.000000 0.000000 1.000000
vn 0.000000 0.000000 1.000000
vn -0.000000 -0.000000 -1.000000
vn -0.000000 -0.000000 -1.000000
vn -0.000000 -0.000000 -1.000000
vn -0.000000 -0.000000 -1.000000
vn -0.000000 -0.000000 -1.000000
vn -0.000000 -0.000000 -1.000000
vn -0.000000 -0.000000 -1.000000
vn -0.000000 -0.000000 -1.000000
vn -0.000000 -0.000000 -1.000000
vn -0.000000 -0.000000 -1.000000
vn -0.000000 -0.000000 -1.000000
vn -0.000000 -0.000000 -1.000000
vn -0.000000 -0.000000 -1.000000
vn -0.000000 -0.000000 -1.000000
vn -0.000000 -0.000000 -1.000000
vn -0.000000 -0.000000 -1.000000
vn -0.000000 -0.000000 -1.000000
vn -0.000000 -0.000000 -1.000000
vn -0.000000 -0.000000 -1.000000
vn -0.000000 -0.000000 -1.000000
vn -0.000000 -0.000000 -1.000000
vn -0.000000 -0.000000 -1.000000
vn -0.000000 -0.000000 -1.000000
vn -0.000000 -0.000000 -1.000000
vn -0.000000 -0.000000 -1.000000
vn -0.000000 -0.000000 -1.000000
vn -0.000000 -0.000000 -1.000000
vn -0.000000 -0.000000 -1.000000
vn -0.000000 -0.000000 -1.000000
vn -0.000000 -0.000000 -1.000000
vn -0.000000 -0.000000 -1.000000
vn -0.000000 -0.000000 -1.000000
vn -0.000000 -0.000000 -1.000000
vn -0.000000 -0.000000 -1.000000
vn -0.000000 -0.000000 -1.000000
vn -0.000000 -0.000000 -1.000000
vn -0.000000 -0.000000 -1.000000
vn -0.000000 -0.000000 -1.000000
vn -0.000000 -0.000000 -1.000000
vn -0.000000 -0.000000 -1.000000
vn -0.000000 -0.000000 -1.000000
vn -0.000000 -0.000000 -1.000000
usemtl Steel_-_Satin
f 2/1/1 84/2/2 1/3/3
f 1/3/3 84/2/2 43/4/4
f 1/5/3 43/6/4 42/7/5
f 42/7/5 43/6/4 44/8/6
f 42/7/5 44/8/6 41/9/7
f 41/9/7 44/8/6 45/10/8
f 41/9/7 45/10/8 40/11/9
f 40/11/9 45/10/8 46/12/10
f 40/11/9 46/12/10 39/13/11
f 39/13/11 46/12/10 47/14/12
f 39/13/11 47/14/12 38/15/13
f 38/15/13 47/14/12 48/16/14
f 38/15/13 48/16/14 37/17/15
f 37/17/15 48/16/14 49/18/16
f 37/17/15 49/18/16 36/19/17
f 36/19/17 49/18/16 50/20/18
f 36/19/17 50/20/18 35/21/19
f 35/21/19 50/20/18 51/22/20
f 35/21/19 51/22/20 34/23/21
f 34/23/21 51/22/20 52/24/22
f 34/23/21 52/24/22 33/25/23
f 33/25/23 52/24/22 53/26/24
f 33/25/23 53/26/24 32/27/25
f 32/27/25 53/26/24 54/28/26
f 32/27/25 54/28/26 31/29/27
f 31/29/27 54/28/26 55/30/28
f 31/29/27 55/30/28 30/31/29
f 30/31/29 55/30/28 56/32/30
f 30/31/29 56/32/30 29/33/31
f 29/33/31 56/32/30 57/34/32
f 29/33/31 57/34/32 28/35/33
f 28/35/33 57/34/32 58/36/34
f 28/35/33 58/36/34 27/37/35
f 27/37/35 58/36/34 59/38/36
f 27/37/35 59/38/36 26/39/37
f 26/39/37 59/38/36 60/40/38
f 26/39/37 60/40/38 25/41/39
f 25/41/39 60/40/38 61/42/40
f 25/41/39 61/42/40 24/43/41
f 24/43/41 61/42/40 62/44/42
f 24/43/41 62/44/42 23/45/43
f 23/45/43 62/44/42 63/46/44
f 23/45/43 63/46/44 22/47/45
f 22/47/45 63/46/44 64/48/46
f 22/47/45 64/48/46 21/49/47
f 21/49/47 64/48/46 65/50/48
f 21/49/47 65/50/48 20/51/49
f 20/51/49 65/50/48 66/52/50
f 20/51/49 66/52/50 19/53/51
f 19/53/51 66/52/50 67/54/52
f 19/53/51 67/54/52 18/55/53
f 18/55/53 67/54/52 68/56/54
f 18/55/53 68/56/54 17/57/55
f 17/57/55 68/56/54 69/58/56
f 17/57/55 69/58/56 16/59/57
f 16/59/57 69/58/56 70/60/58
f 16/59/57 70/60/58 15/61/59
f 15/61/59 70/60/58 71/62/60
f 15/61/59 71/62/60 14/63/61
f 14/63/61 71/62/60 72/64/62
f 14/63/61 72/64/62 13/65/63
f 13/65/63 72/64/62 73/66/64
f 13/65/63 73/66/64 12/67/65
f 12/67/65 73/66/64 74/68/66
f 12/67/65 74/68/66 11/69/67
f 11/69/67 74/68/66 75/70/68
f 11/69/67 75/70/68 10/71/69
f 10/71/69 75/70/68 76/72/70
f 10/71/69 76/72/70 9/73/71
f 9/73/71 76/72/70 77/74/72
f 9/73/71 77/74/72 8/75/73
f 8/75/73 77/74/72 78/76/74
f 8/75/73 78/76/74 7/77/75
f 7/77/75 78/76/74 79/78/76
f 7/77/75 79/78/76 6/79/77
f 6/79/77 79/78/76 80/80/78
f 6/79/77 80/80/78 5/81/79
f 5/81/79 80/80/78 81/82/80
f 5/81/79 81/82/80 4/83/81
f 4/83/81 81/82/80 82/84/82
f 4/83/81 82/84/82 3/85/83
f 3/85/83 82/84/82 83/86/84
f 3/85/83 83/86/84 2/1/1
f 2/1/1 83/86/84 84/2/2
f 42/87/85 23/88/86 1/89/87
f 1/89/87 23/88/86 22/90/88
f 1/89/87 22/90/88 2/91/89
f 2/91/89 22/90/88 21/92/90
f 2/91/89 21/92/90 3/93/91
f 3/93/91 21/92/90 20/94/92
f 3/93/91 20/94/92 4/95/93
f 4/95/93 20/94/92 19/96/94
f 4/95/93 19/96/94 5/97/95
f 5/97/95 19/96/94 18/98/96
f 5/97/95 18/98/96 6/99/97
f 6/99/97 18/98/96 17/100/98
f 6/99/97 17/100/98 7/101/99
f 7/101/99 17/100/98 16/102/100
f 7/101/99 16/102/100 8/103/101
f 8/103/101 16/102/100 15/104/102
f 8/103/101 15/104/102 9/105/103
f 9/105/103 15/104/102 14/106/104
f 9/105/103 14/106/104 10/107/105
f 10/107/105 14/106/104 13/108/106
f 10/107/105 13/108/106 11/109/107
f 11/109/107 13/108/106 12/110/108
f 23/88/86 42/87/85 24/111/109
f 24/111/109 42/87/85 41/112/110
f 24/111/109 41/112/110 25/113/111
f 25/113/111 41/112/110 40/114/112
f 25/113/111 40/114/112 26/115/113
f 26/115/113 40/114/112 39/116/114
f 26/115/113 39/116/114 27/117/115
f 27/117/115 39/116/114 38/118/116
f 27/117/115 38/118/116 28/119/117
f 28/119/117 38/118/116 37/120/118
f 28/119/117 37/120/118 29/121/119
f 29/121/119 37/120/118 36/122/120
f 29/121/119 36/122/120 30/123/121
f 30/123/121 36/122/120 35/124/122
f 30/123/121 35/124/122 31/125/123
f 31/125/123 35/124/122 34/126/124
f 31/125/123 34/126/124 32/127/125
f 32/127/125 34/126/124 33/128/126
f 84/129/127 65/130/128 43/131/129
f 43/131/129 65/130/128 64/132/130
f 43/131/129 64/132/130 44/133/131
f 44/133/131 64/132/130 63/134/132
f 44/133/131 63/134/132 45/135/133
f 45/135/133 63/134/132 62/136/134
f 45/135/133 62/136/134 46/137/135
f 46/137/135 62/136/134 61/138/136
f 46/137/135 61/138/136 47/139/137
f 47/139/137 61/138/136 60/140/138
f 47/139/137 60/140/138 48/141/139
f 48/141/139 60/140/138 59/142/140
f 48/141/139 59/142/140 49/143/141
f 49/143/141 59/142/140 58/144/142
f 49/143/141 58/144/142 50/145/143
f 50/145/143 58/144/142 57/146/144
f 50/145/143 57/146/144 51/147/145
f 51/147/145 57/146/144 56/148/146
f 51/147/145 56/148/146 52/149/147
f 52/149/147 56/148/146 55/150/148
f 52/149/147 55/150/148 53/151/149
f 53/151/149 55/150/148 54/152/150
f 65/130/128 84/129/127 66/153/151
f 66/153/151 84/129/127 83/154/152
f 66/153/151 83/154/152 67/155/153
f 67/155/153 83/154/152 82/156/154
f 67/155/153 82/156/154 68/157/155
f 68/157/155 82/156/154 81/158/156
f 68/157/155 81/158/156 69/159/157
f 69/159/157 81/158/156 80/160/158
f 69/159/157 80/160/158 70/161/159
f 70/161/159 80/160/158 79/162/160
f 70/161/159 79/162/160 71/163/161
f 71/163/161 79/162/160 78/164/162
f 71/163/161 78/164/162 72/165/163
f 72/165/163 78/164/162 77/166/164
f 72/165/163 77/166/164 73/167/165
f 73/167/165 77/166/164 76/168/166
f 73/167/165 76/168/166 74/169/167
f 74/169/167 76/168/166 75/170/168
g Body2

v 1.585587 1.984317 0.635000
v 1.409456 1.679249 0.635000
v 1.409456 1.679249 9.101667
v 1.409456 1.679249 17.568333
v 1.409456 1.679249 26.035000
v 1.585587 1.984317 26.035000
v 1.585587 1.984317 17.568333
v 1.585587 1.984317 9.101667
v 1.984317 1.585587 0.635000
v 1.861394 1.728240 0.635000
v 1.728240 1.861394 0.635000
v 1.728240 1.861394 26.035000
v 1.861394 1.728240 26.035000
v 1.984317 1.585587 26.035000
v 1.984317 1.585587 17.568333
v 1.984317 1.585587 9.101667
v 1.679249 1.409456 0.635000
v 1.679249 1.409456 26.035000
v 1.679249 1.409456 17.568333
v 1.679249 1.409456 9.101667
v 2.060249 0.749544 0.635000
v 2.060249 0.749544 26.035000
v 2.060249 0.749544 17.568333
v 2.060249 0.749544 9.101667
v 2.365317 0.925676 0.635000
v 2.365317 0.925676 26.035000
v 2.365317 0.925676 17.568333
v 2.365317 0.925676 9.101667
v 2.511263 0.381000 0.635000
v 2.476134 0.566003 0.635000
v 2.427397 0.747894 0.635000
v 2.427397 0.747894 26.035000
v 2.476134 0.566003 26.035000
v 2.511263 0.381000 26.035000
v 2.511263 0.381000 17.568333
v 2.511263 0.381000 9.101667
v 2.159000 0.381000 0.635000
v 2.159000 0.381000 26.035000
v 2.159000 0.381000 17.568333
v 2.159000 0.381000 9.101667
v 2.159000 -0.381000 0.635000
v 2.159000 -0.381000 26.035000
v 2.159000 -0.381000 17.568333
v 2.159000 -0.381000 9.101667
v 2.511263 -0.381000 0.635000
v 2.511263 -0.381000 26.035000
v 2.511263 -0.381000 17.568333
v 2.511263 -0.381000 9.101667
v 2.365317 -0.925676 0.635000
v 2.427397 -0.747894 0.635000
v 2.476134 -0.566003 0.635000
v 2.476134 -0.566003 26.035000
v 2.427397 -0.747894 26.035000
v 2.365317 -0.925676 26.035000
v 2.365317 -0.925676 17.568333
v 2.365317 -0.925676 9.101667
v 2.060249 -0.749544 0.635000
v 2.060249 -0.749544 26.035000
v 2.060249 -0.749544 17.568333
v 2.060249 -0.749544 9.101667
v 1.679249 -1.409456 0.635000
v 1.679249 -1.409456 26.035000
v 1.679249 -1.409456 17.568333
v 1.679249 -1.409456 9.101667
v 1.984317 -1.585587 0.635000
v 1.984317 -1.585587 26.035000
v 1.984317 -1.585587 17.568333
v 1.984317 -1.585587 9.101667
v 1.585587 -1.984317 0.635000
v 1.728240 -1.861394 0.635000
v 1.861394 -1.728240 0.635000
v 1.861394 -1.728240 26.035000
v 1.728240 -1.861394 26.035000
v 1.585587 -1.984317 26.035000
v 1.585587 -1.984317 17.568333
v 1.585587 -1.984317 9.101667
v 1.409456 -1.679249 0.635000
v 1.409456 -1.679249 26.035000
v 1.409456 -1.679249 17.568333
v 1.409456 -1.679249 9.101667
v 0.749544 -2.060249 0.635000
v 0.749544 -2.060249 26.035000
v 0.749544 -2.060249 17.568333
v 0.749544 -2.060249 9.101667
v 0.925676 -2.365317 0.635000
v 0.925676 -2.365317 26.035000
v 0.925676 -2.365317 17.568333
v 0.925676 -2.365317 9.101667
v 0.381000 -2.511263 0.635000
v 0.566003 -2.476134 0.635000
v 0.747894 -2.427397 0.635000
v 0.747894 -2.427397 26.035000
v 0.566003 -2.476134 26.035000
v 0.381000 -2.511263 26.035000
v 0.381000 -2.511263 17.568333
v 0.381000 -2.511263 9.101667
v 0.381000 -2.159000 0.635000
v 0.381000 -2.159000 26.035000
v 0.381000 -2.159000 17.568333
v 0.381000 -2.159000 9.101667
v -0.381000 -2.159000 0.635000
v -0.381000 -2.159000 26.035000
v -0.381000 -2.159000 17.568333
v -0.381000 -2.159000 9.101667
v -0.381000 -2.511263 0.635000
v -0.381000 -2.511263 26.035000
v -0.381000 -2.511263 17.568333
v -0.381000 -2.511263 9.101667
v -0.925676 -2.365317 0.635000
v -0.747894 -2.427397 0.635000
v -0.566003 -2.476134 0.635000
v -0.566003 -2.476134 26.035000
v -0.747894 -2.427397 26.035000
v -0.925676 -2.365317 26.035000
v -0.925676 -2.365317 17.568333
v -0.925676 -2.365317 9.101667
v -0.749544 -2.060249 0.635000
v -0.749544 -2.060249 26.035000
v -0.749544 -2.060249 17.568333
v -0.749544 -2.060249 9.101667
v -1.409456 -1.679249 0.635000
v -1.409456 -1.679249 26.035000
v -1.409456 -1.679249 17.568333
v -1.409456 -1.679249 9.101667
v -1.585587 -1.984317 0.635000
v -1.585587 -1.984317 26.035000
v -1.585587 -1.984317 17.568333
v -1.585587 -1.984317 9.101667
v -1.984317 -1.585587 0.635000
v -1.861394 -1.728240 0.635000
v -1.728240 -1.861394 0.635000
v -1.728240 -1.861394 26.035000
v -1.861394 -1.728240 26.035000
v -1.984317 -1.585587 26.035000
v -1.984317 -1.585587 17.568333
v -1.984317 -1.585587 9.101667
v -1.679249 -1.409456 0.635000
v -1.679249 -1.409456 26.035000
v -1.679249 -1.409456 17.568333
v -1.679249 -1.409456 9.101667
v -2.060249 -0.749544 0.635000
v -2.060249 -0.749544 26.035000
v -2.060249 -0.749544 17.568333
v -2.060249 -0.749544 9.101667
v -2.365317 -0.925676 0.635000
v -2.365317 -0.925676 26.035000
v -2.365317 -0.925676 17.568333
v -2.365317 -0.925676 9.101667
v -2.511263 -0.381000 0.635000
v -2.476134 -0.566003 0.635000
v -2.427397 -0.747894 0.635000
v -2.427397 -0.747894 26.035000
v -2.476134 -0.566003 26.035000
v -2.511263 -0.381000 26.035000
v -2.511263 -0.381000 17.568333
v -2.511263 -0.381000 9.101667
v -2.159000 -0.381000 0.635000
v -2.159000 -0.381000 26.035000
v -2.159000 -0.381000 17.568333
v -2.159000 -0.381000 9.101667
v -2.159000 0.381000 0.635000
v -2.159000 0.381000 26.035000
v -2.159000 0.381000 17.568333
v -2.159000 0.381000 9.101667
v -2.511263 0.381000 0.635000
v -2.511263 0.381000 26.035000
v -2.511263 0.381000 17.568333
v -2.511263 0.381000 9.101667
v -2.365317 0.925676 0.635000
v -2.427397 0.747894 0.635000
v -2.476134 0.566003 0.635000
v -2.476134 0.566003 26.035000
v -2.427397 0.747894 26.035000
v -2.365317 0.925676 26.035000
v -2.365317 0.925676 17.568333
v -2.365317 0.925676 9.101667
v -2.060249 0.749544 0.635000
v -2.060249 0.749544 26.035000
v -2.060249 0.749544 17.568333
v -2.060249 0.749544 9.101667
v -1.679249 1.409456 0.635000
v -1.679249 1.409456 26.035000
v -1.679249 1.409456 17.568333
v -1.679249 1.409456 9.101667
v -1.984317 1.585587 0.635000
v -1.984317 1.585587 26.035000
v -1.984317 1.585587 17.568333
v -1.984317 1.585587 9.101667
v -1.585587 1.984317 0.635000
v -1.728240 1.861394 0.635000
v -1.861394 1.728240 0.635000
v -1.861394 1.728240 26.035000
v -1.728240 1.861394 26.035000
v -1.585587 1.984317 26.035000
v -1.585587 1.984317 17.568333
v -1.585587 1.984317 9.101667
v -1.409456 1.679249 0.635000
v -1.409456 1.679249 26.035000
v -1.409456 1.679249 17.568333
v -1.409456 1.679249 9.101667
v -0.749544 2.060249 0.635000
v -0.749544 2.060249 26.035000
v -0.749544 2.060249 17.568333
v -0.749544 2.060249 9.101667
v -0.925676 2.365317 0.635000
v -0.925676 2.365317 26.035000
v -0.925676 2.365317 17.568333
v -0.925676 2.365317 9.101667
v -0.381000 2.511263 0.635000
v -0.566003 2.476134 0.635000
v -0.747894 2.427397 0.635000
v -0.747894 2.427397 26.035000
v -0.566003 2.476134 26.035000
v -0.381000 2.511263 26.035000
v -0.381000 2.511263 17.568333
v -0.381000 2.511263 9.101667
v -0.381000 2.159000 0.635000
v -0.381000 2.159000 26.035000
v -0.381000 2.159000 17.568333
v -0.381000 2.159000 9.101667
v 0.381000 2.159000 0.635000
v 0.381000 2.159000 26.035000
v 0.381000 2.159000 17.568333
v 0.381000 2.159000 9.101667
v 0.381000 2.511263 0.635000
v 0.381000 2.511263 26.035000
v 0.381000 2.511263 17.568333
v 0.381000 2.511263 9.101667
v 0.925676 2.365317 0.635000
v 0.747894 2.427397 0.635000
v 0.566003 2.476134 0.635000
v 0.566003 2.476134 26.035000
v 0.747894 2.427397 26.035000
v 0.925676 2.365317 26.035000
v 0.925676 2.365317 17.568333
v 0.925676 2.365317 9.101667
v 0.749544 2.060249 0.635000
v 0.749544 2.060249 26.035000
v 0.749544 2.060249 17.568333
v 0.749544 2.060249 9.101667
vt 0.352262 0.000000 0.000000
vt 0.352262 8.466667 0.000000
vt 0.000000 0.000000 0.000000
vt 0.000000 8.466667 0.000000
vt 0.352262 16.933333 0.000000
vt 0.000000 16.933333 0.000000
vt 0.352262 25.400000 0.000000
vt 0.000000 25.400000 0.000000
vt -0.000000 -6.267261 0.000000
vt -0.000000 -6.078910 0.000000
vt -8.466667 -6.267261 0.000000
vt -0.000000 -5.890559 0.000000
vt -8.466667 -5.702207 0.000000
vt -0.000000 -5.702207 0.000000
vt -16.933333 -5.702207 0.000000
vt -16.933333 -6.267261 0.000000
vt -25.400000 -5.890559 0.000000
vt -25.400000 -6.078910 0.000000
vt -25.400000 -5.702207 0.000000
vt -25.400000 -6.267261 0.000000
vt 0.352262 0.000000 0.000000
vt 0.352262 8.466667 0.000000
vt 0.000000 0.000000 0.000000
vt 0.000000 8.466667 0.000000
vt 0.352262 16.933333 0.000000
vt 0.000000 16.933333 0.000000
vt 0.352262 25.400000 0.000000
vt 0.000000 25.400000 0.000000
vt 0.000000 0.000000 0.000000
vt 0.762000 0.000000 0.000000
vt 0.000000 8.466667 0.000000
vt 0.762000 8.466667 0.000000
vt 0.000000 16.933333 0.000000
vt 0.762000 16.933333 0.000000
vt 0.000000 25.400000 0.000000
vt 0.762000 25.400000 0.000000
vt 0.352262 0.000000 0.000000
vt 0.352262 8.466667 0.000000
vt 0.000000 0.000000 0.000000
vt 0.000000 8.466667 0.000000
vt 0.352262 16.933333 0.000000
vt 0.000000 16.933333 0.000000
vt 0.352262 25.400000 0.000000
vt 0.000000 25.400000 0.000000
vt -0.000000 -7.597202 0.000000
vt -0.000000 -7.408851 0.000000
vt -8.466667 -7.597202 0.000000
vt -0.000000 -7.220499 0.000000
vt -8.466667 -7.032148 0.000000
vt -0.000000 -7.032148 0.000000
vt -16.933333 -7.032148 0.000000
vt -16.933333 -7.597202 0.000000
vt -25.400000 -7.220499 0.000000
vt -25.400000 -7.408851 0.000000
vt -25.400000 -7.032148 0.000000
vt -25.400000 -7.597202 0.000000
vt 0.352262 0.000000 0.000000
vt 0.352262 8.466667 0.000000
vt 0.000000 0.000000 0.000000
vt 0.000000 8.466667 0.000000
vt 0.352262 16.933333 0.000000
vt 0.000000 16.933333 0.000000
vt 0.352262 25.400000 0.000000
vt -0.000000 25.400000 0.000000
vt 0.000000 0.000000 0.000000
vt 0.762000 0.000000 0.000000
vt 0.000000 8.466667 0.000000
vt 0.762000 8.466667 0.000000
vt 0.000000 16.933333 0.000000
vt 0.762000 16.933333 0.000000
vt -0.000000 25.400000 0.000000
vt 0.762000 25.400000 0.000000
vt 0.352262 0.000000 0.000000
vt 0.352262 8.466667 0.000000
vt 0.000000 0.000000 0.000000
vt 0.000000 8.466667 0.000000
vt 0.352262 16.933333 0.000000
vt 0.000000 16.933333 0.000000
vt 0.352262 25.400000 0.000000
vt -0.000000 25.400000 0.000000
vt -0.000000 7.032148 0.000000
vt -0.000000 7.220499 0.000000
vt -8.466667 7.032148 0.000000
vt -0.000000 7.408851 0.000000
vt -8.466667 7.597202 0.000000
vt -0.000000 7.597202 0.000000
vt -16.933333 7.597202 0.000000
vt -16.933333 7.032148 0.000000
vt -25.400000 7.408851 0.000000
vt -25.400000 7.220499 0.000000
vt -25.400000 7.597202 0.000000
vt -25.400000 7.032148 0.000000
vt 0.352262 0.000000 0.000000
vt 0.352262 8.466667 0.000000
vt 0.000000 0.000000 0.000000
vt 0.000000 8.466667 0.000000
vt 0.352262 16.933333 0.000000
vt 0.000000 16.933333 0.000000
vt 0.352262 25.400000 0.000000
vt 0.000000 25.400000 0.000000
vt 0.000000 0.000000 0.000000
vt 0.762000 0.000000 0.000000
vt 0.000000 8.466667 0.000000
vt 0.762000 8.466667 0.000000
vt 0.000000 16.933333 0.000000
vt 0.762000 16.933333 0.000000
vt -0.000000 25.400000 0.000000
vt 0.762000 25.400000 0.000000
vt 0.352262 0.000000 0.000000
vt 0.352262 8.466667 0.000000
vt 0.000000 0.000000 0.000000
vt 0.000000 8.466667 0.000000
vt 0.352262 16.933333 0.000000
vt 0.000000 16.933333 0.000000
vt 0.352262 25.400000 0.000000
vt -0.000000 25.400000 0.000000
vt -0.000000 5.702207 0.000000
vt -0.000000 5.890559 0.000000
vt -8.466667 5.702207 0.000000
vt -0.000000 6.078910 0.000000
vt -8.466667 6.267261 0.000000
vt -0.000000 6.267261 0.000000
vt -16.933333 6.267261 0.000000
vt -16.933333 5.702207 0.000000
vt -25.400000 6.078910 0.000000
vt -25.400000 5.890559 0.000000
vt -25.400000 6.267261 0.000000
vt -25.400000 5.702207 0.000000
vt 0.352262 0.000000 0.000000
vt 0.352262 8.466667 0.000000
vt 0.000000 0.000000 0.000000
vt 0.000000 8.466667 0.000000
vt 0.352262 16.933333 0.000000
vt 0.000000 16.933333 0.000000
vt 0.352262 25.400000 0.000000
vt 0.000000 25.400000 0.000000
vt 0.000000 0.000000 0.000000
vt 0.762000 0.000000 0.000000
vt 0.000000 8.466667 0.000000
vt 0.762000 8.466667 0.000000
vt 0.000000 16.933333 0.000000
vt 0.762000 16.933333 0.000000
vt 0.000000 25.400000 0.000000
vt 0.762000 25.400000 0.000000
vt 0.352262 0.000000 0.000000
vt 0.352262 8.466667 0.000000
vt 0.000000 0.000000 0.000000
vt 0.000000 8.466667 0.000000
vt 0.352262 16.933333 0.000000
vt 0.000000 16.933333 0.000000
vt 0.352262 25.400000 0.000000
vt 0.000000 25.400000 0.000000
vt -0.000000 4.372266 0.000000
vt -0.000000 4.560618 0.000000
vt -8.466667 4.372266 0.000000
vt -0.000000 4.748969 0.000000
vt -8.466667 4.937320 0.000000
vt -0.000000 4.937320 0.000000
vt -16.933333 4.937320 0.000000
vt -16.933333 4.372266 0.000000
vt -25.400000 4.748969 0.000000
vt -25.400000 4.560618 0.000000
vt -25.400000 4.937320 0.000000
vt -25.400000 4.372266 0.000000
vt 0.352262 0.000000 0.000000
vt 0.352262 8.466667 0.000000
vt 0.000000 0.000000 0.000000
vt 0.000000 8.466667 0.000000
vt 0.352262 16.933333 0.000000
vt 0.000000 16.933333 0.000000
vt 0.352262 25.400000 0.000000
vt -0.000000 25.400000 0.000000
vt 0.000000 0.000000 0.000000
vt 0.762000 0.000000 0.000000
vt 0.000000 8.466667 0.000000
vt 0.762000 8.466667 0.000000
vt 0.000000 16.933333 0.000000
vt 0.762000 16.933333 0.000000
vt 0.000000 25.400000 0.000000
vt 0.762000 25.400000 0.000000
vt 0.352262 0.000000 0.000000
vt 0.352262 8.466667 0.000000
vt 0.000000 0.000000 0.000000
vt 0.000000 8.466667 0.000000
vt 0.352262 16.933333 0.000000
vt 0.000000 16.933333 0.000000
vt 0.352262 25.400000 0.000000
vt -0.000000 25.400000 0.000000
vt -0.000000 3.042325 0.000000
vt -0.000000 3.230677 0.000000
vt -8.466667 3.042325 0.000000
vt -0.000000 3.419028 0.000000
vt -8.466667 3.607379 0.000000
vt -0.000000 3.607379 0.000000
vt -16.933333 3.607379 0.000000
vt -16.933333 3.042325 0.000000
vt -25.400000 3.419028 0.000000
vt -25.400000 3.230677 0.000000
vt -25.400000 3.607379 0.000000
vt -25.400000 3.042325 0.000000
vt 0.352262 0.000000 0.000000
vt 0.352262 8.466667 0.000000
vt 0.000000 0.000000 0.000000
vt 0.000000 8.466667 0.000000
vt 0.352262 16.933333 0.000000
vt 0.000000 16.933333 0.000000
vt 0.352262 25.400000 0.000000
vt 0.000000 25.400000 0.000000
vt 0.000000 0.000000 0.000000
vt 0.762000 0.000000 0.000000
vt 0.000000 8.466667 0.000000
vt 0.762000 8.466667 0.000000
vt 0.000000 16.933333 0.000000
vt 0.762000 16.933333 0.000000
vt -0.000000 25.400000 0.000000
vt 0.762000 25.400000 0.000000
vt 0.352262 0.000000 0.000000
vt 0.352262 8.466667 0.000000
vt 0.000000 0.000000 0.000000
vt 0.000000 8.466667 0.000000
vt 0.352262 16.933333 0.000000
vt 0.000000 16.933333 0.000000
vt 0.352262 25.400000 0.000000
vt -0.000000 25.400000 0.000000
vt -0.000000 1.712384 0.000000
vt -0.000000 1.900736 0.000000
vt -8.466667 1.712384 0.000000
vt -0.000000 2.089087 0.000000
vt -8.466667 2.277438 0.000000
vt -0.000000 2.277438 0.000000
vt -16.933333 2.277438 0.000000
vt -16.933333 1.712384 0.000000
vt -25.400000 2.089087 0.000000
vt -25.400000 1.900736 0.000000
vt -25.400000 2.277438 0.000000
vt -25.400000 1.712384 0.000000
vt 0.352262 0.000000 0.000000
vt 0.352262 8.466667 0.000000
vt 0.000000 0.000000 0.000000
vt 0.000000 8.466667 0.000000
vt 0.352262 16.933333 0.000000
vt 0.000000 16.933333 0.000000
vt 0.352262 25.400000 0.000000
vt 0.000000 25.400000 0.000000
vt 0.000000 0.000000 0.000000
vt 0.762000 0.000000 0.000000
vt 0.000000 8.466667 0.000000
vt 0.762000 8.466667 0.000000
vt 0.000000 16.933333 0.000000
vt 0.762000 16.933333 0.000000
vt 0.000000 25.400000 0.000000
vt 0.762000 25.400000 0.000000
vt 0.352262 0.000000 0.000000
vt 0.352262 8.466667 0.000000
vt 0.000000 0.000000 0.000000
vt 0.000000 8.466667 0.000000
vt 0.352262 16.933333 0.000000
vt 0.000000 16.933333 0.000000
vt 0.352262 25.400000 0.000000
vt -0.000000 25.400000 0.000000
vt -0.000000 0.382443 0.000000
vt -0.000000 0.570795 0.000000
vt -8.466667 0.382443 0.000000
vt -0.000000 0.759146 0.000000
vt -8.466667 0.947498 0.000000
vt -0.000000 0.947498 0.000000
vt -16.933333 0.947498 0.000000
vt -16.933333 0.382443 0.000000
vt -25.400000 0.759146 0.000000
vt -25.400000 0.570795 0.000000
vt -25.400000 0.947498 0.000000
vt -25.400000 0.382443 0.000000
vt 0.352262 0.000000 0.000000
vt 0.352262 8.466667 0.000000
vt 0.000000 0.000000 0.000000
vt 0.000000 8.466667 0.000000
vt 0.352262 16.933333 0.000000
vt 0.000000 16.933333 0.000000
vt 0.352262 25.400000 0.000000
vt 0.000000 25.400000 0.000000
vt 0.000000 0.000000 0.000000
vt 0.762000 0.000000 0.000000
vt 0.000000 8.466667 0.000000
vt 0.762000 8.466667 0.000000
vt 0.000000 16.933333 0.000000
vt 0.762000 16.933333 0.000000
vt 0.000000 25.400000 0.000000
vt 0.762000 25.400000 0.000000
vt 0.352262 0.000000 0.000000
vt 0.352262 8.466667 0.000000
vt 0.000000 0.000000 0.000000
vt 0.000000 8.466667 0.000000
vt 0.352262 16.933333 0.000000
vt 0.000000 16.933333 0.000000
vt 0.352262 25.400000 0.000000
vt -0.000000 25.400000 0.000000
vt -0.000000 -0.947498 0.000000
vt -0.000000 -0.759146 0.000000
vt -8.466667 -0.947498 0.000000
vt -0.000000 -0.570795 0.000000
vt -8.466667 -0.382443 0.000000
vt -0.000000 -0.382443 0.000000
vt -16.933333 -0.382443 0.000000
vt -16.933333 -0.947498 0.000000
vt -25.400000 -0.570795 0.000000
vt -25.400000 -0.759146 0.000000
vt -25.400000 -0.382443 0.000000
vt -25.400000 -0.947498 0.000000
vt 0.352262 0.000000 0.000000
vt 0.352262 8.466667 0.000000
vt 0.000000 0.000000 0.000000
vt 0.000000 8.466667 0.000000
vt 0.352262 16.933333 0.000000
vt 0.000000 16.933333 0.000000
vt 0.352262 25.400000 0.000000
vt 0.000000 25.400000 0.000000
vt 0.000000 0.000000 0.000000
vt 0.762000 0.000000 0.000000
vt 0.000000 8.466667 0.000000
vt 0.762000 8.466667 0.000000
vt 0.000000 16.933333 0.000000
vt 0.762000 16.933333 0.000000
vt 0.000000 25.400000 0.000000
vt 0.762000 25.400000 0.000000
vt 0.352262 0.000000 0.000000
vt 0.352262 8.466667 0.000000
vt -0.000000 0.000000 0.000000
vt -0.000000 8.466667 0.000000
vt 0.352262 16.933333 0.000000
vt -0.000000 16.933333 0.000000
vt 0.352262 25.400000 0.000000
vt -0.000000 25.400000 0.000000
vt -0.000000 -2.277438 0.000000
vt -0.000000 -2.089087 0.000000
vt -8.466667 -2.277438 0.000000
vt -0.000000 -1.900736 0.000000
vt -8.466667 -1.712384 0.000000
vt -0.000000 -1.712384 0.000000
vt -16.933333 -1.712384 0.000000
vt -16.933333 -2.277438 0.000000
vt -25.400000 -1.900736 0.000000
vt -25.400000 -2.089087 0.000000
vt -25.400000 -1.712384 0.000000
vt -25.400000 -2.277438 0.000000
vt 0.352262 0.000000 0.000000
vt 0.352262 8.466667 0.000000
vt 0.000000 0.000000 0.000000
vt 0.000000 8.466667 0.000000
vt 0.352262 16.933333 0.000000
vt 0.000000 16.933333 0.000000
vt 0.352262 25.400000 0.000000
vt 0.000000 25.400000 0.000000
vt 0.000000 0.000000 0.000000
vt 0.762000 0.000000 0.000000
vt 0.000000 8.466667 0.000000
vt 0.762000 8.466667 0.000000
vt 0.000000 16.933333 0.000000
vt 0.762000 16.933333 0.000000
vt -0.000000 25.400000 0.000000
vt 0.762000 25.400000 0.000000
vt 0.352262 0.000000 0.000000
vt 0.352262 8.466667 0.000000
vt 0.000000 0.000000 0.000000
vt 0.000000 8.466667 0.000000
vt 0.352262 16.933333 0.000000
vt 0.000000 16.933333 0.000000
vt 0.352262 25.400000 0.000000
vt 0.000000 25.400000 0.000000
vt -0.000000 -3.607379 0.000000
vt -0.000000 -3.419028 0.000000
vt -8.466667 -3.607379 0.000000
vt -0.000000 -3.230677 0.000000
vt -8.466667 -3.042325 0.000000
vt -0.000000 -3.042325 0.000000
vt -16.933333 -3.042325 0.000000
vt -16.933333 -3.607379 0.000000
vt -25.400000 -3.230677 0.000000
vt -25.400000 -3.419028 0.000000
vt -25.400000 -3.042325 0.000000
vt -25.400000 -3.607379 0.000000
vt 0.352262 0.000000 0.000000
vt 0.352262 8.466667 0.000000
vt 0.000000 0.000000 0.000000
vt 0.000000 8.466667 0.000000
vt 0.352262 16.933333 0.000000
vt 0.000000 16.933333 0.000000
vt 0.352262 25.400000 0.000000
vt 0.000000 25.400000 0.000000
vt 0.000000 0.000000 0.000000
vt 0.762000 0.000000 0.000000
vt 0.000000 8.466667 0.000000
vt 0.762000 8.466667 0.000000
vt 0.000000 16.933333 0.000000
vt 0.762000 16.933333 0.000000
vt 0.000000 25.400000 0.000000
vt 0.762000 25.400000 0.000000
vt 0.352262 0.000000 0.000000
vt 0.352262 8.466667 0.000000
vt 0.000000 0.000000 0.000000
vt 0.000000 8.466667 0.000000
vt 0.352262 16.933333 0.000000
vt 0.000000 16.933333 0.000000
vt 0.352262 25.400000 0.000000
vt 0.000000 25.400000 0.000000
vt -0.000000 -4.937320 0.000000
vt -0.000000 -4.748969 0.000000
vt -8.466667 -4.937320 0.000000
vt -0.000000 -4.560618 0.000000
vt -8.466667 -4.372266 0.000000
vt -0.000000 -4.372266 0.000000
vt -16.933333 -4.372266 0.000000
vt -16.933333 -4.937320 0.000000
vt -25.400000 -4.560618 0.000000
vt -25.400000 -4.748969 0.000000
vt -25.400000 -4.372266 0.000000
vt -25.400000 -4.937320 0.000000
vt 0.352262 0.000000 0.000000
vt 0.352262 8.466667 0.000000
vt 0.000000 0.000000 0.000000
vt 0.000000 8.466667 0.000000
vt 0.352262 16.933333 0.000000
vt 0.000000 16.933333 0.000000
vt 0.352262 25.400000 0.000000
vt 0.000000 25.400000 0.000000
vt -0.000000 0.000000 0.000000
vt 0.762000 0.000000 0.000000
vt -0.000000 8.466667 0.000000
vt 0.762000 8.466667 0.000000
vt -0.000000 16.933333 0.000000
vt 0.762000 16.933333 0.000000
vt -0.000000 25.400000 0.000000
vt 0.762000 25.400000 0.000000
vt -0.749544 -2.060249 0.000000
vt 0.381000 -2.159000 0.000000
vt -1.409456 -1.679249 0.000000
vt 0.749544 -2.060249 0.000000
vt 1.409456 -1.679249 0.000000
vt -0.925676 -2.365317 0.000000
vt -0.747894 -2.427397 0.000000
vt -0.381000 -2.159000 0.000000
vt -0.566003 -2.476134 0.000000
vt -0.381000 -2.511263 0.000000
vt 0.381000 -2.511263 0.000000
vt 0.566003 -2.476134 0.000000
vt 0.747894 -2.427397 0.000000
vt 0.925676 -2.365317 0.000000
vt 1.585587 -1.984317 0.000000
vt 1.728240 -1.861394 0.000000
vt 1.861394 -1.728240 0.000000
vt 1.679249 -1.409456 0.000000
vt 1.984317 -1.585587 0.000000
vt -2.060249 -0.749544 0.000000
vt 2.060249 -0.749544 0.000000
vt -2.159000 -0.381000 0.000000
vt -2.159000 0.381000 0.000000
vt 2.159000 -0.381000 0.000000
vt -2.060249 0.749544 0.000000
vt 2.159000 0.381000 0.000000
vt 2.060249 0.749544 0.000000
vt 2.476134 0.566003 0.000000
vt 2.427397 0.747894 0.000000
vt 2.365317 -0.925676 0.000000
vt 2.427397 -0.747894 0.000000
vt 2.476134 -0.566003 0.000000
vt 2.511263 -0.381000 0.000000
vt 2.511263 0.381000 0.000000
vt 2.365317 0.925676 0.000000
vt 1.679249 1.409456 0.000000
vt -1.409456 1.679249 0.000000
vt -1.679249 1.409456 0.000000
vt 1.984317 1.585587 0.000000
vt 1.861394 1.728240 0.000000
vt 1.409456 1.679249 0.000000
vt -0.749544 2.060249 0.000000
vt -0.381000 2.159000 0.000000
vt -0.747894 2.427397 0.000000
vt -0.566003 2.476134 0.000000
vt -0.381000 2.511263 0.000000
vt 1.728240 1.861394 0.000000
vt 1.585587 1.984317 0.000000
vt 0.749544 2.060249 0.000000
vt 0.381000 2.159000 0.000000
vt 0.747894 2.427397 0.000000
vt 0.566003 2.476134 0.000000
vt 0.925676 2.365317 0.000000
vt 0.381000 2.511263 0.000000
vt -0.925676 2.365317 0.000000
vt -1.585587 1.984317 0.000000
vt -1.728240 1.861394 0.000000
vt -1.861394 1.728240 0.000000
vt -1.984317 1.585587 0.000000
vt -2.365317 0.925676 0.000000
vt -2.427397 0.747894 0.000000
vt -2.476134 0.566003 0.000000
vt -2.511263 0.381000 0.000000
vt -2.511263 -0.381000 0.000000
vt -2.476134 -0.566003 0.000000
vt -2.427397 -0.747894 0.000000
vt -2.365317 -0.925676 0.000000
vt -1.679249 -1.409456 0.000000
vt -1.984317 -1.585587 0.000000
vt -1.861394 -1.728240 0.000000
vt -1.728240 -1.861394 0.000000
vt -1.585587 -1.984317 0.000000
vt 1.409456 -1.679249 0.000000
vt -1.409456 -1.679249 0.000000
vt 0.749544 -2.060249 0.000000
vt 0.381000 -2.159000 0.000000
vt 0.747894 -2.427397 0.000000
vt 0.566003 -2.476134 0.000000
vt 0.381000 -2.511263 0.000000
vt 1.585587 -1.984317 0.000000
vt 1.728240 -1.861394 0.000000
vt 1.861394 -1.728240 0.000000
vt 1.679249 -1.409456 0.000000
vt 1.984317 -1.585587 0.000000
vt -2.060249 -0.749544 0.000000
vt 2.060249 -0.749544 0.000000
vt -2.159000 -0.381000 0.000000
vt -2.159000 0.381000 0.000000
vt 2.159000 -0.381000 0.000000
vt -2.060249 0.749544 0.000000
vt 2.159000 0.381000 0.000000
vt 2.060249 0.749544 0.000000
vt 2.476134 0.566003 0.000000
vt 2.427397 0.747894 0.000000
vt 2.365317 -0.925676 0.000000
vt 2.427397 -0.747894 0.000000
vt 2.476134 -0.566003 0.000000
vt 2.511263 -0.381000 0.000000
vt 2.511263 0.381000 0.000000
vt 2.365317 0.925676 0.000000
vt 1.679249 1.409456 0.000000
vt -1.409456 1.679249 0.000000
vt -1.679249 1.409456 0.000000
vt 1.984317 1.585587 0.000000
vt 1.861394 1.728240 0.000000
vt 1.409456 1.679249 0.000000
vt -0.749544 2.060249 0.000000
vt -0.381000 2.159000 0.000000
vt -0.747894 2.427397 0.000000
vt -0.566003 2.476134 0.000000
vt -0.381000 2.511263 0.000000
vt 1.728240 1.861394 0.000000
vt 1.585587 1.984317 0.000000
vt 0.749544 2.060249 0.000000
vt 0.381000 2.159000 0.000000
vt 0.747894 2.427397 0.000000
vt 0.566003 2.476134 0.000000
vt 0.925676 2.365317 0.000000
vt 0.381000 2.511263 0.000000
vt -0.925676 2.365317 0.000000
vt -1.585587 1.984317 0.000000
vt -1.728240 1.861394 0.000000
vt -1.861394 1.728240 0.000000
vt -1.984317 1.585587 0.000000
vt -2.365317 0.925676 0.000000
vt -2.427397 0.747894 0.000000
vt -2.476134 0.566003 0.000000
vt -2.511263 0.381000 0.000000
vt -2.511263 -0.381000 0.000000
vt -2.476134 -0.566003 0.000000
vt -2.427397 -0.747894 0.000000
vt -2.365317 -0.925676 0.000000
vt -1.679249 -1.409456 0.000000
vt -1.984317 -1.585587 0.000000
vt -1.861394 -1.728240 0.000000
vt -1.728240 -1.861394 0.000000
vt -1.585587 -1.984317 0.000000
vt -0.749544 -2.060249 0.000000
vt -0.381000 -2.159000 0.000000
vt -0.747894 -2.427397 0.000000
vt -0.566003 -2.476134 0.000000
vt -0.925676 -2.365317 0.000000
vt -0.381000 -2.511263 0.000000
vt 0.925676 -2.365317 0.000000
vn -0.866025 0.500000 0.000000
vn -0.866025 0.500000 0.000000
vn -0.866025 0.500000 0.000000
vn -0.866025 0.500000 0.000000
vn -0.866025 0.500000 0.000000
vn -0.866025 0.500000 0.000000
vn -0.866025 0.500000 0.000000
vn -0.866025 0.500000 0.000000
vn 0.781227 0.624247 -0.000000
vn 0.732832 0.680409 -0.000000
vn 0.781227 0.624247 -0.000000
vn 0.680409 0.732832 -0.000000
vn 0.624247 0.781227 -0.000000
vn 0.624247 0.781227 -0.000000
vn 0.624247 0.781227 -0.000000
vn 0.781227 0.624247 -0.000000
vn 0.680409 0.732832 -0.000000
vn 0.732832 0.680409 -0.000000
vn 0.624247 0.781227 -0.000000
vn 0.781227 0.624247 -0.000000
vn 0.500000 -0.866025 0.000000
vn 0.500000 -0.866025 0.000000
vn 0.500000 -0.866025 0.000000
vn 0.500000 -0.866025 0.000000
vn 0.500000 -0.866025 0.000000
vn 0.500000 -0.866025 0.000000
vn 0.500000 -0.866025 0.000000
vn 0.500000 -0.866025 0.000000
vn 0.866025 0.500000 -0.000000
vn 0.866025 0.500000 -0.000000
vn 0.866025 0.500000 -0.000000
vn 0.866025 0.500000 -0.000000
vn 0.866025 0.500000 -0.000000
vn 0.866025 0.500000 -0.000000
vn 0.866025 0.500000 -0.000000
vn 0.866025 0.500000 -0.000000
vn -0.500000 0.866025 0.000000
vn -0.500000 0.866025 0.000000
vn -0.500000 0.866025 0.000000
vn -0.500000 0.866025 0.000000
vn -0.500000 0.866025 0.000000
vn -0.500000 0.866025 0.000000
vn -0.500000 0.866025 0.000000
vn -0.500000 0.866025 0.000000
vn 0.988686 0.150000 -0.000000
vn 0.974856 0.222836 -0.000000
vn 0.988686 0.150000 -0.000000
vn 0.955668 0.294447 -0.000000
vn 0.931227 0.364439 -0.000000
vn 0.931227 0.364439 -0.000000
vn 0.931227 0.364439 -0.000000
vn 0.988686 0.150000 -0.000000
vn 0.955668 0.294447 -0.000000
vn 0.974856 0.222836 -0.000000
vn 0.931227 0.364439 -0.000000
vn 0.988686 0.150000 -0.000000
vn -0.000000 -1.000000 0.000000
vn -0.000000 -1.000000 0.000000
vn -0.000000 -1.000000 0.000000
vn -0.000000 -1.000000 0.000000
vn -0.000000 -1.000000 0.000000
vn -0.000000 -1.000000 0.000000
vn -0.000000 -1.000000 0.000000
vn -0.000000 -1.000000 0.000000
vn 1.000000 0.000000 0.000000
vn 1.000000 0.000000 0.000000
vn 1.000000 0.000000 0.000000
vn 1.000000 0.000000 0.000000
vn 1.000000 0.000000 0.000000
vn 1.000000 0.000000 0.000000
vn 1.000000 0.000000 0.000000
vn 1.000000 0.000000 0.000000
vn 0.000000 1.000000 -0.000000
vn 0.000000 1.000000 -0.000000
vn 0.000000 1.000000 -0.000000
vn 0.000000 1.000000 -0.000000
vn 0.000000 1.000000 -0.000000
vn 0.000000 1.000000 -0.000000
vn 0.000000 1.000000 -0.000000
vn 0.000000 1.000000 -0.000000
vn 0.931227 -0.364439 -0.000000
vn 0.955668 -0.294447 -0.000000
vn 0.931227 -0.364439 -0.000000
vn 0.974856 -0.222836 -0.000000
vn 0.988686 -0.150000 -0.000000
vn 0.988686 -0.150000 -0.000000
vn 0.988686 -0.150000 -0.000000
vn 0.931227 -0.364439 -0.000000
vn 0.974856 -0.222836 -0.000000
vn 0.955668 -0.294447 -0.000000
vn 0.988686 -0.150000 -0.000000
vn 0.931227 -0.364439 -0.000000
vn -0.500000 -0.866025 0.000000
vn -0.500000 -0.866025 0.000000
vn -0.500000 -0.866025 0.000000
vn -0.500000 -0.866025 0.000000
vn -0.500000 -0.866025 0.000000
vn -0.500000 -0.866025 0.000000
vn -0.500000 -0.866025 0.000000
vn -0.500000 -0.866025 0.000000
vn 0.866025 -0.500000 0.000000
vn 0.866025 -0.500000 0.000000
vn 0.866025 -0.500000 0.000000
vn 0.866025 -0.500000 0.000000
vn 0.866025 -0.500000 0.000000
vn 0.866025 -0.500000 0.000000
vn 0.866025 -0.500000 0.000000
vn 0.866025 -0.500000 0.000000
vn 0.500000 0.866025 -0.000000
vn 0.500000 0.866025 -0.000000
vn 0.500000 0.866025 -0.000000
vn 0.500000 0.866025 -0.000000
vn 0.500000 0.866025 -0.000000
vn 0.500000 0.866025 -0.000000
vn 0.500000 0.866025 -0.000000
vn 0.500000 0.866025 -0.000000
vn 0.624247 -0.781227 -0.000000
vn 0.680409 -0.732832 -0.000000
vn 0.624247 -0.781227 -0.000000
vn 0.732832 -0.680409 -0.000000
vn 0.781227 -0.624247 -0.000000
vn 0.781227 -0.624247 -0.000000
vn 0.781227 -0.624247 -0.000000
vn 0.624247 -0.781227 -0.000000
vn 0.732832 -0.680409 -0.000000
vn 0.680409 -0.732832 -0.000000
vn 0.781227 -0.624247 -0.000000
vn 0.624247 -0.781227 -0.000000
vn -0.866025 -0.500000 0.000000
vn -0.866025 -0.500000 0.000000
vn -0.866025 -0.500000 0.000000
vn -0.866025 -0.500000 0.000000
vn -0.866025 -0.500000 0.000000
vn -0.866025 -0.500000 0.000000
vn -0.866025 -0.500000 0.000000
vn -0.866025 -0.500000 0.000000
vn 0.500000 -0.866025 0.000000
vn 0.500000 -0.866025 0.000000
vn 0.500000 -0.866025 0.000000
vn 0.500000 -0.866025 0.000000
vn 0.500000 -0.866025 0.000000
vn 0.500000 -0.866025 0.000000
vn 0.500000 -0.866025 0.000000
vn 0.500000 -0.866025 0.000000
vn 0.866025 0.500000 -0.000000
vn 0.866025 0.500000 -0.000000
vn 0.866025 0.500000 -0.000000
vn 0.866025 0.500000 -0.000000
vn 0.866025 0.500000 -0.000000
vn 0.866025 0.500000 -0.000000
vn 0.866025 0.500000 -0.000000
vn 0.866025 0.500000 -0.000000
vn 0.150000 -0.988686 -0.000000
vn 0.222836 -0.974856 -0.000000
vn 0.150000 -0.988686 -0.000000
vn 0.294447 -0.955668 -0.000000
vn 0.364439 -0.931227 -0.000000
vn 0.364439 -0.931227 -0.000000
vn 0.364439 -0.931227 -0.000000
vn 0.150000 -0.988686 -0.000000
vn 0.294447 -0.955668 -0.000000
vn 0.222836 -0.974856 -0.000000
vn 0.364439 -0.931227 -0.000000
vn 0.150000 -0.988686 -0.000000
vn -1.000000 0.000000 0.000000
vn -1.000000 0.000000 0.000000
vn -1.000000 0.000000 0.000000
vn -1.000000 0.000000 0.000000
vn -1.000000 0.000000 0.000000
vn -1.000000 0.000000 0.000000
vn -1.000000 0.000000 0.000000
vn -1.000000 0.000000 0.000000
vn 0.000000 -1.000000 0.000000
vn 0.000000 -1.000000 0.000000
vn 0.000000 -1.000000 0.000000
vn 0.000000 -1.000000 0.000000
vn 0.000000 -1.000000 0.000000
vn 0.000000 -1.000000 0.000000
vn 0.000000 -1.000000 0.000000
vn 0.000000 -1.000000 0.000000
vn 1.000000 -0.000000 0.000000
vn 1.000000 -0.000000 0.000000
vn 1.000000 -0.000000 0.000000
vn 1.000000 -0.000000 0.000000
vn 1.000000 -0.000000 0.000000
vn 1.000000 -0.000000 0.000000
vn 1.000000 -0.000000 0.000000
vn 1.000000 -0.000000 0.000000
vn -0.364439 -0.931227 0.000000
vn -0.294447 -0.955668 0.000000
vn -0.364439 -0.931227 0.000000
vn -0.222836 -0.974856 0.000000
vn -0.150000 -0.988686 0.000000
vn -0.150000 -0.988686 0.000000
vn -0.150000 -0.988686 0.000000
vn -0.364439 -0.931227 0.000000
vn -0.222836 -0.974856 0.000000
vn -0.294447 -0.955668 0.000000
vn -0.150000 -0.988686 0.000000
vn -0.364439 -0.931227 0.000000
vn -0.866025 0.500000 0.000000
vn -0.866025 0.500000 0.000000
vn -0.866025 0.500000 0.000000
vn -0.866025 0.500000 0.000000
vn -0.866025 0.500000 0.000000
vn -0.866025 0.500000 0.000000
vn -0.866025 0.500000 0.000000
vn -0.866025 0.500000 0.000000
vn -0.500000 -0.866025 0.000000
vn -0.500000 -0.866025 0.000000
vn -0.500000 -0.866025 0.000000
vn -0.500000 -0.866025 0.000000
vn -0.500000 -0.866025 0.000000
vn -0.500000 -0.866025 0.000000
vn -0.500000 -0.866025 0.000000
vn -0.500000 -0.866025 0.000000
vn 0.866025 -0.500000 0.000000
vn 0.866025 -0.500000 0.000000
vn 0.866025 -0.500000 0.000000
vn 0.866025 -0.500000 0.000000
vn 0.866025 -0.500000 0.000000
vn 0.866025 -0.500000 0.000000
vn 0.866025 -0.500000 0.000000
vn 0.866025 -0.500000 0.000000
vn -0.781227 -0.624247 0.000000
vn -0.732832 -0.680409 0.000000
vn -0.781227 -0.624247 0.000000
vn -0.680409 -0.732832 0.000000
vn -0.624247 -0.781227 0.000000
vn -0.624247 -0.781227 0.000000
vn -0.624247 -0.781227 0.000000
vn -0.781227 -0.624247 0.000000
vn -0.680409 -0.732832 0.000000
vn -0.732832 -0.680409 0.000000
vn -0.624247 -0.781227 0.000000
vn -0.781227 -0.624247 0.000000
vn -0.500000 0.866025 0.000000
vn -0.500000 0.866025 0.000000
vn -0.500000 0.866025 0.000000
vn -0.500000 0.866025 0.000000
vn -0.500000 0.866025 0.000000
vn -0.500000 0.866025 0.000000
vn -0.500000 0.866025 0.000000
vn -0.500000 0.866025 0.000000
vn -0.866025 -0.500000 0.000000
vn -0.866025 -0.500000 0.000000
vn -0.866025 -0.500000 0.000000
vn -0.866025 -0.500000 0.000000
vn -0.866025 -0.500000 0.000000
vn -0.866025 -0.500000 0.000000
vn -0.866025 -0.500000 0.000000
vn -0.866025 -0.500000 0.000000
vn 0.500000 -0.866025 0.000000
vn 0.500000 -0.866025 0.000000
vn 0.500000 -0.866025 0.000000
vn 0.500000 -0.866025 0.000000
vn 0.500000 -0.866025 0.000000
vn 0.500000 -0.866025 0.000000
vn 0.500000 -0.866025 0.000000
vn 0.500000 -0.866025 0.000000
vn -0.988686 -0.150000 0.000000
vn -0.974856 -0.222836 0.000000
vn -0.988686 -0.150000 0.000000
vn -0.955668 -0.294447 0.000000
vn -0.931227 -0.364439 0.000000
vn -0.931227 -0.364439 0.000000
vn -0.931227 -0.364439 0.000000
vn -0.988686 -0.150000 0.000000
vn -0.955668 -0.294447 0.000000
vn -0.974856 -0.222836 0.000000
vn -0.931227 -0.364439 0.000000
vn -0.988686 -0.150000 0.000000
vn 0.000000 1.000000 -0.000000
vn 0.000000 1.000000 -0.000000
vn 0.000000 1.000000 -0.000000
vn 0.000000 1.000000 -0.000000
vn 0.000000 1.000000 -0.000000
vn 0.000000 1.000000 -0.000000
vn 0.000000 1.000000 -0.000000
vn 0.000000 1.000000 -0.000000
vn -1.000000 0.000000 0.000000
vn -1.000000 0.000000 0.000000
vn -1.000000 0.000000 0.000000
vn -1.000000 0.000000 0.000000
vn -1.000000 0.000000 0.000000
vn -1.000000 0.000000 0.000000
vn -1.000000 0.000000 0.000000
vn -1.000000 0.000000 0.000000
vn -0.000000 -1.000000 0.000000
vn -0.000000 -1.000000 0.000000
vn -0.000000 -1.000000 0.000000
vn -0.000000 -1.000000 0.000000
vn -0.000000 -1.000000 0.000000
vn -0.000000 -1.000000 0.000000
vn -0.000000 -1.000000 0.000000
vn -0.000000 -1.000000 0.000000
vn -0.931227 0.364439 -0.000000
vn -0.955668 0.294447 -0.000000
vn -0.931227 0.364439 -0.000000
vn -0.974856 0.222836 -0.000000
vn -0.988686 0.150000 -0.000000
vn -0.988686 0.150000 -0.000000
vn -0.988686 0.150000 -0.000000
vn -0.931227 0.364439 -0.000000
vn -0.974856 0.222836 -0.000000
vn -0.955668 0.294447 -0.000000
vn -0.988686 0.150000 -0.000000
vn -0.931227 0.364439 -0.000000
vn 0.500000 0.866025 -0.000000
vn 0.500000 0.866025 -0.000000
vn 0.500000 0.866025 -0.000000
vn 0.500000 0.866025 -0.000000
vn 0.500000 0.866025 -0.000000
vn 0.500000 0.866025 -0.000000
vn 0.500000 0.866025 -0.000000
vn 0.500000 0.866025 -0.000000
vn -0.866025 0.500000 0.000000
vn -0.866025 0.500000 0.000000
vn -0.866025 0.500000 0.000000
vn -0.866025 0.500000 0.000000
vn -0.866025 0.500000 0.000000
vn -0.866025 0.500000 0.000000
vn -0.866025 0.500000 0.000000
vn -0.866025 0.500000 0.000000
vn -0.500000 -0.866025 0.000000
vn -0.500000 -0.866025 0.000000
vn -0.500000 -0.866025 0.000000
vn -0.500000 -0.866025 0.000000
vn -0.500000 -0.866025 0.000000
vn -0.500000 -0.866025 0.000000
vn -0.500000 -0.866025 0.000000
vn -0.500000 -0.866025 0.000000
vn -0.624247 0.781227 -0.000000
vn -0.680409 0.732832 -0.000000
vn -0.624247 0.781227 -0.000000
vn -0.732832 0.680409 -0.000000
vn -0.781227 0.624247 -0.000000
vn -0.781227 0.624247 -0.000000
vn -0.781227 0.624247 -0.000000
vn -0.624247 0.781227 -0.000000
vn -0.732832 0.680409 -0.000000
vn -0.680409 0.732832 -0.000000
vn -0.781227 0.624247 -0.000000
vn -0.624247 0.781227 -0.000000
vn 0.866025 0.500000 -0.000000
vn 0.866025 0.500000 -0.000000
vn 0.866025 0.500000 -0.000000
vn 0.866025 0.500000 -0.000000
vn 0.866025 0.500000 -0.000000
vn 0.866025 0.500000 -0.000000
vn 0.866025 0.500000 -0.000000
vn 0.866025 0.500000 -0.000000
vn -0.500000 0.866025 0.000000
vn -0.500000 0.866025 0.000000
vn -0.500000 0.866025 0.000000
vn -0.500000 0.866025 0.000000
vn -0.500000 0.866025 0.000000
vn -0.500000 0.866025 0.000000
vn -0.500000 0.866025 0.000000
vn -0.500000 0.866025 0.000000
vn -0.866025 -0.500000 0.000000
vn -0.866025 -0.500000 0.000000
vn -0.866025 -0.500000 0.000000
vn -0.866025 -0.500000 0.000000
vn -0.866025 -0.500000 0.000000
vn -0.866025 -0.500000 0.000000
vn -0.866025 -0.500000 0.000000
vn -0.866025 -0.500000 0.000000
vn -0.150000 0.988686 -0.000000
vn -0.222836 0.974856 -0.000000
vn -0.150000 0.988686 -0.000000
vn -0.294447 0.955668 -0.000000
vn -0.364439 0.931227 -0.000000
vn -0.364439 0.931227 -0.000000
vn -0.364439 0.931227 -0.000000
vn -0.150000 0.988686 -0.000000
vn -0.294447 0.955668 -0.000000
vn -0.222836 0.974856 -0.000000
vn -0.364439 0.931227 -0.000000
vn -0.150000 0.988686 -0.000000
vn 1.000000 0.000000 0.000000
vn 1.000000 0.000000 0.000000
vn 1.000000 0.000000 0.000000
vn 1.000000 0.000000 0.000000
vn 1.000000 0.000000 0.000000
vn 1.000000 0.000000 0.000000
vn 1.000000 0.000000 0.000000
vn 1.000000 0.000000 0.000000
vn 0.000000 1.000000 -0.000000
vn 0.000000 1.000000 -0.000000
vn 0.000000 1.000000 -0.000000
vn 0.000000 1.000000 -0.000000
vn 0.000000 1.000000 -0.000000
vn 0.000000 1.000000 -0.000000
vn 0.000000 1.000000 -0.000000
vn 0.000000 1.000000 -0.000000
vn -1.000000 0.000000 0.000000
vn -1.000000 0.000000 0.000000
vn -1.000000 0.000000 0.000000
vn -1.000000 0.000000 0.000000
vn -1.000000 0.000000 0.000000
vn -1.000000 0.000000 0.000000
vn -1.000000 0.000000 0.000000
vn -1.000000 0.000000 0.000000
vn 0.364439 0.931227 -0.000000
vn 0.294447 0.955668 -0.000000
vn 0.364439 0.931227 -0.000000
vn 0.222836 0.974856 -0.000000
vn 0.150000 0.988686 -0.000000
vn 0.150000 0.988686 -0.000000
vn 0.150000 0.988686 -0.000000
vn 0.364439 0.931227 -0.000000
vn 0.222836 0.974856 -0.000000
vn 0.294447 0.955668 -0.000000
vn 0.150000 0.988686 -0.000000
vn 0.364439 0.931227 -0.000000
vn 0.866025 -0.500000 0.000000
vn 0.866025 -0.500000 0.000000
vn 0.866025 -0.500000 0.000000
vn 0.866025 -0.500000 0.000000
vn 0.866025 -0.500000 0.000000
vn 0.866025 -0.500000 0.000000
vn 0.866025 -0.500000 0.000000
vn 0.866025 -0.500000 0.000000
vn 0.500000 0.866025 -0.000000
vn 0.500000 0.866025 -0.000000
vn 0.500000 0.866025 -0.000000
vn 0.500000 0.866025 -0.000000
vn 0.500000 0.866025 -0.000000
vn 0.500000 0.866025 -0.000000
vn 0.500000 0.866025 -0.000000
vn 0.500000 0.866025 -0.000000
vn 0.000000 0.000000 1.000000
vn 0.000000 0.000000 1.000000
vn 0.000000 0.000000 1.000000
vn 0.000000 0.000000 1.000000
vn 0.000000 0.000000 1.000000
vn 0.000000 0.000000 1.000000
vn 0.000000 0.000000 1.000000
vn 0.000000 0.000000 1.000000
vn 0.000000 0.000000 1.000000
vn 0.000000 0.000000 1.000000
vn 0.000000 0.000000 1.000000
vn 0.000000 0.000000 1.000000
vn 0.000000 0.000000 1.000000
vn 0.000000 0.000000 1.000000
vn 0.000000 0.000000 1.000000
vn 0.000000 0.000000 1.000000
vn 0.000000 0.000000 1.000000
vn 0.000000 0.000000 1.000000
vn 0.000000 0.000000 1.000000
vn 0.000000 0.000000 1.000000
vn 0.000000 0.000000 1.000000
vn 0.000000 0.000000 1.000000
vn 0.000000 0.000000 1.000000
vn 0.000000 0.000000 1.000000
vn 0.000000 0.000000 1.000000
vn 0.000000 0.000000 1.000000
vn 0.000000 0.000000 1.000000
vn 0.000000 0.000000 1.000000
vn 0.000000 0.000000 1.000000
vn 0.000000 0.000000 1.000000
vn 0.000000 0.000000 1.000000
vn 0.000000 0.000000 1.000000
vn 0.000000 0.000000 1.000000
vn 0.000000 0.000000 1.000000
vn 0.000000 0.000000 1.000000
vn 0.000000 0.000000 1.000000
vn 0.000000 0.000000 1.000000
vn 0.000000 0.000000 1.000000
vn 0.000000 0.000000 1.000000
vn 0.000000 0.000000 1.000000
vn 0.000000 0.000000 1.000000
vn 0.000000 0.000000 1.000000
vn 0.000000 0.000000 1.000000
vn 0.000000 0.000000 1.000000
vn 0.000000 0.000000 1.000000
vn 0.000000 0.000000 1.000000
vn 0.000000 0.000000 1.000000
vn 0.000000 0.000000 1.000000
vn 0.000000 0.000000 1.000000
vn 0.000000 0.000000 1.000000
vn 0.000000 0.000000 1.000000
vn 0.000000 0.000000 1.000000
vn 0.000000 0.000000 1.000000
vn 0.000000 0.000000 1.000000
vn 0.000000 0.000000 1.000000
vn 0.000000 0.000000 1.000000
vn 0.000000 0.000000 1.000000
vn 0.000000 0.000000 1.000000
vn 0.000000 0.000000 1.000000
vn 0.000000 0.000000 1.000000
vn 0.000000 0.000000 1.000000
vn 0.000000 0.000000 1.000000
vn 0.000000 0.000000 1.000000
vn 0.000000 0.000000 1.000000
vn 0.000000 0.000000 1.000000
vn 0.000000 0.000000 1.000000
vn 0.000000 0.000000 1.000000
vn 0.000000 0.000000 1.000000
vn 0.000000 0.000000 1.000000
vn 0.000000 0.000000 1.000000
vn 0.000000 0.000000 1.000000
vn 0.000000 0.000000 1.000000
vn -0.000000 -0.000000 -1.000000
vn -0.000000 -0.000000 -1.000000
vn -0.000000 -0.000000 -1.000000
vn -0.000000 -0.000000 -1.000000
vn -0.000000 -0.000000 -1.000000
vn -0.000000 -0.000000 -1.000000
vn -0.000000 -0.000000 -1.000000
vn -0.000000 -0.000000 -1.000000
vn -0.000000 -0.000000 -1.000000
vn -0.000000 -0.000000 -1.000000
vn -0.000000 -0.000000 -1.000000
vn -0.000000 -0.000000 -1.000000
vn -0.000000 -0.000000 -1.000000
vn -0.000000 -0.000000 -1.000000
vn -0.000000 -0.000000 -1.000000
vn -0.000000 -0.000000 -1.000000
vn -0.000000 -0.000000 -1.000000
vn -0.000000 -0.000000 -1.000000
vn -0.000000 -0.000000 -1.000000
vn -0.000000 -0.000000 -1.000000
vn -0.000000 -0.000000 -1.000000
vn -0.000000 -0.000000 -1.000000
vn -0.000000 -0.000000 -1.000000
vn -0.000000 -0.000000 -1.000000
vn -0.000000 -0.000000 -1.000000
vn -0.000000 -0.000000 -1.000000
vn -0.000000 -0.000000 -1.000000
vn -0.000000 -0.000000 -1.000000
vn -0.000000 -0.000000 -1.000000
vn -0.000000 -0.000000 -1.000000
vn -0.000000 -0.000000 -1.000000
vn -0.000000 -0.000000 -1.000000
vn -0.000000 -0.000000 -1.000000
vn -0.000000 -0.000000 -1.000000
vn -0.000000 -0.000000 -1.000000
vn -0.000000 -0.000000 -1.000000
vn -0.000000 -0.000000 -1.000000
vn -0.000000 -0.000000 -1.000000
vn -0.000000 -0.000000 -1.000000
vn -0.000000 -0.000000 -1.000000
vn -0.000000 -0.000000 -1.000000
vn -0.000000 -0.000000 -1.000000
vn -0.000000 -0.000000 -1.000000
vn -0.000000 -0.000000 -1.000000
vn -0.000000 -0.000000 -1.000000
vn -0.000000 -0.000000 -1.000000
vn -0.000000 -0.000000 -1.000000
vn -0.000000 -0.000000 -1.000000
vn -0.000000 -0.000000 -1.000000
vn -0.000000 -0.000000 -1.000000
vn -0.000000 -0.000000 -1.000000
vn -0.000000 -0.000000 -1.000000
vn -0.000000 -0.000000 -1.000000
vn -0.000000 -0.000000 -1.000000
vn -0.000000 -0.000000 -1.000000
vn -0.000000 -0.000000 -1.000000
vn -0.000000 -0.000000 -1.000000
vn -0.000000 -0.000000 -1.000000
vn -0.000000 -0.000000 -1.000000
vn -0.000000 -0.000000 -1.000000
vn -0.000000 -0.000000 -1.000000
vn -0.000000 -0.000000 -1.000000
vn -0.000000 -0.000000 -1.000000
vn -0.000000 -0.000000 -1.000000
vn -0.000000 -0.000000 -1.000000
vn -0.000000 -0.000000 -1.000000
vn -0.000000 -0.000000 -1.000000
vn -0.000000 -0.000000 -1.000000
vn -0.000000 -0.000000 -1.000000
vn -0.000000 -0.000000 -1.000000
vn -0.000000 -0.000000 -1.000000
vn -0.000000 -0.000000 -1.000000
f 86/171/169 87/172/170 85/173/171
f 85/173/171 87/172/170 92/174/172
f 92/174/172 87/172/170 88/175/173
f 92/174/172 88/175/173 91/176/174
f 91/176/174 88/175/173 89/177/175
f 91/176/174 89/177/175 90/178/176
f 93/179/177 94/180/178 100/181/179
f 100/181/179 94/180/178 95/182/180
f 100/181/179 95/182/180 92/183/181
f 92/183/181 95/182/180 85/184/182
f 92/183/181 91/185/183 100/181/179
f 100/181/179 91/185/183 99/186/184
f 99/186/184 91/185/183 96/187/185
f 99/186/184 96/187/185 97/188/186
f 91/185/183 90/189/187 96/187/185
f 97/188/186 98/190/188 99/186/184
f 93/191/189 100/192/190 101/193/191
f 101/193/191 100/192/190 104/194/192
f 104/194/192 100/192/190 99/195/193
f 104/194/192 99/195/193 103/196/194
f 103/196/194 99/195/193 98/197/195
f 103/196/194 98/197/195 102/198/196
f 105/199/197 101/200/198 108/201/199
f 108/201/199 101/200/198 104/202/200
f 108/201/199 104/202/200 107/203/201
f 107/203/201 104/202/200 103/204/202
f 107/203/201 103/204/202 106/205/203
f 106/205/203 103/204/202 102/206/204
f 105/207/205 108/208/206 109/209/207
f 109/209/207 108/208/206 112/210/208
f 112/210/208 108/208/206 107/211/209
f 112/210/208 107/211/209 111/212/210
f 111/212/210 107/211/209 106/213/211
f 111/212/210 106/213/211 110/214/212
f 113/215/213 114/216/214 120/217/215
f 120/217/215 114/216/214 115/218/216
f 120/217/215 115/218/216 112/219/217
f 112/219/217 115/218/216 109/220/218
f 112/219/217 111/221/219 120/217/215
f 120/217/215 111/221/219 119/222/220
f 119/222/220 111/221/219 116/223/221
f 119/222/220 116/223/221 117/224/222
f 111/221/219 110/225/223 116/223/221
f 117/224/222 118/226/224 119/222/220
f 113/227/225 120/228/226 121/229/227
f 121/229/227 120/228/226 124/230/228
f 124/230/228 120/228/226 119/231/229
f 124/230/228 119/231/229 123/232/230
f 123/232/230 119/231/229 118/233/231
f 123/232/230 118/233/231 122/234/232
f 125/235/233 121/236/234 128/237/235
f 128/237/235 121/236/234 124/238/236
f 128/237/235 124/238/236 127/239/237
f 127/239/237 124/238/236 123/240/238
f 127/239/237 123/240/238 126/241/239
f 126/241/239 123/240/238 122/242/240
f 125/243/241 128/244/242 129/245/243
f 129/245/243 128/244/242 132/246/244
f 132/246/244 128/244/242 127/247/245
f 132/246/244 127/247/245 131/248/246
f 131/248/246 127/247/245 126/249/247
f 131/248/246 126/249/247 130/250/248
f 133/251/249 134/252/250 140/253/251
f 140/253/251 134/252/250 135/254/252
f 140/253/251 135/254/252 132/255/253
f 132/255/253 135/254/252 129/256/254
f 132/255/253 131/257/255 140/253/251
f 140/253/251 131/257/255 139/258/256
f 139/258/256 131/257/255 136/259/257
f 139/258/256 136/259/257 137/260/258
f 131/257/255 130/261/259 136/259/257
f 137/260/258 138/262/260 139/258/256
f 133/263/261 140/264/262 141/265/263
f 141/265/263 140/264/262 144/266/264
f 144/266/264 140/264/262 139/267/265
f 144/266/264 139/267/265 143/268/266
f 143/268/266 139/267/265 138/269/267
f 143/268/266 138/269/267 142/270/268
f 145/271/269 141/272/270 148/273/271
f 148/273/271 141/272/270 144/274/272
f 148/273/271 144/274/272 147/275/273
f 147/275/273 144/274/272 143/276/274
f 147/275/273 143/276/274 146/277/275
f 146/277/275 143/276/274 142/278/276
f 145/279/277 148/280/278 149/281/279
f 149/281/279 148/280/278 152/282/280
f 152/282/280 148/280/278 147/283/281
f 152/282/280 147/283/281 151/284/282
f 151/284/282 147/283/281 146/285/283
f 151/284/282 146/285/283 150/286/284
f 153/287/285 154/288/286 160/289/287
f 160/289/287 154/288/286 155/290/288
f 160/289/287 155/290/288 152/291/289
f 152/291/289 155/290/288 149/292/290
f 152/291/289 151/293/291 160/289/287
f 160/289/287 151/293/291 159/294/292
f 159/294/292 151/293/291 156/295/293
f 159/294/292 156/295/293 157/296/294
f 151/293/291 150/297/295 156/295/293
f 157/296/294 158/298/296 159/294/292
f 153/299/297 160/300/298 161/301/299
f 161/301/299 160/300/298 164/302/300
f 164/302/300 160/300/298 159/303/301
f 164/302/300 159/303/301 163/304/302
f 163/304/302 159/303/301 158/305/303
f 163/304/302 158/305/303 162/306/304
f 165/307/305 161/308/306 168/309/307
f 168/309/307 161/308/306 164/310/308
f 168/309/307 164/310/308 167/311/309
f 167/311/309 164/310/308 163/312/310
f 167/311/309 163/312/310 166/313/311
f 166/313/311 163/312/310 162/314/312
f 165/315/313 168/316/314 169/317/315
f 169/317/315 168/316/314 172/318/316
f 172/318/316 168/316/314 167/319/317
f 172/318/316 167/319/317 171/320/318
f 171/320/318 167/319/317 166/321/319
f 171/320/318 166/321/319 170/322/320
f 173/323/321 174/324/322 180/325/323
f 180/325/323 174/324/322 175/326/324
f 180/325/323 175/326/324 172/327/325
f 172/327/325 175/326/324 169/328/326
f 172/327/325 171/329/327 180/325/323
f 180/325/323 171/329/327 179/330/328
f 179/330/328 171/329/327 176/331/329
f 179/330/328 176/331/329 177/332/330
f 171/329/327 170/333/331 176/331/329
f 177/332/330 178/334/332 179/330/328
f 173/335/333 180/336/334 181/337/335
f 181/337/335 180/336/334 184/338/336
f 184/338/336 180/336/334 179/339/337
f 184/338/336 179/339/337 183/340/338
f 183/340/338 179/339/337 178/341/339
f 183/340/338 178/341/339 182/342/340
f 185/343/341 181/344/342 188/345/343
f 188/345/343 181/344/342 184/346/344
f 188/345/343 184/346/344 187/347/345
f 187/347/345 184/346/344 183/348/346
f 187/347/345 183/348/346 186/349/347
f 186/349/347 183/348/346 182/350/348
f 185/351/349 188/352/350 189/353/351
f 189/353/351 188/352/350 192/354/352
f 192/354/352 188/352/350 187/355/353
f 192/354/352 187/355/353 191/356/354
f 191/356/354 187/355/353 186/357/355
f 191/356/354 186/357/355 190/358/356
f 193/359/357 194/360/358 200/361/359
f 200/361/359 194/360/358 195/362/360
f 200/361/359 195/362/360 192/363/361
f 192/363/361 195/362/360 189/364/362
f 192/363/361 191/365/363 200/361/359
f 200/361/359 191/365/363 199/366/364
f 199/366/364 191/365/363 196/367/365
f 199/366/364 196/367/365 197/368/366
f 191/365/363 190/369/367 196/367/365
f 197/368/366 198/370/368 199/366/364
f 193/371/369 200/372/370 201/373/371
f 201/373/371 200/372/370 204/374/372
f 204/374/372 200/372/370 199/375/373
f 204/374/372 199/375/373 203/376/374
f 203/376/374 199/375/373 198/377/375
f 203/376/374 198/377/375 202/378/376
f 205/379/377 201/380/378 208/381/379
f 208/381/379 201/380/378 204/382/380
f 208/381/379 204/382/380 207/383/381
f 207/383/381 204/382/380 203/384/382
f 207/383/381 203/384/382 206/385/383
f 206/385/383 203/384/382 202/386/384
f 205/387/385 208/388/386 209/389/387
f 209/389/387 208/388/386 212/390/388
f 212/390/388 208/388/386 207/391/389
f 212/390/388 207/391/389 211/392/390
f 211/392/390 207/391/389 206/393/391
f 211/392/390 206/393/391 210/394/392
f 213/395/393 214/396/394 220/397/395
f 220/397/395 214/396/394 215/398/396
f 220/397/395 215/398/396 212/399/397
f 212/399/397 215/398/396 209/400/398
f 212/399/397 211/401/399 220/397/395
f 220/397/395 211/401/399 219/402/400
f 219/402/400 211/401/399 216/403/401
f 219/402/400 216/403/401 217/404/402
f 211/401/399 210/405/403 216/403/401
f 217/404/402 218/406/404 219/402/400
f 213/407/405 220/408/406 221/409/407
f 221/409/407 220/408/406 224/410/408
f 224/410/408 220/408/406 219/411/409
f 224/410/408 219/411/409 223/412/410
f 223/412/410 219/411/409 218/413/411
f 223/412/410 218/413/411 222/414/412
f 225/415/413 221/416/414 228/417/415
f 228/417/415 221/416/414 224/418/416
f 228/417/415 224/418/416 227/419/417
f 227/419/417 224/418/416 223/420/418
f 227/419/417 223/420/418 226/421/419
f 226/421/419 223/420/418 222/422/420
f 225/423/421 228/424/422 229/425/423
f 229/425/423 228/424/422 232/426/424
f 232/426/424 228/424/422 227/427/425
f 232/426/424 227/427/425 231/428/426
f 231/428/426 227/427/425 226/429/427
f 231/428/426 226/429/427 230/430/428
f 233/431/429 234/432/430 240/433/431
f 240/433/431 234/432/430 235/434/432
f 240/433/431 235/434/432 232/435/433
f 232/435/433 235/434/432 229/436/434
f 232/435/433 231/437/435 240/433/431
f 240/433/431 231/437/435 239/438/436
f 239/438/436 231/437/435 236/439/437
f 239/438/436 236/439/437 237/440/438
f 231/437/435 230/441/439 236/439/437
f 237/440/438 238/442/440 239/438/436
f 233/443/441 240/444/442 241/445/443
f 241/445/443 240/444/442 244/446/444
f 244/446/444 240/444/442 239/447/445
f 244/446/444 239/447/445 243/448/446
f 243/448/446 239/447/445 238/449/447
f 243/448/446 238/449/447 242/450/448
f 245/451/449 241/452/450 248/453/451
f 248/453/451 241/452/450 244/454/452
f 248/453/451 244/454/452 247/455/453
f 247/455/453 244/454/452 243/456/454
f 247/455/453 243/456/454 246/457/455
f 246/457/455 243/456/454 242/458/456
f 245/459/457 248/460/458 249/461/459
f 249/461/459 248/460/458 252/462/460
f 252/462/460 248/460/458 247/463/461
f 252/462/460 247/463/461 251/464/462
f 251/464/462 247/463/461 246/465/463
f 251/464/462 246/465/463 250/466/464
f 253/467/465 254/468/466 260/469/467
f 260/469/467 254/468/466 255/470/468
f 260/469/467 255/470/468 252/471/469
f 252/471/469 255/470/468 249/472/470
f 252/471/469 251/473/471 260/469/467
f 260/469/467 251/473/471 259/474/472
f 259/474/472 251/473/471 256/475/473
f 259/474/472 256/475/473 257/476/474
f 251/473/471 250/477/475 256/475/473
f 257/476/474 258/478/476 259/474/472
f 253/479/477 260/480/478 261/481/479
f 261/481/479 260/480/478 264/482/480
f 264/482/480 260/480/478 259/483/481
f 264/482/480 259/483/481 263/484/482
f 263/484/482 259/483/481 258/485/483
f 263/484/482 258/485/483 262/486/484
f 265/487/485 261/488/486 268/489/487
f 268/489/487 261/488/486 264/490/488
f 268/489/487 264/490/488 267/491/489
f 267/491/489 264/490/488 263/492/490
f 267/491/489 263/492/490 266/493/491
f 266/493/491 263/492/490 262/494/492
f 265/495/493 268/496/494 269/497/495
f 269/497/495 268/496/494 272/498/496
f 272/498/496 268/496/494 267/499/497
f 272/498/496 267/499/497 271/500/498
f 271/500/498 267/499/497 266/501/499
f 271/500/498 266/501/499 270/502/500
f 273/503/501 274/504/502 280/505/503
f 280/505/503 274/504/502 275/506/504
f 280/505/503 275/506/504 272/507/505
f 272/507/505 275/506/504 269/508/506
f 272/507/505 271/509/507 280/505/503
f 280/505/503 271/509/507 279/510/508
f 279/510/508 271/509/507 276/511/509
f 279/510/508 276/511/509 277/512/510
f 271/509/507 270/513/511 276/511/509
f 277/512/510 278/514/512 279/510/508
f 273/515/513 280/516/514 281/517/515
f 281/517/515 280/516/514 284/518/516
f 284/518/516 280/516/514 279/519/517
f 284/518/516 279/519/517 283/520/518
f 283/520/518 279/519/517 278/521/519
f 283/520/518 278/521/519 282/522/520
f 285/523/521 281/524/522 288/525/523
f 288/525/523 281/524/522 284/526/524
f 288/525/523 284/526/524 287/527/525
f 287/527/525 284/526/524 283/528/526
f 287/527/525 283/528/526 286/529/527
f 286/529/527 283/528/526 282/530/528
f 285/531/529 288/532/530 289/533/531
f 289/533/531 288/532/530 292/534/532
f 292/534/532 288/532/530 287/535/533
f 292/534/532 287/535/533 291/536/534
f 291/536/534 287/535/533 286/537/535
f 291/536/534 286/537/535 290/538/536
f 293/539/537 294/540/538 300/541/539
f 300/541/539 294/540/538 295/542/540
f 300/541/539 295/542/540 292/543/541
f 292/543/541 295/542/540 289/544/542
f 292/543/541 291/545/543 300/541/539
f 300/541/539 291/545/543 299/546/544
f 299/546/544 291/545/543 296/547/545
f 299/546/544 296/547/545 297/548/546
f 291/545/543 290/549/547 296/547/545
f 297/548/546 298/550/548 299/546/544
f 293/551/549 300/552/550 301/553/551
f 301/553/551 300/552/550 304/554/552
f 304/554/552 300/552/550 299/555/553
f 304/554/552 299/555/553 303/556/554
f 303/556/554 299/555/553 298/557/555
f 303/556/554 298/557/555 302/558/556
f 305/559/557 301/560/558 308/561/559
f 308/561/559 301/560/558 304/562/560
f 308/561/559 304/562/560 307/563/561
f 307/563/561 304/562/560 303/564/562
f 307/563/561 303/564/562 306/565/563
f 306/565/563 303/564/562 302/566/564
f 305/567/565 308/568/566 309/569/567
f 309/569/567 308/568/566 312/570/568
f 312/570/568 308/568/566 307/571/569
f 312/570/568 307/571/569 311/572/570
f 311/572/570 307/571/569 306/573/571
f 311/572/570 306/573/571 310/574/572
f 313/575/573 314/576/574 320/577/575
f 320/577/575 314/576/574 315/578/576
f 320/577/575 315/578/576 312/579/577
f 312/579/577 315/578/576 309/580/578
f 312/579/577 311/581/579 320/577/575
f 320/577/575 311/581/579 319/582/580
f 319/582/580 311/581/579 316/583/581
f 319/582/580 316/583/581 317/584/582
f 311/581/579 310/585/583 316/583/581
f 317/584/582 318/586/584 319/582/580
f 313/587/585 320/588/586 321/589/587
f 321/589/587 320/588/586 324/590/588
f 324/590/588 320/588/586 319/591/589
f 324/590/588 319/591/589 323/592/590
f 323/592/590 319/591/589 318/593/591
f 323/592/590 318/593/591 322/594/592
f 86/595/593 321/596/594 87/597/595
f 87/597/595 321/596/594 324/598/596
f 87/597/595 324/598/596 88/599/597
f 88/599/597 324/598/596 323/600/598
f 88/599/597 323/600/598 89/601/599
f 89/601/599 323/600/598 322/602/600
f 322/603/601 302/604/602 89/605/603
f 89/605/603 302/604/602 286/606/604
f 89/605/603 286/606/604 282/607/605
f 318/608/606 317/609/607 322/603/601
f 322/603/601 317/609/607 306/610/608
f 322/603/601 306/610/608 302/604/602
f 317/609/607 316/611/609 306/610/608
f 306/610/608 316/611/609 310/612/610
f 298/613/611 297/614/612 302/604/602
f 302/604/602 297/614/612 296/615/613
f 302/604/602 296/615/613 286/606/604
f 286/606/604 296/615/613 290/616/614
f 278/617/615 277/618/616 282/607/605
f 282/607/605 277/618/616 276/619/617
f 282/607/605 276/619/617 266/620/618
f 266/620/618 276/619/617 270/621/619
f 282/607/605 266/620/618 106/622/620
f 106/622/620 266/620/618 262/623/621
f 106/622/620 262/623/621 122/624/622
f 122/624/622 262/623/621 126/625/623
f 126/625/623 262/623/621 246/626/624
f 126/625/623 246/626/624 142/627/625
f 142/627/625 246/626/624 242/628/626
f 142/627/625 242/628/626 226/629/627
f 226/629/627 242/628/626 237/630/628
f 226/629/627 237/630/628 236/631/629
f 258/632/630 257/633/631 262/623/621
f 262/623/621 257/633/631 246/626/624
f 257/633/631 256/634/632 246/626/624
f 246/626/624 256/634/632 250/635/633
f 242/628/626 238/636/634 237/630/628
f 236/631/629 230/637/635 226/629/627
f 222/638/636 162/639/637 226/629/627
f 226/629/627 162/639/637 146/640/638
f 226/629/627 146/640/638 142/627/625
f 218/641/639 217/642/640 222/638/636
f 222/638/636 217/642/640 206/643/641
f 222/638/636 206/643/641 162/639/637
f 162/639/637 206/643/641 166/644/642
f 166/644/642 206/643/641 182/645/643
f 166/644/642 182/645/643 176/646/644
f 176/646/644 182/645/643 177/647/645
f 177/647/645 182/645/643 178/648/646
f 217/642/640 216/649/647 206/643/641
f 206/643/641 216/649/647 210/650/648
f 206/643/641 202/651/649 182/645/643
f 182/645/643 202/651/649 186/652/650
f 186/652/650 202/651/649 197/653/651
f 186/652/650 197/653/651 196/654/652
f 202/651/649 198/655/653 197/653/651
f 196/654/652 190/656/654 186/652/650
f 176/646/644 170/657/655 166/644/642
f 158/658/656 157/659/657 162/639/637
f 162/639/637 157/659/657 156/660/658
f 162/639/637 156/660/658 146/640/638
f 146/640/638 156/660/658 150/661/659
f 138/662/660 137/663/661 142/627/625
f 142/627/625 137/663/661 136/664/662
f 142/627/625 136/664/662 126/625/623
f 126/625/623 136/664/662 130/665/663
f 118/666/664 117/667/665 122/624/622
f 122/624/622 117/667/665 116/668/666
f 122/624/622 116/668/666 106/622/620
f 106/622/620 116/668/666 110/669/667
f 106/622/620 102/670/668 282/607/605
f 282/607/605 102/670/668 89/605/603
f 98/671/669 97/672/670 102/670/668
f 102/670/668 97/672/670 89/605/603
f 97/672/670 96/673/671 89/605/603
f 89/605/603 96/673/671 90/674/672
f 86/675/673 281/676/674 321/677/675
f 321/677/675 281/676/674 305/678/676
f 321/677/675 305/678/676 314/679/677
f 314/679/677 305/678/676 315/680/678
f 315/680/678 305/678/676 309/681/679
f 85/682/680 95/683/681 86/675/673
f 86/675/673 95/683/681 94/684/682
f 86/675/673 94/684/682 101/685/683
f 101/685/683 94/684/682 93/686/684
f 86/675/673 101/685/683 261/687/685
f 261/687/685 101/685/683 105/688/686
f 261/687/685 105/688/686 245/689/687
f 245/689/687 105/688/686 241/690/688
f 241/690/688 105/688/686 121/691/689
f 241/690/688 121/691/689 225/692/690
f 225/692/690 121/691/689 125/693/691
f 225/692/690 125/693/691 141/694/692
f 141/694/692 125/693/691 135/695/693
f 141/694/692 135/695/693 134/696/694
f 109/697/695 115/698/696 105/688/686
f 105/688/686 115/698/696 121/691/689
f 115/698/696 114/699/697 121/691/689
f 121/691/689 114/699/697 113/700/698
f 125/693/691 129/701/699 135/695/693
f 134/696/694 133/702/700 141/694/692
f 145/703/701 205/704/702 141/694/692
f 141/694/692 205/704/702 221/705/703
f 141/694/692 221/705/703 225/692/690
f 149/706/704 155/707/705 145/703/701
f 145/703/701 155/707/705 161/708/706
f 145/703/701 161/708/706 205/704/702
f 205/704/702 161/708/706 201/709/707
f 201/709/707 161/708/706 185/710/708
f 201/709/707 185/710/708 194/711/709
f 194/711/709 185/710/708 195/712/710
f 195/712/710 185/710/708 189/713/711
f 155/707/705 154/714/712 161/708/706
f 161/708/706 154/714/712 153/715/713
f 161/708/706 165/716/714 185/710/708
f 185/710/708 165/716/714 181/717/715
f 181/717/715 165/716/714 175/718/716
f 181/717/715 175/718/716 174/719/717
f 165/716/714 169/720/718 175/718/716
f 174/719/717 173/721/719 181/717/715
f 194/711/709 193/722/720 201/709/707
f 209/723/721 215/724/722 205/704/702
f 205/704/702 215/724/722 214/725/723
f 205/704/702 214/725/723 221/705/703
f 221/705/703 214/725/723 213/726/724
f 229/727/725 235/728/726 225/692/690
f 225/692/690 235/728/726 234/729/727
f 225/692/690 234/729/727 241/690/688
f 241/690/688 234/729/727 233/730/728
f 249/731/729 255/732/730 245/689/687
f 245/689/687 255/732/730 254/733/731
f 245/689/687 254/733/731 261/687/685
f 261/687/685 254/733/731 253/734/732
f 261/687/685 265/735/733 86/675/673
f 86/675/673 265/735/733 281/676/674
f 269/736/734 275/737/735 265/735/733
f 265/735/733 275/737/735 281/676/674
f 275/737/735 274/738/736 281/676/674
f 281/676/674 274/738/736 273/739/737
f 281/676/674 285/740/738 305/678/676
f 305/678/676 285/740/738 301/741/739
f 301/741/739 285/740/738 295/742/740
f 301/741/739 295/742/740 294/743/741
f 285/740/738 289/744/742 295/742/740
f 294/743/741 293/745/743 301/741/739
f 314/679/677 313/746/744 321/677/675
g Body3

v -5.080000 -0.000000 26.670000
v -5.023261 0.757135 26.670000
v -4.854310 1.497356 26.670000
v -4.576922 2.204129 26.670000
v -4.197293 2.861666 26.670000
v -3.723904 3.455278 26.670000
v -3.167328 3.971704 26.670000
v -2.540000 4.399409 26.670000
v -1.855932 4.728839 26.670000
v -1.130406 4.952634 26.670000
v -0.379629 5.065795 26.670000
v 0.379629 5.065795 26.670000
v 1.130406 4.952634 26.670000
v 1.855932 4.728839 26.670000
v 2.540000 4.399409 26.670000
v 3.167328 3.971704 26.670000
v 3.723904 3.455278 26.670000
v 4.197293 2.861666 26.670000
v 4.576922 2.204129 26.670000
v 4.854310 1.497356 26.670000
v 5.023261 0.757135 26.670000
v 5.080000 0.000000 26.670000
v 5.023261 -0.757135 26.670000
v 4.854310 -1.497356 26.670000
v 4.576922 -2.204129 26.670000
v 4.197293 -2.861666 26.670000
v 3.723904 -3.455278 26.670000
v 3.167328 -3.971704 26.670000
v 2.540000 -4.399409 26.670000
v 1.855932 -4.728839 26.670000
v 1.130406 -4.952634 26.670000
v 0.379629 -5.065795 26.670000
v -0.379629 -5.065795 26.670000
v -1.130406 -4.952634 26.670000
v -1.855932 -4.728839 26.670000
v -2.540000 -4.399409 26.670000
v -3.167328 -3.971704 26.670000
v -3.723904 -3.455278 26.670000
v -4.197293 -2.861666 26.670000
v -4.576922 -2.204129 26.670000
v -4.854310 -1.497356 26.670000
v -5.023261 -0.757135 26.670000
v -5.080000 -0.000000 26.035000
v -5.023261 -0.757135 26.035000
v -4.854310 -1.497356 26.035000
v -4.576922 -2.204129 26.035000
v -4.197293 -2.861666 26.035000
v -3.723904 -3.455278 26.035000
v -3.167328 -3.971704 26.035000
v -2.540000 -4.399409 26.035000
v -1.855932 -4.728839 26.035000
v -1.130406 -4.952634 26.035000
v -0.379629 -5.065795 26.035000
v 0.379629 -5.065795 26.035000
v 1.130406 -4.952634 26.035000
v 1.855932 -4.728839 26.035000
v 2.540000 -4.399409 26.035000
v 3.167328 -3.971704 26.035000
v 3.723904 -3.455278 26.035000
v 4.197293 -2.861666 26.035000
v 4.576922 -2.204129 26.035000
v 4.854310 -1.497356 26.035000
v 5.023261 -0.757135 26.035000
v 5.080000 0.000000 26.035000
v 5.023261 0.757135 26.035000
v 4.854310 1.497356 26.035000
v 4.576922 2.204129 26.035000
v 4.197293 2.861666 26.035000
v 3.723904 3.455278 26.035000
v 3.167328 3.971704 26.035000
v 2.540000 4.399409 26.035000
v 1.855932 4.728839 26.035000
v 1.130406 4.952634 26.035000
v 0.379629 5.065795 26.035000
v -0.379629 5.065795 26.035000
v -1.130406 4.952634 26.035000
v -1.855932 4.728839 26.035000
v -2.540000 4.399409 26.035000
v -3.167328 3.971704 26.035000
v -3.723904 3.455278 26.035000
v -4.197293 2.861666 26.035000
v -4.576922 2.204129 26.035000
v -4.854310 1.497356 26.035000
v -5.023261 0.757135 26.035000
vt -0.635000 15.199325 0.000000
vt -0.000000 15.199325 0.000000
vt -0.635000 15.959291 0.000000
vt -0.000000 15.959291 0.000000
vt -0.635000 -15.959291 0.000000
vt -0.000000 -15.959291 0.000000
vt -0.635000 -15.199325 0.000000
vt -0.000000 -15.199325 0.000000
vt -0.635000 -14.439359 0.000000
vt -0.000000 -14.439359 0.000000
vt -0.635000 -13.679392 0.000000
vt -0.000000 -13.679392 0.000000
vt -0.635000 -12.919426 0.000000
vt -0.000000 -12.919426 0.000000
vt -0.635000 -12.159460 0.000000
vt -0.000000 -12.159460 0.000000
vt -0.635000 -11.399494 0.000000
vt -0.000000 -11.399494 0.000000
vt -0.635000 -10.639527 0.000000
vt -0.000000 -10.639527 0.000000
vt -0.635000 -9.879561 0.000000
vt -0.000000 -9.879561 0.000000
vt -0.635000 -9.119595 0.000000
vt -0.000000 -9.119595 0.000000
vt -0.635000 -8.359629 0.000000
vt -0.000000 -8.359629 0.000000
vt -0.635000 -7.599662 0.000000
vt -0.000000 -7.599662 0.000000
vt -0.635000 -6.839696 0.000000
vt -0.000000 -6.839696 0.000000
vt -0.635000 -6.079730 0.000000
vt -0.000000 -6.079730 0.000000
vt -0.635000 -5.319764 0.000000
vt -0.000000 -5.319764 0.000000
vt -0.635000 -4.559797 0.000000
vt -0.000000 -4.559797 0.000000
vt -0.635000 -3.799831 0.000000
vt -0.000000 -3.799831 0.000000
vt -0.635000 -3.039865 0.000000
vt -0.000000 -3.039865 0.000000
vt -0.635000 -2.279899 0.000000
vt -0.000000 -2.279899 0.000000
vt -0.635000 -1.519932 0.000000
vt -0.000000 -1.519932 0.000000
vt -0.635000 -0.759966 0.000000
vt -0.000000 -0.759966 0.000000
vt -0.635000 0.000000 0.000000
vt -0.000000 0.000000 0.000000
vt -0.635000 0.759966 0.000000
vt -0.000000 0.759966 0.000000
vt -0.635000 1.519932 0.000000
vt -0.000000 1.519932 0.000000
vt -0.635000 2.279899 0.000000
vt -0.000000 2.279899 0.000000
vt -0.635000 3.039865 0.000000
vt -0.000000 3.039865 0.000000
vt -0.635000 3.799831 0.000000
vt -0.000000 3.799831 0.000000
vt -0.635000 4.559797 0.000000
vt -0.000000 4.559797 0.000000
vt -0.635000 5.319764 0.000000
vt -0.000000 5.319764 0.000000
vt -0.635000 6.079730 0.000000
vt -0.000000 6.079730 0.000000
vt -0.635000 6.839696 0.000000
vt -0.000000 6.839696 0.000000
vt -0.635000 7.599662 0.000000
vt -0.000000 7.599662 0.000000
vt -0.635000 8.359629 0.000000
vt -0.000000 8.359629 0.000000
vt -0.635000 9.119595 0.000000
vt -0.000000 9.119595 0.000000
vt -0.635000 9.879561 0.000000
vt -0.000000 9.879561 0.000000
vt -0.635000 10.639527 0.000000
vt -0.000000 10.639527 0.000000
vt -0.635000 11.399494 0.000000
vt -0.000000 11.399494 0.000000
vt -0.635000 12.159460 0.000000
vt -0.000000 12.159460 0.000000
vt -0.635000 12.919426 0.000000
vt -0.000000 12.919426 0.000000
vt -0.635000 13.679392 0.000000
vt -0.000000 13.679392 0.000000
vt -0.635000 14.439359 0.000000
vt -0.000000 14.439359 0.000000
vt -5.023261 -0.757135 0.000000
vt 5.023261 -0.757135 0.000000
vt -5.080000 -0.000000 0.000000
vt 5.080000 0.000000 0.000000
vt -5.023261 0.757135 0.000000
vt 5.023261 0.757135 0.000000
vt -4.854310 1.497356 0.000000
vt 4.854310 1.497356 0.000000
vt -4.576922 2.204129 0.000000
vt 4.576922 2.204129 0.000000
vt -4.197293 2.861666 0.000000
vt 4.197293 2.861666 0.000000
vt -3.723904 3.455278 0.000000
vt 3.723904 3.455278 0.000000
vt -3.167328 3.971704 0.000000
vt 3.167328 3.971704 0.000000
vt -2.540000 4.399409 0.000000
vt 2.540000 4.399409 0.000000
vt -1.855932 4.728839 0.000000
vt 1.855932 4.728839 0.000000
vt -1.130406 4.952634 0.000000
vt 1.130406 4.952634 0.000000
vt -0.379629 5.065795 0.000000
vt 0.379629 5.065795 0.000000
vt 4.854310 -1.497356 0.000000
vt -4.854310 -1.497356 0.000000
vt 4.576922 -2.204129 0.000000
vt -4.576922 -2.204129 0.000000
vt 4.197293 -2.861666 0.000000
vt -4.197293 -2.861666 0.000000
vt 3.723904 -3.455278 0.000000
vt -3.723904 -3.455278 0.000000
vt 3.167328 -3.971704 0.000000
vt -3.167328 -3.971704 0.000000
vt 2.540000 -4.399409 0.000000
vt -2.540000 -4.399409 0.000000
vt 1.855932 -4.728839 0.000000
vt -1.855932 -4.728839 0.000000
vt 1.130406 -4.952634 0.000000
vt -1.130406 -4.952634 0.000000
vt 0.379629 -5.065795 0.000000
vt -0.379629 -5.065795 0.000000
vt 5.023261 0.757135 0.000000
vt -5.023261 0.757135 0.000000
vt 5.080000 -0.000000 0.000000
vt -5.080000 0.000000 0.000000
vt 5.023261 -0.757135 0.000000
vt -5.023261 -0.757135 0.000000
vt 4.854310 -1.497356 0.000000
vt -4.854310 -1.497356 0.000000
vt 4.576922 -2.204129 0.000000
vt -4.576922 -2.204129 0.000000
vt 4.197293 -2.861666 0.000000
vt -4.197293 -2.861666 0.000000
vt 3.723904 -3.455278 0.000000
vt -3.723904 -3.455278 0.000000
vt 3.167328 -3.971704 0.000000
vt -3.167328 -3.971704 0.000000
vt 2.540000 -4.399409 0.000000
vt -2.540000 -4.399409 0.000000
vt 1.855932 -4.728839 0.000000
vt -1.855932 -4.728839 0.000000
vt 1.130406 -4.952634 0.000000
vt -1.130406 -4.952634 0.000000
vt 0.379629 -5.065795 0.000000
vt -0.379629 -5.065795 0.000000
vt -4.854310 1.497356 0.000000
vt 4.854310 1.497356 0.000000
vt -4.576922 2.204129 0.000000
vt 4.576922 2.204129 0.000000
vt -4.197293 2.861666 0.000000
vt 4.197293 2.861666 0.000000
vt -3.723904 3.455278 0.000000
vt 3.723904 3.455278 0.000000
vt -3.167328 3.971704 0.000000
vt 3.167328 3.971704 0.000000
vt -2.540000 4.399409 0.000000
vt 2.540000 4.399409 0.000000
vt -1.855932 4.728839 0.000000
vt 1.855932 4.728839 0.000000
vt -1.130406 4.952634 0.000000
vt 1.130406 4.952634 0.000000
vt -0.379629 5.065795 0.000000
vt 0.379629 5.065795 0.000000
vn -0.988831 0.149042 -0.000000
vn -0.988831 0.149042 -0.000000
vn -1.000000 0.000000 -0.000000
vn -1.000000 0.000000 -0.000000
vn -0.988831 -0.149042 0.000000
vn -0.988831 -0.149042 0.000000
vn -0.955573 -0.294755 0.000000
vn -0.955573 -0.294755 0.000000
vn -0.900969 -0.433884 0.000000
vn -0.900969 -0.433884 0.000000
vn -0.826239 -0.563320 0.000000
vn -0.826239 -0.563320 0.000000
vn -0.733052 -0.680173 0.000000
vn -0.733052 -0.680173 0.000000
vn -0.623490 -0.781831 0.000000
vn -0.623490 -0.781831 0.000000
vn -0.500000 -0.866025 0.000000
vn -0.500000 -0.866025 0.000000
vn -0.365341 -0.930874 0.000000
vn -0.365341 -0.930874 0.000000
vn -0.222521 -0.974928 0.000000
vn -0.222521 -0.974928 0.000000
vn -0.074730 -0.997204 0.000000
vn -0.074730 -0.997204 0.000000
vn 0.074730 -0.997204 -0.000000
vn 0.074730 -0.997204 -0.000000
vn 0.222521 -0.974928 -0.000000
vn 0.222521 -0.974928 -0.000000
vn 0.365341 -0.930874 -0.000000
vn 0.365341 -0.930874 -0.000000
vn 0.500000 -0.866025 -0.000000
vn 0.500000 -0.866025 -0.000000
vn 0.623490 -0.781831 -0.000000
vn 0.623490 -0.781831 -0.000000
vn 0.733052 -0.680173 -0.000000
vn 0.733052 -0.680173 -0.000000
vn 0.826239 -0.563320 -0.000000
vn 0.826239 -0.563320 -0.000000
vn 0.900969 -0.433884 -0.000000
vn 0.900969 -0.433884 -0.000000
vn 0.955573 -0.294755 -0.000000
vn 0.955573 -0.294755 -0.000000
vn 0.988831 -0.149042 -0.000000
vn 0.988831 -0.149042 -0.000000
vn 1.000000 -0.000000 -0.000000
vn 1.000000 -0.000000 -0.000000
vn 0.988831 0.149042 -0.000000
vn 0.988831 0.149042 -0.000000
vn 0.955573 0.294755 -0.000000
vn 0.955573 0.294755 -0.000000
vn 0.900969 0.433884 -0.000000
vn 0.900969 0.433884 -0.000000
vn 0.826239 0.563320 -0.000000
vn 0.826239 0.563320 -0.000000
vn 0.733052 0.680173 -0.000000
vn 0.733052 0.680173 -0.000000
vn 0.623490 0.781831 -0.000000
vn 0.623490 0.781831 -0.000000
vn 0.500000 0.866025 -0.000000
vn 0.500000 0.866025 -0.000000
vn 0.365341 0.930874 -0.000000
vn 0.365341 0.930874 -0.000000
vn 0.222521 0.974928 -0.000000
vn 0.222521 0.974928 -0.000000
vn 0.074730 0.997204 -0.000000
vn 0.074730 0.997204 -0.000000
vn -0.074730 0.997204 -0.000000
vn -0.074730 0.997204 -0.000000
vn -0.222521 0.974928 -0.000000
vn -0.222521 0.974928 -0.000000
vn -0.365341 0.930874 -0.000000
vn -0.365341 0.930874 -0.000000
vn -0.500000 0.866025 -0.000000
vn -0.500000 0.866025 -0.000000
vn -0.623490 0.781831 -0.000000
vn -0.623490 0.781831 -0.000000
vn -0.733052 0.680173 -0.000000
vn -0.733052 0.680173 -0.000000
vn -0.826239 0.563320 -0.000000
vn -0.826239 0.563320 -0.000000
vn -0.900969 0.433884 -0.000000
vn -0.900969 0.433884 -0.000000
vn -0.955573 0.294755 -0.000000
vn -0.955573 0.294755 -0.000000
vn 0.000000 0.000000 1.000000
vn 0.000000 0.000000 1.000000
vn 0.000000 0.000000 1.000000
vn 0.000000 0.000000 1.000000
vn 0.000000 0.000000 1.000000
vn 0.000000 0.000000 1.000000
vn 0.000000 0.000000 1.000000
vn 0.000000 0.000000 1.000000
vn 0.000000 0.000000 1.000000
vn 0.000000 0.000000 1.000000
vn 0.000000 0.000000 1.000000
vn 0.000000 0.000000 1.000000
vn 0.000000 0.000000 1.000000
vn 0.000000 0.000000 1.000000
vn 0.000000 0.000000 1.000000
vn 0.000000 0.000000 1.000000
vn 0.000000 0.000000 1.000000
vn 0.000000 0.000000 1.000000
vn 0.000000 0.000000 1.000000
vn 0.000000 0.000000 1.000000
vn 0.000000 0.000000 1.000000
vn 0.000000 0.000000 1.000000
vn 0.000000 0.000000 1.000000
vn 0.000000 0.000000 1.000000
vn 0.000000 0.000000 1.000000
vn 0.000000 0.000000 1.000000
vn 0.000000 0.000000 1.000000
vn 0.000000 0.000000 1.000000
vn 0.000000 0.000000 1.000000
vn 0.000000 0.000000 1.000000
vn 0.000000 0.000000 1.000000
vn 0.000000 0.000000 1.000000
vn 0.000000 0.000000 1.000000
vn 0.000000 0.000000 1.000000
vn 0.000000 0.000000 1.000000
vn 0.000000 0.000000 1.000000
vn 0.000000 0.000000 1.000000
vn 0.000000 0.000000 1.000000
vn 0.000000 0.000000 1.000000
vn 0.000000 0.000000 1.000000
vn 0.000000 0.000000 1.000000
vn 0.000000 0.000000 1.000000
vn -0.000000 -0.000000 -1.000000
vn -0.000000 -0.000000 -1.000000
vn -0.000000 -0.000000 -1.000000
vn -0.000000 -0.000000 -1.000000
vn -0.000000 -0.000000 -1.000000
vn -0.000000 -0.000000 -1.000000
vn -0.000000 -0.000000 -1.000000
vn -0.000000 -0.000000 -1.000000
vn -0.000000 -0.000000 -1.000000
vn -0.000000 -0.000000 -1.000000
vn -0.000000 -0.000000 -1.000000
vn -0.000000 -0.000000 -1.000000
vn -0.000000 -0.000000 -1.000000
vn -0.000000 -0.000000 -1.000000
vn -0.000000 -0.000000 -1.000000
vn -0.000000 -0.000000 -1.000000
vn -0.000000 -0.000000 -1.000000
vn -0.000000 -0.000000 -1.000000
vn -0.000000 -0.000000 -1.000000
vn -0.000000 -0.000000 -1.000000
vn -0.000000 -0.000000 -1.000000
vn -0.000000 -0.000000 -1.000000
vn -0.000000 -0.000000 -1.000000
vn -0.000000 -0.000000 -1.000000
vn -0.000000 -0.000000 -1.000000
vn -0.000000 -0.000000 -1.000000
vn -0.000000 -0.000000 -1.000000
vn -0.000000 -0.000000 -1.000000
vn -0.000000 -0.000000 -1.000000
vn -0.000000 -0.000000 -1.000000
vn -0.000000 -0.000000 -1.000000
vn -0.000000 -0.000000 -1.000000
vn -0.000000 -0.000000 -1.000000
vn -0.000000 -0.000000 -1.000000
vn -0.000000 -0.000000 -1.000000
vn -0.000000 -0.000000 -1.000000
vn -0.000000 -0.000000 -1.000000
vn -0.000000 -0.000000 -1.000000
vn -0.000000 -0.000000 -1.000000
vn -0.000000 -0.000000 -1.000000
vn -0.000000 -0.000000 -1.000000
vn -0.000000 -0.000000 -1.000000
f 326/747/745 408/748/746 325/749/747
f 325/749/747 408/748/746 367/750/748
f 325/751/747 367/752/748 366/753/749
f 366/753/749 367/752/748 368/754/750
f 366/753/749 368/754/750 365/755/751
f 365/755/751 368/754/750 369/756/752
f 365/755/751 369/756/752 364/757/753
f 364/757/753 369/756/752 370/758/754
f 364/757/753 370/758/754 363/759/755
f 363/759/755 370/758/754 371/760/756
f 363/759/755 371/760/756 362/761/757
f 362/761/757 371/760/756 372/762/758
f 362/761/757 372/762/758 361/763/759
f 361/763/759 372/762/758 373/764/760
f 361/763/759 373/764/760 360/765/761
f 360/765/761 373/764/760 374/766/762
f 360/765/761 374/766/762 359/767/763
f 359/767/763 374/766/762 375/768/764
f 359/767/763 375/768/764 358/769/765
f 358/769/765 375/768/764 376/770/766
f 358/769/765 376/770/766 357/771/767
f 357/771/767 376/770/766 377/772/768
f 357/771/767 377/772/768 356/773/769
f 356/773/769 377/772/768 378/774/770
f 356/773/769 378/774/770 355/775/771
f 355/775/771 378/774/770 379/776/772
f 355/775/771 379/776/772 354/777/773
f 354/777/773 379/776/772 380/778/774
f 354/777/773 380/778/774 353/779/775
f 353/779/775 380/778/774 381/780/776
f 353/779/775 381/780/776 352/781/777
f 352/781/777 381/780/776 382/782/778
f 352/781/777 382/782/778 351/783/779
f 351/783/779 382/782/778 383/784/780
f 351/783/779 383/784/780 350/785/781
f 350/785/781 383/784/780 384/786/782
f 350/785/781 384/786/782 349/787/783
f 349/787/783 384/786/782 385/788/784
f 349/787/783 385/788/784 348/789/785
f 348/789/785 385/788/784 386/790/786
f 348/789/785 386/790/786 347/791/787
f 347/791/787 386/790/786 387/792/788
f 347/791/787 387/792/788 346/793/789
f 346/793/789 387/792/788 388/794/790
f 346/793/789 388/794/790 345/795/791
f 345/795/791 388/794/790 389/796/792
f 345/795/791 389/796/792 344/797/793
f 344/797/793 389/796/792 390/798/794
f 344/797/793 390/798/794 343/799/795
f 343/799/795 390/798/794 391/800/796
f 343/799/795 391/800/796 342/801/797
f 342/801/797 391/800/796 392/802/798
f 342/801/797 392/802/798 341/803/799
f 341/803/799 392/802/798 393/804/800
f 341/803/799 393/804/800 340/805/801
f 340/805/801 393/804/800 394/806/802
f 340/805/801 394/806/802 339/807/803
f 339/807/803 394/806/802 395/808/804
f 339/807/803 395/808/804 338/809/805
f 338/809/805 395/808/804 396/810/806
f 338/809/805 396/810/806 337/811/807
f 337/811/807 396/810/806 397/812/808
f 337/811/807 397/812/808 336/813/809
f 336/813/809 397/812/808 398/814/810
f 336/813/809 398/814/810 335/815/811
f 335/815/811 398/814/810 399/816/812
f 335/815/811 399/816/812 334/817/813
f 334/817/813 399/816/812 400/818/814
f 334/817/813 400/818/814 333/819/815
f 333/819/815 400/818/814 401/820/816
f 333/819/815 401/820/816 332/821/817
f 332/821/817 401/820/816 402/822/818
f 332/821/817 402/822/818 331/823/819
f 331/823/819 402/822/818 403/824/820
f 331/823/819 403/824/820 330/825/821
f 330/825/821 403/824/820 404/826/822
f 330/825/821 404/826/822 329/827/823
f 329/827/823 404/826/822 405/828/824
f 329/827/823 405/828/824 328/829/825
f 328/829/825 405/828/824 406/830/826
f 328/829/825 406/830/826 327/831/827
f 327/831/827 406/830/826 407/832/828
f 327/831/827 407/832/828 326/747/745
f 326/747/745 407/832/828 408/748/746
f 366/833/829 347/834/830 325/835/831
f 325/835/831 347/834/830 346/836/832
f 325/835/831 346/836/832 326/837/833
f 326/837/833 346/836/832 345/838/834
f 326/837/833 345/838/834 327/839/835
f 327/839/835 345/838/834 344/840/836
f 327/839/835 344/840/836 328/841/837
f 328/841/837 344/840/836 343/842/838
f 328/841/837 343/842/838 329/843/839
f 329/843/839 343/842/838 342/844/840
f 329/843/839 342/844/840 330/845/841
f 330/845/841 342/844/840 341/846/842
f 330/845/841 341/846/842 331/847/843
f 331/847/843 341/846/842 340/848/844
f 331/847/843 340/848/844 332/849/845
f 332/849/845 340/848/844 339/850/846
f 332/849/845 339/850/846 333/851/847
f 333/851/847 339/850/846 338/852/848
f 333/851/847 338/852/848 334/853/849
f 334/853/849 338/852/848 337/854/850
f 334/853/849 337/854/850 335/855/851
f 335/855/851 337/854/850 336/856/852
f 347/834/830 366/833/829 348/857/853
f 348/857/853 366/833/829 365/858/854
f 348/857/853 365/858/854 349/859/855
f 349/859/855 365/858/854 364/860/856
f 349/859/855 364/860/856 350/861/857
f 350/861/857 364/860/856 363/862/858
f 350/861/857 363/862/858 351/863/859
f 351/863/859 363/862/858 362/864/860
f 351/863/859 362/864/860 352/865/861
f 352/865/861 362/864/860 361/866/862
f 352/865/861 361/866/862 353/867/863
f 353/867/863 361/866/862 360/868/864
f 353/867/863 360/868/864 354/869/865
f 354/869/865 360/868/864 359/870/866
f 354/869/865 359/870/866 355/871/867
f 355/871/867 359/870/866 358/872/868
f 355/871/867 358/872/868 356/873/869
f 356/873/869 358/872/868 357/874/870
f 408/875/871 389/876/872 367/877/873
f 367/877/873 389/876/872 388/878/874
f 367/877/873 388/878/874 368/879/875
f 368/879/875 388/878/874 387/880/876
f 368/879/875 387/880/876 369/881/877
f 369/881/877 387/880/876 386/882/878
f 369/881/877 386/882/878 370/883/879
f 370/883/879 386/882/878 385/884/880
f 370/883/879 385/884/880 371/885/881
f 371/885/881 385/884/880 384/886/882
f 371/885/881 384/886/882 372/887/883
f 372/887/883 384/886/882 383/888/884
f 372/887/883 383/888/884 373/889/885
f 373/889/885 383/888/884 382/890/886
f 373/889/885 382/890/886 374/891/887
f 374/891/887 382/890/886 381/892/888
f 374/891/887 381/892/888 375/893/889
f 375/893/889 381/892/888 380/894/890
f 375/893/889 380/894/890 376/895/891
f 376/895/891 380/894/890 379/896/892
f 376/895/891 379/896/892 377/897/893
f 377/897/893 379/896/892 378/898/894
f 389/876/872 408/875/871 390/899/895
f 390/899/895 408/875/871 407/900/896
f 390/899/895 407/900/896 391/901/897
f 391/901/897 407/900/896 406/902/898
f 391/901/897 406/902/898 392/903/899
f 392/903/899 406/902/898 405/904/900
f 392/903/899 405/904/900 393/905/901
f 393/905/901 405/904/900 404/906/902
f 393/905/901 404/906/902 394/907/903
f 394/907/903 404/906/902 403/908/904
f 394/907/903 403/908/904 395/909/905
f 395/909/905 403/908/904 402/910/906
f 395/909/905 402/910/906 396/911/907
f 396/911/907 402/910/906 401/912/908
f 396/911/907 401/912/908 397/913/909
f 397/913/909 401/912/908 400/914/910
f 397/913/909 400/914/910 398/915/911
f 398/915/911 400/914/910 399/916/912
# 408 vertices
# 916 texture params
# 912 normals
# 804 facets

# 3 groups
