ISO-10303-21;
HEADER;
/* Generated by software containing ST-Developer
 * from STEP Tools, Inc. (www.steptools.com) 
 */

FILE_DESCRIPTION(
/* description */ (''),
/* implementation_level */ '2;1');

FILE_NAME(
/* name */ 'geometric v1.step',
/* time_stamp */ '2025-08-20T07:32:10-05:00',
/* author */ (''),
/* organization */ (''),
/* preprocessor_version */ 'ST-DEVELOPER v20.1',
/* originating_system */ 'Autodesk Translation Framework v14.10.0.0',
/* authorisation */ '');

FILE_SCHEMA (('AUTOMOTIVE_DESIGN { 1 0 10303 214 3 1 1 }'));
ENDSEC;

DATA;
#10=MECHANICAL_DESIGN_GEOMETRIC_PRESENTATION_REPRESENTATION('',(#13,#14,
#15,#16,#17),#1467);
#11=SHAPE_REPRESENTATION_RELATIONSHIP('SRR','None',#1477,#12);
#12=ADVANCED_BREP_SHAPE_REPRESENTATION('',(#18,#19,#20,#21,#22),#1466);
#13=STYLED_ITEM('',(#1486),#18);
#14=STYLED_ITEM('',(#1486),#19);
#15=STYLED_ITEM('',(#1486),#20);
#16=STYLED_ITEM('',(#1486),#21);
#17=STYLED_ITEM('',(#1486),#22);
#18=MANIFOLD_SOLID_BREP('Body1',#923);
#19=MANIFOLD_SOLID_BREP('Body2',#924);
#20=MANIFOLD_SOLID_BREP('Body3',#925);
#21=MANIFOLD_SOLID_BREP('Body4',#926);
#22=MANIFOLD_SOLID_BREP('Body5',#927);
#23=FACE_BOUND('',#84,.T.);
#24=FACE_BOUND('',#94,.T.);
#25=FACE_BOUND('',#96,.T.);
#26=FACE_BOUND('',#106,.T.);
#27=FACE_BOUND('',#108,.T.);
#28=FACE_BOUND('',#118,.T.);
#29=FACE_BOUND('',#120,.T.);
#30=FACE_BOUND('',#130,.T.);
#31=FACE_BOUND('',#140,.T.);
#32=FACE_BOUND('',#142,.T.);
#33=FACE_OUTER_BOUND('',#83,.T.);
#34=FACE_OUTER_BOUND('',#85,.T.);
#35=FACE_OUTER_BOUND('',#86,.T.);
#36=FACE_OUTER_BOUND('',#87,.T.);
#37=FACE_OUTER_BOUND('',#88,.T.);
#38=FACE_OUTER_BOUND('',#89,.T.);
#39=FACE_OUTER_BOUND('',#90,.T.);
#40=FACE_OUTER_BOUND('',#91,.T.);
#41=FACE_OUTER_BOUND('',#92,.T.);
#42=FACE_OUTER_BOUND('',#93,.T.);
#43=FACE_OUTER_BOUND('',#95,.T.);
#44=FACE_OUTER_BOUND('',#97,.T.);
#45=FACE_OUTER_BOUND('',#98,.T.);
#46=FACE_OUTER_BOUND('',#99,.T.);
#47=FACE_OUTER_BOUND('',#100,.T.);
#48=FACE_OUTER_BOUND('',#101,.T.);
#49=FACE_OUTER_BOUND('',#102,.T.);
#50=FACE_OUTER_BOUND('',#103,.T.);
#51=FACE_OUTER_BOUND('',#104,.T.);
#52=FACE_OUTER_BOUND('',#105,.T.);
#53=FACE_OUTER_BOUND('',#107,.T.);
#54=FACE_OUTER_BOUND('',#109,.T.);
#55=FACE_OUTER_BOUND('',#110,.T.);
#56=FACE_OUTER_BOUND('',#111,.T.);
#57=FACE_OUTER_BOUND('',#112,.T.);
#58=FACE_OUTER_BOUND('',#113,.T.);
#59=FACE_OUTER_BOUND('',#114,.T.);
#60=FACE_OUTER_BOUND('',#115,.T.);
#61=FACE_OUTER_BOUND('',#116,.T.);
#62=FACE_OUTER_BOUND('',#117,.T.);
#63=FACE_OUTER_BOUND('',#119,.T.);
#64=FACE_OUTER_BOUND('',#121,.T.);
#65=FACE_OUTER_BOUND('',#122,.T.);
#66=FACE_OUTER_BOUND('',#123,.T.);
#67=FACE_OUTER_BOUND('',#124,.T.);
#68=FACE_OUTER_BOUND('',#125,.T.);
#69=FACE_OUTER_BOUND('',#126,.T.);
#70=FACE_OUTER_BOUND('',#127,.T.);
#71=FACE_OUTER_BOUND('',#128,.T.);
#72=FACE_OUTER_BOUND('',#129,.T.);
#73=FACE_OUTER_BOUND('',#131,.T.);
#74=FACE_OUTER_BOUND('',#132,.T.);
#75=FACE_OUTER_BOUND('',#133,.T.);
#76=FACE_OUTER_BOUND('',#134,.T.);
#77=FACE_OUTER_BOUND('',#135,.T.);
#78=FACE_OUTER_BOUND('',#136,.T.);
#79=FACE_OUTER_BOUND('',#137,.T.);
#80=FACE_OUTER_BOUND('',#138,.T.);
#81=FACE_OUTER_BOUND('',#139,.T.);
#82=FACE_OUTER_BOUND('',#141,.T.);
#83=EDGE_LOOP('',(#583,#584,#585,#586));
#84=EDGE_LOOP('',(#587,#588,#589,#590));
#85=EDGE_LOOP('',(#591,#592,#593,#594));
#86=EDGE_LOOP('',(#595,#596,#597,#598));
#87=EDGE_LOOP('',(#599,#600,#601,#602));
#88=EDGE_LOOP('',(#603,#604,#605,#606));
#89=EDGE_LOOP('',(#607,#608,#609,#610));
#90=EDGE_LOOP('',(#611,#612,#613,#614));
#91=EDGE_LOOP('',(#615,#616,#617,#618));
#92=EDGE_LOOP('',(#619,#620,#621,#622));
#93=EDGE_LOOP('',(#623,#624,#625,#626));
#94=EDGE_LOOP('',(#627,#628,#629,#630));
#95=EDGE_LOOP('',(#631,#632,#633,#634));
#96=EDGE_LOOP('',(#635,#636,#637,#638));
#97=EDGE_LOOP('',(#639,#640,#641,#642));
#98=EDGE_LOOP('',(#643,#644,#645,#646));
#99=EDGE_LOOP('',(#647,#648,#649,#650));
#100=EDGE_LOOP('',(#651,#652,#653,#654));
#101=EDGE_LOOP('',(#655,#656,#657,#658));
#102=EDGE_LOOP('',(#659,#660,#661,#662));
#103=EDGE_LOOP('',(#663,#664,#665,#666));
#104=EDGE_LOOP('',(#667,#668,#669,#670));
#105=EDGE_LOOP('',(#671,#672,#673,#674));
#106=EDGE_LOOP('',(#675,#676,#677,#678));
#107=EDGE_LOOP('',(#679,#680,#681,#682));
#108=EDGE_LOOP('',(#683,#684,#685,#686));
#109=EDGE_LOOP('',(#687,#688,#689,#690));
#110=EDGE_LOOP('',(#691,#692,#693,#694));
#111=EDGE_LOOP('',(#695,#696,#697,#698));
#112=EDGE_LOOP('',(#699,#700,#701,#702));
#113=EDGE_LOOP('',(#703,#704,#705,#706));
#114=EDGE_LOOP('',(#707,#708,#709,#710));
#115=EDGE_LOOP('',(#711,#712,#713,#714));
#116=EDGE_LOOP('',(#715,#716,#717,#718));
#117=EDGE_LOOP('',(#719,#720,#721,#722));
#118=EDGE_LOOP('',(#723,#724,#725,#726));
#119=EDGE_LOOP('',(#727,#728,#729,#730));
#120=EDGE_LOOP('',(#731,#732,#733,#734));
#121=EDGE_LOOP('',(#735,#736,#737,#738));
#122=EDGE_LOOP('',(#739,#740,#741,#742));
#123=EDGE_LOOP('',(#743,#744,#745,#746));
#124=EDGE_LOOP('',(#747,#748,#749,#750));
#125=EDGE_LOOP('',(#751,#752,#753,#754));
#126=EDGE_LOOP('',(#755,#756,#757,#758));
#127=EDGE_LOOP('',(#759,#760,#761,#762));
#128=EDGE_LOOP('',(#763,#764,#765,#766));
#129=EDGE_LOOP('',(#767,#768,#769,#770));
#130=EDGE_LOOP('',(#771,#772,#773,#774));
#131=EDGE_LOOP('',(#775,#776,#777,#778));
#132=EDGE_LOOP('',(#779,#780,#781,#782));
#133=EDGE_LOOP('',(#783,#784,#785,#786));
#134=EDGE_LOOP('',(#787,#788,#789,#790));
#135=EDGE_LOOP('',(#791,#792,#793,#794));
#136=EDGE_LOOP('',(#795,#796,#797,#798));
#137=EDGE_LOOP('',(#799,#800,#801,#802));
#138=EDGE_LOOP('',(#803,#804,#805,#806));
#139=EDGE_LOOP('',(#807,#808,#809,#810));
#140=EDGE_LOOP('',(#811,#812,#813,#814));
#141=EDGE_LOOP('',(#815,#816,#817,#818));
#142=EDGE_LOOP('',(#819,#820,#821,#822));
#143=LINE('',#1217,#263);
#144=LINE('',#1219,#264);
#145=LINE('',#1221,#265);
#146=LINE('',#1222,#266);
#147=LINE('',#1225,#267);
#148=LINE('',#1227,#268);
#149=LINE('',#1229,#269);
#150=LINE('',#1230,#270);
#151=LINE('',#1233,#271);
#152=LINE('',#1235,#272);
#153=LINE('',#1236,#273);
#154=LINE('',#1239,#274);
#155=LINE('',#1240,#275);
#156=LINE('',#1243,#276);
#157=LINE('',#1245,#277);
#158=LINE('',#1246,#278);
#159=LINE('',#1249,#279);
#160=LINE('',#1250,#280);
#161=LINE('',#1253,#281);
#162=LINE('',#1254,#282);
#163=LINE('',#1256,#283);
#164=LINE('',#1259,#284);
#165=LINE('',#1260,#285);
#166=LINE('',#1262,#286);
#167=LINE('',#1267,#287);
#168=LINE('',#1269,#288);
#169=LINE('',#1271,#289);
#170=LINE('',#1272,#290);
#171=LINE('',#1275,#291);
#172=LINE('',#1277,#292);
#173=LINE('',#1279,#293);
#174=LINE('',#1280,#294);
#175=LINE('',#1283,#295);
#176=LINE('',#1285,#296);
#177=LINE('',#1286,#297);
#178=LINE('',#1289,#298);
#179=LINE('',#1290,#299);
#180=LINE('',#1293,#300);
#181=LINE('',#1295,#301);
#182=LINE('',#1296,#302);
#183=LINE('',#1299,#303);
#184=LINE('',#1300,#304);
#185=LINE('',#1303,#305);
#186=LINE('',#1304,#306);
#187=LINE('',#1306,#307);
#188=LINE('',#1309,#308);
#189=LINE('',#1310,#309);
#190=LINE('',#1312,#310);
#191=LINE('',#1317,#311);
#192=LINE('',#1319,#312);
#193=LINE('',#1321,#313);
#194=LINE('',#1322,#314);
#195=LINE('',#1325,#315);
#196=LINE('',#1327,#316);
#197=LINE('',#1329,#317);
#198=LINE('',#1330,#318);
#199=LINE('',#1333,#319);
#200=LINE('',#1335,#320);
#201=LINE('',#1336,#321);
#202=LINE('',#1339,#322);
#203=LINE('',#1340,#323);
#204=LINE('',#1343,#324);
#205=LINE('',#1345,#325);
#206=LINE('',#1346,#326);
#207=LINE('',#1349,#327);
#208=LINE('',#1350,#328);
#209=LINE('',#1353,#329);
#210=LINE('',#1354,#330);
#211=LINE('',#1356,#331);
#212=LINE('',#1359,#332);
#213=LINE('',#1360,#333);
#214=LINE('',#1362,#334);
#215=LINE('',#1367,#335);
#216=LINE('',#1369,#336);
#217=LINE('',#1371,#337);
#218=LINE('',#1372,#338);
#219=LINE('',#1375,#339);
#220=LINE('',#1377,#340);
#221=LINE('',#1379,#341);
#222=LINE('',#1380,#342);
#223=LINE('',#1383,#343);
#224=LINE('',#1385,#344);
#225=LINE('',#1386,#345);
#226=LINE('',#1389,#346);
#227=LINE('',#1390,#347);
#228=LINE('',#1393,#348);
#229=LINE('',#1395,#349);
#230=LINE('',#1396,#350);
#231=LINE('',#1399,#351);
#232=LINE('',#1400,#352);
#233=LINE('',#1403,#353);
#234=LINE('',#1404,#354);
#235=LINE('',#1406,#355);
#236=LINE('',#1409,#356);
#237=LINE('',#1410,#357);
#238=LINE('',#1412,#358);
#239=LINE('',#1417,#359);
#240=LINE('',#1419,#360);
#241=LINE('',#1421,#361);
#242=LINE('',#1422,#362);
#243=LINE('',#1425,#363);
#244=LINE('',#1427,#364);
#245=LINE('',#1428,#365);
#246=LINE('',#1431,#366);
#247=LINE('',#1433,#367);
#248=LINE('',#1434,#368);
#249=LINE('',#1436,#369);
#250=LINE('',#1437,#370);
#251=LINE('',#1441,#371);
#252=LINE('',#1443,#372);
#253=LINE('',#1445,#373);
#254=LINE('',#1446,#374);
#255=LINE('',#1449,#375);
#256=LINE('',#1451,#376);
#257=LINE('',#1452,#377);
#258=LINE('',#1455,#378);
#259=LINE('',#1457,#379);
#260=LINE('',#1458,#380);
#261=LINE('',#1460,#381);
#262=LINE('',#1461,#382);
#263=VECTOR('',#995,0.393700787401575);
#264=VECTOR('',#996,0.393700787401575);
#265=VECTOR('',#997,0.393700787401575);
#266=VECTOR('',#998,0.393700787401575);
#267=VECTOR('',#999,0.393700787401575);
#268=VECTOR('',#1000,0.393700787401575);
#269=VECTOR('',#1001,0.393700787401575);
#270=VECTOR('',#1002,0.393700787401575);
#271=VECTOR('',#1005,0.393700787401575);
#272=VECTOR('',#1006,0.393700787401575);
#273=VECTOR('',#1007,0.393700787401575);
#274=VECTOR('',#1010,0.393700787401575);
#275=VECTOR('',#1011,0.393700787401575);
#276=VECTOR('',#1014,0.393700787401575);
#277=VECTOR('',#1015,0.393700787401575);
#278=VECTOR('',#1016,0.393700787401575);
#279=VECTOR('',#1019,0.393700787401575);
#280=VECTOR('',#1020,0.393700787401575);
#281=VECTOR('',#1023,0.393700787401575);
#282=VECTOR('',#1024,0.393700787401575);
#283=VECTOR('',#1027,0.393700787401575);
#284=VECTOR('',#1030,0.393700787401575);
#285=VECTOR('',#1031,0.393700787401575);
#286=VECTOR('',#1034,0.393700787401575);
#287=VECTOR('',#1039,0.393700787401575);
#288=VECTOR('',#1040,0.393700787401575);
#289=VECTOR('',#1041,0.393700787401575);
#290=VECTOR('',#1042,0.393700787401575);
#291=VECTOR('',#1043,0.393700787401575);
#292=VECTOR('',#1044,0.393700787401575);
#293=VECTOR('',#1045,0.393700787401575);
#294=VECTOR('',#1046,0.393700787401575);
#295=VECTOR('',#1049,0.393700787401575);
#296=VECTOR('',#1050,0.393700787401575);
#297=VECTOR('',#1051,0.393700787401575);
#298=VECTOR('',#1054,0.393700787401575);
#299=VECTOR('',#1055,0.393700787401575);
#300=VECTOR('',#1058,0.393700787401575);
#301=VECTOR('',#1059,0.393700787401575);
#302=VECTOR('',#1060,0.393700787401575);
#303=VECTOR('',#1063,0.393700787401575);
#304=VECTOR('',#1064,0.393700787401575);
#305=VECTOR('',#1067,0.393700787401575);
#306=VECTOR('',#1068,0.393700787401575);
#307=VECTOR('',#1071,0.393700787401575);
#308=VECTOR('',#1074,0.393700787401575);
#309=VECTOR('',#1075,0.393700787401575);
#310=VECTOR('',#1078,0.393700787401575);
#311=VECTOR('',#1083,0.393700787401575);
#312=VECTOR('',#1084,0.393700787401575);
#313=VECTOR('',#1085,0.393700787401575);
#314=VECTOR('',#1086,0.393700787401575);
#315=VECTOR('',#1087,0.393700787401575);
#316=VECTOR('',#1088,0.393700787401575);
#317=VECTOR('',#1089,0.393700787401575);
#318=VECTOR('',#1090,0.393700787401575);
#319=VECTOR('',#1093,0.393700787401575);
#320=VECTOR('',#1094,0.393700787401575);
#321=VECTOR('',#1095,0.393700787401575);
#322=VECTOR('',#1098,0.393700787401575);
#323=VECTOR('',#1099,0.393700787401575);
#324=VECTOR('',#1102,0.393700787401575);
#325=VECTOR('',#1103,0.393700787401575);
#326=VECTOR('',#1104,0.393700787401575);
#327=VECTOR('',#1107,0.393700787401575);
#328=VECTOR('',#1108,0.393700787401575);
#329=VECTOR('',#1111,0.393700787401575);
#330=VECTOR('',#1112,0.393700787401575);
#331=VECTOR('',#1115,0.393700787401575);
#332=VECTOR('',#1118,0.393700787401575);
#333=VECTOR('',#1119,0.393700787401575);
#334=VECTOR('',#1122,0.393700787401575);
#335=VECTOR('',#1127,0.393700787401575);
#336=VECTOR('',#1128,0.393700787401575);
#337=VECTOR('',#1129,0.393700787401575);
#338=VECTOR('',#1130,0.393700787401575);
#339=VECTOR('',#1131,0.393700787401575);
#340=VECTOR('',#1132,0.393700787401575);
#341=VECTOR('',#1133,0.393700787401575);
#342=VECTOR('',#1134,0.393700787401575);
#343=VECTOR('',#1137,0.393700787401575);
#344=VECTOR('',#1138,0.393700787401575);
#345=VECTOR('',#1139,0.393700787401575);
#346=VECTOR('',#1142,0.393700787401575);
#347=VECTOR('',#1143,0.393700787401575);
#348=VECTOR('',#1146,0.393700787401575);
#349=VECTOR('',#1147,0.393700787401575);
#350=VECTOR('',#1148,0.393700787401575);
#351=VECTOR('',#1151,0.393700787401575);
#352=VECTOR('',#1152,0.393700787401575);
#353=VECTOR('',#1155,0.393700787401575);
#354=VECTOR('',#1156,0.393700787401575);
#355=VECTOR('',#1159,0.393700787401575);
#356=VECTOR('',#1162,0.393700787401575);
#357=VECTOR('',#1163,0.393700787401575);
#358=VECTOR('',#1166,0.393700787401575);
#359=VECTOR('',#1171,0.393700787401575);
#360=VECTOR('',#1172,0.393700787401575);
#361=VECTOR('',#1173,0.393700787401575);
#362=VECTOR('',#1174,0.393700787401575);
#363=VECTOR('',#1177,0.393700787401575);
#364=VECTOR('',#1178,0.393700787401575);
#365=VECTOR('',#1179,0.393700787401575);
#366=VECTOR('',#1182,0.393700787401575);
#367=VECTOR('',#1183,0.393700787401575);
#368=VECTOR('',#1184,0.393700787401575);
#369=VECTOR('',#1187,0.393700787401575);
#370=VECTOR('',#1188,0.393700787401575);
#371=VECTOR('',#1191,0.393700787401575);
#372=VECTOR('',#1192,0.393700787401575);
#373=VECTOR('',#1193,0.393700787401575);
#374=VECTOR('',#1194,0.393700787401575);
#375=VECTOR('',#1197,0.393700787401575);
#376=VECTOR('',#1198,0.393700787401575);
#377=VECTOR('',#1199,0.393700787401575);
#378=VECTOR('',#1202,0.393700787401575);
#379=VECTOR('',#1203,0.393700787401575);
#380=VECTOR('',#1204,0.393700787401575);
#381=VECTOR('',#1207,0.393700787401575);
#382=VECTOR('',#1208,0.393700787401575);
#383=VERTEX_POINT('',#1215);
#384=VERTEX_POINT('',#1216);
#385=VERTEX_POINT('',#1218);
#386=VERTEX_POINT('',#1220);
#387=VERTEX_POINT('',#1223);
#388=VERTEX_POINT('',#1224);
#389=VERTEX_POINT('',#1226);
#390=VERTEX_POINT('',#1228);
#391=VERTEX_POINT('',#1232);
#392=VERTEX_POINT('',#1234);
#393=VERTEX_POINT('',#1238);
#394=VERTEX_POINT('',#1242);
#395=VERTEX_POINT('',#1244);
#396=VERTEX_POINT('',#1248);
#397=VERTEX_POINT('',#1252);
#398=VERTEX_POINT('',#1258);
#399=VERTEX_POINT('',#1265);
#400=VERTEX_POINT('',#1266);
#401=VERTEX_POINT('',#1268);
#402=VERTEX_POINT('',#1270);
#403=VERTEX_POINT('',#1273);
#404=VERTEX_POINT('',#1274);
#405=VERTEX_POINT('',#1276);
#406=VERTEX_POINT('',#1278);
#407=VERTEX_POINT('',#1282);
#408=VERTEX_POINT('',#1284);
#409=VERTEX_POINT('',#1288);
#410=VERTEX_POINT('',#1292);
#411=VERTEX_POINT('',#1294);
#412=VERTEX_POINT('',#1298);
#413=VERTEX_POINT('',#1302);
#414=VERTEX_POINT('',#1308);
#415=VERTEX_POINT('',#1315);
#416=VERTEX_POINT('',#1316);
#417=VERTEX_POINT('',#1318);
#418=VERTEX_POINT('',#1320);
#419=VERTEX_POINT('',#1323);
#420=VERTEX_POINT('',#1324);
#421=VERTEX_POINT('',#1326);
#422=VERTEX_POINT('',#1328);
#423=VERTEX_POINT('',#1332);
#424=VERTEX_POINT('',#1334);
#425=VERTEX_POINT('',#1338);
#426=VERTEX_POINT('',#1342);
#427=VERTEX_POINT('',#1344);
#428=VERTEX_POINT('',#1348);
#429=VERTEX_POINT('',#1352);
#430=VERTEX_POINT('',#1358);
#431=VERTEX_POINT('',#1365);
#432=VERTEX_POINT('',#1366);
#433=VERTEX_POINT('',#1368);
#434=VERTEX_POINT('',#1370);
#435=VERTEX_POINT('',#1373);
#436=VERTEX_POINT('',#1374);
#437=VERTEX_POINT('',#1376);
#438=VERTEX_POINT('',#1378);
#439=VERTEX_POINT('',#1382);
#440=VERTEX_POINT('',#1384);
#441=VERTEX_POINT('',#1388);
#442=VERTEX_POINT('',#1392);
#443=VERTEX_POINT('',#1394);
#444=VERTEX_POINT('',#1398);
#445=VERTEX_POINT('',#1402);
#446=VERTEX_POINT('',#1408);
#447=VERTEX_POINT('',#1415);
#448=VERTEX_POINT('',#1416);
#449=VERTEX_POINT('',#1418);
#450=VERTEX_POINT('',#1420);
#451=VERTEX_POINT('',#1424);
#452=VERTEX_POINT('',#1426);
#453=VERTEX_POINT('',#1430);
#454=VERTEX_POINT('',#1432);
#455=VERTEX_POINT('',#1439);
#456=VERTEX_POINT('',#1440);
#457=VERTEX_POINT('',#1442);
#458=VERTEX_POINT('',#1444);
#459=VERTEX_POINT('',#1448);
#460=VERTEX_POINT('',#1450);
#461=VERTEX_POINT('',#1454);
#462=VERTEX_POINT('',#1456);
#463=EDGE_CURVE('',#383,#384,#143,.T.);
#464=EDGE_CURVE('',#385,#383,#144,.T.);
#465=EDGE_CURVE('',#386,#385,#145,.T.);
#466=EDGE_CURVE('',#384,#386,#146,.T.);
#467=EDGE_CURVE('',#387,#388,#147,.T.);
#468=EDGE_CURVE('',#389,#387,#148,.T.);
#469=EDGE_CURVE('',#390,#389,#149,.T.);
#470=EDGE_CURVE('',#388,#390,#150,.T.);
#471=EDGE_CURVE('',#391,#387,#151,.T.);
#472=EDGE_CURVE('',#391,#392,#152,.T.);
#473=EDGE_CURVE('',#392,#389,#153,.T.);
#474=EDGE_CURVE('',#393,#388,#154,.T.);
#475=EDGE_CURVE('',#393,#391,#155,.T.);
#476=EDGE_CURVE('',#394,#383,#156,.T.);
#477=EDGE_CURVE('',#394,#395,#157,.T.);
#478=EDGE_CURVE('',#395,#385,#158,.T.);
#479=EDGE_CURVE('',#396,#384,#159,.T.);
#480=EDGE_CURVE('',#396,#394,#160,.T.);
#481=EDGE_CURVE('',#397,#390,#161,.T.);
#482=EDGE_CURVE('',#397,#393,#162,.T.);
#483=EDGE_CURVE('',#392,#397,#163,.T.);
#484=EDGE_CURVE('',#398,#386,#164,.T.);
#485=EDGE_CURVE('',#398,#396,#165,.T.);
#486=EDGE_CURVE('',#395,#398,#166,.T.);
#487=EDGE_CURVE('',#399,#400,#167,.T.);
#488=EDGE_CURVE('',#401,#399,#168,.T.);
#489=EDGE_CURVE('',#402,#401,#169,.T.);
#490=EDGE_CURVE('',#400,#402,#170,.T.);
#491=EDGE_CURVE('',#403,#404,#171,.T.);
#492=EDGE_CURVE('',#405,#403,#172,.T.);
#493=EDGE_CURVE('',#406,#405,#173,.T.);
#494=EDGE_CURVE('',#404,#406,#174,.T.);
#495=EDGE_CURVE('',#407,#403,#175,.T.);
#496=EDGE_CURVE('',#407,#408,#176,.T.);
#497=EDGE_CURVE('',#408,#405,#177,.T.);
#498=EDGE_CURVE('',#409,#404,#178,.T.);
#499=EDGE_CURVE('',#409,#407,#179,.T.);
#500=EDGE_CURVE('',#410,#399,#180,.T.);
#501=EDGE_CURVE('',#410,#411,#181,.T.);
#502=EDGE_CURVE('',#411,#401,#182,.T.);
#503=EDGE_CURVE('',#412,#400,#183,.T.);
#504=EDGE_CURVE('',#412,#410,#184,.T.);
#505=EDGE_CURVE('',#413,#406,#185,.T.);
#506=EDGE_CURVE('',#413,#409,#186,.T.);
#507=EDGE_CURVE('',#408,#413,#187,.T.);
#508=EDGE_CURVE('',#414,#402,#188,.T.);
#509=EDGE_CURVE('',#414,#412,#189,.T.);
#510=EDGE_CURVE('',#411,#414,#190,.T.);
#511=EDGE_CURVE('',#415,#416,#191,.T.);
#512=EDGE_CURVE('',#417,#415,#192,.T.);
#513=EDGE_CURVE('',#418,#417,#193,.T.);
#514=EDGE_CURVE('',#416,#418,#194,.T.);
#515=EDGE_CURVE('',#419,#420,#195,.T.);
#516=EDGE_CURVE('',#421,#419,#196,.T.);
#517=EDGE_CURVE('',#422,#421,#197,.T.);
#518=EDGE_CURVE('',#420,#422,#198,.T.);
#519=EDGE_CURVE('',#423,#419,#199,.T.);
#520=EDGE_CURVE('',#423,#424,#200,.T.);
#521=EDGE_CURVE('',#424,#421,#201,.T.);
#522=EDGE_CURVE('',#425,#420,#202,.T.);
#523=EDGE_CURVE('',#425,#423,#203,.T.);
#524=EDGE_CURVE('',#426,#415,#204,.T.);
#525=EDGE_CURVE('',#426,#427,#205,.T.);
#526=EDGE_CURVE('',#427,#417,#206,.T.);
#527=EDGE_CURVE('',#428,#416,#207,.T.);
#528=EDGE_CURVE('',#428,#426,#208,.T.);
#529=EDGE_CURVE('',#429,#422,#209,.T.);
#530=EDGE_CURVE('',#429,#425,#210,.T.);
#531=EDGE_CURVE('',#424,#429,#211,.T.);
#532=EDGE_CURVE('',#430,#418,#212,.T.);
#533=EDGE_CURVE('',#430,#428,#213,.T.);
#534=EDGE_CURVE('',#427,#430,#214,.T.);
#535=EDGE_CURVE('',#431,#432,#215,.T.);
#536=EDGE_CURVE('',#433,#431,#216,.T.);
#537=EDGE_CURVE('',#434,#433,#217,.T.);
#538=EDGE_CURVE('',#432,#434,#218,.T.);
#539=EDGE_CURVE('',#435,#436,#219,.T.);
#540=EDGE_CURVE('',#437,#435,#220,.T.);
#541=EDGE_CURVE('',#438,#437,#221,.T.);
#542=EDGE_CURVE('',#436,#438,#222,.T.);
#543=EDGE_CURVE('',#439,#435,#223,.T.);
#544=EDGE_CURVE('',#439,#440,#224,.T.);
#545=EDGE_CURVE('',#440,#437,#225,.T.);
#546=EDGE_CURVE('',#441,#436,#226,.T.);
#547=EDGE_CURVE('',#441,#439,#227,.T.);
#548=EDGE_CURVE('',#442,#431,#228,.T.);
#549=EDGE_CURVE('',#442,#443,#229,.T.);
#550=EDGE_CURVE('',#443,#433,#230,.T.);
#551=EDGE_CURVE('',#444,#432,#231,.T.);
#552=EDGE_CURVE('',#444,#442,#232,.T.);
#553=EDGE_CURVE('',#445,#438,#233,.T.);
#554=EDGE_CURVE('',#445,#441,#234,.T.);
#555=EDGE_CURVE('',#440,#445,#235,.T.);
#556=EDGE_CURVE('',#446,#434,#236,.T.);
#557=EDGE_CURVE('',#446,#444,#237,.T.);
#558=EDGE_CURVE('',#443,#446,#238,.T.);
#559=EDGE_CURVE('',#447,#448,#239,.T.);
#560=EDGE_CURVE('',#448,#449,#240,.T.);
#561=EDGE_CURVE('',#450,#449,#241,.T.);
#562=EDGE_CURVE('',#447,#450,#242,.T.);
#563=EDGE_CURVE('',#451,#447,#243,.T.);
#564=EDGE_CURVE('',#452,#450,#244,.T.);
#565=EDGE_CURVE('',#451,#452,#245,.T.);
#566=EDGE_CURVE('',#453,#451,#246,.T.);
#567=EDGE_CURVE('',#454,#452,#247,.T.);
#568=EDGE_CURVE('',#453,#454,#248,.T.);
#569=EDGE_CURVE('',#448,#453,#249,.T.);
#570=EDGE_CURVE('',#449,#454,#250,.T.);
#571=EDGE_CURVE('',#455,#456,#251,.T.);
#572=EDGE_CURVE('',#456,#457,#252,.T.);
#573=EDGE_CURVE('',#458,#457,#253,.T.);
#574=EDGE_CURVE('',#455,#458,#254,.T.);
#575=EDGE_CURVE('',#459,#455,#255,.T.);
#576=EDGE_CURVE('',#460,#458,#256,.T.);
#577=EDGE_CURVE('',#459,#460,#257,.T.);
#578=EDGE_CURVE('',#461,#459,#258,.T.);
#579=EDGE_CURVE('',#462,#460,#259,.T.);
#580=EDGE_CURVE('',#461,#462,#260,.T.);
#581=EDGE_CURVE('',#456,#461,#261,.T.);
#582=EDGE_CURVE('',#457,#462,#262,.T.);
#583=ORIENTED_EDGE('',*,*,#463,.F.);
#584=ORIENTED_EDGE('',*,*,#464,.F.);
#585=ORIENTED_EDGE('',*,*,#465,.F.);
#586=ORIENTED_EDGE('',*,*,#466,.F.);
#587=ORIENTED_EDGE('',*,*,#467,.F.);
#588=ORIENTED_EDGE('',*,*,#468,.F.);
#589=ORIENTED_EDGE('',*,*,#469,.F.);
#590=ORIENTED_EDGE('',*,*,#470,.F.);
#591=ORIENTED_EDGE('',*,*,#468,.T.);
#592=ORIENTED_EDGE('',*,*,#471,.F.);
#593=ORIENTED_EDGE('',*,*,#472,.T.);
#594=ORIENTED_EDGE('',*,*,#473,.T.);
#595=ORIENTED_EDGE('',*,*,#467,.T.);
#596=ORIENTED_EDGE('',*,*,#474,.F.);
#597=ORIENTED_EDGE('',*,*,#475,.T.);
#598=ORIENTED_EDGE('',*,*,#471,.T.);
#599=ORIENTED_EDGE('',*,*,#464,.T.);
#600=ORIENTED_EDGE('',*,*,#476,.F.);
#601=ORIENTED_EDGE('',*,*,#477,.T.);
#602=ORIENTED_EDGE('',*,*,#478,.T.);
#603=ORIENTED_EDGE('',*,*,#463,.T.);
#604=ORIENTED_EDGE('',*,*,#479,.F.);
#605=ORIENTED_EDGE('',*,*,#480,.T.);
#606=ORIENTED_EDGE('',*,*,#476,.T.);
#607=ORIENTED_EDGE('',*,*,#470,.T.);
#608=ORIENTED_EDGE('',*,*,#481,.F.);
#609=ORIENTED_EDGE('',*,*,#482,.T.);
#610=ORIENTED_EDGE('',*,*,#474,.T.);
#611=ORIENTED_EDGE('',*,*,#469,.T.);
#612=ORIENTED_EDGE('',*,*,#473,.F.);
#613=ORIENTED_EDGE('',*,*,#483,.T.);
#614=ORIENTED_EDGE('',*,*,#481,.T.);
#615=ORIENTED_EDGE('',*,*,#466,.T.);
#616=ORIENTED_EDGE('',*,*,#484,.F.);
#617=ORIENTED_EDGE('',*,*,#485,.T.);
#618=ORIENTED_EDGE('',*,*,#479,.T.);
#619=ORIENTED_EDGE('',*,*,#465,.T.);
#620=ORIENTED_EDGE('',*,*,#478,.F.);
#621=ORIENTED_EDGE('',*,*,#486,.T.);
#622=ORIENTED_EDGE('',*,*,#484,.T.);
#623=ORIENTED_EDGE('',*,*,#480,.F.);
#624=ORIENTED_EDGE('',*,*,#485,.F.);
#625=ORIENTED_EDGE('',*,*,#486,.F.);
#626=ORIENTED_EDGE('',*,*,#477,.F.);
#627=ORIENTED_EDGE('',*,*,#475,.F.);
#628=ORIENTED_EDGE('',*,*,#482,.F.);
#629=ORIENTED_EDGE('',*,*,#483,.F.);
#630=ORIENTED_EDGE('',*,*,#472,.F.);
#631=ORIENTED_EDGE('',*,*,#487,.F.);
#632=ORIENTED_EDGE('',*,*,#488,.F.);
#633=ORIENTED_EDGE('',*,*,#489,.F.);
#634=ORIENTED_EDGE('',*,*,#490,.F.);
#635=ORIENTED_EDGE('',*,*,#491,.F.);
#636=ORIENTED_EDGE('',*,*,#492,.F.);
#637=ORIENTED_EDGE('',*,*,#493,.F.);
#638=ORIENTED_EDGE('',*,*,#494,.F.);
#639=ORIENTED_EDGE('',*,*,#492,.T.);
#640=ORIENTED_EDGE('',*,*,#495,.F.);
#641=ORIENTED_EDGE('',*,*,#496,.T.);
#642=ORIENTED_EDGE('',*,*,#497,.T.);
#643=ORIENTED_EDGE('',*,*,#491,.T.);
#644=ORIENTED_EDGE('',*,*,#498,.F.);
#645=ORIENTED_EDGE('',*,*,#499,.T.);
#646=ORIENTED_EDGE('',*,*,#495,.T.);
#647=ORIENTED_EDGE('',*,*,#488,.T.);
#648=ORIENTED_EDGE('',*,*,#500,.F.);
#649=ORIENTED_EDGE('',*,*,#501,.T.);
#650=ORIENTED_EDGE('',*,*,#502,.T.);
#651=ORIENTED_EDGE('',*,*,#487,.T.);
#652=ORIENTED_EDGE('',*,*,#503,.F.);
#653=ORIENTED_EDGE('',*,*,#504,.T.);
#654=ORIENTED_EDGE('',*,*,#500,.T.);
#655=ORIENTED_EDGE('',*,*,#494,.T.);
#656=ORIENTED_EDGE('',*,*,#505,.F.);
#657=ORIENTED_EDGE('',*,*,#506,.T.);
#658=ORIENTED_EDGE('',*,*,#498,.T.);
#659=ORIENTED_EDGE('',*,*,#493,.T.);
#660=ORIENTED_EDGE('',*,*,#497,.F.);
#661=ORIENTED_EDGE('',*,*,#507,.T.);
#662=ORIENTED_EDGE('',*,*,#505,.T.);
#663=ORIENTED_EDGE('',*,*,#490,.T.);
#664=ORIENTED_EDGE('',*,*,#508,.F.);
#665=ORIENTED_EDGE('',*,*,#509,.T.);
#666=ORIENTED_EDGE('',*,*,#503,.T.);
#667=ORIENTED_EDGE('',*,*,#489,.T.);
#668=ORIENTED_EDGE('',*,*,#502,.F.);
#669=ORIENTED_EDGE('',*,*,#510,.T.);
#670=ORIENTED_EDGE('',*,*,#508,.T.);
#671=ORIENTED_EDGE('',*,*,#504,.F.);
#672=ORIENTED_EDGE('',*,*,#509,.F.);
#673=ORIENTED_EDGE('',*,*,#510,.F.);
#674=ORIENTED_EDGE('',*,*,#501,.F.);
#675=ORIENTED_EDGE('',*,*,#499,.F.);
#676=ORIENTED_EDGE('',*,*,#506,.F.);
#677=ORIENTED_EDGE('',*,*,#507,.F.);
#678=ORIENTED_EDGE('',*,*,#496,.F.);
#679=ORIENTED_EDGE('',*,*,#511,.F.);
#680=ORIENTED_EDGE('',*,*,#512,.F.);
#681=ORIENTED_EDGE('',*,*,#513,.F.);
#682=ORIENTED_EDGE('',*,*,#514,.F.);
#683=ORIENTED_EDGE('',*,*,#515,.F.);
#684=ORIENTED_EDGE('',*,*,#516,.F.);
#685=ORIENTED_EDGE('',*,*,#517,.F.);
#686=ORIENTED_EDGE('',*,*,#518,.F.);
#687=ORIENTED_EDGE('',*,*,#516,.T.);
#688=ORIENTED_EDGE('',*,*,#519,.F.);
#689=ORIENTED_EDGE('',*,*,#520,.T.);
#690=ORIENTED_EDGE('',*,*,#521,.T.);
#691=ORIENTED_EDGE('',*,*,#515,.T.);
#692=ORIENTED_EDGE('',*,*,#522,.F.);
#693=ORIENTED_EDGE('',*,*,#523,.T.);
#694=ORIENTED_EDGE('',*,*,#519,.T.);
#695=ORIENTED_EDGE('',*,*,#512,.T.);
#696=ORIENTED_EDGE('',*,*,#524,.F.);
#697=ORIENTED_EDGE('',*,*,#525,.T.);
#698=ORIENTED_EDGE('',*,*,#526,.T.);
#699=ORIENTED_EDGE('',*,*,#511,.T.);
#700=ORIENTED_EDGE('',*,*,#527,.F.);
#701=ORIENTED_EDGE('',*,*,#528,.T.);
#702=ORIENTED_EDGE('',*,*,#524,.T.);
#703=ORIENTED_EDGE('',*,*,#518,.T.);
#704=ORIENTED_EDGE('',*,*,#529,.F.);
#705=ORIENTED_EDGE('',*,*,#530,.T.);
#706=ORIENTED_EDGE('',*,*,#522,.T.);
#707=ORIENTED_EDGE('',*,*,#517,.T.);
#708=ORIENTED_EDGE('',*,*,#521,.F.);
#709=ORIENTED_EDGE('',*,*,#531,.T.);
#710=ORIENTED_EDGE('',*,*,#529,.T.);
#711=ORIENTED_EDGE('',*,*,#514,.T.);
#712=ORIENTED_EDGE('',*,*,#532,.F.);
#713=ORIENTED_EDGE('',*,*,#533,.T.);
#714=ORIENTED_EDGE('',*,*,#527,.T.);
#715=ORIENTED_EDGE('',*,*,#513,.T.);
#716=ORIENTED_EDGE('',*,*,#526,.F.);
#717=ORIENTED_EDGE('',*,*,#534,.T.);
#718=ORIENTED_EDGE('',*,*,#532,.T.);
#719=ORIENTED_EDGE('',*,*,#528,.F.);
#720=ORIENTED_EDGE('',*,*,#533,.F.);
#721=ORIENTED_EDGE('',*,*,#534,.F.);
#722=ORIENTED_EDGE('',*,*,#525,.F.);
#723=ORIENTED_EDGE('',*,*,#523,.F.);
#724=ORIENTED_EDGE('',*,*,#530,.F.);
#725=ORIENTED_EDGE('',*,*,#531,.F.);
#726=ORIENTED_EDGE('',*,*,#520,.F.);
#727=ORIENTED_EDGE('',*,*,#535,.F.);
#728=ORIENTED_EDGE('',*,*,#536,.F.);
#729=ORIENTED_EDGE('',*,*,#537,.F.);
#730=ORIENTED_EDGE('',*,*,#538,.F.);
#731=ORIENTED_EDGE('',*,*,#539,.F.);
#732=ORIENTED_EDGE('',*,*,#540,.F.);
#733=ORIENTED_EDGE('',*,*,#541,.F.);
#734=ORIENTED_EDGE('',*,*,#542,.F.);
#735=ORIENTED_EDGE('',*,*,#540,.T.);
#736=ORIENTED_EDGE('',*,*,#543,.F.);
#737=ORIENTED_EDGE('',*,*,#544,.T.);
#738=ORIENTED_EDGE('',*,*,#545,.T.);
#739=ORIENTED_EDGE('',*,*,#539,.T.);
#740=ORIENTED_EDGE('',*,*,#546,.F.);
#741=ORIENTED_EDGE('',*,*,#547,.T.);
#742=ORIENTED_EDGE('',*,*,#543,.T.);
#743=ORIENTED_EDGE('',*,*,#536,.T.);
#744=ORIENTED_EDGE('',*,*,#548,.F.);
#745=ORIENTED_EDGE('',*,*,#549,.T.);
#746=ORIENTED_EDGE('',*,*,#550,.T.);
#747=ORIENTED_EDGE('',*,*,#535,.T.);
#748=ORIENTED_EDGE('',*,*,#551,.F.);
#749=ORIENTED_EDGE('',*,*,#552,.T.);
#750=ORIENTED_EDGE('',*,*,#548,.T.);
#751=ORIENTED_EDGE('',*,*,#542,.T.);
#752=ORIENTED_EDGE('',*,*,#553,.F.);
#753=ORIENTED_EDGE('',*,*,#554,.T.);
#754=ORIENTED_EDGE('',*,*,#546,.T.);
#755=ORIENTED_EDGE('',*,*,#541,.T.);
#756=ORIENTED_EDGE('',*,*,#545,.F.);
#757=ORIENTED_EDGE('',*,*,#555,.T.);
#758=ORIENTED_EDGE('',*,*,#553,.T.);
#759=ORIENTED_EDGE('',*,*,#538,.T.);
#760=ORIENTED_EDGE('',*,*,#556,.F.);
#761=ORIENTED_EDGE('',*,*,#557,.T.);
#762=ORIENTED_EDGE('',*,*,#551,.T.);
#763=ORIENTED_EDGE('',*,*,#537,.T.);
#764=ORIENTED_EDGE('',*,*,#550,.F.);
#765=ORIENTED_EDGE('',*,*,#558,.T.);
#766=ORIENTED_EDGE('',*,*,#556,.T.);
#767=ORIENTED_EDGE('',*,*,#552,.F.);
#768=ORIENTED_EDGE('',*,*,#557,.F.);
#769=ORIENTED_EDGE('',*,*,#558,.F.);
#770=ORIENTED_EDGE('',*,*,#549,.F.);
#771=ORIENTED_EDGE('',*,*,#547,.F.);
#772=ORIENTED_EDGE('',*,*,#554,.F.);
#773=ORIENTED_EDGE('',*,*,#555,.F.);
#774=ORIENTED_EDGE('',*,*,#544,.F.);
#775=ORIENTED_EDGE('',*,*,#559,.T.);
#776=ORIENTED_EDGE('',*,*,#560,.T.);
#777=ORIENTED_EDGE('',*,*,#561,.F.);
#778=ORIENTED_EDGE('',*,*,#562,.F.);
#779=ORIENTED_EDGE('',*,*,#563,.T.);
#780=ORIENTED_EDGE('',*,*,#562,.T.);
#781=ORIENTED_EDGE('',*,*,#564,.F.);
#782=ORIENTED_EDGE('',*,*,#565,.F.);
#783=ORIENTED_EDGE('',*,*,#566,.T.);
#784=ORIENTED_EDGE('',*,*,#565,.T.);
#785=ORIENTED_EDGE('',*,*,#567,.F.);
#786=ORIENTED_EDGE('',*,*,#568,.F.);
#787=ORIENTED_EDGE('',*,*,#569,.T.);
#788=ORIENTED_EDGE('',*,*,#568,.T.);
#789=ORIENTED_EDGE('',*,*,#570,.F.);
#790=ORIENTED_EDGE('',*,*,#560,.F.);
#791=ORIENTED_EDGE('',*,*,#571,.T.);
#792=ORIENTED_EDGE('',*,*,#572,.T.);
#793=ORIENTED_EDGE('',*,*,#573,.F.);
#794=ORIENTED_EDGE('',*,*,#574,.F.);
#795=ORIENTED_EDGE('',*,*,#575,.T.);
#796=ORIENTED_EDGE('',*,*,#574,.T.);
#797=ORIENTED_EDGE('',*,*,#576,.F.);
#798=ORIENTED_EDGE('',*,*,#577,.F.);
#799=ORIENTED_EDGE('',*,*,#578,.T.);
#800=ORIENTED_EDGE('',*,*,#577,.T.);
#801=ORIENTED_EDGE('',*,*,#579,.F.);
#802=ORIENTED_EDGE('',*,*,#580,.F.);
#803=ORIENTED_EDGE('',*,*,#581,.T.);
#804=ORIENTED_EDGE('',*,*,#580,.T.);
#805=ORIENTED_EDGE('',*,*,#582,.F.);
#806=ORIENTED_EDGE('',*,*,#572,.F.);
#807=ORIENTED_EDGE('',*,*,#582,.T.);
#808=ORIENTED_EDGE('',*,*,#579,.T.);
#809=ORIENTED_EDGE('',*,*,#576,.T.);
#810=ORIENTED_EDGE('',*,*,#573,.T.);
#811=ORIENTED_EDGE('',*,*,#570,.T.);
#812=ORIENTED_EDGE('',*,*,#567,.T.);
#813=ORIENTED_EDGE('',*,*,#564,.T.);
#814=ORIENTED_EDGE('',*,*,#561,.T.);
#815=ORIENTED_EDGE('',*,*,#581,.F.);
#816=ORIENTED_EDGE('',*,*,#571,.F.);
#817=ORIENTED_EDGE('',*,*,#575,.F.);
#818=ORIENTED_EDGE('',*,*,#578,.F.);
#819=ORIENTED_EDGE('',*,*,#569,.F.);
#820=ORIENTED_EDGE('',*,*,#559,.F.);
#821=ORIENTED_EDGE('',*,*,#563,.F.);
#822=ORIENTED_EDGE('',*,*,#566,.F.);
#823=PLANE('',#941);
#824=PLANE('',#942);
#825=PLANE('',#943);
#826=PLANE('',#944);
#827=PLANE('',#945);
#828=PLANE('',#946);
#829=PLANE('',#947);
#830=PLANE('',#948);
#831=PLANE('',#949);
#832=PLANE('',#950);
#833=PLANE('',#951);
#834=PLANE('',#952);
#835=PLANE('',#953);
#836=PLANE('',#954);
#837=PLANE('',#955);
#838=PLANE('',#956);
#839=PLANE('',#957);
#840=PLANE('',#958);
#841=PLANE('',#959);
#842=PLANE('',#960);
#843=PLANE('',#961);
#844=PLANE('',#962);
#845=PLANE('',#963);
#846=PLANE('',#964);
#847=PLANE('',#965);
#848=PLANE('',#966);
#849=PLANE('',#967);
#850=PLANE('',#968);
#851=PLANE('',#969);
#852=PLANE('',#970);
#853=PLANE('',#971);
#854=PLANE('',#972);
#855=PLANE('',#973);
#856=PLANE('',#974);
#857=PLANE('',#975);
#858=PLANE('',#976);
#859=PLANE('',#977);
#860=PLANE('',#978);
#861=PLANE('',#979);
#862=PLANE('',#980);
#863=PLANE('',#981);
#864=PLANE('',#982);
#865=PLANE('',#983);
#866=PLANE('',#984);
#867=PLANE('',#985);
#868=PLANE('',#986);
#869=PLANE('',#987);
#870=PLANE('',#988);
#871=PLANE('',#989);
#872=PLANE('',#990);
#873=ADVANCED_FACE('',(#33,#23),#823,.F.);
#874=ADVANCED_FACE('',(#34),#824,.T.);
#875=ADVANCED_FACE('',(#35),#825,.T.);
#876=ADVANCED_FACE('',(#36),#826,.T.);
#877=ADVANCED_FACE('',(#37),#827,.T.);
#878=ADVANCED_FACE('',(#38),#828,.T.);
#879=ADVANCED_FACE('',(#39),#829,.T.);
#880=ADVANCED_FACE('',(#40),#830,.T.);
#881=ADVANCED_FACE('',(#41),#831,.T.);
#882=ADVANCED_FACE('',(#42,#24),#832,.F.);
#883=ADVANCED_FACE('',(#43,#25),#833,.F.);
#884=ADVANCED_FACE('',(#44),#834,.T.);
#885=ADVANCED_FACE('',(#45),#835,.T.);
#886=ADVANCED_FACE('',(#46),#836,.T.);
#887=ADVANCED_FACE('',(#47),#837,.T.);
#888=ADVANCED_FACE('',(#48),#838,.T.);
#889=ADVANCED_FACE('',(#49),#839,.T.);
#890=ADVANCED_FACE('',(#50),#840,.T.);
#891=ADVANCED_FACE('',(#51),#841,.T.);
#892=ADVANCED_FACE('',(#52,#26),#842,.F.);
#893=ADVANCED_FACE('',(#53,#27),#843,.F.);
#894=ADVANCED_FACE('',(#54),#844,.T.);
#895=ADVANCED_FACE('',(#55),#845,.T.);
#896=ADVANCED_FACE('',(#56),#846,.T.);
#897=ADVANCED_FACE('',(#57),#847,.T.);
#898=ADVANCED_FACE('',(#58),#848,.T.);
#899=ADVANCED_FACE('',(#59),#849,.T.);
#900=ADVANCED_FACE('',(#60),#850,.T.);
#901=ADVANCED_FACE('',(#61),#851,.T.);
#902=ADVANCED_FACE('',(#62,#28),#852,.F.);
#903=ADVANCED_FACE('',(#63,#29),#853,.F.);
#904=ADVANCED_FACE('',(#64),#854,.T.);
#905=ADVANCED_FACE('',(#65),#855,.T.);
#906=ADVANCED_FACE('',(#66),#856,.T.);
#907=ADVANCED_FACE('',(#67),#857,.T.);
#908=ADVANCED_FACE('',(#68),#858,.T.);
#909=ADVANCED_FACE('',(#69),#859,.T.);
#910=ADVANCED_FACE('',(#70),#860,.T.);
#911=ADVANCED_FACE('',(#71),#861,.T.);
#912=ADVANCED_FACE('',(#72,#30),#862,.F.);
#913=ADVANCED_FACE('',(#73),#863,.T.);
#914=ADVANCED_FACE('',(#74),#864,.T.);
#915=ADVANCED_FACE('',(#75),#865,.T.);
#916=ADVANCED_FACE('',(#76),#866,.T.);
#917=ADVANCED_FACE('',(#77),#867,.T.);
#918=ADVANCED_FACE('',(#78),#868,.T.);
#919=ADVANCED_FACE('',(#79),#869,.T.);
#920=ADVANCED_FACE('',(#80),#870,.T.);
#921=ADVANCED_FACE('',(#81,#31),#871,.T.);
#922=ADVANCED_FACE('',(#82,#32),#872,.F.);
#923=CLOSED_SHELL('',(#873,#874,#875,#876,#877,#878,#879,#880,#881,#882));
#924=CLOSED_SHELL('',(#883,#884,#885,#886,#887,#888,#889,#890,#891,#892));
#925=CLOSED_SHELL('',(#893,#894,#895,#896,#897,#898,#899,#900,#901,#902));
#926=CLOSED_SHELL('',(#903,#904,#905,#906,#907,#908,#909,#910,#911,#912));
#927=CLOSED_SHELL('',(#913,#914,#915,#916,#917,#918,#919,#920,#921,#922));
#928=DERIVED_UNIT_ELEMENT(#930,1.);
#929=DERIVED_UNIT_ELEMENT(#1471,-3.);
#930=(
MASS_UNIT()
NAMED_UNIT(*)
SI_UNIT(.KILO.,.GRAM.)
);
#931=DERIVED_UNIT((#928,#929));
#932=MEASURE_REPRESENTATION_ITEM('density measure',
POSITIVE_RATIO_MEASURE(7850.),#931);
#933=PROPERTY_DEFINITION_REPRESENTATION(#938,#935);
#934=PROPERTY_DEFINITION_REPRESENTATION(#939,#936);
#935=REPRESENTATION('material name',(#937),#1466);
#936=REPRESENTATION('density',(#932),#1466);
#937=DESCRIPTIVE_REPRESENTATION_ITEM('Steel','Steel');
#938=PROPERTY_DEFINITION('material property','material name',#1479);
#939=PROPERTY_DEFINITION('material property','density of part',#1479);
#940=AXIS2_PLACEMENT_3D('',#1213,#991,#992);
#941=AXIS2_PLACEMENT_3D('',#1214,#993,#994);
#942=AXIS2_PLACEMENT_3D('',#1231,#1003,#1004);
#943=AXIS2_PLACEMENT_3D('',#1237,#1008,#1009);
#944=AXIS2_PLACEMENT_3D('',#1241,#1012,#1013);
#945=AXIS2_PLACEMENT_3D('',#1247,#1017,#1018);
#946=AXIS2_PLACEMENT_3D('',#1251,#1021,#1022);
#947=AXIS2_PLACEMENT_3D('',#1255,#1025,#1026);
#948=AXIS2_PLACEMENT_3D('',#1257,#1028,#1029);
#949=AXIS2_PLACEMENT_3D('',#1261,#1032,#1033);
#950=AXIS2_PLACEMENT_3D('',#1263,#1035,#1036);
#951=AXIS2_PLACEMENT_3D('',#1264,#1037,#1038);
#952=AXIS2_PLACEMENT_3D('',#1281,#1047,#1048);
#953=AXIS2_PLACEMENT_3D('',#1287,#1052,#1053);
#954=AXIS2_PLACEMENT_3D('',#1291,#1056,#1057);
#955=AXIS2_PLACEMENT_3D('',#1297,#1061,#1062);
#956=AXIS2_PLACEMENT_3D('',#1301,#1065,#1066);
#957=AXIS2_PLACEMENT_3D('',#1305,#1069,#1070);
#958=AXIS2_PLACEMENT_3D('',#1307,#1072,#1073);
#959=AXIS2_PLACEMENT_3D('',#1311,#1076,#1077);
#960=AXIS2_PLACEMENT_3D('',#1313,#1079,#1080);
#961=AXIS2_PLACEMENT_3D('',#1314,#1081,#1082);
#962=AXIS2_PLACEMENT_3D('',#1331,#1091,#1092);
#963=AXIS2_PLACEMENT_3D('',#1337,#1096,#1097);
#964=AXIS2_PLACEMENT_3D('',#1341,#1100,#1101);
#965=AXIS2_PLACEMENT_3D('',#1347,#1105,#1106);
#966=AXIS2_PLACEMENT_3D('',#1351,#1109,#1110);
#967=AXIS2_PLACEMENT_3D('',#1355,#1113,#1114);
#968=AXIS2_PLACEMENT_3D('',#1357,#1116,#1117);
#969=AXIS2_PLACEMENT_3D('',#1361,#1120,#1121);
#970=AXIS2_PLACEMENT_3D('',#1363,#1123,#1124);
#971=AXIS2_PLACEMENT_3D('',#1364,#1125,#1126);
#972=AXIS2_PLACEMENT_3D('',#1381,#1135,#1136);
#973=AXIS2_PLACEMENT_3D('',#1387,#1140,#1141);
#974=AXIS2_PLACEMENT_3D('',#1391,#1144,#1145);
#975=AXIS2_PLACEMENT_3D('',#1397,#1149,#1150);
#976=AXIS2_PLACEMENT_3D('',#1401,#1153,#1154);
#977=AXIS2_PLACEMENT_3D('',#1405,#1157,#1158);
#978=AXIS2_PLACEMENT_3D('',#1407,#1160,#1161);
#979=AXIS2_PLACEMENT_3D('',#1411,#1164,#1165);
#980=AXIS2_PLACEMENT_3D('',#1413,#1167,#1168);
#981=AXIS2_PLACEMENT_3D('',#1414,#1169,#1170);
#982=AXIS2_PLACEMENT_3D('',#1423,#1175,#1176);
#983=AXIS2_PLACEMENT_3D('',#1429,#1180,#1181);
#984=AXIS2_PLACEMENT_3D('',#1435,#1185,#1186);
#985=AXIS2_PLACEMENT_3D('',#1438,#1189,#1190);
#986=AXIS2_PLACEMENT_3D('',#1447,#1195,#1196);
#987=AXIS2_PLACEMENT_3D('',#1453,#1200,#1201);
#988=AXIS2_PLACEMENT_3D('',#1459,#1205,#1206);
#989=AXIS2_PLACEMENT_3D('',#1462,#1209,#1210);
#990=AXIS2_PLACEMENT_3D('',#1463,#1211,#1212);
#991=DIRECTION('axis',(0.,0.,1.));
#992=DIRECTION('refdir',(1.,0.,0.));
#993=DIRECTION('center_axis',(0.,0.,-1.));
#994=DIRECTION('ref_axis',(-1.,0.,0.));
#995=DIRECTION('',(0.,-1.,0.));
#996=DIRECTION('',(1.,0.,0.));
#997=DIRECTION('',(0.,1.,0.));
#998=DIRECTION('',(-1.,0.,0.));
#999=DIRECTION('',(0.,1.,0.));
#1000=DIRECTION('',(1.,0.,0.));
#1001=DIRECTION('',(0.,-1.,0.));
#1002=DIRECTION('',(-1.,0.,0.));
#1003=DIRECTION('center_axis',(0.,1.,0.));
#1004=DIRECTION('ref_axis',(-1.,0.,0.));
#1005=DIRECTION('',(0.,0.,1.));
#1006=DIRECTION('',(-1.,0.,0.));
#1007=DIRECTION('',(0.,0.,1.));
#1008=DIRECTION('center_axis',(-1.,0.,0.));
#1009=DIRECTION('ref_axis',(0.,-1.,0.));
#1010=DIRECTION('',(0.,0.,1.));
#1011=DIRECTION('',(0.,-1.,0.));
#1012=DIRECTION('center_axis',(0.,1.,0.));
#1013=DIRECTION('ref_axis',(-1.,0.,0.));
#1014=DIRECTION('',(0.,0.,1.));
#1015=DIRECTION('',(-1.,0.,0.));
#1016=DIRECTION('',(0.,0.,1.));
#1017=DIRECTION('center_axis',(1.,0.,0.));
#1018=DIRECTION('ref_axis',(0.,1.,0.));
#1019=DIRECTION('',(0.,0.,1.));
#1020=DIRECTION('',(0.,1.,0.));
#1021=DIRECTION('center_axis',(0.,-1.,0.));
#1022=DIRECTION('ref_axis',(1.,0.,0.));
#1023=DIRECTION('',(0.,0.,1.));
#1024=DIRECTION('',(1.,0.,0.));
#1025=DIRECTION('center_axis',(1.,0.,0.));
#1026=DIRECTION('ref_axis',(0.,1.,0.));
#1027=DIRECTION('',(0.,1.,0.));
#1028=DIRECTION('center_axis',(0.,-1.,0.));
#1029=DIRECTION('ref_axis',(1.,0.,0.));
#1030=DIRECTION('',(0.,0.,1.));
#1031=DIRECTION('',(1.,0.,0.));
#1032=DIRECTION('center_axis',(-1.,0.,0.));
#1033=DIRECTION('ref_axis',(0.,-1.,0.));
#1034=DIRECTION('',(0.,-1.,0.));
#1035=DIRECTION('center_axis',(0.,0.,1.));
#1036=DIRECTION('ref_axis',(1.,0.,0.));
#1037=DIRECTION('center_axis',(0.,0.,-1.));
#1038=DIRECTION('ref_axis',(-1.,0.,0.));
#1039=DIRECTION('',(0.,-1.,0.));
#1040=DIRECTION('',(1.,0.,0.));
#1041=DIRECTION('',(0.,1.,0.));
#1042=DIRECTION('',(-1.,0.,0.));
#1043=DIRECTION('',(0.,1.,0.));
#1044=DIRECTION('',(1.,0.,0.));
#1045=DIRECTION('',(0.,-1.,0.));
#1046=DIRECTION('',(-1.,0.,0.));
#1047=DIRECTION('center_axis',(0.,1.,0.));
#1048=DIRECTION('ref_axis',(-1.,0.,0.));
#1049=DIRECTION('',(0.,0.,1.));
#1050=DIRECTION('',(-1.,0.,0.));
#1051=DIRECTION('',(0.,0.,1.));
#1052=DIRECTION('center_axis',(-1.,0.,0.));
#1053=DIRECTION('ref_axis',(0.,-1.,0.));
#1054=DIRECTION('',(0.,0.,1.));
#1055=DIRECTION('',(0.,-1.,0.));
#1056=DIRECTION('center_axis',(0.,1.,0.));
#1057=DIRECTION('ref_axis',(-1.,0.,0.));
#1058=DIRECTION('',(0.,0.,1.));
#1059=DIRECTION('',(-1.,0.,0.));
#1060=DIRECTION('',(0.,0.,1.));
#1061=DIRECTION('center_axis',(1.,0.,0.));
#1062=DIRECTION('ref_axis',(0.,1.,0.));
#1063=DIRECTION('',(0.,0.,1.));
#1064=DIRECTION('',(0.,1.,0.));
#1065=DIRECTION('center_axis',(0.,-1.,0.));
#1066=DIRECTION('ref_axis',(1.,0.,0.));
#1067=DIRECTION('',(0.,0.,1.));
#1068=DIRECTION('',(1.,0.,0.));
#1069=DIRECTION('center_axis',(1.,0.,0.));
#1070=DIRECTION('ref_axis',(0.,1.,0.));
#1071=DIRECTION('',(0.,1.,0.));
#1072=DIRECTION('center_axis',(0.,-1.,0.));
#1073=DIRECTION('ref_axis',(1.,0.,0.));
#1074=DIRECTION('',(0.,0.,1.));
#1075=DIRECTION('',(1.,0.,0.));
#1076=DIRECTION('center_axis',(-1.,0.,0.));
#1077=DIRECTION('ref_axis',(0.,-1.,0.));
#1078=DIRECTION('',(0.,-1.,0.));
#1079=DIRECTION('center_axis',(0.,0.,1.));
#1080=DIRECTION('ref_axis',(1.,0.,0.));
#1081=DIRECTION('center_axis',(0.,0.,-1.));
#1082=DIRECTION('ref_axis',(-1.,0.,0.));
#1083=DIRECTION('',(0.,-1.,0.));
#1084=DIRECTION('',(1.,0.,0.));
#1085=DIRECTION('',(0.,1.,0.));
#1086=DIRECTION('',(-1.,0.,0.));
#1087=DIRECTION('',(0.,1.,0.));
#1088=DIRECTION('',(1.,0.,0.));
#1089=DIRECTION('',(0.,-1.,0.));
#1090=DIRECTION('',(-1.,0.,0.));
#1091=DIRECTION('center_axis',(0.,1.,0.));
#1092=DIRECTION('ref_axis',(-1.,0.,0.));
#1093=DIRECTION('',(0.,0.,1.));
#1094=DIRECTION('',(-1.,0.,0.));
#1095=DIRECTION('',(0.,0.,1.));
#1096=DIRECTION('center_axis',(-1.,0.,0.));
#1097=DIRECTION('ref_axis',(0.,-1.,0.));
#1098=DIRECTION('',(0.,0.,1.));
#1099=DIRECTION('',(0.,-1.,0.));
#1100=DIRECTION('center_axis',(0.,1.,0.));
#1101=DIRECTION('ref_axis',(-1.,0.,0.));
#1102=DIRECTION('',(0.,0.,1.));
#1103=DIRECTION('',(-1.,0.,0.));
#1104=DIRECTION('',(0.,0.,1.));
#1105=DIRECTION('center_axis',(1.,0.,0.));
#1106=DIRECTION('ref_axis',(0.,1.,0.));
#1107=DIRECTION('',(0.,0.,1.));
#1108=DIRECTION('',(0.,1.,0.));
#1109=DIRECTION('center_axis',(0.,-1.,0.));
#1110=DIRECTION('ref_axis',(1.,0.,0.));
#1111=DIRECTION('',(0.,0.,1.));
#1112=DIRECTION('',(1.,0.,0.));
#1113=DIRECTION('center_axis',(1.,0.,0.));
#1114=DIRECTION('ref_axis',(0.,1.,0.));
#1115=DIRECTION('',(0.,1.,0.));
#1116=DIRECTION('center_axis',(0.,-1.,0.));
#1117=DIRECTION('ref_axis',(1.,0.,0.));
#1118=DIRECTION('',(0.,0.,1.));
#1119=DIRECTION('',(1.,0.,0.));
#1120=DIRECTION('center_axis',(-1.,0.,0.));
#1121=DIRECTION('ref_axis',(0.,-1.,0.));
#1122=DIRECTION('',(0.,-1.,0.));
#1123=DIRECTION('center_axis',(0.,0.,1.));
#1124=DIRECTION('ref_axis',(1.,0.,0.));
#1125=DIRECTION('center_axis',(0.,0.,-1.));
#1126=DIRECTION('ref_axis',(-1.,0.,0.));
#1127=DIRECTION('',(0.,-1.,0.));
#1128=DIRECTION('',(1.,0.,0.));
#1129=DIRECTION('',(0.,1.,0.));
#1130=DIRECTION('',(-1.,0.,0.));
#1131=DIRECTION('',(0.,1.,0.));
#1132=DIRECTION('',(1.,0.,0.));
#1133=DIRECTION('',(0.,-1.,0.));
#1134=DIRECTION('',(-1.,0.,0.));
#1135=DIRECTION('center_axis',(0.,1.,0.));
#1136=DIRECTION('ref_axis',(-1.,0.,0.));
#1137=DIRECTION('',(0.,0.,1.));
#1138=DIRECTION('',(-1.,0.,0.));
#1139=DIRECTION('',(0.,0.,1.));
#1140=DIRECTION('center_axis',(-1.,0.,0.));
#1141=DIRECTION('ref_axis',(0.,-1.,0.));
#1142=DIRECTION('',(0.,0.,1.));
#1143=DIRECTION('',(0.,-1.,0.));
#1144=DIRECTION('center_axis',(0.,1.,0.));
#1145=DIRECTION('ref_axis',(-1.,0.,0.));
#1146=DIRECTION('',(0.,0.,1.));
#1147=DIRECTION('',(-1.,0.,0.));
#1148=DIRECTION('',(0.,0.,1.));
#1149=DIRECTION('center_axis',(1.,0.,0.));
#1150=DIRECTION('ref_axis',(0.,1.,0.));
#1151=DIRECTION('',(0.,0.,1.));
#1152=DIRECTION('',(0.,1.,0.));
#1153=DIRECTION('center_axis',(0.,-1.,0.));
#1154=DIRECTION('ref_axis',(1.,0.,0.));
#1155=DIRECTION('',(0.,0.,1.));
#1156=DIRECTION('',(1.,0.,0.));
#1157=DIRECTION('center_axis',(1.,0.,0.));
#1158=DIRECTION('ref_axis',(0.,1.,0.));
#1159=DIRECTION('',(0.,1.,0.));
#1160=DIRECTION('center_axis',(0.,-1.,0.));
#1161=DIRECTION('ref_axis',(1.,0.,0.));
#1162=DIRECTION('',(0.,0.,1.));
#1163=DIRECTION('',(1.,0.,0.));
#1164=DIRECTION('center_axis',(-1.,0.,0.));
#1165=DIRECTION('ref_axis',(0.,-1.,0.));
#1166=DIRECTION('',(0.,-1.,0.));
#1167=DIRECTION('center_axis',(0.,0.,1.));
#1168=DIRECTION('ref_axis',(1.,0.,0.));
#1169=DIRECTION('center_axis',(0.,-1.,0.));
#1170=DIRECTION('ref_axis',(1.,0.,0.));
#1171=DIRECTION('',(1.,0.,0.));
#1172=DIRECTION('',(0.,0.,1.));
#1173=DIRECTION('',(1.,0.,0.));
#1174=DIRECTION('',(0.,0.,1.));
#1175=DIRECTION('center_axis',(1.,0.,0.));
#1176=DIRECTION('ref_axis',(0.,1.,0.));
#1177=DIRECTION('',(0.,1.,0.));
#1178=DIRECTION('',(0.,1.,0.));
#1179=DIRECTION('',(0.,0.,1.));
#1180=DIRECTION('center_axis',(0.,1.,0.));
#1181=DIRECTION('ref_axis',(-1.,0.,0.));
#1182=DIRECTION('',(-1.,0.,0.));
#1183=DIRECTION('',(-1.,0.,0.));
#1184=DIRECTION('',(0.,0.,1.));
#1185=DIRECTION('center_axis',(-1.,0.,0.));
#1186=DIRECTION('ref_axis',(0.,-1.,0.));
#1187=DIRECTION('',(0.,-1.,0.));
#1188=DIRECTION('',(0.,-1.,0.));
#1189=DIRECTION('center_axis',(0.,-1.,0.));
#1190=DIRECTION('ref_axis',(1.,0.,0.));
#1191=DIRECTION('',(1.,0.,0.));
#1192=DIRECTION('',(0.,0.,1.));
#1193=DIRECTION('',(1.,0.,0.));
#1194=DIRECTION('',(0.,0.,1.));
#1195=DIRECTION('center_axis',(-1.,0.,0.));
#1196=DIRECTION('ref_axis',(0.,-1.,0.));
#1197=DIRECTION('',(0.,-1.,0.));
#1198=DIRECTION('',(0.,-1.,0.));
#1199=DIRECTION('',(0.,0.,1.));
#1200=DIRECTION('center_axis',(0.,1.,0.));
#1201=DIRECTION('ref_axis',(-1.,0.,0.));
#1202=DIRECTION('',(-1.,0.,0.));
#1203=DIRECTION('',(-1.,0.,0.));
#1204=DIRECTION('',(0.,0.,1.));
#1205=DIRECTION('center_axis',(1.,0.,0.));
#1206=DIRECTION('ref_axis',(0.,1.,0.));
#1207=DIRECTION('',(0.,1.,0.));
#1208=DIRECTION('',(0.,1.,0.));
#1209=DIRECTION('center_axis',(0.,0.,1.));
#1210=DIRECTION('ref_axis',(1.,0.,0.));
#1211=DIRECTION('center_axis',(0.,0.,1.));
#1212=DIRECTION('ref_axis',(1.,0.,0.));
#1213=CARTESIAN_POINT('',(0.,0.,0.));
#1214=CARTESIAN_POINT('Origin',(0.,0.,0.15));
#1215=CARTESIAN_POINT('',(0.600000019148579,0.600000019148579,0.15));
#1216=CARTESIAN_POINT('',(0.600000019148579,-0.600000019148579,0.15));
#1217=CARTESIAN_POINT('',(0.600000019148579,-0.300000009574289,0.15));
#1218=CARTESIAN_POINT('',(-0.600000019148579,0.600000019148579,0.15));
#1219=CARTESIAN_POINT('',(0.300000009574289,0.600000019148579,0.15));
#1220=CARTESIAN_POINT('',(-0.600000019148579,-0.600000019148579,0.15));
#1221=CARTESIAN_POINT('',(-0.600000019148579,0.300000009574289,0.15));
#1222=CARTESIAN_POINT('',(-0.300000009574289,-0.600000019148579,0.15));
#1223=CARTESIAN_POINT('',(0.500000015957149,-0.500000015957149,0.15));
#1224=CARTESIAN_POINT('',(0.500000015957149,0.500000015957149,0.15));
#1225=CARTESIAN_POINT('',(0.500000015957149,0.250000007978574,0.15));
#1226=CARTESIAN_POINT('',(-0.500000015957149,-0.500000015957149,0.15));
#1227=CARTESIAN_POINT('',(0.250000007978574,-0.500000015957149,0.15));
#1228=CARTESIAN_POINT('',(-0.500000015957149,0.500000015957149,0.15));
#1229=CARTESIAN_POINT('',(-0.500000015957149,-0.250000007978574,0.15));
#1230=CARTESIAN_POINT('',(-0.250000007978574,0.500000015957149,0.15));
#1231=CARTESIAN_POINT('Origin',(0.500000015957149,-0.500000015957149,0.));
#1232=CARTESIAN_POINT('',(0.500000015957149,-0.500000015957149,0.));
#1233=CARTESIAN_POINT('',(0.500000015957149,-0.500000015957149,0.));
#1234=CARTESIAN_POINT('',(-0.500000015957149,-0.500000015957149,0.));
#1235=CARTESIAN_POINT('',(-0.500000015957149,-0.500000015957149,0.));
#1236=CARTESIAN_POINT('',(-0.500000015957149,-0.500000015957149,0.));
#1237=CARTESIAN_POINT('Origin',(0.500000015957149,0.500000015957149,0.));
#1238=CARTESIAN_POINT('',(0.500000015957149,0.500000015957149,0.));
#1239=CARTESIAN_POINT('',(0.500000015957149,0.500000015957149,0.));
#1240=CARTESIAN_POINT('',(0.500000015957149,-0.500000015957149,0.));
#1241=CARTESIAN_POINT('Origin',(0.600000019148579,0.600000019148579,0.));
#1242=CARTESIAN_POINT('',(0.600000019148579,0.600000019148579,0.));
#1243=CARTESIAN_POINT('',(0.600000019148579,0.600000019148579,0.));
#1244=CARTESIAN_POINT('',(-0.600000019148579,0.600000019148579,0.));
#1245=CARTESIAN_POINT('',(0.600000019148579,0.600000019148579,0.));
#1246=CARTESIAN_POINT('',(-0.600000019148579,0.600000019148579,0.));
#1247=CARTESIAN_POINT('Origin',(0.600000019148579,-0.600000019148579,0.));
#1248=CARTESIAN_POINT('',(0.600000019148579,-0.600000019148579,0.));
#1249=CARTESIAN_POINT('',(0.600000019148579,-0.600000019148579,0.));
#1250=CARTESIAN_POINT('',(0.600000019148579,-0.600000019148579,0.));
#1251=CARTESIAN_POINT('Origin',(-0.500000015957149,0.500000015957149,0.));
#1252=CARTESIAN_POINT('',(-0.500000015957149,0.500000015957149,0.));
#1253=CARTESIAN_POINT('',(-0.500000015957149,0.500000015957149,0.));
#1254=CARTESIAN_POINT('',(0.500000015957149,0.500000015957149,0.));
#1255=CARTESIAN_POINT('Origin',(-0.500000015957149,-0.500000015957149,0.));
#1256=CARTESIAN_POINT('',(-0.500000015957149,0.500000015957149,0.));
#1257=CARTESIAN_POINT('Origin',(-0.600000019148579,-0.600000019148579,0.));
#1258=CARTESIAN_POINT('',(-0.600000019148579,-0.600000019148579,0.));
#1259=CARTESIAN_POINT('',(-0.600000019148579,-0.600000019148579,0.));
#1260=CARTESIAN_POINT('',(-0.600000019148579,-0.600000019148579,0.));
#1261=CARTESIAN_POINT('Origin',(-0.600000019148579,0.600000019148579,0.));
#1262=CARTESIAN_POINT('',(-0.600000019148579,0.600000019148579,0.));
#1263=CARTESIAN_POINT('Origin',(0.,0.,0.));
#1264=CARTESIAN_POINT('Origin',(0.,0.,0.1));
#1265=CARTESIAN_POINT('',(0.800000025531438,0.800000025531438,0.1));
#1266=CARTESIAN_POINT('',(0.800000025531438,-0.800000025531438,0.1));
#1267=CARTESIAN_POINT('',(0.800000025531438,-0.400000012765719,0.1));
#1268=CARTESIAN_POINT('',(-0.800000025531438,0.800000025531438,0.1));
#1269=CARTESIAN_POINT('',(0.400000012765719,0.800000025531438,0.1));
#1270=CARTESIAN_POINT('',(-0.800000025531438,-0.800000025531438,0.1));
#1271=CARTESIAN_POINT('',(-0.800000025531438,0.400000012765719,0.1));
#1272=CARTESIAN_POINT('',(-0.400000012765719,-0.800000025531438,0.1));
#1273=CARTESIAN_POINT('',(0.700000022340009,-0.700000022340009,0.1));
#1274=CARTESIAN_POINT('',(0.700000022340009,0.700000022340009,0.1));
#1275=CARTESIAN_POINT('',(0.700000022340009,0.350000011170004,0.1));
#1276=CARTESIAN_POINT('',(-0.700000022340009,-0.700000022340009,0.1));
#1277=CARTESIAN_POINT('',(0.350000011170004,-0.700000022340009,0.1));
#1278=CARTESIAN_POINT('',(-0.700000022340009,0.700000022340009,0.1));
#1279=CARTESIAN_POINT('',(-0.700000022340009,-0.350000011170004,0.1));
#1280=CARTESIAN_POINT('',(-0.350000011170004,0.700000022340009,0.1));
#1281=CARTESIAN_POINT('Origin',(0.700000022340009,-0.700000022340009,0.));
#1282=CARTESIAN_POINT('',(0.700000022340009,-0.700000022340009,0.));
#1283=CARTESIAN_POINT('',(0.700000022340009,-0.700000022340009,0.));
#1284=CARTESIAN_POINT('',(-0.700000022340009,-0.700000022340009,0.));
#1285=CARTESIAN_POINT('',(-0.700000022340009,-0.700000022340009,0.));
#1286=CARTESIAN_POINT('',(-0.700000022340009,-0.700000022340009,0.));
#1287=CARTESIAN_POINT('Origin',(0.700000022340009,0.700000022340009,0.));
#1288=CARTESIAN_POINT('',(0.700000022340009,0.700000022340009,0.));
#1289=CARTESIAN_POINT('',(0.700000022340009,0.700000022340009,0.));
#1290=CARTESIAN_POINT('',(0.700000022340009,-0.700000022340009,0.));
#1291=CARTESIAN_POINT('Origin',(0.800000025531438,0.800000025531438,0.));
#1292=CARTESIAN_POINT('',(0.800000025531438,0.800000025531438,0.));
#1293=CARTESIAN_POINT('',(0.800000025531438,0.800000025531438,0.));
#1294=CARTESIAN_POINT('',(-0.800000025531438,0.800000025531438,0.));
#1295=CARTESIAN_POINT('',(0.800000025531438,0.800000025531438,0.));
#1296=CARTESIAN_POINT('',(-0.800000025531438,0.800000025531438,0.));
#1297=CARTESIAN_POINT('Origin',(0.800000025531438,-0.800000025531438,0.));
#1298=CARTESIAN_POINT('',(0.800000025531438,-0.800000025531438,0.));
#1299=CARTESIAN_POINT('',(0.800000025531438,-0.800000025531438,0.));
#1300=CARTESIAN_POINT('',(0.800000025531438,-0.800000025531438,0.));
#1301=CARTESIAN_POINT('Origin',(-0.700000022340009,0.700000022340009,0.));
#1302=CARTESIAN_POINT('',(-0.700000022340009,0.700000022340009,0.));
#1303=CARTESIAN_POINT('',(-0.700000022340009,0.700000022340009,0.));
#1304=CARTESIAN_POINT('',(0.700000022340009,0.700000022340009,0.));
#1305=CARTESIAN_POINT('Origin',(-0.700000022340009,-0.700000022340009,0.));
#1306=CARTESIAN_POINT('',(-0.700000022340009,0.700000022340009,0.));
#1307=CARTESIAN_POINT('Origin',(-0.800000025531438,-0.800000025531438,0.));
#1308=CARTESIAN_POINT('',(-0.800000025531438,-0.800000025531438,0.));
#1309=CARTESIAN_POINT('',(-0.800000025531438,-0.800000025531438,0.));
#1310=CARTESIAN_POINT('',(-0.800000025531438,-0.800000025531438,0.));
#1311=CARTESIAN_POINT('Origin',(-0.800000025531438,0.800000025531438,0.));
#1312=CARTESIAN_POINT('',(-0.800000025531438,0.800000025531438,0.));
#1313=CARTESIAN_POINT('Origin',(0.,0.,0.));
#1314=CARTESIAN_POINT('Origin',(0.,0.,0.2));
#1315=CARTESIAN_POINT('',(0.400000012765719,0.400000012765719,0.2));
#1316=CARTESIAN_POINT('',(0.400000012765719,-0.400000012765719,0.2));
#1317=CARTESIAN_POINT('',(0.400000012765719,-0.20000000638286,0.2));
#1318=CARTESIAN_POINT('',(-0.400000012765719,0.400000012765719,0.2));
#1319=CARTESIAN_POINT('',(0.20000000638286,0.400000012765719,0.2));
#1320=CARTESIAN_POINT('',(-0.400000012765719,-0.400000012765719,0.2));
#1321=CARTESIAN_POINT('',(-0.400000012765719,0.20000000638286,0.2));
#1322=CARTESIAN_POINT('',(-0.20000000638286,-0.400000012765719,0.2));
#1323=CARTESIAN_POINT('',(0.300000009574289,-0.300000009574289,0.2));
#1324=CARTESIAN_POINT('',(0.300000009574289,0.300000009574289,0.2));
#1325=CARTESIAN_POINT('',(0.300000009574289,0.150000004787145,0.2));
#1326=CARTESIAN_POINT('',(-0.300000009574289,-0.300000009574289,0.2));
#1327=CARTESIAN_POINT('',(0.150000004787145,-0.300000009574289,0.2));
#1328=CARTESIAN_POINT('',(-0.300000009574289,0.300000009574289,0.2));
#1329=CARTESIAN_POINT('',(-0.300000009574289,-0.150000004787145,0.2));
#1330=CARTESIAN_POINT('',(-0.150000004787145,0.300000009574289,0.2));
#1331=CARTESIAN_POINT('Origin',(0.300000009574289,-0.300000009574289,0.));
#1332=CARTESIAN_POINT('',(0.300000009574289,-0.300000009574289,0.));
#1333=CARTESIAN_POINT('',(0.300000009574289,-0.300000009574289,0.));
#1334=CARTESIAN_POINT('',(-0.300000009574289,-0.300000009574289,0.));
#1335=CARTESIAN_POINT('',(-0.300000009574289,-0.300000009574289,0.));
#1336=CARTESIAN_POINT('',(-0.300000009574289,-0.300000009574289,0.));
#1337=CARTESIAN_POINT('Origin',(0.300000009574289,0.300000009574289,0.));
#1338=CARTESIAN_POINT('',(0.300000009574289,0.300000009574289,0.));
#1339=CARTESIAN_POINT('',(0.300000009574289,0.300000009574289,0.));
#1340=CARTESIAN_POINT('',(0.300000009574289,-0.300000009574289,0.));
#1341=CARTESIAN_POINT('Origin',(0.400000012765719,0.400000012765719,0.));
#1342=CARTESIAN_POINT('',(0.400000012765719,0.400000012765719,0.));
#1343=CARTESIAN_POINT('',(0.400000012765719,0.400000012765719,0.));
#1344=CARTESIAN_POINT('',(-0.400000012765719,0.400000012765719,0.));
#1345=CARTESIAN_POINT('',(0.400000012765719,0.400000012765719,0.));
#1346=CARTESIAN_POINT('',(-0.400000012765719,0.400000012765719,0.));
#1347=CARTESIAN_POINT('Origin',(0.400000012765719,-0.400000012765719,0.));
#1348=CARTESIAN_POINT('',(0.400000012765719,-0.400000012765719,0.));
#1349=CARTESIAN_POINT('',(0.400000012765719,-0.400000012765719,0.));
#1350=CARTESIAN_POINT('',(0.400000012765719,-0.400000012765719,0.));
#1351=CARTESIAN_POINT('Origin',(-0.300000009574289,0.300000009574289,0.));
#1352=CARTESIAN_POINT('',(-0.300000009574289,0.300000009574289,0.));
#1353=CARTESIAN_POINT('',(-0.300000009574289,0.300000009574289,0.));
#1354=CARTESIAN_POINT('',(0.300000009574289,0.300000009574289,0.));
#1355=CARTESIAN_POINT('Origin',(-0.300000009574289,-0.300000009574289,0.));
#1356=CARTESIAN_POINT('',(-0.300000009574289,0.300000009574289,0.));
#1357=CARTESIAN_POINT('Origin',(-0.400000012765719,-0.400000012765719,0.));
#1358=CARTESIAN_POINT('',(-0.400000012765719,-0.400000012765719,0.));
#1359=CARTESIAN_POINT('',(-0.400000012765719,-0.400000012765719,0.));
#1360=CARTESIAN_POINT('',(-0.400000012765719,-0.400000012765719,0.));
#1361=CARTESIAN_POINT('Origin',(-0.400000012765719,0.400000012765719,0.));
#1362=CARTESIAN_POINT('',(-0.400000012765719,0.400000012765719,0.));
#1363=CARTESIAN_POINT('Origin',(0.,0.,0.));
#1364=CARTESIAN_POINT('Origin',(0.,0.,0.05));
#1365=CARTESIAN_POINT('',(1.0000000319143,1.0000000319143,0.05));
#1366=CARTESIAN_POINT('',(1.0000000319143,-1.0000000319143,0.05));
#1367=CARTESIAN_POINT('',(1.0000000319143,-0.500000015957149,0.05));
#1368=CARTESIAN_POINT('',(-1.0000000319143,1.0000000319143,0.05));
#1369=CARTESIAN_POINT('',(0.500000015957149,1.0000000319143,0.05));
#1370=CARTESIAN_POINT('',(-1.0000000319143,-1.0000000319143,0.05));
#1371=CARTESIAN_POINT('',(-1.0000000319143,0.500000015957149,0.05));
#1372=CARTESIAN_POINT('',(-0.500000015957149,-1.0000000319143,0.05));
#1373=CARTESIAN_POINT('',(0.900000028722868,-0.900000028722868,0.05));
#1374=CARTESIAN_POINT('',(0.900000028722868,0.900000028722868,0.05));
#1375=CARTESIAN_POINT('',(0.900000028722868,0.450000014361434,0.05));
#1376=CARTESIAN_POINT('',(-0.900000028722868,-0.900000028722868,0.05));
#1377=CARTESIAN_POINT('',(0.450000014361434,-0.900000028722868,0.05));
#1378=CARTESIAN_POINT('',(-0.900000028722868,0.900000028722868,0.05));
#1379=CARTESIAN_POINT('',(-0.900000028722868,-0.450000014361434,0.05));
#1380=CARTESIAN_POINT('',(-0.450000014361434,0.900000028722868,0.05));
#1381=CARTESIAN_POINT('Origin',(0.900000028722868,-0.900000028722868,0.));
#1382=CARTESIAN_POINT('',(0.900000028722868,-0.900000028722868,0.));
#1383=CARTESIAN_POINT('',(0.900000028722868,-0.900000028722868,0.));
#1384=CARTESIAN_POINT('',(-0.900000028722868,-0.900000028722868,0.));
#1385=CARTESIAN_POINT('',(-0.900000028722868,-0.900000028722868,0.));
#1386=CARTESIAN_POINT('',(-0.900000028722868,-0.900000028722868,0.));
#1387=CARTESIAN_POINT('Origin',(0.900000028722868,0.900000028722868,0.));
#1388=CARTESIAN_POINT('',(0.900000028722868,0.900000028722868,0.));
#1389=CARTESIAN_POINT('',(0.900000028722868,0.900000028722868,0.));
#1390=CARTESIAN_POINT('',(0.900000028722868,-0.900000028722868,0.));
#1391=CARTESIAN_POINT('Origin',(1.0000000319143,1.0000000319143,0.));
#1392=CARTESIAN_POINT('',(1.0000000319143,1.0000000319143,0.));
#1393=CARTESIAN_POINT('',(1.0000000319143,1.0000000319143,0.));
#1394=CARTESIAN_POINT('',(-1.0000000319143,1.0000000319143,0.));
#1395=CARTESIAN_POINT('',(1.0000000319143,1.0000000319143,0.));
#1396=CARTESIAN_POINT('',(-1.0000000319143,1.0000000319143,0.));
#1397=CARTESIAN_POINT('Origin',(1.0000000319143,-1.0000000319143,0.));
#1398=CARTESIAN_POINT('',(1.0000000319143,-1.0000000319143,0.));
#1399=CARTESIAN_POINT('',(1.0000000319143,-1.0000000319143,0.));
#1400=CARTESIAN_POINT('',(1.0000000319143,-1.0000000319143,0.));
#1401=CARTESIAN_POINT('Origin',(-0.900000028722868,0.900000028722868,0.));
#1402=CARTESIAN_POINT('',(-0.900000028722868,0.900000028722868,0.));
#1403=CARTESIAN_POINT('',(-0.900000028722868,0.900000028722868,0.));
#1404=CARTESIAN_POINT('',(0.900000028722868,0.900000028722868,0.));
#1405=CARTESIAN_POINT('Origin',(-0.900000028722868,-0.900000028722868,0.));
#1406=CARTESIAN_POINT('',(-0.900000028722868,0.900000028722868,0.));
#1407=CARTESIAN_POINT('Origin',(-1.0000000319143,-1.0000000319143,0.));
#1408=CARTESIAN_POINT('',(-1.0000000319143,-1.0000000319143,0.));
#1409=CARTESIAN_POINT('',(-1.0000000319143,-1.0000000319143,0.));
#1410=CARTESIAN_POINT('',(-1.0000000319143,-1.0000000319143,0.));
#1411=CARTESIAN_POINT('Origin',(-1.0000000319143,1.0000000319143,0.));
#1412=CARTESIAN_POINT('',(-1.0000000319143,1.0000000319143,0.));
#1413=CARTESIAN_POINT('Origin',(0.,0.,0.));
#1414=CARTESIAN_POINT('Origin',(-0.10000000319143,0.10000000319143,0.));
#1415=CARTESIAN_POINT('',(-0.10000000319143,0.10000000319143,0.));
#1416=CARTESIAN_POINT('',(0.10000000319143,0.10000000319143,0.));
#1417=CARTESIAN_POINT('',(0.10000000319143,0.10000000319143,0.));
#1418=CARTESIAN_POINT('',(0.10000000319143,0.10000000319143,0.25));
#1419=CARTESIAN_POINT('',(0.10000000319143,0.10000000319143,0.));
#1420=CARTESIAN_POINT('',(-0.10000000319143,0.10000000319143,0.25));
#1421=CARTESIAN_POINT('',(0.10000000319143,0.10000000319143,0.25));
#1422=CARTESIAN_POINT('',(-0.10000000319143,0.10000000319143,0.));
#1423=CARTESIAN_POINT('Origin',(-0.10000000319143,-0.10000000319143,0.));
#1424=CARTESIAN_POINT('',(-0.10000000319143,-0.10000000319143,0.));
#1425=CARTESIAN_POINT('',(-0.10000000319143,0.10000000319143,0.));
#1426=CARTESIAN_POINT('',(-0.10000000319143,-0.10000000319143,0.25));
#1427=CARTESIAN_POINT('',(-0.10000000319143,0.10000000319143,0.25));
#1428=CARTESIAN_POINT('',(-0.10000000319143,-0.10000000319143,0.));
#1429=CARTESIAN_POINT('Origin',(0.10000000319143,-0.10000000319143,0.));
#1430=CARTESIAN_POINT('',(0.10000000319143,-0.10000000319143,0.));
#1431=CARTESIAN_POINT('',(-0.10000000319143,-0.10000000319143,0.));
#1432=CARTESIAN_POINT('',(0.10000000319143,-0.10000000319143,0.25));
#1433=CARTESIAN_POINT('',(-0.10000000319143,-0.10000000319143,0.25));
#1434=CARTESIAN_POINT('',(0.10000000319143,-0.10000000319143,0.));
#1435=CARTESIAN_POINT('Origin',(0.10000000319143,0.10000000319143,0.));
#1436=CARTESIAN_POINT('',(0.10000000319143,-0.10000000319143,0.));
#1437=CARTESIAN_POINT('',(0.10000000319143,-0.10000000319143,0.25));
#1438=CARTESIAN_POINT('Origin',(-0.20000000638286,-0.20000000638286,0.));
#1439=CARTESIAN_POINT('',(-0.20000000638286,-0.20000000638286,0.));
#1440=CARTESIAN_POINT('',(0.20000000638286,-0.20000000638286,0.));
#1441=CARTESIAN_POINT('',(-0.20000000638286,-0.20000000638286,0.));
#1442=CARTESIAN_POINT('',(0.20000000638286,-0.20000000638286,0.25));
#1443=CARTESIAN_POINT('',(0.20000000638286,-0.20000000638286,0.));
#1444=CARTESIAN_POINT('',(-0.20000000638286,-0.20000000638286,0.25));
#1445=CARTESIAN_POINT('',(-0.20000000638286,-0.20000000638286,0.25));
#1446=CARTESIAN_POINT('',(-0.20000000638286,-0.20000000638286,0.));
#1447=CARTESIAN_POINT('Origin',(-0.20000000638286,0.20000000638286,0.));
#1448=CARTESIAN_POINT('',(-0.20000000638286,0.20000000638286,0.));
#1449=CARTESIAN_POINT('',(-0.20000000638286,0.20000000638286,0.));
#1450=CARTESIAN_POINT('',(-0.20000000638286,0.20000000638286,0.25));
#1451=CARTESIAN_POINT('',(-0.20000000638286,0.20000000638286,0.25));
#1452=CARTESIAN_POINT('',(-0.20000000638286,0.20000000638286,0.));
#1453=CARTESIAN_POINT('Origin',(0.20000000638286,0.20000000638286,0.));
#1454=CARTESIAN_POINT('',(0.20000000638286,0.20000000638286,0.));
#1455=CARTESIAN_POINT('',(0.20000000638286,0.20000000638286,0.));
#1456=CARTESIAN_POINT('',(0.20000000638286,0.20000000638286,0.25));
#1457=CARTESIAN_POINT('',(0.20000000638286,0.20000000638286,0.25));
#1458=CARTESIAN_POINT('',(0.20000000638286,0.20000000638286,0.));
#1459=CARTESIAN_POINT('Origin',(0.20000000638286,-0.20000000638286,0.));
#1460=CARTESIAN_POINT('',(0.20000000638286,-0.20000000638286,0.));
#1461=CARTESIAN_POINT('',(0.20000000638286,-0.20000000638286,0.25));
#1462=CARTESIAN_POINT('Origin',(0.,0.,0.25));
#1463=CARTESIAN_POINT('Origin',(0.,0.,0.));
#1464=UNCERTAINTY_MEASURE_WITH_UNIT(LENGTH_MEASURE(0.000393700787401575),
#1469,'DISTANCE_ACCURACY_VALUE',
'Maximum model space distance between geometric entities at asserted c
onnectivities');
#1465=UNCERTAINTY_MEASURE_WITH_UNIT(LENGTH_MEASURE(0.000393700787401575),
#1469,'DISTANCE_ACCURACY_VALUE',
'Maximum model space distance between geometric entities at asserted c
onnectivities');
#1466=(
GEOMETRIC_REPRESENTATION_CONTEXT(3)
GLOBAL_UNCERTAINTY_ASSIGNED_CONTEXT((#1464))
GLOBAL_UNIT_ASSIGNED_CONTEXT((#1469,#1473,#1474))
REPRESENTATION_CONTEXT('','3D')
);
#1467=(
GEOMETRIC_REPRESENTATION_CONTEXT(3)
GLOBAL_UNCERTAINTY_ASSIGNED_CONTEXT((#1465))
GLOBAL_UNIT_ASSIGNED_CONTEXT((#1469,#1473,#1474))
REPRESENTATION_CONTEXT('','3D')
);
#1468=DIMENSIONAL_EXPONENTS(1.,0.,0.,0.,0.,0.,0.);
#1469=(
CONVERSION_BASED_UNIT('inch',#1472)
LENGTH_UNIT()
NAMED_UNIT(#1468)
);
#1470=(
LENGTH_UNIT()
NAMED_UNIT(*)
SI_UNIT(.MILLI.,.METRE.)
);
#1471=(
LENGTH_UNIT()
NAMED_UNIT(*)
SI_UNIT($,.METRE.)
);
#1472=LENGTH_MEASURE_WITH_UNIT(LENGTH_MEASURE(25.4),#1470);
#1473=(
NAMED_UNIT(*)
PLANE_ANGLE_UNIT()
SI_UNIT($,.RADIAN.)
);
#1474=(
NAMED_UNIT(*)
SI_UNIT($,.STERADIAN.)
SOLID_ANGLE_UNIT()
);
#1475=SHAPE_DEFINITION_REPRESENTATION(#1476,#1477);
#1476=PRODUCT_DEFINITION_SHAPE('',$,#1479);
#1477=SHAPE_REPRESENTATION('',(#940),#1466);
#1478=PRODUCT_DEFINITION_CONTEXT('part definition',#1483,'design');
#1479=PRODUCT_DEFINITION('geometric','geometric v1',#1480,#1478);
#1480=PRODUCT_DEFINITION_FORMATION('',$,#1485);
#1481=PRODUCT_RELATED_PRODUCT_CATEGORY('geometric v1','geometric v1',(#1485));
#1482=APPLICATION_PROTOCOL_DEFINITION('international standard',
'automotive_design',2009,#1483);
#1483=APPLICATION_CONTEXT(
'Core Data for Automotive Mechanical Design Process');
#1484=PRODUCT_CONTEXT('part definition',#1483,'mechanical');
#1485=PRODUCT('geometric','geometric v1',$,(#1484));
#1486=PRESENTATION_STYLE_ASSIGNMENT((#1487));
#1487=SURFACE_STYLE_USAGE(.BOTH.,#1488);
#1488=SURFACE_SIDE_STYLE('',(#1489));
#1489=SURFACE_STYLE_FILL_AREA(#1490);
#1490=FILL_AREA_STYLE('Steel - Satin',(#1491));
#1491=FILL_AREA_STYLE_COLOUR('Steel - Satin',#1492);
#1492=COLOUR_RGB('Steel - Satin',0.627450980392157,0.627450980392157,0.627450980392157);
ENDSEC;
END-ISO-10303-21;
