# WaveFront *.obj file (generated by Autodesk ATF)

mtllib geometric v1.mtl

g Body1

v 1.270000 1.270000 0.381000
v 1.270000 -1.270000 0.381000
v -1.270000 -1.270000 0.381000
v -1.270000 1.270000 0.381000
v 1.524000 -1.524000 0.381000
v 1.524000 1.524000 0.381000
v -1.524000 1.524000 0.381000
v -1.524000 -1.524000 0.381000
v 1.270000 -1.270000 0.000000
v -1.270000 -1.270000 0.000000
v 1.270000 1.270000 0.000000
v 1.524000 1.524000 0.000000
v -1.524000 1.524000 0.000000
v 1.524000 -1.524000 0.000000
v -1.270000 1.270000 0.000000
v -1.524000 -1.524000 0.000000
vt 1.270000 -1.270000 0.000000
vt 1.524000 -1.524000 0.000000
vt 1.270000 1.270000 0.000000
vt 1.524000 1.524000 0.000000
vt -1.524000 1.524000 0.000000
vt -1.270000 -1.270000 0.000000
vt -1.524000 -1.524000 0.000000
vt -1.270000 1.270000 0.000000
vt 2.540000 0.381000 0.000000
vt -0.000000 0.381000 0.000000
vt 2.540000 0.000000 0.000000
vt -0.000000 0.000000 0.000000
vt 2.540000 0.381000 0.000000
vt -0.000000 0.381000 0.000000
vt 2.540000 0.000000 0.000000
vt -0.000000 0.000000 0.000000
vt 3.048000 0.381000 0.000000
vt 0.000000 0.381000 0.000000
vt 3.048000 0.000000 0.000000
vt 0.000000 0.000000 0.000000
vt 3.048000 0.381000 0.000000
vt 0.000000 0.381000 0.000000
vt 3.048000 0.000000 0.000000
vt 0.000000 0.000000 0.000000
vt 2.540000 0.381000 0.000000
vt 0.000000 0.381000 0.000000
vt 2.540000 0.000000 0.000000
vt 0.000000 0.000000 0.000000
vt 2.540000 0.381000 0.000000
vt 0.000000 0.381000 0.000000
vt 2.540000 0.000000 0.000000
vt 0.000000 0.000000 0.000000
vt 3.048000 0.381000 0.000000
vt 0.000000 0.381000 0.000000
vt 3.048000 0.000000 0.000000
vt 0.000000 0.000000 0.000000
vt 3.048000 0.381000 0.000000
vt 0.000000 0.381000 0.000000
vt 3.048000 0.000000 0.000000
vt 0.000000 0.000000 0.000000
vt -1.270000 1.270000 0.000000
vt -1.524000 -1.524000 0.000000
vt -1.270000 -1.270000 0.000000
vt 1.524000 -1.524000 0.000000
vt 1.270000 -1.270000 0.000000
vt 1.270000 1.270000 0.000000
vt 1.524000 1.524000 0.000000
vt -1.524000 1.524000 0.000000
vn -0.000000 -0.000000 1.000000
vn -0.000000 -0.000000 1.000000
vn -0.000000 -0.000000 1.000000
vn -0.000000 -0.000000 1.000000
vn -0.000000 -0.000000 1.000000
vn -0.000000 -0.000000 1.000000
vn -0.000000 -0.000000 1.000000
vn -0.000000 -0.000000 1.000000
vn 0.000000 1.000000 0.000000
vn 0.000000 1.000000 0.000000
vn 0.000000 1.000000 0.000000
vn 0.000000 1.000000 0.000000
vn -1.000000 0.000000 0.000000
vn -1.000000 0.000000 0.000000
vn -1.000000 0.000000 0.000000
vn -1.000000 0.000000 0.000000
vn 0.000000 1.000000 -0.000000
vn 0.000000 1.000000 -0.000000
vn 0.000000 1.000000 -0.000000
vn 0.000000 1.000000 -0.000000
vn 1.000000 0.000000 0.000000
vn 1.000000 0.000000 0.000000
vn 1.000000 0.000000 0.000000
vn 1.000000 0.000000 0.000000
vn 0.000000 -1.000000 0.000000
vn 0.000000 -1.000000 0.000000
vn 0.000000 -1.000000 0.000000
vn 0.000000 -1.000000 0.000000
vn 1.000000 0.000000 -0.000000
vn 1.000000 0.000000 -0.000000
vn 1.000000 0.000000 -0.000000
vn 1.000000 0.000000 -0.000000
vn 0.000000 -1.000000 0.000000
vn 0.000000 -1.000000 0.000000
vn 0.000000 -1.000000 0.000000
vn 0.000000 -1.000000 0.000000
vn -1.000000 0.000000 0.000000
vn -1.000000 0.000000 0.000000
vn -1.000000 0.000000 0.000000
vn -1.000000 0.000000 0.000000
vn -0.000000 -0.000000 -1.000000
vn -0.000000 -0.000000 -1.000000
vn -0.000000 -0.000000 -1.000000
vn -0.000000 -0.000000 -1.000000
vn -0.000000 -0.000000 -1.000000
vn -0.000000 -0.000000 -1.000000
vn -0.000000 -0.000000 -1.000000
vn -0.000000 -0.000000 -1.000000
usemtl Steel_-_Satin
f 2/1/1 5/2/2 1/3/3
f 1/3/3 5/2/2 6/4/4
f 1/3/3 6/4/4 7/5/5
f 2/1/1 3/6/6 5/2/2
f 5/2/2 3/6/6 8/7/7
f 8/7/7 3/6/6 4/8/8
f 8/7/7 4/8/8 7/5/5
f 7/5/5 4/8/8 1/3/3
f 3/9/9 2/10/10 10/11/11
f 10/11/11 2/10/10 9/12/12
f 2/13/13 1/14/14 9/15/15
f 9/15/15 1/14/14 11/16/16
f 7/17/17 6/18/18 13/19/19
f 13/19/19 6/18/18 12/20/20
f 6/21/21 5/22/22 12/23/23
f 12/23/23 5/22/22 14/24/24
f 1/25/25 4/26/26 11/27/27
f 11/27/27 4/26/26 15/28/28
f 4/29/29 3/30/30 15/31/31
f 15/31/31 3/30/30 10/32/32
f 5/33/33 8/34/34 14/35/35
f 14/35/35 8/34/34 16/36/36
f 8/37/37 7/38/38 16/39/39
f 16/39/39 7/38/38 13/40/40
f 11/41/41 14/42/42 9/43/43
f 9/43/43 14/42/42 16/44/44
f 9/43/43 16/44/44 10/45/45
f 10/45/45 16/44/44 15/46/46
f 15/46/46 16/44/44 13/47/47
f 15/46/46 13/47/47 12/48/48
f 14/42/42 11/41/41 12/48/48
f 12/48/48 11/41/41 15/46/46
g Body2

v 1.778000 1.778000 0.254000
v 1.778000 -1.778000 0.254000
v -1.778000 -1.778000 0.254000
v -1.778000 1.778000 0.254000
v 2.032000 -2.032000 0.254000
v 2.032000 2.032000 0.254000
v -2.032000 2.032000 0.254000
v -2.032000 -2.032000 0.254000
v 1.778000 -1.778000 0.000000
v -1.778000 -1.778000 0.000000
v 1.778000 1.778000 0.000000
v 2.032000 2.032000 0.000000
v -2.032000 2.032000 0.000000
v 2.032000 -2.032000 0.000000
v -1.778000 1.778000 0.000000
v -2.032000 -2.032000 0.000000
vt 1.778000 -1.778000 0.000000
vt 2.032000 -2.032000 0.000000
vt 1.778000 1.778000 0.000000
vt 2.032000 2.032000 0.000000
vt -2.032000 2.032000 0.000000
vt -1.778000 -1.778000 0.000000
vt -2.032000 -2.032000 0.000000
vt -1.778000 1.778000 0.000000
vt 3.556000 0.254000 0.000000
vt -0.000000 0.254000 0.000000
vt 3.556000 0.000000 0.000000
vt -0.000000 0.000000 0.000000
vt 3.556000 0.254000 0.000000
vt -0.000000 0.254000 0.000000
vt 3.556000 0.000000 0.000000
vt -0.000000 0.000000 0.000000
vt 4.064000 0.254000 0.000000
vt 0.000000 0.254000 0.000000
vt 4.064000 0.000000 0.000000
vt 0.000000 0.000000 0.000000
vt 4.064000 0.254000 0.000000
vt 0.000000 0.254000 0.000000
vt 4.064000 0.000000 0.000000
vt 0.000000 0.000000 0.000000
vt 3.556000 0.254000 0.000000
vt 0.000000 0.254000 0.000000
vt 3.556000 0.000000 0.000000
vt 0.000000 0.000000 0.000000
vt 3.556000 0.254000 0.000000
vt 0.000000 0.254000 0.000000
vt 3.556000 0.000000 0.000000
vt 0.000000 0.000000 0.000000
vt 4.064000 0.254000 0.000000
vt 0.000000 0.254000 0.000000
vt 4.064000 0.000000 0.000000
vt 0.000000 0.000000 0.000000
vt 4.064000 0.254000 0.000000
vt 0.000000 0.254000 0.000000
vt 4.064000 0.000000 0.000000
vt 0.000000 0.000000 0.000000
vt -1.778000 1.778000 0.000000
vt -2.032000 -2.032000 0.000000
vt -1.778000 -1.778000 0.000000
vt 2.032000 -2.032000 0.000000
vt 1.778000 -1.778000 0.000000
vt 1.778000 1.778000 0.000000
vt 2.032000 2.032000 0.000000
vt -2.032000 2.032000 0.000000
vn -0.000000 -0.000000 1.000000
vn -0.000000 -0.000000 1.000000
vn -0.000000 -0.000000 1.000000
vn -0.000000 -0.000000 1.000000
vn -0.000000 -0.000000 1.000000
vn -0.000000 -0.000000 1.000000
vn -0.000000 -0.000000 1.000000
vn -0.000000 -0.000000 1.000000
vn 0.000000 1.000000 0.000000
vn 0.000000 1.000000 0.000000
vn 0.000000 1.000000 0.000000
vn 0.000000 1.000000 0.000000
vn -1.000000 0.000000 0.000000
vn -1.000000 0.000000 0.000000
vn -1.000000 0.000000 0.000000
vn -1.000000 0.000000 0.000000
vn 0.000000 1.000000 -0.000000
vn 0.000000 1.000000 -0.000000
vn 0.000000 1.000000 -0.000000
vn 0.000000 1.000000 -0.000000
vn 1.000000 0.000000 0.000000
vn 1.000000 0.000000 0.000000
vn 1.000000 0.000000 0.000000
vn 1.000000 0.000000 0.000000
vn 0.000000 -1.000000 0.000000
vn 0.000000 -1.000000 0.000000
vn 0.000000 -1.000000 0.000000
vn 0.000000 -1.000000 0.000000
vn 1.000000 0.000000 -0.000000
vn 1.000000 0.000000 -0.000000
vn 1.000000 0.000000 -0.000000
vn 1.000000 0.000000 -0.000000
vn 0.000000 -1.000000 0.000000
vn 0.000000 -1.000000 0.000000
vn 0.000000 -1.000000 0.000000
vn 0.000000 -1.000000 0.000000
vn -1.000000 0.000000 0.000000
vn -1.000000 0.000000 0.000000
vn -1.000000 0.000000 0.000000
vn -1.000000 0.000000 0.000000
vn -0.000000 -0.000000 -1.000000
vn -0.000000 -0.000000 -1.000000
vn -0.000000 -0.000000 -1.000000
vn -0.000000 -0.000000 -1.000000
vn -0.000000 -0.000000 -1.000000
vn -0.000000 -0.000000 -1.000000
vn -0.000000 -0.000000 -1.000000
vn -0.000000 -0.000000 -1.000000
f 18/49/49 21/50/50 17/51/51
f 17/51/51 21/50/50 22/52/52
f 17/51/51 22/52/52 23/53/53
f 18/49/49 19/54/54 21/50/50
f 21/50/50 19/54/54 24/55/55
f 24/55/55 19/54/54 20/56/56
f 24/55/55 20/56/56 23/53/53
f 23/53/53 20/56/56 17/51/51
f 19/57/57 18/58/58 26/59/59
f 26/59/59 18/58/58 25/60/60
f 18/61/61 17/62/62 25/63/63
f 25/63/63 17/62/62 27/64/64
f 23/65/65 22/66/66 29/67/67
f 29/67/67 22/66/66 28/68/68
f 22/69/69 21/70/70 28/71/71
f 28/71/71 21/70/70 30/72/72
f 17/73/73 20/74/74 27/75/75
f 27/75/75 20/74/74 31/76/76
f 20/77/77 19/78/78 31/79/79
f 31/79/79 19/78/78 26/80/80
f 21/81/81 24/82/82 30/83/83
f 30/83/83 24/82/82 32/84/84
f 24/85/85 23/86/86 32/87/87
f 32/87/87 23/86/86 29/88/88
f 27/89/89 30/90/90 25/91/91
f 25/91/91 30/90/90 32/92/92
f 25/91/91 32/92/92 26/93/93
f 26/93/93 32/92/92 31/94/94
f 31/94/94 32/92/92 29/95/95
f 31/94/94 29/95/95 28/96/96
f 30/90/90 27/89/89 28/96/96
f 28/96/96 27/89/89 31/94/94
g Body3

v 0.762000 0.762000 0.508000
v 0.762000 -0.762000 0.508000
v -0.762000 -0.762000 0.508000
v -0.762000 0.762000 0.508000
v 1.016000 -1.016000 0.508000
v 1.016000 1.016000 0.508000
v -1.016000 1.016000 0.508000
v -1.016000 -1.016000 0.508000
v 0.762000 -0.762000 0.000000
v -0.762000 -0.762000 0.000000
v 0.762000 0.762000 0.000000
v 1.016000 1.016000 0.000000
v -1.016000 1.016000 0.000000
v 1.016000 -1.016000 0.000000
v -0.762000 0.762000 0.000000
v -1.016000 -1.016000 0.000000
vt 0.762000 -0.762000 0.000000
vt 1.016000 -1.016000 0.000000
vt 0.762000 0.762000 0.000000
vt 1.016000 1.016000 0.000000
vt -1.016000 1.016000 0.000000
vt -0.762000 -0.762000 0.000000
vt -1.016000 -1.016000 0.000000
vt -0.762000 0.762000 0.000000
vt 1.524000 0.508000 0.000000
vt -0.000000 0.508000 0.000000
vt 1.524000 0.000000 0.000000
vt -0.000000 0.000000 0.000000
vt 1.524000 0.508000 0.000000
vt -0.000000 0.508000 0.000000
vt 1.524000 0.000000 0.000000
vt -0.000000 0.000000 0.000000
vt 2.032000 0.508000 0.000000
vt 0.000000 0.508000 0.000000
vt 2.032000 0.000000 0.000000
vt 0.000000 0.000000 0.000000
vt 2.032000 0.508000 0.000000
vt 0.000000 0.508000 0.000000
vt 2.032000 0.000000 0.000000
vt 0.000000 0.000000 0.000000
vt 1.524000 0.508000 0.000000
vt 0.000000 0.508000 0.000000
vt 1.524000 0.000000 0.000000
vt 0.000000 0.000000 0.000000
vt 1.524000 0.508000 0.000000
vt 0.000000 0.508000 0.000000
vt 1.524000 0.000000 0.000000
vt 0.000000 0.000000 0.000000
vt 2.032000 0.508000 0.000000
vt 0.000000 0.508000 0.000000
vt 2.032000 0.000000 0.000000
vt 0.000000 0.000000 0.000000
vt 2.032000 0.508000 0.000000
vt 0.000000 0.508000 0.000000
vt 2.032000 0.000000 0.000000
vt 0.000000 0.000000 0.000000
vt -0.762000 0.762000 0.000000
vt -1.016000 -1.016000 0.000000
vt -0.762000 -0.762000 0.000000
vt 1.016000 -1.016000 0.000000
vt 0.762000 -0.762000 0.000000
vt 0.762000 0.762000 0.000000
vt 1.016000 1.016000 0.000000
vt -1.016000 1.016000 0.000000
vn -0.000000 -0.000000 1.000000
vn -0.000000 -0.000000 1.000000
vn -0.000000 -0.000000 1.000000
vn -0.000000 -0.000000 1.000000
vn -0.000000 -0.000000 1.000000
vn -0.000000 -0.000000 1.000000
vn -0.000000 -0.000000 1.000000
vn -0.000000 -0.000000 1.000000
vn 0.000000 1.000000 0.000000
vn 0.000000 1.000000 0.000000
vn 0.000000 1.000000 0.000000
vn 0.000000 1.000000 0.000000
vn -1.000000 0.000000 0.000000
vn -1.000000 0.000000 0.000000
vn -1.000000 0.000000 0.000000
vn -1.000000 0.000000 0.000000
vn 0.000000 1.000000 -0.000000
vn 0.000000 1.000000 -0.000000
vn 0.000000 1.000000 -0.000000
vn 0.000000 1.000000 -0.000000
vn 1.000000 0.000000 0.000000
vn 1.000000 0.000000 0.000000
vn 1.000000 0.000000 0.000000
vn 1.000000 0.000000 0.000000
vn 0.000000 -1.000000 0.000000
vn 0.000000 -1.000000 0.000000
vn 0.000000 -1.000000 0.000000
vn 0.000000 -1.000000 0.000000
vn 1.000000 0.000000 -0.000000
vn 1.000000 0.000000 -0.000000
vn 1.000000 0.000000 -0.000000
vn 1.000000 0.000000 -0.000000
vn 0.000000 -1.000000 0.000000
vn 0.000000 -1.000000 0.000000
vn 0.000000 -1.000000 0.000000
vn 0.000000 -1.000000 0.000000
vn -1.000000 0.000000 0.000000
vn -1.000000 0.000000 0.000000
vn -1.000000 0.000000 0.000000
vn -1.000000 0.000000 0.000000
vn -0.000000 -0.000000 -1.000000
vn -0.000000 -0.000000 -1.000000
vn -0.000000 -0.000000 -1.000000
vn -0.000000 -0.000000 -1.000000
vn -0.000000 -0.000000 -1.000000
vn -0.000000 -0.000000 -1.000000
vn -0.000000 -0.000000 -1.000000
vn -0.000000 -0.000000 -1.000000
f 34/97/97 37/98/98 33/99/99
f 33/99/99 37/98/98 38/100/100
f 33/99/99 38/100/100 39/101/101
f 34/97/97 35/102/102 37/98/98
f 37/98/98 35/102/102 40/103/103
f 40/103/103 35/102/102 36/104/104
f 40/103/103 36/104/104 39/101/101
f 39/101/101 36/104/104 33/99/99
f 35/105/105 34/106/106 42/107/107
f 42/107/107 34/106/106 41/108/108
f 34/109/109 33/110/110 41/111/111
f 41/111/111 33/110/110 43/112/112
f 39/113/113 38/114/114 45/115/115
f 45/115/115 38/114/114 44/116/116
f 38/117/117 37/118/118 44/119/119
f 44/119/119 37/118/118 46/120/120
f 33/121/121 36/122/122 43/123/123
f 43/123/123 36/122/122 47/124/124
f 36/125/125 35/126/126 47/127/127
f 47/127/127 35/126/126 42/128/128
f 37/129/129 40/130/130 46/131/131
f 46/131/131 40/130/130 48/132/132
f 40/133/133 39/134/134 48/135/135
f 48/135/135 39/134/134 45/136/136
f 43/137/137 46/138/138 41/139/139
f 41/139/139 46/138/138 48/140/140
f 41/139/139 48/140/140 42/141/141
f 42/141/141 48/140/140 47/142/142
f 47/142/142 48/140/140 45/143/143
f 47/142/142 45/143/143 44/144/144
f 46/138/138 43/137/137 44/144/144
f 44/144/144 43/137/137 47/142/142
g Body4

v 2.286000 2.286000 0.127000
v 2.286000 -2.286000 0.127000
v -2.286000 -2.286000 0.127000
v -2.286000 2.286000 0.127000
v 2.540000 -2.540000 0.127000
v 2.540000 2.540000 0.127000
v -2.540000 2.540000 0.127000
v -2.540000 -2.540000 0.127000
v 2.286000 -2.286000 0.000000
v -2.286000 -2.286000 0.000000
v 2.286000 2.286000 0.000000
v 2.540000 2.540000 0.000000
v -2.540000 2.540000 0.000000
v 2.540000 -2.540000 0.000000
v -2.286000 2.286000 0.000000
v -2.540000 -2.540000 0.000000
vt 2.286000 -2.286000 0.000000
vt 2.540000 -2.540000 0.000000
vt 2.286000 2.286000 0.000000
vt 2.540000 2.540000 0.000000
vt -2.540000 2.540000 0.000000
vt -2.286000 -2.286000 0.000000
vt -2.540000 -2.540000 0.000000
vt -2.286000 2.286000 0.000000
vt 4.572000 0.127000 0.000000
vt -0.000000 0.127000 0.000000
vt 4.572000 0.000000 0.000000
vt -0.000000 0.000000 0.000000
vt 4.572000 0.127000 0.000000
vt -0.000000 0.127000 0.000000
vt 4.572000 0.000000 0.000000
vt -0.000000 0.000000 0.000000
vt 5.080000 0.127000 0.000000
vt 0.000000 0.127000 0.000000
vt 5.080000 0.000000 0.000000
vt 0.000000 0.000000 0.000000
vt 5.080000 0.127000 0.000000
vt 0.000000 0.127000 0.000000
vt 5.080000 0.000000 0.000000
vt 0.000000 0.000000 0.000000
vt 4.572000 0.127000 0.000000
vt 0.000000 0.127000 0.000000
vt 4.572000 0.000000 0.000000
vt 0.000000 0.000000 0.000000
vt 4.572000 0.127000 0.000000
vt 0.000000 0.127000 0.000000
vt 4.572000 0.000000 0.000000
vt 0.000000 0.000000 0.000000
vt 5.080000 0.127000 0.000000
vt 0.000000 0.127000 0.000000
vt 5.080000 0.000000 0.000000
vt 0.000000 0.000000 0.000000
vt 5.080000 0.127000 0.000000
vt 0.000000 0.127000 0.000000
vt 5.080000 0.000000 0.000000
vt 0.000000 0.000000 0.000000
vt -2.286000 2.286000 0.000000
vt -2.540000 -2.540000 0.000000
vt -2.286000 -2.286000 0.000000
vt 2.540000 -2.540000 0.000000
vt 2.286000 -2.286000 0.000000
vt 2.286000 2.286000 0.000000
vt 2.540000 2.540000 0.000000
vt -2.540000 2.540000 0.000000
vn -0.000000 -0.000000 1.000000
vn -0.000000 -0.000000 1.000000
vn -0.000000 -0.000000 1.000000
vn -0.000000 -0.000000 1.000000
vn -0.000000 -0.000000 1.000000
vn -0.000000 -0.000000 1.000000
vn -0.000000 -0.000000 1.000000
vn -0.000000 -0.000000 1.000000
vn 0.000000 1.000000 0.000000
vn 0.000000 1.000000 0.000000
vn 0.000000 1.000000 0.000000
vn 0.000000 1.000000 0.000000
vn -1.000000 0.000000 0.000000
vn -1.000000 0.000000 0.000000
vn -1.000000 0.000000 0.000000
vn -1.000000 0.000000 0.000000
vn 0.000000 1.000000 -0.000000
vn 0.000000 1.000000 -0.000000
vn 0.000000 1.000000 -0.000000
vn 0.000000 1.000000 -0.000000
vn 1.000000 0.000000 0.000000
vn 1.000000 0.000000 0.000000
vn 1.000000 0.000000 0.000000
vn 1.000000 0.000000 0.000000
vn 0.000000 -1.000000 0.000000
vn 0.000000 -1.000000 0.000000
vn 0.000000 -1.000000 0.000000
vn 0.000000 -1.000000 0.000000
vn 1.000000 0.000000 -0.000000
vn 1.000000 0.000000 -0.000000
vn 1.000000 0.000000 -0.000000
vn 1.000000 0.000000 -0.000000
vn 0.000000 -1.000000 0.000000
vn 0.000000 -1.000000 0.000000
vn 0.000000 -1.000000 0.000000
vn 0.000000 -1.000000 0.000000
vn -1.000000 0.000000 0.000000
vn -1.000000 0.000000 0.000000
vn -1.000000 0.000000 0.000000
vn -1.000000 0.000000 0.000000
vn -0.000000 -0.000000 -1.000000
vn -0.000000 -0.000000 -1.000000
vn -0.000000 -0.000000 -1.000000
vn -0.000000 -0.000000 -1.000000
vn -0.000000 -0.000000 -1.000000
vn -0.000000 -0.000000 -1.000000
vn -0.000000 -0.000000 -1.000000
vn -0.000000 -0.000000 -1.000000
f 50/145/145 53/146/146 49/147/147
f 49/147/147 53/146/146 54/148/148
f 49/147/147 54/148/148 55/149/149
f 50/145/145 51/150/150 53/146/146
f 53/146/146 51/150/150 56/151/151
f 56/151/151 51/150/150 52/152/152
f 56/151/151 52/152/152 55/149/149
f 55/149/149 52/152/152 49/147/147
f 51/153/153 50/154/154 58/155/155
f 58/155/155 50/154/154 57/156/156
f 50/157/157 49/158/158 57/159/159
f 57/159/159 49/158/158 59/160/160
f 55/161/161 54/162/162 61/163/163
f 61/163/163 54/162/162 60/164/164
f 54/165/165 53/166/166 60/167/167
f 60/167/167 53/166/166 62/168/168
f 49/169/169 52/170/170 59/171/171
f 59/171/171 52/170/170 63/172/172
f 52/173/173 51/174/174 63/175/175
f 63/175/175 51/174/174 58/176/176
f 53/177/177 56/178/178 62/179/179
f 62/179/179 56/178/178 64/180/180
f 56/181/181 55/182/182 64/183/183
f 64/183/183 55/182/182 61/184/184
f 59/185/185 62/186/186 57/187/187
f 57/187/187 62/186/186 64/188/188
f 57/187/187 64/188/188 58/189/189
f 58/189/189 64/188/188 63/190/190
f 63/190/190 64/188/188 61/191/191
f 63/190/190 61/191/191 60/192/192
f 62/186/186 59/185/185 60/192/192
f 60/192/192 59/185/185 63/190/190
g Body5

v -0.254000 0.254000 0.000000
v 0.254000 0.254000 0.000000
v 0.254000 0.254000 0.635000
v -0.254000 0.254000 0.635000
v -0.254000 -0.254000 0.000000
v -0.254000 -0.254000 0.635000
v 0.254000 -0.254000 0.000000
v 0.254000 -0.254000 0.635000
v -0.508000 -0.508000 0.000000
v 0.508000 -0.508000 0.000000
v 0.508000 -0.508000 0.635000
v -0.508000 -0.508000 0.635000
v -0.508000 0.508000 0.000000
v -0.508000 0.508000 0.635000
v 0.508000 0.508000 0.000000
v 0.508000 0.508000 0.635000
vt 0.000000 0.000000 0.000000
vt 0.508000 0.000000 0.000000
vt 0.000000 0.635000 0.000000
vt 0.508000 0.635000 0.000000
vt 0.000000 0.000000 0.000000
vt 0.508000 0.000000 0.000000
vt 0.000000 0.635000 0.000000
vt 0.508000 0.635000 0.000000
vt -0.000000 0.000000 0.000000
vt 0.508000 0.000000 0.000000
vt -0.000000 0.635000 0.000000
vt 0.508000 0.635000 0.000000
vt -0.000000 0.000000 0.000000
vt 0.508000 0.000000 0.000000
vt -0.000000 0.635000 0.000000
vt 0.508000 0.635000 0.000000
vt 0.000000 0.000000 0.000000
vt 1.016000 0.000000 0.000000
vt 0.000000 0.635000 0.000000
vt 1.016000 0.635000 0.000000
vt 0.000000 0.000000 0.000000
vt 1.016000 0.000000 0.000000
vt 0.000000 0.635000 0.000000
vt 1.016000 0.635000 0.000000
vt 0.000000 0.000000 0.000000
vt 1.016000 0.000000 0.000000
vt 0.000000 0.635000 0.000000
vt 1.016000 0.635000 0.000000
vt 0.000000 0.000000 0.000000
vt 1.016000 0.000000 0.000000
vt 0.000000 0.635000 0.000000
vt 1.016000 0.635000 0.000000
vt 0.254000 -0.254000 0.000000
vt 0.508000 -0.508000 0.000000
vt 0.254000 0.254000 0.000000
vt 0.508000 0.508000 0.000000
vt -0.508000 0.508000 0.000000
vt -0.254000 -0.254000 0.000000
vt -0.508000 -0.508000 0.000000
vt -0.254000 0.254000 0.000000
vt -0.254000 0.254000 0.000000
vt -0.508000 -0.508000 0.000000
vt -0.254000 -0.254000 0.000000
vt 0.508000 -0.508000 0.000000
vt 0.254000 -0.254000 0.000000
vt 0.254000 0.254000 0.000000
vt 0.508000 0.508000 0.000000
vt -0.508000 0.508000 0.000000
vn 0.000000 -1.000000 0.000000
vn 0.000000 -1.000000 0.000000
vn 0.000000 -1.000000 0.000000
vn 0.000000 -1.000000 0.000000
vn 1.000000 0.000000 -0.000000
vn 1.000000 0.000000 -0.000000
vn 1.000000 0.000000 -0.000000
vn 1.000000 0.000000 -0.000000
vn 0.000000 1.000000 0.000000
vn 0.000000 1.000000 0.000000
vn 0.000000 1.000000 0.000000
vn 0.000000 1.000000 0.000000
vn -1.000000 0.000000 0.000000
vn -1.000000 0.000000 0.000000
vn -1.000000 0.000000 0.000000
vn -1.000000 0.000000 0.000000
vn 0.000000 -1.000000 0.000000
vn 0.000000 -1.000000 0.000000
vn 0.000000 -1.000000 0.000000
vn 0.000000 -1.000000 0.000000
vn -1.000000 0.000000 0.000000
vn -1.000000 0.000000 0.000000
vn -1.000000 0.000000 0.000000
vn -1.000000 0.000000 0.000000
vn 0.000000 1.000000 -0.000000
vn 0.000000 1.000000 -0.000000
vn 0.000000 1.000000 -0.000000
vn 0.000000 1.000000 -0.000000
vn 1.000000 0.000000 0.000000
vn 1.000000 0.000000 0.000000
vn 1.000000 0.000000 0.000000
vn 1.000000 0.000000 0.000000
vn 0.000000 0.000000 1.000000
vn 0.000000 0.000000 1.000000
vn 0.000000 0.000000 1.000000
vn 0.000000 0.000000 1.000000
vn 0.000000 0.000000 1.000000
vn 0.000000 0.000000 1.000000
vn 0.000000 0.000000 1.000000
vn 0.000000 0.000000 1.000000
vn -0.000000 -0.000000 -1.000000
vn -0.000000 -0.000000 -1.000000
vn -0.000000 -0.000000 -1.000000
vn -0.000000 -0.000000 -1.000000
vn -0.000000 -0.000000 -1.000000
vn -0.000000 -0.000000 -1.000000
vn -0.000000 -0.000000 -1.000000
vn -0.000000 -0.000000 -1.000000
f 65/193/193 66/194/194 68/195/195
f 68/195/195 66/194/194 67/196/196
f 69/197/197 65/198/198 70/199/199
f 70/199/199 65/198/198 68/200/200
f 71/201/201 69/202/202 72/203/203
f 72/203/203 69/202/202 70/204/204
f 66/205/205 71/206/206 67/207/207
f 67/207/207 71/206/206 72/208/208
f 73/209/209 74/210/210 76/211/211
f 76/211/211 74/210/210 75/212/212
f 77/213/213 73/214/214 78/215/215
f 78/215/215 73/214/214 76/216/216
f 79/217/217 77/218/218 80/219/219
f 80/219/219 77/218/218 78/220/220
f 74/221/221 79/222/222 75/223/223
f 75/223/223 79/222/222 80/224/224
f 72/225/225 75/226/226 67/227/227
f 67/227/227 75/226/226 80/228/228
f 67/227/227 80/228/228 78/229/229
f 72/225/225 70/230/230 75/226/226
f 75/226/226 70/230/230 76/231/231
f 76/231/231 70/230/230 68/232/232
f 76/231/231 68/232/232 78/229/229
f 78/229/229 68/232/232 67/227/227
f 66/233/233 74/234/234 71/235/235
f 71/235/235 74/234/234 73/236/236
f 71/235/235 73/236/236 69/237/237
f 69/237/237 73/236/236 65/238/238
f 65/238/238 73/236/236 77/239/239
f 65/238/238 77/239/239 79/240/240
f 74/234/234 66/233/233 79/240/240
f 79/240/240 66/233/233 65/238/238
# 80 vertices
# 240 texture params
# 240 normals
# 160 facets

# 5 groups
